<svg width="365" height="362" viewBox="0 0 365 362" fill="none" xmlns="http://www.w3.org/2000/svg">
<path opacity="0.3" d="M318.493 310.703C311.103 318.483 304.111 323.5 298.587 327.464C233.649 374.058 156.804 360.476 140.479 357.164C116.364 352.263 69.7514 342.793 36.0501 303.162C-14.9365 243.202 -6.99632 148.739 32.552 86.387C39.7858 74.9758 77.9937 11.6691 155.665 1.51704C202.668 -4.62691 257.458 7.76429 297.136 41.0072C380.422 110.785 374.493 251.748 318.493 310.703Z" fill="#82C341"/>
<path d="M18.6182 76.3343C18.5153 76.2862 18.4282 76.2097 18.3671 76.1139C18.306 76.0181 18.2736 75.9068 18.2734 75.7932C18.2734 75.012 18.3006 74.2178 18.3393 73.4314C18.3435 73.3546 18.3631 73.2794 18.3967 73.2102C18.4304 73.141 18.4776 73.0793 18.5354 73.0285C18.5932 72.9778 18.6606 72.9391 18.7336 72.9147C18.8066 72.8903 18.8837 72.8807 18.9604 72.8865C19.7545 72.933 19.4769 73.7078 19.4601 75.8216C19.4595 75.8986 19.4434 75.9746 19.4129 76.0453C19.3824 76.1159 19.338 76.1798 19.2824 76.233C19.2267 76.2862 19.161 76.3277 19.0891 76.3551C19.0172 76.3825 18.9405 76.3951 18.8636 76.3924C18.7786 76.3907 18.6949 76.3709 18.6182 76.3343Z" fill="#EAC4F9"/>
<path d="M19.1713 66.1279C19.4386 64.6507 19.7692 63.1657 20.1527 61.7143C20.1731 61.6398 20.2081 61.5701 20.2557 61.5092C20.3033 61.4483 20.3626 61.3976 20.43 61.3598C20.4974 61.3221 20.5717 61.2982 20.6484 61.2894C20.7252 61.2806 20.8029 61.2873 20.8771 61.3088C21.741 61.5503 21.1276 61.9984 20.3412 66.3526C20.327 66.4285 20.2979 66.5008 20.2554 66.5652C20.213 66.6297 20.1581 66.6851 20.0941 66.7281C20.03 66.7711 19.958 66.801 19.8823 66.8159C19.8065 66.8308 19.7286 66.8304 19.653 66.8149C19.4986 66.7865 19.3615 66.6986 19.2714 66.5701C19.1813 66.4415 19.1454 66.2827 19.1713 66.1279ZM22.4796 54.7581C23.0478 53.3623 23.6831 51.9625 24.3455 50.6467C24.7006 49.939 25.753 50.5033 25.4108 51.1813C24.7523 52.4932 24.1389 53.8439 23.5824 55.2101C23.5175 55.349 23.4017 55.4576 23.2589 55.5133C23.1162 55.5691 22.9574 55.5678 22.8156 55.5097C22.6738 55.4515 22.5598 55.3411 22.4972 55.2011C22.4346 55.0612 22.4283 54.9026 22.4796 54.7581ZM28.0567 44.3219C28.8973 43.081 29.7999 41.8582 30.7387 40.687C31.2229 40.0826 32.1591 40.8161 31.6762 41.4217C30.7555 42.5697 29.8684 43.768 29.0471 44.9831C28.6132 45.6236 27.6241 44.9585 28.0567 44.3219ZM35.6985 36.0913C35.6435 36.0373 35.5998 35.9729 35.57 35.9018C35.5401 35.8308 35.5248 35.7545 35.5248 35.6774C35.5248 35.6003 35.5401 35.524 35.57 35.453C35.5998 35.3819 35.6435 35.3175 35.6985 35.2636C36.7832 34.2228 37.9247 33.213 39.092 32.2587C39.6925 31.7693 40.4595 32.6758 39.8591 33.1626C38.7163 34.0975 37.5967 35.0879 36.534 36.1068C36.4201 36.2135 36.2691 36.2716 36.1131 36.2687C35.9571 36.2658 35.8083 36.2021 35.6985 36.0913ZM44.9209 28.7774C44.8782 28.7135 44.8487 28.6416 44.8343 28.566C44.8199 28.4904 44.8209 28.4127 44.8372 28.3376C44.8534 28.2624 44.8847 28.1912 44.929 28.1284C44.9733 28.0655 45.0299 28.0122 45.0952 27.9717C46.3775 27.1736 47.7075 26.4221 49.0492 25.7222C49.7387 25.3658 50.3056 26.4014 49.616 26.7553C48.3015 27.4358 46.9973 28.1757 45.7422 28.9595C45.6084 29.0418 45.4479 29.0688 45.2947 29.0348C45.1414 29.0008 45.0073 28.9085 44.9209 28.7774ZM55.791 23.8137C55.6523 23.7482 55.5438 23.6323 55.4875 23.4896C55.4588 23.4183 55.4449 23.3419 55.4464 23.265C55.4479 23.1881 55.4649 23.1124 55.4963 23.0422C55.5278 22.9721 55.5731 22.909 55.6295 22.8567C55.6859 22.8045 55.7522 22.7641 55.8245 22.7381C57.245 22.2151 58.7119 21.7425 60.171 21.3318C60.3227 21.2898 60.4848 21.3083 60.6231 21.3834C60.7614 21.4586 60.865 21.5846 60.9122 21.7347C60.9349 21.8082 60.9425 21.8855 60.9347 21.962C60.927 22.0385 60.9039 22.1127 60.8669 22.1801C60.83 22.2476 60.7798 22.3069 60.7195 22.3546C60.6592 22.4023 60.5899 22.4374 60.5158 22.4579C59.085 22.8594 57.6517 23.3243 56.2545 23.8357C56.1797 23.8632 56.1002 23.8754 56.0205 23.8716C55.9409 23.8678 55.8629 23.8481 55.791 23.8137ZM67.2912 20.8799C67.204 20.8388 67.128 20.7774 67.0695 20.7007C67.0111 20.6241 66.972 20.5345 66.9554 20.4396C66.9424 20.3638 66.9447 20.2862 66.9622 20.2113C66.9797 20.1365 67.0121 20.0659 67.0573 20.0038C67.1026 19.9416 67.1599 19.8892 67.2258 19.8496C67.2917 19.81 67.3649 19.7841 67.441 19.7733C68.9466 19.5486 70.4807 19.3859 72.0018 19.2722C72.1589 19.2607 72.3142 19.3109 72.4348 19.4122C72.5554 19.5135 72.6317 19.6579 72.6474 19.8146C72.6541 19.8912 72.6454 19.9683 72.6218 20.0415C72.5982 20.1147 72.5602 20.1824 72.51 20.2406C72.4598 20.2989 72.3985 20.3465 72.3296 20.3807C72.2607 20.4148 72.1857 20.4349 72.109 20.4396C70.6188 20.5455 69.1158 20.7107 67.6411 20.9316C67.5219 20.9491 67.4002 20.9311 67.2912 20.8799ZM78.8547 19.7655C78.8581 19.6885 78.8769 19.6129 78.91 19.5433C78.943 19.4736 78.9897 19.4112 79.0472 19.3599C79.1047 19.3085 79.1719 19.2691 79.2448 19.2441C79.3178 19.2191 79.395 19.2089 79.4719 19.2141C80.9956 19.2981 82.5387 19.444 84.0573 19.6454C84.8398 19.7526 84.6964 20.9096 83.9191 20.8076C82.4315 20.6087 80.9194 20.4667 79.4254 20.384C79.2683 20.376 79.1206 20.3068 79.0139 20.1912C78.9072 20.0755 78.8501 19.9228 78.8547 19.7655ZM115.785 35.5192C112.458 32.5183 111.653 32.4976 112.203 31.8016C112.302 31.6799 112.444 31.6018 112.6 31.5842C112.756 31.5666 112.912 31.6108 113.035 31.7073C114.249 32.641 115.441 33.6352 116.578 34.6618C117.163 35.1887 116.372 36.0474 115.785 35.5205V35.5192ZM90.6867 21.5113C90.7066 21.4367 90.7411 21.3668 90.7882 21.3056C90.8352 21.2444 90.894 21.1931 90.9609 21.1546C91.0279 21.1162 91.1018 21.0915 91.1785 21.0818C91.2551 21.0721 91.3328 21.0776 91.4073 21.0981C92.8871 21.4855 94.3772 21.9388 95.8222 22.4411C96.5686 22.6993 96.1915 23.8021 95.4477 23.5451C94.0273 23.0531 92.5707 22.6102 91.1193 22.228C90.9676 22.1892 90.8372 22.0924 90.7562 21.9583C90.6753 21.8242 90.6503 21.6637 90.6867 21.5113ZM106.225 28.5127C102.366 26.2426 101.568 26.3782 101.964 25.5828C102.211 25.0779 102.827 25.3245 102.756 25.3245C104.132 25.9986 105.498 26.7294 106.82 27.5042C106.889 27.5418 106.949 27.5929 106.998 27.6544C107.046 27.7159 107.082 27.7865 107.103 27.8621C107.123 27.9376 107.129 28.0166 107.118 28.0942C107.108 28.1718 107.082 28.2466 107.042 28.3139C107.002 28.3813 106.949 28.4399 106.885 28.4863C106.822 28.5327 106.751 28.566 106.674 28.584C106.598 28.6021 106.519 28.6046 106.442 28.5915C106.365 28.5784 106.291 28.5498 106.225 28.5075V28.5127Z" fill="#EAC4F9"/>
<path d="M122.435 42.5981C121.193 41.0331 120.389 40.4713 120.999 39.9639C121.121 39.8642 121.277 39.8163 121.434 39.8306C121.591 39.8448 121.736 39.9201 121.837 40.04C123.187 41.6064 123.876 42.243 123.269 42.7066C123.087 42.846 122.638 42.8538 122.435 42.5981Z" fill="#EAC4F9"/>
<path d="M134.819 86.3469C134.705 86.2936 134.61 86.2053 134.549 86.0949C134.488 85.9844 134.464 85.8575 134.479 85.7323C134.584 84.9704 134.673 84.1982 134.737 83.4364C134.745 83.3598 134.768 83.2856 134.805 83.218C134.842 83.1504 134.892 83.0909 134.952 83.0428C135.012 82.9947 135.081 82.9591 135.155 82.938C135.229 82.9169 135.307 82.9107 135.383 82.9198C135.539 82.9362 135.683 83.0128 135.783 83.1335C135.883 83.2541 135.933 83.4091 135.92 83.5655C135.847 84.3403 135.756 85.1318 135.65 85.9092C135.64 85.9856 135.614 86.059 135.574 86.1253C135.534 86.1915 135.482 86.2492 135.42 86.2949C135.358 86.3406 135.287 86.3734 135.212 86.3914C135.137 86.4094 135.059 86.4123 134.983 86.3999C134.926 86.391 134.87 86.3732 134.819 86.3469Z" fill="#EAC4F9"/>
<path d="M50.9048 128.741C49.4314 127.994 47.9723 127.176 46.5674 126.31C46.5009 126.27 46.443 126.218 46.3969 126.156C46.3508 126.094 46.3175 126.023 46.2989 125.948C46.2803 125.873 46.2767 125.795 46.2885 125.718C46.3002 125.642 46.327 125.569 46.3672 125.503C46.8476 124.728 47.1226 125.514 51.4342 127.698C51.5036 127.732 51.5655 127.78 51.6165 127.838C51.6675 127.896 51.7065 127.964 51.7313 128.037C51.7562 128.11 51.7663 128.188 51.7612 128.265C51.7561 128.342 51.7358 128.418 51.7015 128.487C51.4458 128.99 50.8338 128.741 50.9048 128.741ZM57.9604 131.168C58.2561 130.311 58.7197 131.022 63.3683 132.241C63.5205 132.279 63.6514 132.376 63.7326 132.51C63.8139 132.644 63.8389 132.805 63.8022 132.957C63.7826 133.032 63.7483 133.102 63.7014 133.163C63.6546 133.225 63.596 133.276 63.5291 133.315C63.4622 133.353 63.3883 133.378 63.3117 133.388C63.2351 133.398 63.1574 133.392 63.0829 133.372C61.4921 132.955 59.8934 132.468 58.3323 131.917C58.1835 131.866 58.0608 131.758 57.9911 131.618C57.9214 131.477 57.9103 131.314 57.9604 131.165V131.168ZM39.9934 121.621C38.7189 120.576 37.4715 119.465 36.2874 118.317C36.2315 118.264 36.1866 118.2 36.1556 118.129C36.1245 118.059 36.1079 117.983 36.1065 117.906C36.1052 117.829 36.1193 117.752 36.1479 117.681C36.1765 117.609 36.2191 117.544 36.2732 117.489C36.9188 116.843 37.0079 117.663 40.7423 120.726C40.8027 120.774 40.8529 120.834 40.8899 120.902C40.927 120.969 40.9502 121.044 40.9583 121.121C40.9663 121.197 40.959 121.275 40.9368 121.349C40.9146 121.423 40.8779 121.492 40.8289 121.551C40.7266 121.67 40.5817 121.744 40.4254 121.757C40.2691 121.77 40.114 121.721 39.9934 121.621ZM70.8152 134.834C70.7032 134.781 70.6102 134.696 70.5492 134.588C70.4881 134.481 70.4619 134.357 70.4743 134.234C70.4832 134.158 70.5072 134.084 70.5451 134.017C70.5829 133.95 70.6337 133.891 70.6945 133.844C70.7553 133.796 70.825 133.762 70.8993 133.742C70.9737 133.722 71.0513 133.717 71.1277 133.727C72.7327 133.923 74.3559 134.055 75.9687 134.114C76.1257 134.119 76.2744 134.186 76.3831 134.299C76.4917 134.413 76.5515 134.564 76.5498 134.721C76.548 134.798 76.5308 134.874 76.4991 134.944C76.4675 135.015 76.4222 135.078 76.3657 135.13C76.3093 135.183 76.2429 135.224 76.1705 135.25C76.0981 135.276 76.0211 135.288 75.9442 135.284C74.3029 135.22 72.6397 135.087 71.0024 134.885C70.9376 134.878 70.8744 134.861 70.8152 134.834ZM83.6544 134.999C83.5624 134.956 83.4829 134.89 83.4232 134.808C83.3636 134.726 83.3259 134.63 83.3135 134.529C83.3037 134.452 83.3093 134.375 83.3301 134.3C83.3509 134.226 83.3865 134.157 83.4347 134.096C83.4829 134.036 83.5428 133.986 83.6107 133.95C83.6786 133.913 83.7532 133.89 83.8301 133.883C85.4287 133.728 87.0402 133.504 88.6207 133.216C88.7756 133.188 88.935 133.222 89.0656 133.309C89.1962 133.397 89.2876 133.532 89.3206 133.686C89.3361 133.761 89.3362 133.839 89.3211 133.914C89.306 133.989 89.2758 134.061 89.2324 134.124C89.1891 134.188 89.1334 134.242 89.0686 134.284C89.0039 134.325 88.9315 134.353 88.8557 134.366C87.2429 134.661 85.5978 134.889 83.9669 135.048C83.8603 135.059 83.7525 135.042 83.6544 134.999ZM96.1696 132.383C96.0244 132.314 95.9125 132.19 95.8584 132.039C95.8326 131.967 95.8216 131.89 95.8261 131.813C95.8306 131.736 95.8505 131.661 95.8846 131.592C95.9187 131.524 95.9663 131.462 96.0245 131.412C96.0828 131.362 96.1506 131.324 96.2238 131.301C97.745 130.803 99.2622 130.237 100.734 129.615C100.88 129.555 101.043 129.554 101.189 129.612C101.336 129.67 101.454 129.782 101.519 129.925C101.552 129.996 101.571 130.072 101.573 130.15C101.576 130.227 101.563 130.305 101.535 130.377C101.507 130.45 101.464 130.515 101.41 130.571C101.355 130.627 101.29 130.67 101.219 130.7C99.7155 131.333 98.1672 131.911 96.6151 132.419C96.4674 132.464 96.3081 132.451 96.1696 132.383ZM107.761 127.13C107.655 127.08 107.566 127.001 107.503 126.902C107.462 126.837 107.434 126.765 107.422 126.689C107.409 126.613 107.412 126.536 107.43 126.461C107.448 126.386 107.481 126.316 107.526 126.254C107.572 126.192 107.629 126.14 107.696 126.101C109.064 125.287 110.415 124.406 111.709 123.482C111.838 123.391 111.997 123.355 112.152 123.38C112.307 123.406 112.446 123.491 112.539 123.617C112.586 123.679 112.62 123.749 112.639 123.823C112.658 123.898 112.662 123.975 112.651 124.051C112.639 124.128 112.613 124.201 112.572 124.266C112.532 124.332 112.479 124.389 112.417 124.434C111.097 125.377 109.719 126.276 108.321 127.106C108.236 127.155 108.141 127.183 108.044 127.187C107.947 127.191 107.85 127.172 107.761 127.13ZM117.697 119.365C117.051 118.705 117.879 118.651 121.022 115.104C121.538 114.527 122.436 115.304 121.926 115.879C120.853 117.089 119.714 118.269 118.539 119.383C118.424 119.491 118.271 119.55 118.114 119.547C117.956 119.543 117.807 119.478 117.697 119.365ZM125.917 109.772C125.142 109.266 125.93 109.039 128.194 104.878C128.562 104.204 129.614 104.767 129.243 105.445C128.469 106.866 127.628 108.267 126.738 109.611C126.65 109.74 126.515 109.83 126.361 109.86C126.207 109.89 126.048 109.859 125.917 109.772ZM131.717 98.5806C131.583 98.5186 131.477 98.4084 131.42 98.2717C131.364 98.1351 131.361 97.9822 131.411 97.8433C131.971 96.3557 132.472 94.832 132.899 93.316C132.921 93.2419 132.957 93.1728 133.006 93.1128C133.054 93.0527 133.114 93.0029 133.182 92.9662C133.25 92.9294 133.325 92.9065 133.401 92.8987C133.478 92.891 133.556 92.8985 133.63 92.9209C133.781 92.9635 133.908 93.0635 133.986 93.1995C134.064 93.3355 134.084 93.4966 134.044 93.6479C133.608 95.1974 133.097 96.747 132.525 98.2668C132.497 98.339 132.455 98.4049 132.401 98.4608C132.348 98.5167 132.284 98.5614 132.213 98.5924C132.142 98.6233 132.066 98.64 131.989 98.6413C131.911 98.6426 131.835 98.6286 131.763 98.6C131.747 98.5946 131.732 98.5882 131.717 98.5806Z" fill="#EAC4F9"/>
<path d="M30.8732 112.306C29.5961 110.679 28.9363 110.014 29.5677 109.578C30.2211 109.125 30.5 109.934 31.8081 111.601C31.8564 111.661 31.8921 111.73 31.9132 111.804C31.9343 111.877 31.9403 111.955 31.9309 112.031C31.9215 112.108 31.8969 112.181 31.8585 112.248C31.8201 112.315 31.7687 112.373 31.7074 112.419C31.581 112.513 31.423 112.553 31.2672 112.532C31.1113 112.511 30.97 112.43 30.8732 112.306Z" fill="#EAC4F9"/>
<path d="M38.5557 98.1105L47.0627 97.7503C49.4215 101.032 52.2905 103.914 55.5607 106.288C55.225 114.435 54.6245 114.984 55.469 115.343L64.9109 119.369C65.0439 119.427 65.1916 119.442 65.3336 119.412C65.4756 119.383 65.605 119.31 65.7038 119.204L71.3532 113.022C75.3248 113.74 79.3859 113.815 83.3815 113.246L89.027 119.636C89.1239 119.745 89.2516 119.822 89.3932 119.857C89.5349 119.891 89.6837 119.882 89.8199 119.83L99.2669 116.146C99.401 116.095 99.5151 116.002 99.5926 115.881C99.6702 115.76 99.7072 115.618 99.6982 115.474L99.1817 107.081C102.455 104.829 105.332 102.049 107.695 98.8556L116.196 99.518C116.34 99.5305 116.484 99.4974 116.608 99.4235C116.732 99.3496 116.829 99.2385 116.887 99.1061L120.804 89.8695C120.86 89.7362 120.872 89.589 120.839 89.4484C120.807 89.3078 120.731 89.181 120.622 89.0857L114.248 83.404C114.902 79.4802 114.902 75.4752 114.248 71.5513C120.37 66.0943 121.163 66.1537 120.816 65.3208C116.823 56.1902 117.153 55.467 116.222 55.5071L107.715 55.8622C105.356 52.5808 102.488 49.6983 99.2179 47.3242C99.551 39.1813 100.153 38.6299 99.3083 38.2684C89.8586 34.4294 89.6817 33.7489 89.0735 34.4087L83.4241 40.5901C79.4563 39.8756 75.3996 39.8028 71.4087 40.3745C65.8316 34.3183 65.8226 33.457 64.9703 33.7889C55.686 37.5995 55.0364 37.2379 55.092 38.1444L55.6085 46.5378C52.3356 48.7898 49.4588 51.5689 47.095 54.762C38.9664 54.2971 38.2613 53.6683 37.9036 54.5128C34.1925 63.7197 33.4797 63.9185 34.1679 64.5332L40.5405 70.2148C39.887 74.1387 39.887 78.1437 40.5405 82.0676C34.4391 87.5065 33.6243 87.46 33.973 88.298C37.954 97.4261 37.6247 98.1493 38.5557 98.1105Z" fill="#82C341"/>
<path opacity="0.42" d="M67.5345 75.2057C68.3351 69.861 73.4099 66.2312 78.8475 67.1145C84.2851 67.9977 88.0583 73.0647 87.259 78.4094C86.4597 83.754 81.3836 87.3838 75.946 86.5006C70.5045 85.6122 66.7314 80.549 67.5345 75.2057ZM78.588 68.8474C74.1743 68.1294 69.9647 71.0426 69.2907 75.4924C68.6334 79.8827 71.7325 84.0446 76.1991 84.7677C80.6656 85.4908 84.8378 82.5131 85.4925 78.1227C86.1472 73.7323 83.0429 69.5705 78.5841 68.8474H78.588Z" fill="white"/>
<path opacity="0.42" d="M66.8331 99.3734C65.5003 98.7426 64.2229 98.0005 63.0148 97.155C62.8434 97.0377 62.719 96.8636 62.6637 96.6634C62.6084 96.4632 62.6257 96.2499 62.7126 96.0613C62.7341 96.0161 62.7596 95.9728 62.7888 95.9321C62.928 95.743 63.1359 95.6161 63.3677 95.5786C63.5995 95.5412 63.8368 95.5963 64.0284 95.732C65.4217 96.7046 66.9116 97.5311 68.4743 98.1983C80.2819 103.234 93.8301 98.1893 99.1566 86.9525C99.2918 86.6641 99.4209 86.3732 99.544 86.0796C104.599 74.161 98.7847 60.3907 86.6957 55.2333C74.6067 50.0759 60.6698 55.4671 55.6222 67.3521C52.6212 74.427 54.3309 79.4785 53.9835 80.2043C53.6142 80.9855 52.4262 80.7931 52.2971 79.9305C51.5707 75.0859 52.3034 70.1348 54.4019 65.7083C63.7314 46.0277 92.7299 47.1499 101.206 67.5006C103.814 73.7633 103.809 80.6084 101.193 86.7769C101.064 87.0959 100.917 87.4109 100.768 87.7234C98.0642 93.4309 93.3342 97.8239 87.353 100.157C81.0424 102.618 74.0953 102.493 67.7925 99.8047C67.4684 99.6678 67.1469 99.5232 66.8331 99.3734Z" fill="white"/>
<path d="M141.267 63.003C142.705 64.7366 144.417 66.2236 146.335 67.405L146.379 72.1595C146.379 72.6864 146.836 72.4875 152.061 74.3366C152.544 74.4981 152.496 74.0448 155.39 70.4331C157.633 70.6408 159.895 70.4816 162.088 69.9618L165.482 73.2946C165.859 73.6639 166.038 73.2029 171.035 70.8179C171.108 70.782 171.168 70.724 171.206 70.6522C171.244 70.5803 171.259 70.4982 171.248 70.4176L170.629 65.7018C172.363 64.2635 173.851 62.5525 175.034 60.6361C179.577 60.4992 179.99 60.8169 180.155 60.3249C181.853 54.935 182.241 54.7917 181.834 54.4792L178.063 51.5841C178.272 49.3412 178.113 47.0792 177.592 44.8875L180.925 41.4927C181.294 41.1157 180.833 40.9362 178.45 35.9402C178.224 35.4869 177.955 35.8369 173.332 36.3469C171.894 34.6128 170.183 33.1247 168.266 31.9411L168.223 27.1878C168.223 26.6597 167.764 26.8586 162.541 25.0107C162.061 24.8493 162.121 25.2845 159.212 28.913C156.969 28.7052 154.707 28.8644 152.515 29.3843L149.121 26.0528C149.063 25.9954 148.988 25.9576 148.908 25.9448C148.828 25.9321 148.745 25.945 148.672 25.9818L143.567 28.5282C143.493 28.5639 143.433 28.6218 143.395 28.6936C143.356 28.7655 143.341 28.8477 143.352 28.9285L143.972 33.6456C142.238 35.0832 140.75 36.7943 139.566 38.7113C135.025 38.8482 134.61 38.5292 134.446 39.0212C132.748 44.4097 132.361 44.5544 132.768 44.8669L136.537 47.7619C136.33 50.0054 136.489 52.2675 137.008 54.4598C133.894 57.7681 133.373 57.8366 133.606 58.3027L136.152 63.4085C136.379 63.8656 136.669 63.5105 141.267 63.003Z" fill="#82C341"/>
<path opacity="0.42" d="M151.362 49.2263C151.451 48.052 151.886 46.9304 152.613 46.0035C153.339 45.0765 154.324 44.3858 155.443 44.0186C156.562 43.6514 157.765 43.6243 158.899 43.9407C160.033 44.257 161.048 44.9027 161.816 45.796C162.583 46.6893 163.069 47.79 163.21 48.9591C163.352 50.1282 163.144 51.3131 162.612 52.3639C162.081 53.4147 161.249 54.2843 160.223 54.8626C159.198 55.4409 158.023 55.7021 156.849 55.613C155.275 55.4922 153.813 54.7518 152.785 53.5544C151.756 52.357 151.244 50.8004 151.362 49.2263ZM153.13 49.3606C153.047 50.4662 153.406 51.5595 154.129 52.4006C154.851 53.2417 155.878 53.7617 156.983 53.8465C160.674 54.1241 162.888 49.7712 160.47 46.9549C158.051 44.1386 153.413 45.6468 153.131 49.3606H153.13Z" fill="white"/>
<path d="M127.321 58.2588C127.1 57.4905 126.907 56.7028 126.746 55.9164C126.716 55.7627 126.747 55.603 126.834 55.4723C126.92 55.3416 127.055 55.2506 127.209 55.2191C128.015 55.0551 127.891 55.9513 128.457 57.9308C128.482 58.0064 128.491 58.0862 128.484 58.1654C128.478 58.2446 128.455 58.3216 128.418 58.3919C128.38 58.4621 128.329 58.5241 128.268 58.5741C128.206 58.6242 128.135 58.6613 128.058 58.6832C127.982 58.705 127.902 58.7113 127.823 58.7015C127.744 58.6918 127.668 58.6662 127.599 58.6263C127.53 58.5865 127.47 58.5332 127.422 58.4696C127.375 58.406 127.34 58.3334 127.321 58.2562V58.2588Z" fill="#EAC4F9"/>
<path d="M126.165 48.0357C126.252 46.4116 126.464 44.7967 126.798 43.205C126.961 42.4379 128.116 42.6885 127.96 43.449C127.068 47.6754 127.717 48.711 126.728 48.6581C126.65 48.6543 126.574 48.6351 126.504 48.6018C126.433 48.5684 126.37 48.5215 126.318 48.4637C126.265 48.4059 126.225 48.3383 126.199 48.2649C126.173 48.1914 126.161 48.1135 126.165 48.0357ZM129.667 36.5316C129.528 36.4601 129.423 36.3365 129.375 36.1877C129.326 36.039 129.339 35.8771 129.409 35.7375C130.137 34.2825 130.979 32.8866 131.924 31.5627C132.38 30.9274 133.345 31.6144 132.886 32.251C131.976 33.5243 131.168 34.867 130.468 36.2669C130.204 36.7744 129.596 36.5238 129.667 36.5264V36.5316ZM137.415 26.754C137.325 26.7118 137.247 26.6476 137.189 26.5675C137.13 26.4873 137.093 26.3938 137.08 26.2954C137.067 26.197 137.079 26.0969 137.115 26.0044C137.151 25.912 137.21 25.83 137.286 25.7661C138.533 24.7215 139.86 23.776 141.254 22.9382C141.388 22.8588 141.549 22.8357 141.7 22.874C141.851 22.9123 141.981 23.0088 142.062 23.1426C142.142 23.2763 142.167 23.4365 142.129 23.5881C142.092 23.7397 141.997 23.8704 141.864 23.9519C140.522 24.7585 139.246 25.6682 138.045 26.6726C137.959 26.7435 137.854 26.7883 137.742 26.8018C137.631 26.8153 137.519 26.7969 137.418 26.7488L137.415 26.754ZM148.406 20.8605C148.298 20.8091 148.207 20.7257 148.147 20.6213C148.086 20.517 148.059 20.3968 148.069 20.2767C148.079 20.1566 148.126 20.0425 148.202 19.9495C148.279 19.8566 148.382 19.7892 148.498 19.7565C150.059 19.2975 151.653 18.9616 153.267 18.7519C153.423 18.7316 153.58 18.7741 153.704 18.8699C153.829 18.9657 153.91 19.1069 153.93 19.2626C153.95 19.4182 153.908 19.5755 153.812 19.6999C153.716 19.8242 153.575 19.9054 153.419 19.9256C151.867 20.1268 150.334 20.4497 148.833 20.8915C148.692 20.9324 148.541 20.9195 148.409 20.8554L148.406 20.8605ZM160.507 19.24C160.516 19.1627 160.541 19.0879 160.579 19.0201C160.617 18.9523 160.668 18.8927 160.73 18.8447C160.791 18.7967 160.861 18.7613 160.936 18.7405C161.011 18.7197 161.09 18.7139 161.167 18.7234C162.783 18.9236 164.38 19.2495 165.945 19.6984C166.695 19.9101 166.372 21.0516 165.618 20.8347C164.113 20.4036 162.577 20.0901 161.024 19.8972C160.868 19.8785 160.726 19.7987 160.629 19.6755C160.533 19.5522 160.489 19.3956 160.507 19.24Z" fill="#EAC4F9"/>
<path d="M174.568 25.136C172.795 23.8847 172.009 23.7491 172.417 23.0699C172.456 23.0026 172.508 22.9437 172.57 22.8967C172.632 22.8498 172.703 22.8157 172.779 22.7964C172.854 22.7772 172.933 22.7732 173.01 22.7847C173.087 22.7962 173.161 22.8229 173.228 22.8633C173.912 23.2701 174.592 23.7117 175.25 24.1753C175.378 24.2657 175.465 24.4033 175.492 24.558C175.519 24.7126 175.483 24.8715 175.392 24.9998C175.302 25.128 175.164 25.2151 175.01 25.2419C174.855 25.2686 174.696 25.2329 174.568 25.1424V25.136Z" fill="#EAC4F9"/>
<path d="M187.1 46.1672C186.841 44.0043 186.424 43.3341 187.208 43.1805C187.362 43.1505 187.522 43.1829 187.652 43.2705C187.782 43.3582 187.872 43.4939 187.903 43.6479C188.056 44.4304 188.182 45.231 188.275 46.0303C188.293 46.1862 188.248 46.3428 188.151 46.4658C188.054 46.5888 187.911 46.6682 187.755 46.6863C187.6 46.7045 187.443 46.66 187.32 46.5626C187.197 46.4653 187.118 46.323 187.1 46.1672Z" fill="#EAC4F9"/>
<path d="M146.79 78.4107C147.109 77.4823 147.798 78.4494 152.005 79.1997C152.774 79.3288 152.571 80.5013 151.797 80.3618C150.222 80.0806 148.671 79.6787 147.158 79.1597C147.01 79.1086 146.888 79.0012 146.82 78.8609C146.751 78.7207 146.74 78.5588 146.79 78.4107ZM158.928 80.2185C158.922 80.141 158.932 80.0632 158.957 79.9895C158.981 79.9158 159.02 79.8477 159.071 79.7891C159.122 79.7304 159.184 79.6824 159.254 79.6478C159.323 79.6131 159.399 79.5925 159.477 79.5871C163.774 79.281 164.522 78.3875 164.744 79.3482C164.761 79.4239 164.763 79.5023 164.751 79.5789C164.738 79.6555 164.71 79.7288 164.669 79.7947C164.627 79.8605 164.573 79.9176 164.51 79.9626C164.447 80.0076 164.375 80.0397 164.3 80.0571C162.74 80.4158 161.155 80.6532 159.559 80.7673C159.404 80.7777 159.251 80.7266 159.133 80.6252C159.015 80.5237 158.942 80.38 158.929 80.225L158.928 80.2185ZM170.8 77.1194C170.348 76.2452 171.514 76.4247 174.975 73.8912C175.607 73.4315 176.305 74.3858 175.672 74.8468C174.38 75.7899 173.017 76.6325 171.597 77.3673C171.46 77.4402 171.299 77.4563 171.15 77.4121C171.002 77.3679 170.876 77.2669 170.801 77.131L170.8 77.1194ZM180.503 69.6054C179.742 68.9753 180.89 68.6847 183.085 65.0058C183.485 64.3344 184.506 64.9387 184.103 65.6115C183.282 66.985 182.358 68.2938 181.338 69.5266C181.289 69.5876 181.229 69.6383 181.161 69.6758C181.092 69.7133 181.017 69.737 180.94 69.7454C180.862 69.7538 180.784 69.7468 180.709 69.7247C180.634 69.7027 180.565 69.6661 180.504 69.617L180.503 69.6054ZM186.077 58.1517C187.292 54.0196 186.723 53.002 187.698 53.1324C187.853 53.153 187.994 53.2345 188.09 53.359C188.185 53.4834 188.227 53.6407 188.206 53.7962C187.996 55.3823 187.664 56.9498 187.212 58.4848C187.168 58.6354 187.066 58.7622 186.928 58.8373C186.79 58.9125 186.629 58.93 186.478 58.8858C186.328 58.8416 186.201 58.7394 186.126 58.6018C186.05 58.4641 186.033 58.3022 186.077 58.1517Z" fill="#EAC4F9"/>
<path d="M140.155 75.7183C139.486 75.2767 138.826 74.8041 138.194 74.3134C138.133 74.2658 138.082 74.2066 138.043 74.1392C138.005 74.0717 137.98 73.9973 137.971 73.9203C137.961 73.8433 137.967 73.7652 137.988 73.6904C138.008 73.6156 138.043 73.5456 138.091 73.4844C138.595 72.8388 139.082 73.5929 140.803 74.7305C140.923 74.8208 141.003 74.9532 141.029 75.1009C141.055 75.2486 141.024 75.4006 140.942 75.5261C140.86 75.6516 140.733 75.7413 140.587 75.777C140.442 75.8127 140.288 75.7917 140.157 75.7183H140.155Z" fill="#EAC4F9"/>
<path opacity="0.42" d="M149.946 62.2398C149.844 62.1824 149.755 62.1054 149.683 62.0134C149.611 61.9213 149.558 61.816 149.527 61.7034C149.495 61.5908 149.486 61.4731 149.501 61.3571C149.515 61.2411 149.552 61.1291 149.609 61.0273C149.667 60.9256 149.744 60.8362 149.836 60.7642C149.928 60.6922 150.033 60.639 150.146 60.6077C150.258 60.5764 150.376 60.5676 150.492 60.5818C150.608 60.5959 150.72 60.6328 150.822 60.6903C151.611 61.1569 152.447 61.5391 153.316 61.8305C154.921 62.368 156.615 62.5838 158.302 62.4654C159.99 62.3471 161.638 61.897 163.151 61.141C173.373 56.043 172.335 41.024 161.489 37.398C158.503 36.4035 155.257 36.5348 152.361 37.7673C149.465 38.9997 147.12 41.2482 145.766 44.0895C142.995 49.9339 146.025 53.0239 144.144 53.4371C143.915 53.4875 143.674 53.4447 143.476 53.3181C143.278 53.1915 143.138 52.9914 143.087 52.7618C142.531 50.2302 142.657 47.5966 143.451 45.1293C144.245 42.662 145.678 40.4494 147.606 38.7169C149.534 36.9843 151.886 35.7939 154.424 35.2669C156.962 34.7399 159.594 34.8951 162.052 35.7168C170.316 38.4789 174.439 47.8936 170.635 55.9203C167.568 62.3935 159.99 65.9342 152.753 63.5143C151.776 63.1883 150.835 62.7612 149.946 62.2398Z" fill="white"/>
<path d="M159.364 288.369L152.816 347.098H228.79L218.894 288.369H159.364Z" fill="#2B3E3C"/>
<path d="M3.07253e-09 114.568V276.129C-0.000101123 282.52 2.49609 288.658 6.95645 293.235C11.4168 297.811 17.4885 300.465 23.8772 300.63C82.8891 302.151 289.273 305.841 345.447 305.02C350.093 304.95 354.533 303.088 357.841 299.824C361.149 296.56 363.069 292.145 363.201 287.5C364.284 249.967 366.041 159.714 359.533 117.813C358.871 113.537 356.735 109.626 353.495 106.758C350.254 103.889 346.114 102.243 341.788 102.105C292.346 100.523 73.5621 95.5009 17.4169 96.7612C12.7632 96.8664 8.33543 98.7884 5.08057 102.116C1.82571 105.444 0.00218329 109.913 3.07253e-09 114.568H3.07253e-09Z" fill="url(#paint0_linear_56:929)"/>
<path d="M10.1377 113.782V267.274C10.1373 271.004 11.604 274.585 14.221 277.242C16.8381 279.9 20.3955 281.422 24.1249 281.479L337.366 285.353C339.193 285.38 341.008 285.045 342.706 284.366C344.403 283.687 345.949 282.678 347.253 281.398C348.558 280.118 349.595 278.591 350.306 276.907C351.016 275.223 351.385 273.414 351.392 271.586L351.916 119.465C351.926 116.82 350.899 114.277 349.055 112.381C347.211 110.485 344.698 109.387 342.054 109.323L21.3551 102.834C19.895 102.798 18.4425 103.055 17.0832 103.589C15.7238 104.124 14.485 104.924 13.4398 105.944C12.3945 106.964 11.5639 108.183 10.9968 109.529C10.4297 110.875 10.1376 112.321 10.1377 113.782Z" fill="url(#paint1_linear_56:929)"/>
<path opacity="0.16" d="M19.0229 118.654V262.72C19.0229 270.003 24.9538 275.938 32.3413 276.046L330.596 279.679C337.922 279.786 343.925 273.978 343.952 266.757L344.452 123.978C344.471 118.812 340.298 114.585 335.062 114.458L29.6993 108.378C23.8472 108.237 19.0229 112.879 19.0229 118.654Z" fill="white"/>
<path opacity="0.65" d="M353.75 291.68H353.742L10.1302 285.825C10.0028 285.823 9.88155 285.77 9.79304 285.678C9.70452 285.587 9.65605 285.464 9.65828 285.336C9.6605 285.209 9.71325 285.088 9.80491 284.999C9.89656 284.911 10.0196 284.862 10.147 284.864L353.759 290.719C353.886 290.72 354.008 290.772 354.097 290.863C354.187 290.953 354.236 291.076 354.235 291.203C354.234 291.331 354.183 291.452 354.092 291.542C354.001 291.631 353.878 291.681 353.751 291.68H353.75Z" fill="white"/>
<path opacity="0.65" d="M185.333 298.831C184.531 298.831 183.747 298.593 183.08 298.147C182.413 297.702 181.893 297.068 181.586 296.327C181.279 295.586 181.199 294.771 181.355 293.984C181.512 293.197 181.898 292.474 182.465 291.907C183.033 291.34 183.755 290.954 184.542 290.797C185.329 290.641 186.144 290.721 186.885 291.028C187.627 291.335 188.26 291.855 188.706 292.522C189.151 293.189 189.389 293.973 189.389 294.775C189.388 295.85 188.961 296.882 188.2 297.642C187.44 298.402 186.409 298.83 185.333 298.831ZM185.333 291.68C184.72 291.68 184.121 291.862 183.612 292.202C183.102 292.543 182.705 293.027 182.47 293.593C182.236 294.159 182.174 294.782 182.294 295.384C182.413 295.985 182.708 296.537 183.142 296.97C183.575 297.404 184.128 297.699 184.729 297.819C185.33 297.938 185.953 297.877 186.519 297.642C187.086 297.408 187.57 297.01 187.91 296.501C188.251 295.991 188.432 295.392 188.432 294.779C188.432 293.957 188.106 293.169 187.525 292.588C186.943 292.006 186.155 291.68 185.333 291.68Z" fill="white"/>
<path d="M245.155 359.115H133.962C130.942 359.115 128.668 356.963 129.256 354.655L130.677 349.012C131.107 347.315 132.973 346.069 135.196 345.999L242.389 342.655C244.705 342.582 246.757 343.817 247.261 345.576L249.833 354.563C250.51 356.898 248.224 359.115 245.155 359.115Z" fill="url(#paint2_linear_56:929)"/>
<path d="M193.822 347.646C193.759 347.646 193.696 347.634 193.638 347.61C193.58 347.587 193.526 347.552 193.481 347.508C193.436 347.463 193.401 347.411 193.376 347.353C193.351 347.294 193.338 347.232 193.338 347.169C193.337 347.106 193.349 347.043 193.373 346.985C193.397 346.926 193.432 346.873 193.476 346.828C193.52 346.783 193.573 346.747 193.631 346.723C193.689 346.698 193.751 346.685 193.814 346.685L198.408 346.618C198.534 346.62 198.654 346.67 198.745 346.758C198.836 346.846 198.889 346.965 198.896 347.092C198.897 347.219 198.848 347.342 198.759 347.433C198.67 347.524 198.549 347.576 198.422 347.578L193.829 347.646H193.822Z" fill="white"/>
<path d="M133.375 356.121C133.349 356.121 133.324 356.119 133.299 356.115C133.236 356.105 133.176 356.083 133.123 356.05C133.069 356.017 133.022 355.974 132.985 355.923C132.948 355.872 132.921 355.814 132.907 355.752C132.892 355.691 132.89 355.627 132.9 355.565L133.554 351.461C133.727 350.367 134.281 349.369 135.119 348.645C135.956 347.92 137.023 347.514 138.131 347.5L186.851 346.787C186.914 346.786 186.977 346.797 187.035 346.821C187.094 346.844 187.147 346.879 187.193 346.922C187.238 346.966 187.274 347.019 187.299 347.077C187.324 347.135 187.337 347.197 187.338 347.26C187.339 347.323 187.328 347.386 187.304 347.444C187.281 347.503 187.247 347.557 187.203 347.602C187.159 347.647 187.106 347.683 187.048 347.708C186.99 347.733 186.928 347.747 186.865 347.748L138.145 348.46C137.263 348.471 136.414 348.794 135.748 349.371C135.082 349.948 134.641 350.742 134.503 351.612L133.849 355.716C133.83 355.829 133.773 355.931 133.686 356.006C133.599 356.08 133.489 356.121 133.375 356.121Z" fill="white"/>
<path opacity="0.22" d="M116.503 119.071L152.687 118.798C157.63 118.762 161.597 122.577 161.389 127.168L157.851 205.369C157.656 209.653 153.88 213.046 149.267 213.08L117.2 213.321C112.422 213.355 108.523 209.784 108.49 205.343L107.912 127.174C107.878 122.734 111.725 119.106 116.503 119.071Z" fill="white"/>
<path opacity="0.2" d="M144.555 228.901L30.064 230.264C25.6543 230.315 22.1781 233.17 22.3938 236.562L24.301 266.545C24.5038 269.743 27.9308 272.258 32.0901 272.258H144.675C148.983 272.258 152.474 269.568 152.474 266.25V234.907C152.474 231.554 148.908 228.85 144.555 228.901Z" fill="white"/>
<path opacity="0.2" d="M285.914 220.561L171.424 222.23C167.015 222.294 163.539 225.787 163.755 229.937L165.661 266.624C165.865 270.538 169.292 273.613 173.451 273.613H286.036C290.342 273.613 293.834 270.323 293.834 266.265V227.912C293.834 223.806 290.269 220.498 285.914 220.561Z" fill="white"/>
<path opacity="0.2" d="M93.6466 115.441H34.5056C29.7279 115.441 25.854 119.344 25.854 124.161V208.919C25.854 213.734 29.7279 217.637 34.5056 217.637H93.6466C98.4244 217.637 102.298 213.734 102.298 208.919V124.162C102.298 119.346 98.4244 115.441 93.6466 115.441Z" fill="white"/>
<path opacity="0.2" d="M239.618 148.298H180.477C175.7 148.298 171.826 150.39 171.826 152.971V198.392C171.826 200.975 175.7 203.065 180.477 203.065H239.618C244.396 203.065 248.27 200.973 248.27 198.392V152.971C248.269 150.39 244.396 148.298 239.618 148.298Z" fill="white"/>
<path opacity="0.2" d="M338.235 144.237H267.204C261.466 144.237 256.814 146.329 256.814 148.909V194.339C256.814 196.921 261.463 199.011 267.204 199.011H338.235C343.974 199.011 348.625 196.919 348.625 194.339V148.912C348.625 146.332 343.974 144.237 338.235 144.237Z" fill="white"/>
<path d="M317.632 69.422C294.346 68.7673 179.163 64.9232 155.524 64.1277C153.19 64.049 151.278 67.6336 151.278 72.0821V92.6471C151.278 97.0375 153.146 100.603 155.451 100.603H317.567C319.872 100.603 321.741 97.0401 321.741 92.6471V77.3764C321.741 73.0286 319.912 69.4853 317.632 69.422Z" fill="#2B3E3C"/>
<path d="M164.06 95.6416L170.362 92.3398C170.603 92.2126 170.871 92.1462 171.144 92.1462C171.417 92.1462 171.685 92.2126 171.927 92.3398L178.219 95.661C178.497 95.8084 178.81 95.875 179.123 95.8533C179.436 95.8316 179.737 95.7223 179.992 95.538C180.246 95.3537 180.444 95.1018 180.562 94.8108C180.68 94.5198 180.715 94.2014 180.661 93.8919L179.469 86.8776C179.423 86.6089 179.443 86.333 179.528 86.0738C179.613 85.8146 179.759 85.5799 179.955 85.3901L185.057 80.4328C185.282 80.2146 185.443 79.9374 185.519 79.6327C185.595 79.3279 185.584 79.0079 185.488 78.709C185.391 78.4101 185.213 78.1443 184.973 77.9418C184.732 77.7393 184.44 77.6082 184.129 77.5636L177.091 76.5305C176.821 76.4912 176.565 76.3868 176.345 76.2264C176.124 76.066 175.947 75.8544 175.826 75.6098L172.687 69.2244C172.549 68.9423 172.335 68.7047 172.068 68.5384C171.802 68.3722 171.494 68.2841 171.18 68.2841C170.866 68.2841 170.558 68.3722 170.291 68.5384C170.025 68.7047 169.81 68.9423 169.672 69.2244L166.514 75.5995C166.393 75.8436 166.214 76.0547 165.994 76.2144C165.773 76.3742 165.517 76.4778 165.247 76.5163L158.204 77.5287C157.893 77.5724 157.6 77.7025 157.36 77.9042C157.119 78.106 156.939 78.3713 156.842 78.6699C156.744 78.9686 156.732 79.2887 156.808 79.5937C156.883 79.8987 157.043 80.1765 157.268 80.3953L162.356 85.3694C162.551 85.5599 162.696 85.795 162.78 86.0544C162.864 86.3138 162.883 86.5897 162.836 86.8582L161.624 93.8686C161.57 94.1778 161.604 94.4958 161.721 94.7866C161.839 95.0774 162.036 95.3294 162.29 95.514C162.543 95.6986 162.844 95.8084 163.157 95.831C163.47 95.8535 163.783 95.7879 164.06 95.6416Z" fill="url(#paint3_linear_56:929)"/>
<path d="M196.578 96.5687L202.881 93.2682C203.122 93.1413 203.39 93.075 203.663 93.075C203.935 93.075 204.204 93.1413 204.445 93.2682L210.738 96.5881C211.016 96.7354 211.329 96.802 211.642 96.7803C211.955 96.7586 212.256 96.6495 212.51 96.4654C212.765 96.2813 212.962 96.0295 213.081 95.7387C213.199 95.4479 213.234 95.1297 213.18 94.8203L211.987 87.8073C211.941 87.5386 211.961 87.2627 212.046 87.0035C212.13 86.7443 212.277 86.5097 212.473 86.3198L217.574 81.3612C217.8 81.143 217.96 80.8659 218.036 80.5613C218.112 80.2568 218.101 79.937 218.005 79.6383C217.908 79.3397 217.73 79.0741 217.49 78.8716C217.25 78.6692 216.958 78.5382 216.647 78.4933L209.608 77.4602C209.339 77.4208 209.083 77.3162 208.862 77.1556C208.642 76.9949 208.464 76.783 208.344 76.5383L205.205 70.1541C205.067 69.8721 204.852 69.6344 204.586 69.4682C204.319 69.3019 204.012 69.2138 203.698 69.2138C203.383 69.2138 203.076 69.3019 202.809 69.4682C202.543 69.6344 202.328 69.8721 202.19 70.1541L199.032 76.5292C198.911 76.7736 198.732 76.9849 198.512 77.1449C198.291 77.3048 198.035 77.4086 197.765 77.4473L190.723 78.4545C190.413 78.4986 190.12 78.6289 189.88 78.8306C189.64 79.0324 189.46 79.2975 189.363 79.5959C189.266 79.8943 189.254 80.214 189.329 80.5188C189.404 80.8235 189.563 81.1011 189.788 81.3199L194.875 86.294C195.07 86.4843 195.216 86.7194 195.3 86.9788C195.384 87.2382 195.403 87.5142 195.357 87.7828L194.143 94.7932C194.088 95.1023 194.122 95.4205 194.239 95.7115C194.357 96.0026 194.554 96.2549 194.807 96.4398C195.061 96.6246 195.361 96.7347 195.674 96.7575C195.987 96.7803 196.3 96.7149 196.578 96.5687Z" fill="url(#paint4_linear_56:929)"/>
<path d="M229.381 96.7521L235.684 93.4503C235.925 93.3234 236.193 93.2571 236.466 93.2571C236.738 93.2571 237.007 93.3234 237.248 93.4503L243.537 96.7741C243.815 96.9215 244.128 96.9881 244.441 96.9664C244.755 96.9447 245.056 96.8354 245.31 96.6511C245.565 96.4668 245.762 96.2149 245.88 95.9239C245.999 95.6329 246.033 95.3145 245.979 95.005L244.787 87.9907C244.742 87.7222 244.762 87.4465 244.847 87.1876C244.931 86.9287 245.078 86.6942 245.273 86.5044L250.376 81.5459C250.602 81.3276 250.762 81.0503 250.839 80.7455C250.915 80.4406 250.904 80.1205 250.807 79.8216C250.71 79.5227 250.532 79.2569 250.291 79.0545C250.051 78.852 249.759 78.7211 249.448 78.6766L242.409 77.6436C242.139 77.6043 241.883 77.4999 241.663 77.3395C241.443 77.1791 241.265 76.9675 241.145 76.7229L238.006 70.3375C237.867 70.0554 237.653 69.8178 237.386 69.6515C237.12 69.4853 236.812 69.3972 236.498 69.3972C236.184 69.3972 235.876 69.4853 235.61 69.6515C235.343 69.8178 235.129 70.0554 234.99 70.3375L231.835 76.7023C231.714 76.9464 231.535 77.1575 231.314 77.3172C231.094 77.4769 230.838 77.5805 230.568 77.6191L223.523 78.6392C223.211 78.6829 222.919 78.813 222.678 79.0147C222.437 79.2165 222.258 79.4818 222.16 79.7805C222.063 80.0791 222.051 80.3992 222.126 80.7042C222.201 81.0092 222.361 81.287 222.586 81.5059L227.673 86.4799C227.868 86.6703 228.014 86.9054 228.098 87.1648C228.182 87.4242 228.201 87.7001 228.154 87.9688L226.941 94.9792C226.886 95.2888 226.92 95.6075 227.038 95.8989C227.156 96.1903 227.353 96.4428 227.607 96.6275C227.862 96.8123 228.163 96.9219 228.476 96.944C228.79 96.966 229.103 96.8995 229.381 96.7521Z" fill="url(#paint5_linear_56:929)"/>
<path d="M261.227 97.1253L267.529 93.8248C267.77 93.6977 268.039 93.6312 268.311 93.6312C268.584 93.6312 268.853 93.6977 269.094 93.8248L275.386 97.1447C275.664 97.2921 275.977 97.3588 276.29 97.337C276.604 97.3153 276.905 97.2061 277.159 97.0218C277.414 96.8375 277.611 96.5855 277.729 96.2945C277.848 96.0035 277.882 95.6851 277.828 95.3756L276.636 88.3626C276.59 88.0939 276.611 87.818 276.695 87.5588C276.78 87.2996 276.926 87.065 277.122 86.8751L282.224 81.9165C282.45 81.6983 282.61 81.4211 282.686 81.1164C282.763 80.8117 282.752 80.4916 282.655 80.1927C282.559 79.8938 282.38 79.628 282.14 79.4255C281.9 79.223 281.608 79.092 281.297 79.0473L274.258 78.0143C273.988 77.9748 273.732 77.8702 273.512 77.7096C273.292 77.5489 273.114 77.3371 272.994 77.0923L269.855 70.7082C269.716 70.4261 269.502 70.1884 269.235 70.0222C268.969 69.8559 268.661 69.7678 268.347 69.7678C268.033 69.7678 267.725 69.8559 267.459 70.0222C267.192 70.1884 266.978 70.4261 266.839 70.7082L263.681 77.0807C263.56 77.325 263.382 77.5363 263.161 77.6963C262.94 77.8563 262.684 77.9601 262.414 77.9988L255.371 79.0111C255.061 79.055 254.768 79.1851 254.528 79.3868C254.287 79.5885 254.108 79.8536 254.01 80.152C253.913 80.4504 253.901 80.7702 253.976 81.0751C254.051 81.3799 254.21 81.6576 254.435 81.8765L259.523 86.8505C259.718 87.0411 259.863 87.2762 259.947 87.5356C260.031 87.795 260.05 88.0709 260.003 88.3394L258.791 95.3498C258.736 95.6591 258.77 95.9775 258.887 96.2687C259.005 96.56 259.202 96.8124 259.455 96.9973C259.709 97.1823 260.01 97.2923 260.323 97.315C260.636 97.3376 260.95 97.2719 261.227 97.1253Z" fill="url(#paint6_linear_56:929)"/>
<path d="M293.628 97.1253L299.931 93.8247C300.172 93.6978 300.44 93.6315 300.713 93.6315C300.985 93.6315 301.253 93.6978 301.495 93.8247L307.787 97.1446C308.064 97.2921 308.378 97.3587 308.691 97.337C309.004 97.3152 309.305 97.206 309.56 97.0217C309.814 96.8374 310.012 96.5855 310.13 96.2945C310.248 96.0034 310.282 95.6851 310.229 95.3756L309.037 88.3626C308.991 88.0943 309.012 87.8189 309.096 87.5602C309.181 87.3015 309.327 87.0672 309.522 86.8776L314.626 81.9191C314.852 81.7008 315.012 81.4235 315.088 81.1186C315.164 80.8138 315.153 80.4937 315.057 80.1948C314.96 79.8958 314.781 79.63 314.541 79.4276C314.301 79.2252 314.008 79.0943 313.697 79.0498L306.658 78.0168C306.387 77.9774 306.13 77.8723 305.909 77.7107C305.688 77.5491 305.51 77.3359 305.39 77.0897L302.251 70.7055C302.113 70.4234 301.899 70.1858 301.632 70.0196C301.366 69.8533 301.058 69.7652 300.744 69.7652C300.43 69.7652 300.122 69.8533 299.855 70.0196C299.589 70.1858 299.374 70.4234 299.236 70.7055L296.078 77.0806C295.957 77.325 295.778 77.5363 295.558 77.6963C295.337 77.8562 295.081 77.96 294.811 77.9987L287.769 79.0111C287.459 79.0549 287.166 79.1851 286.926 79.3868C286.685 79.5884 286.506 79.8535 286.408 80.152C286.311 80.4504 286.299 80.7702 286.374 81.075C286.449 81.3799 286.608 81.6575 286.833 81.8765L291.92 86.8505C292.115 87.0409 292.261 87.276 292.345 87.5354C292.428 87.7948 292.448 88.0707 292.401 88.3394L291.187 95.3498C291.133 95.6596 291.166 95.9786 291.283 96.2705C291.401 96.5623 291.598 96.8152 291.853 97.0003C292.107 97.1854 292.409 97.2953 292.722 97.3174C293.036 97.3395 293.35 97.2729 293.628 97.1253Z" fill="url(#paint7_linear_56:929)"/>
<path d="M38.6176 192.084L140.629 192.927C143.339 192.95 145.936 194.012 147.885 195.895C149.834 197.778 150.985 200.337 151.1 203.045L157.408 351C157.453 352.044 157.287 353.086 156.921 354.065C156.554 355.044 155.995 355.938 155.276 356.696C154.556 357.454 153.692 358.06 152.734 358.477C151.776 358.894 150.744 359.115 149.699 359.125L32.768 360.287C31.7852 360.297 30.8103 360.111 29.9003 359.74C28.9902 359.369 28.1633 358.82 27.4677 358.125C26.7721 357.431 26.2219 356.605 25.8491 355.696C25.4763 354.786 25.2885 353.812 25.2966 352.829L26.5259 203.983C26.5515 200.802 27.8398 197.761 30.1074 195.529C32.375 193.298 35.4362 192.059 38.6176 192.084Z" fill="#00ADAB"/>
<path d="M49.8698 357.965L36.7877 357.687C34.663 357.634 32.6436 356.75 31.1629 355.225C29.6823 353.701 28.8585 351.656 28.8683 349.531L29.031 329.774C29.0313 329.73 29.0402 329.687 29.0573 329.647C29.0744 329.606 29.0992 329.57 29.1304 329.539C29.1615 329.509 29.1984 329.484 29.239 329.468C29.2795 329.451 29.3229 329.443 29.3667 329.443C29.4546 329.446 29.5383 329.482 29.6 329.544C29.6617 329.607 29.6966 329.691 29.6973 329.779L29.5346 349.536C29.5242 351.487 30.2795 353.365 31.6384 354.765C32.9973 356.166 34.8512 356.977 36.8019 357.025L49.8827 357.299C49.971 357.301 50.0551 357.338 50.1164 357.401C50.1776 357.465 50.2111 357.55 50.2094 357.639C50.2077 357.727 50.1709 357.811 50.1072 357.872C50.0435 357.934 49.9581 357.967 49.8698 357.965Z" fill="white"/>
<path d="M29.4091 323.998C29.3211 323.997 29.2373 323.961 29.1759 323.898C29.1145 323.835 29.0804 323.75 29.0811 323.662L29.1082 320.464C29.1083 320.42 29.1172 320.377 29.1342 320.336C29.1512 320.296 29.176 320.259 29.2072 320.229C29.2384 320.198 29.2754 320.174 29.316 320.157C29.3567 320.141 29.4001 320.133 29.4439 320.133C29.5321 320.134 29.6162 320.17 29.6779 320.233C29.7396 320.296 29.7739 320.381 29.7732 320.469L29.7461 323.668C29.7459 323.711 29.7371 323.755 29.7201 323.795C29.7031 323.835 29.6783 323.872 29.6471 323.903C29.6158 323.934 29.5789 323.958 29.5382 323.974C29.4976 323.991 29.4541 323.999 29.4103 323.998H29.4091Z" fill="white"/>
<path d="M38.941 190.888C52.8546 192.892 100.71 199.131 140.339 196.418C140.768 196.388 141.198 196.445 141.605 196.584C142.011 196.723 142.386 196.941 142.706 197.227C143.027 197.513 143.288 197.859 143.473 198.247C143.658 198.635 143.764 199.055 143.785 199.484L150.453 348.103C150.498 349.082 150.154 350.04 149.495 350.766C148.836 351.492 147.916 351.927 146.937 351.977C130.271 352.825 61.6406 356.069 37.1939 353.304C36.4753 353.222 35.8122 352.878 35.3315 352.338C34.8509 351.797 34.5867 351.098 34.5894 350.375L34.96 194.335C34.9607 193.836 35.0686 193.342 35.2764 192.888C35.4842 192.434 35.787 192.03 36.1645 191.704C36.5419 191.377 36.9852 191.135 37.4642 190.994C37.9432 190.854 38.4468 190.817 38.941 190.888Z" fill="#82C341"/>
<path opacity="0.6" d="M40.4025 194.755C53.7919 196.682 99.8444 202.686 137.983 200.075C138.395 200.045 138.809 200.099 139.201 200.233C139.593 200.366 139.953 200.576 140.262 200.852C140.571 201.127 140.822 201.461 141 201.834C141.178 202.208 141.279 202.613 141.297 203.027L147.715 346.048C147.758 346.99 147.426 347.911 146.792 348.609C146.158 349.307 145.273 349.725 144.332 349.774C128.294 350.59 62.2472 353.711 38.7212 351.051C38.0298 350.972 37.3918 350.64 36.9294 350.12C36.467 349.6 36.2126 348.928 36.2149 348.232L36.5713 198.067C36.5729 197.587 36.6775 197.113 36.8778 196.677C37.0782 196.24 37.3698 195.852 37.7329 195.538C38.096 195.225 38.5221 194.992 38.9827 194.857C39.4432 194.722 39.9273 194.687 40.4025 194.755Z" fill="white"/>
<g opacity="0.6">
<path opacity="0.6" d="M136.024 212.619C136.993 212.628 137.759 212.171 137.725 211.606C137.691 211.04 136.874 210.565 135.906 210.548L50.851 209.176C49.8839 209.16 49.5791 209.771 50.177 210.534C50.7748 211.297 52.0545 211.926 53.0178 211.935L136.024 212.619Z" fill="white"/>
</g>
<g opacity="0.6">
<path opacity="0.6" d="M50.8048 214.89C49.8363 214.874 49.5329 215.485 50.1295 216.248C50.726 217.011 52.007 217.64 52.9703 217.649L135.972 218.333C136.94 218.342 137.706 217.885 137.674 217.32C137.641 216.754 136.821 216.278 135.853 216.262L50.8048 214.89Z" fill="white"/>
</g>
<path d="M64.5413 266.926H64.5091L53.0295 267.092C51.3754 267.117 49.9821 266.01 49.7897 264.52L48.5526 254.916C48.5169 254.63 48.5394 254.341 48.6189 254.065C48.6983 253.789 48.8331 253.532 49.0149 253.309C49.2312 253.047 49.498 252.83 49.7994 252.673C50.1008 252.515 50.4308 252.419 50.7698 252.391C51.7356 252.302 53.067 252.155 54.53 251.995C57.7182 251.646 61.3312 251.25 63.4579 251.172H63.5057C65.0269 251.136 66.3582 252.031 66.7533 253.367C67.4054 255.563 67.4545 259.755 67.448 264.214C67.4416 265.677 66.1425 266.888 64.5413 266.926ZM50.8537 253.323C50.6397 253.34 50.4312 253.399 50.2405 253.497C50.0498 253.595 49.8806 253.731 49.7432 253.895C49.6414 254.021 49.566 254.166 49.5216 254.321C49.4772 254.476 49.4647 254.639 49.4849 254.799L50.7271 264.405C50.8563 265.424 51.8454 266.178 53.0243 266.161L64.5039 265.995H64.5258C65.6234 265.969 66.5144 265.175 66.5157 264.217C66.5222 259.826 66.4757 255.714 65.8597 253.628C65.586 252.709 64.5685 252.044 63.4967 252.108C61.4035 252.185 57.651 252.596 54.6359 252.926C53.1664 253.087 51.8299 253.233 50.8601 253.323H50.8537Z" fill="white"/>
<path opacity="0.6" d="M52.1071 254.254C54.5141 254.032 59.7425 253.374 62.2269 253.282C63.2793 253.245 64.2181 253.858 64.488 254.766C65.0045 256.527 65.0316 260.06 65.0278 263.33C65.0278 264.307 64.1471 265.109 63.0508 265.124L53.8826 265.254C52.7541 265.27 51.7985 264.524 51.6694 263.525L50.6777 255.849C50.5705 255.064 51.2148 254.342 52.1071 254.254Z" fill="white"/>
<g opacity="0.6">
<path opacity="0.6" d="M75.1929 256.69C74.2245 256.69 73.6524 257.452 73.9223 258.381L74.5938 260.698C74.8637 261.629 75.876 262.37 76.8432 262.347L133.003 260.992C133.233 260.987 133.459 260.936 133.669 260.841C133.879 260.747 134.067 260.612 134.224 260.443C134.38 260.275 134.502 260.076 134.58 259.86C134.659 259.644 134.693 259.414 134.681 259.185L134.646 258.424C134.619 257.952 134.413 257.508 134.071 257.182C133.729 256.856 133.276 256.671 132.804 256.665L75.1929 256.69Z" fill="white"/>
</g>
<path d="M52.6326 255.759C52.832 255.635 53.054 255.553 53.2857 255.516C53.5174 255.48 53.7541 255.49 53.9819 255.546C54.2097 255.602 54.424 255.703 54.6122 255.843C54.8005 255.982 54.9589 256.159 55.0783 256.361L57.44 260.364C57.4933 260.454 57.5707 260.528 57.6635 260.576C57.7562 260.625 57.8608 260.647 57.9654 260.64C58.07 260.633 58.1706 260.597 58.2559 260.536C58.3412 260.475 58.4079 260.392 58.4485 260.295L63.7622 247.659C63.8188 247.526 63.9195 247.417 64.0472 247.349C64.1749 247.282 64.3219 247.261 64.4634 247.29C64.6048 247.318 64.7322 247.395 64.8239 247.506C64.9156 247.617 64.9661 247.757 64.9669 247.901C65.0018 251.726 64.1625 259.018 58.2006 265.25C58.2006 265.25 54.8019 264.022 51.9469 258.133C51.7478 257.723 51.7076 257.253 51.8342 256.815C51.9608 256.376 52.2452 256 52.6326 255.759Z" fill="#82C341"/>
<path d="M64.9868 241.145H64.9519L53.4723 241.312C51.8182 241.335 50.4249 240.23 50.2325 238.74L48.9916 229.134C48.9557 228.848 48.9785 228.558 49.0584 228.281C49.1383 228.005 49.2738 227.747 49.4564 227.525C49.6726 227.262 49.9391 227.046 50.2403 226.888C50.5414 226.73 50.8711 226.634 51.21 226.605C52.1772 226.516 53.5072 226.37 54.9715 226.21C58.1597 225.862 61.7727 225.465 63.8995 225.388H63.946C65.4684 225.351 66.7997 226.248 67.1949 227.583C67.8405 229.778 67.896 233.971 67.8896 238.43C67.887 239.895 66.5879 241.107 64.9868 241.145ZM51.2991 227.543C51.0855 227.559 50.8774 227.618 50.6869 227.716C50.4965 227.814 50.3275 227.949 50.1899 228.114C50.0869 228.238 50.0103 228.383 49.9648 228.538C49.9193 228.694 49.9058 228.857 49.9252 229.017L51.1674 238.623C51.2965 239.641 52.2856 240.395 53.4646 240.378L64.9441 240.212H64.9661C66.0637 240.185 66.9534 239.392 66.956 238.434C66.956 234.043 66.9159 229.929 66.2987 227.845C66.0262 226.924 65.0074 226.259 63.9369 226.325C61.8438 226.401 58.0913 226.812 55.0761 227.143C53.6066 227.304 52.2701 227.45 51.2991 227.54V227.543Z" fill="white"/>
<path opacity="0.6" d="M52.5556 228.479C54.9626 228.256 60.191 227.597 62.6754 227.507C63.7278 227.468 64.6666 228.083 64.9365 228.989C65.453 230.752 65.4801 234.283 65.4749 237.553C65.4749 238.53 64.5956 239.332 63.4993 239.349L54.3247 239.478C53.1974 239.494 52.2418 238.747 52.1127 237.749L51.121 230.072C51.0164 229.282 51.6608 228.558 52.5556 228.479Z" fill="white"/>
<g opacity="0.6">
<path opacity="0.6" d="M75.6383 230.909C74.6698 230.909 74.0977 231.671 74.3676 232.601L75.0391 234.917C75.3077 235.847 76.3213 236.596 77.2885 236.566L133.443 235.212C133.673 235.206 133.899 235.155 134.109 235.061C134.319 234.967 134.508 234.831 134.664 234.663C134.821 234.494 134.942 234.296 135.02 234.08C135.099 233.863 135.133 233.634 135.121 233.404L135.085 232.642C135.058 232.17 134.853 231.726 134.511 231.4C134.169 231.073 133.717 230.889 133.244 230.883L75.6383 230.909Z" fill="white"/>
</g>
<path d="M53.0779 229.978C53.2773 229.855 53.4995 229.772 53.7312 229.736C53.963 229.699 54.1997 229.709 54.4275 229.766C54.6553 229.822 54.8695 229.923 55.0578 230.063C55.246 230.203 55.4043 230.379 55.5236 230.581L57.8853 234.584C57.9383 234.675 58.0156 234.749 58.1084 234.798C58.2012 234.847 58.306 234.87 58.4108 234.863C58.5156 234.855 58.6164 234.819 58.7017 234.758C58.787 234.697 58.8536 234.613 58.8938 234.516L64.2075 221.88C64.2641 221.748 64.3646 221.639 64.4922 221.572C64.6198 221.504 64.7666 221.483 64.908 221.511C65.0494 221.54 65.1767 221.616 65.2686 221.727C65.3604 221.838 65.4111 221.978 65.4122 222.122C65.4471 225.948 64.6078 233.24 58.6459 239.472C58.6459 239.472 55.2472 238.244 52.3922 232.355C52.1923 231.944 52.1518 231.474 52.2784 231.035C52.4051 230.596 52.6899 230.219 53.0779 229.978Z" fill="#82C341"/>
<path d="M65.1331 291.525H65.1021L53.6225 291.692C51.9671 291.715 50.5751 290.609 50.3827 289.119L49.1418 279.513C49.1057 279.228 49.128 278.939 49.2075 278.663C49.287 278.386 49.4219 278.129 49.6041 277.907C49.8201 277.644 50.0866 277.428 50.3878 277.27C50.689 277.112 51.0187 277.016 51.3576 276.988C52.3248 276.899 53.6548 276.753 55.1191 276.593C58.3073 276.244 61.9204 275.847 64.0471 275.77H64.0936C65.6147 275.734 66.9473 276.63 67.3425 277.965C67.9946 280.16 68.0424 284.353 68.0359 288.812C68.0346 290.281 66.7356 291.486 65.1331 291.525ZM51.4454 277.923C51.2318 277.939 51.0236 277.998 50.8332 278.096C50.6427 278.194 50.4737 278.329 50.3362 278.493C50.2329 278.618 50.1562 278.763 50.1107 278.918C50.0652 279.073 50.0518 279.236 50.0715 279.397L51.3124 289.003C51.4416 290.021 52.432 290.775 53.6096 290.758L65.0892 290.591H65.1124C66.21 290.564 67.0997 289.771 67.101 288.813C67.1075 284.423 67.0623 280.31 66.445 278.225C66.1713 277.304 65.1537 276.652 64.082 276.705C61.9901 276.781 58.2376 277.192 55.2224 277.522C53.7517 277.684 52.4165 277.83 51.4454 277.92V277.923Z" fill="white"/>
<path opacity="0.6" d="M52.7015 278.859C55.1084 278.635 60.3356 277.978 62.82 277.886C63.8737 277.848 64.8125 278.462 65.081 279.369C65.604 281.131 65.626 284.663 65.6208 287.933C65.6208 288.911 64.7414 289.712 63.6451 289.729L54.4705 289.858C53.3419 289.873 52.3877 289.127 52.2586 288.129L51.2643 280.456C51.1635 279.662 51.8092 278.941 52.7015 278.859Z" fill="white"/>
<g opacity="0.6">
<path opacity="0.6" d="M75.7872 281.289C74.8187 281.289 74.2467 282.051 74.5166 282.98L75.1867 285.297C75.4566 286.227 76.469 286.969 77.4374 286.946L133.592 285.591C133.821 285.586 134.047 285.535 134.256 285.441C134.466 285.347 134.654 285.212 134.811 285.044C134.967 284.877 135.088 284.679 135.167 284.464C135.246 284.248 135.281 284.019 135.27 283.79L135.236 283.028C135.208 282.556 135.003 282.112 134.661 281.786C134.32 281.46 133.867 281.276 133.394 281.271L75.7872 281.289Z" fill="white"/>
</g>
<path d="M53.2255 280.356C53.425 280.233 53.6472 280.151 53.8789 280.114C54.1107 280.078 54.3474 280.088 54.5752 280.144C54.8029 280.2 55.0172 280.301 55.2054 280.441C55.3937 280.581 55.552 280.757 55.6712 280.96L58.033 284.963C58.0864 285.053 58.1638 285.126 58.2566 285.175C58.3494 285.224 58.4539 285.247 58.5586 285.24C58.6632 285.233 58.7639 285.197 58.8494 285.136C58.9349 285.075 59.0018 284.992 59.0428 284.895L64.3552 272.259C64.4113 272.125 64.5119 272.015 64.6399 271.947C64.768 271.88 64.9155 271.858 65.0575 271.887C65.1995 271.915 65.3272 271.992 65.4191 272.104C65.5109 272.216 65.5611 272.357 65.5612 272.502C65.5961 276.326 64.7567 283.618 58.7936 289.85C58.7936 289.85 55.3949 288.622 52.5399 282.734C52.3406 282.323 52.3004 281.853 52.427 281.414C52.5536 280.975 52.838 280.598 53.2255 280.356Z" fill="#82C341"/>
<path d="M64.629 315.172H64.5993L53.1184 315.339C51.4643 315.363 50.0723 314.258 49.8786 312.766L48.6377 303.162C48.6018 302.877 48.6243 302.587 48.7038 302.311C48.7832 302.034 48.918 301.777 49.0999 301.554C49.3163 301.292 49.5828 301.075 49.884 300.918C50.1851 300.76 50.5147 300.664 50.8535 300.635C51.8194 300.546 53.1494 300.401 54.6112 300.247C57.6431 299.914 61.4162 299.502 63.543 299.424C65.0538 299.38 66.4393 300.268 66.8384 301.619C67.484 303.814 67.5395 308.006 67.5331 312.466C67.5344 313.921 66.2314 315.133 64.629 315.172ZM50.9413 301.568C50.7274 301.585 50.5189 301.644 50.3281 301.742C50.1374 301.84 49.9683 301.976 49.8308 302.14C49.7287 302.266 49.6532 302.411 49.6088 302.566C49.5644 302.721 49.5521 302.884 49.5725 303.044L50.8135 312.65C50.9426 313.668 51.9317 314.423 53.1094 314.406L64.5902 314.24C65.6723 314.195 66.5995 313.425 66.6021 312.46C66.6021 308.07 66.562 303.957 65.9461 301.872C65.6723 300.951 64.6548 300.311 63.583 300.352C61.4898 300.428 57.7348 300.84 54.7196 301.171C53.2501 301.331 51.9162 301.477 50.9465 301.567L50.9413 301.568Z" fill="white"/>
<path opacity="0.6" d="M52.1962 302.505C54.6032 302.283 59.8316 301.624 62.316 301.534C63.3684 301.495 64.3072 302.108 64.5771 303.016C65.0936 304.777 65.1207 308.31 65.1169 311.58C65.1169 312.557 64.2362 313.359 63.1399 313.375L53.9717 313.504C52.8432 313.521 51.8876 312.774 51.7585 311.775L50.7616 304.098C50.6596 303.309 51.3039 302.587 52.1962 302.505Z" fill="white"/>
<g opacity="0.6">
<path opacity="0.6" d="M75.2823 304.935C74.3138 304.935 73.7418 305.697 74.0117 306.628L74.6831 308.943C74.953 309.874 75.9654 310.615 76.9326 310.592L133.087 309.238C133.317 309.232 133.543 309.181 133.753 309.087C133.963 308.992 134.152 308.857 134.308 308.688C134.465 308.52 134.586 308.322 134.664 308.105C134.743 307.889 134.777 307.659 134.765 307.43L134.731 306.669C134.703 306.197 134.498 305.753 134.156 305.427C133.814 305.1 133.361 304.916 132.888 304.91L75.2823 304.935Z" fill="white"/>
</g>
<path d="M52.7224 304.004C52.9218 303.88 53.1439 303.798 53.3756 303.761C53.6073 303.725 53.8439 303.735 54.0717 303.791C54.2995 303.847 54.5138 303.948 54.7021 304.088C54.8903 304.227 55.0488 304.404 55.1681 304.605L57.5299 308.608C57.5832 308.699 57.6605 308.772 57.7533 308.821C57.8461 308.87 57.9506 308.892 58.0552 308.885C58.1598 308.878 58.2604 308.842 58.3457 308.781C58.4311 308.72 58.4978 308.637 58.5384 308.54L63.852 295.905C63.9076 295.771 64.0079 295.66 64.1358 295.592C64.2638 295.524 64.4114 295.502 64.5536 295.531C64.6958 295.559 64.8237 295.636 64.9154 295.748C65.0072 295.861 65.0572 296.001 65.0568 296.146C65.0917 299.971 64.2523 307.263 58.2904 313.495C58.2904 313.495 54.8918 312.267 52.0367 306.378C51.8376 305.968 51.7975 305.498 51.9241 305.06C52.0507 304.621 52.3351 304.245 52.7224 304.004Z" fill="#82C341"/>
<path d="M63.9189 339.562H63.8879L52.407 339.729C50.7529 339.753 49.3609 338.648 49.1685 337.158L47.9263 327.552C47.8904 327.267 47.9128 326.977 47.9923 326.701C48.0718 326.425 48.2066 326.168 48.3885 325.945C48.6048 325.683 48.8715 325.466 49.1729 325.308C49.4743 325.15 49.8043 325.054 50.1434 325.026C51.1106 324.937 52.4406 324.791 53.9049 324.631C57.0931 324.281 60.7061 323.886 62.8316 323.807C64.3915 323.79 65.728 324.651 66.1283 326.002C66.7739 328.197 66.8281 332.39 66.8217 336.849C66.8152 338.317 65.5149 339.523 63.9189 339.562ZM50.2312 325.96C50.0176 325.976 49.8094 326.035 49.6188 326.133C49.4283 326.231 49.2594 326.366 49.122 326.53C49.0186 326.655 48.9418 326.799 48.8962 326.955C48.8507 327.11 48.8375 327.273 48.8573 327.434L50.0982 337.04C50.2273 338.058 51.2178 338.812 52.3954 338.795L63.875 338.628H63.8982C64.9958 338.601 65.8855 337.807 65.8868 336.849C65.8932 332.459 65.8468 328.346 65.2308 326.26C64.9571 325.34 63.9395 324.711 62.8678 324.739C60.7759 324.817 57.0234 325.227 54.0082 325.558C52.5375 325.719 51.201 325.865 50.2312 325.956V325.96Z" fill="white"/>
<path opacity="0.6" d="M51.4811 326.896C53.8881 326.672 59.1152 326.014 61.5997 325.923C62.6533 325.885 63.5921 326.498 63.8607 327.406C64.3837 329.168 64.4043 332.7 64.4005 335.97C64.4005 336.947 63.5198 337.749 62.4248 337.765L53.2502 337.894C52.1216 337.909 51.1673 337.163 51.0382 336.163L50.0465 328.488C49.9432 327.699 50.5888 326.978 51.4811 326.896Z" fill="white"/>
<g opacity="0.6">
<path opacity="0.6" d="M74.5658 329.326C73.5973 329.326 73.0252 330.088 73.2938 331.017L73.9653 333.334C74.2352 334.264 75.2476 335.013 76.216 334.983L132.37 333.628C132.6 333.623 132.827 333.572 133.037 333.478C133.246 333.383 133.435 333.248 133.592 333.079C133.748 332.911 133.869 332.712 133.948 332.496C134.026 332.28 134.061 332.05 134.049 331.821L134.014 331.059C133.987 330.587 133.782 330.143 133.44 329.817C133.098 329.49 132.645 329.305 132.173 329.3L74.5658 329.326Z" fill="white"/>
</g>
<path d="M52.0053 328.394C52.2048 328.27 52.4269 328.188 52.6587 328.151C52.8905 328.115 53.1272 328.125 53.3549 328.181C53.5827 328.237 53.797 328.338 53.9852 328.478C54.1734 328.618 54.3318 328.795 54.451 328.997L56.8128 333C56.8663 333.09 56.9438 333.164 57.0366 333.212C57.1295 333.261 57.2341 333.283 57.3387 333.276C57.4434 333.269 57.5441 333.233 57.6295 333.172C57.7149 333.111 57.7817 333.028 57.8226 332.931L63.1349 320.296C63.191 320.163 63.2916 320.053 63.4194 319.985C63.5473 319.917 63.6947 319.896 63.8366 319.924C63.9786 319.952 64.1063 320.029 64.1982 320.141C64.2902 320.253 64.3406 320.393 64.341 320.538C64.3759 324.362 63.5365 331.656 57.5734 337.886C57.5734 337.886 54.1747 336.659 51.3197 330.771C51.1204 330.36 51.0802 329.89 51.2068 329.451C51.3333 329.012 51.6178 328.635 52.0053 328.394Z" fill="#82C341"/>
<path d="M96.1143 172.393C92.451 169.8 89.2473 169.824 86.9862 170.47C85.9874 170.761 85.1199 171.388 84.5314 172.246C83.9428 173.103 83.6695 174.138 83.758 175.175L84.6438 185.798L96.2086 186.921C96.2086 186.921 103.303 177.481 96.1143 172.393ZM90.9492 180.916C90.3784 180.911 89.8217 180.737 89.3497 180.416C88.8776 180.095 88.5114 179.641 88.2972 179.112C88.0831 178.583 88.0307 178.002 88.1467 177.443C88.2627 176.884 88.5418 176.372 88.9488 175.972C89.3557 175.572 89.8723 175.301 90.4331 175.195C90.9939 175.088 91.5737 175.15 92.0993 175.373C92.6248 175.596 93.0725 175.969 93.3856 176.447C93.6987 176.924 93.8633 177.483 93.8585 178.054C93.8516 178.818 93.5421 179.549 92.9978 180.085C92.4534 180.621 91.7186 180.92 90.9544 180.916H90.9492Z" fill="#2B3E3C"/>
<path d="M85.6302 181.6C85.5288 181.562 85.4403 181.495 85.375 181.409C85.3097 181.322 85.2701 181.219 85.2609 181.111L85.1201 179.418C85.1076 179.266 85.1558 179.116 85.2542 179C85.3525 178.884 85.4929 178.812 85.6444 178.799C85.7959 178.787 85.9462 178.835 86.0622 178.933C86.1782 179.032 86.2504 179.172 86.2629 179.324L86.4037 181.015C86.4113 181.112 86.3944 181.208 86.3547 181.297C86.315 181.385 86.2537 181.462 86.1765 181.52C86.0993 181.578 86.0087 181.616 85.913 181.63C85.8173 181.644 85.7196 181.634 85.6289 181.6H85.6302ZM85.3539 178.284C85.252 178.246 85.163 178.18 85.0973 178.093C85.0317 178.007 84.9921 177.903 84.9833 177.795L84.8761 176.503C84.7885 175.448 85.0686 174.395 85.669 173.522C86.2694 172.65 87.1531 172.012 88.1702 171.717C89.5936 171.307 91.0964 171.258 92.5437 171.572C92.6917 171.605 92.8208 171.695 92.9034 171.822C92.986 171.949 93.0154 172.104 92.9854 172.252C92.9697 172.326 92.9397 172.396 92.897 172.458C92.8543 172.52 92.7998 172.573 92.7366 172.614C92.6734 172.655 92.6028 172.684 92.5287 172.697C92.4546 172.711 92.3785 172.71 92.3049 172.694C91.0406 172.42 89.7281 172.465 88.4852 172.823C87.7228 173.045 87.0607 173.524 86.6112 174.179C86.1616 174.833 85.9523 175.623 86.0189 176.414L86.126 177.706C86.1386 177.856 86.0915 178.005 85.9948 178.121C85.8981 178.237 85.7597 178.31 85.6095 178.324C85.5224 178.33 85.4351 178.316 85.3539 178.284Z" fill="white"/>
<path d="M68.7832 192.531L68.8284 187.193C68.8316 186.755 68.9229 186.323 69.0968 185.922C69.2707 185.521 69.5235 185.159 69.8404 184.858C70.1572 184.556 70.5315 184.322 70.9409 184.169C71.3503 184.015 71.7864 183.946 72.2232 183.964L109.013 185.528C109.801 185.561 110.548 185.887 111.108 186.442C111.668 186.997 112.002 187.741 112.043 188.528L112.307 193.659L68.7832 192.531Z" fill="#2B3E3C"/>
<path d="M80.9742 186.102C80.9304 186.101 80.8872 186.092 80.847 186.074C80.8068 186.057 80.7704 186.032 80.7399 186.001C80.7094 185.969 80.6854 185.932 80.6692 185.892C80.653 185.851 80.6449 185.808 80.6455 185.764C80.6461 185.72 80.6553 185.677 80.6726 185.637C80.6899 185.596 80.715 185.56 80.7463 185.53C80.7777 185.499 80.8147 185.475 80.8554 185.459C80.896 185.443 80.9395 185.435 80.9832 185.435L82.565 185.448C82.6089 185.448 82.6524 185.457 82.693 185.473C82.7335 185.49 82.7702 185.515 82.801 185.546C82.8318 185.578 82.8561 185.615 82.8723 185.656C82.8886 185.696 82.8965 185.74 82.8956 185.784C82.8953 185.828 82.8863 185.871 82.8693 185.911C82.8522 185.951 82.8274 185.988 82.7962 186.019C82.765 186.049 82.7281 186.074 82.6876 186.09C82.647 186.106 82.6036 186.115 82.5599 186.114L80.9768 186.102H80.9742Z" fill="white"/>
<path d="M70.5894 191.127C70.4795 191.086 70.385 191.011 70.3187 190.914C70.2524 190.817 70.2175 190.702 70.2188 190.585L70.2356 188.426C70.2434 187.546 70.6003 186.704 71.2278 186.087C71.8554 185.47 72.7023 185.126 73.5826 185.133L79.4011 185.182C79.5532 185.183 79.6985 185.245 79.8052 185.353C79.9119 185.462 79.9711 185.608 79.9699 185.76C79.9687 185.912 79.9072 186.057 79.7988 186.164C79.6905 186.271 79.5442 186.33 79.3921 186.329L73.5736 186.28C72.9966 186.275 72.4413 186.499 72.0297 186.904C71.6181 187.308 71.3838 187.859 71.3784 188.436L71.3603 190.595C71.3598 190.67 71.3444 190.745 71.3151 190.814C71.2858 190.883 71.2432 190.946 71.1895 190.999C71.1359 191.052 71.0724 191.093 71.0027 191.122C70.9329 191.15 70.8583 191.164 70.7831 191.163C70.7169 191.163 70.6513 191.151 70.5894 191.127Z" fill="white"/>
<path d="M57.2692 190.48L121.622 191.01C122.742 191.021 123.822 191.426 124.672 192.155C125.522 192.883 126.088 193.888 126.27 194.993L126.322 195.308C126.419 195.896 126.386 196.498 126.226 197.071C126.066 197.645 125.782 198.176 125.395 198.629C125.007 199.081 124.526 199.444 123.984 199.691C123.442 199.937 122.853 200.063 122.257 200.058L56.2349 199.512C55.8754 199.509 55.5203 199.433 55.1911 199.288C54.8618 199.144 54.5653 198.935 54.3195 198.672C54.0737 198.41 53.8837 198.101 53.761 197.763C53.6383 197.425 53.5855 197.066 53.6058 196.707L53.7724 193.752C53.8225 192.862 54.2138 192.025 54.8651 191.416C55.5163 190.806 56.3773 190.471 57.2692 190.48Z" fill="#2B3E3C"/>
<path d="M303.058 358.656C306.586 358.961 312.71 359.457 317.537 359.669C320.44 359.798 322.109 359.512 323.073 359.128C323.073 359.236 323.073 359.338 323.064 359.434C323.05 359.68 322.945 359.913 322.77 360.087C322.595 360.261 322.361 360.364 322.115 360.376C315.8 360.737 309.47 360.743 303.155 360.396C303.033 360.39 302.914 360.353 302.811 360.288C302.708 360.223 302.623 360.132 302.565 360.025C302.507 359.917 302.477 359.797 302.479 359.675C302.481 359.553 302.515 359.433 302.576 359.328C302.721 359.093 302.882 358.869 303.058 358.656Z" fill="url(#paint8_linear_56:929)"/>
<path d="M317.536 359.669C312.71 359.457 306.585 358.961 303.057 358.656C306.526 354.395 317.536 351.532 317.536 351.532H320.646C322.785 354.614 323.099 357.55 323.072 359.127C322.109 359.512 320.439 359.796 317.536 359.669Z" fill="#2B3E3C"/>
<path d="M321.17 346.452L320.88 352.212C320.865 352.516 320.744 352.805 320.539 353.031C320.335 353.257 320.058 353.404 319.756 353.449C318.973 353.565 318.174 353.499 317.42 353.255C317.155 353.168 316.917 353.011 316.733 352.8C316.549 352.589 316.425 352.333 316.375 352.058L315.369 346.452H321.17Z" fill="url(#paint9_linear_56:929)"/>
<path d="M361.56 359.624C363.09 359.41 363.783 358.615 364.073 357.765C364.073 357.773 364.073 357.781 364.073 357.789C364.299 358.685 363.777 359.613 362.734 360.056C361.472 360.589 360.093 360.681 359.023 360.636C357.875 360.589 356.82 360.119 356.241 359.354L356.232 359.342C357.392 359.915 359.01 359.983 361.56 359.624Z" fill="url(#paint10_linear_56:929)"/>
<path d="M354.347 346.417H356.912C360.818 346.337 363.271 354.577 364.075 357.768C363.784 358.618 363.092 359.413 361.562 359.626C359.01 359.982 357.392 359.915 356.239 359.345C354.129 356.567 353.082 352.501 352.58 350.126C352.005 347.426 354.347 346.417 354.347 346.417Z" fill="#2B3E3C"/>
<path d="M356.583 341.073L358.003 346.736C358.087 347.075 358.053 347.431 357.908 347.748C357.762 348.065 357.514 348.323 357.203 348.48C356.406 348.888 355.285 349.318 354.255 349.194C354.018 349.162 353.794 349.065 353.609 348.914C353.424 348.762 353.285 348.562 353.206 348.336L351.116 342.378L356.583 341.073Z" fill="url(#paint11_linear_56:929)"/>
<path d="M358.28 342.708C356.509 344.279 350.746 344.487 350.746 344.487C329.987 294.663 321.495 287.585 321.495 287.585C324.492 306.39 321.978 348.024 321.978 348.024C318.554 349.536 314.136 348.024 314.136 348.024C313.884 321.418 310.323 294.947 303.536 269.22C317.567 268.904 325.028 264.103 327.464 262.176C339.16 281.034 358.28 342.708 358.28 342.708Z" fill="#82C341"/>
<path d="M323.902 204.882C326.558 218.128 325.606 241.837 324.98 252.652C324.804 255.692 326.927 259.905 328.642 262.78C328.705 262.886 328.746 263.004 328.762 263.126C328.778 263.249 328.769 263.374 328.735 263.492C328.701 263.611 328.642 263.722 328.564 263.817C328.485 263.913 328.388 263.991 328.278 264.048C325.406 265.523 315.679 270.097 304.405 270.667C304.038 270.68 303.678 270.569 303.384 270.35C303.09 270.132 302.879 269.819 302.787 269.465C294.424 238.24 284.708 218.286 284.708 218.286C295.435 201.161 323.902 204.882 323.902 204.882Z" fill="#00ADAB"/>
<path d="M320.079 286.408C320.197 286.407 320.313 286.376 320.415 286.316C320.516 286.256 320.6 286.17 320.658 286.068C320.716 285.965 320.745 285.849 320.743 285.731C320.742 285.613 320.708 285.497 320.647 285.396C320.535 285.213 317.85 280.877 312.417 278.252C312.338 278.211 312.251 278.186 312.163 278.179C312.074 278.172 311.985 278.183 311.901 278.211C311.816 278.239 311.738 278.284 311.671 278.342C311.605 278.401 311.55 278.473 311.512 278.553C311.473 278.633 311.451 278.72 311.446 278.809C311.442 278.897 311.455 278.986 311.485 279.07C311.516 279.153 311.563 279.23 311.623 279.295C311.684 279.36 311.757 279.412 311.838 279.449C316.904 281.893 319.485 286.047 319.511 286.089C319.57 286.186 319.654 286.267 319.753 286.322C319.853 286.378 319.965 286.408 320.079 286.408Z" fill="url(#paint12_linear_56:929)"/>
<path d="M340.559 242.899C339.706 249.07 337.186 255.801 332.144 262.951L330.228 261.389C330.228 261.389 332.44 252.412 331.182 242.225C334.293 241.618 337.965 242.245 340.559 242.899Z" fill="url(#paint13_linear_56:929)"/>
<path d="M320.936 221.227L323.906 204.882C323.906 204.882 343.724 220.031 340.563 242.899C337.969 242.243 334.297 241.618 331.186 242.225C330.277 234.885 327.57 226.919 320.936 221.227Z" fill="#00ADAB"/>
<path d="M284.711 218.286L292.361 234.756C291.124 244.699 285.775 249.004 280.02 250.653C279.736 246.963 278.869 243.342 277.45 239.924C284.812 232.33 284.711 218.286 284.711 218.286Z" fill="#00ADAB"/>
<path d="M277.451 239.929C278.869 243.347 279.736 246.968 280.02 250.658C264.654 256.623 260.583 245.057 260.583 245.057L263.423 244.556C269.838 245.231 274.319 243.162 277.451 239.929Z" fill="#F47960"/>
<path d="M291.758 197.946L295.451 211.523C295.549 211.883 295.722 212.217 295.959 212.505C296.195 212.793 296.49 213.028 296.824 213.194C297.157 213.36 297.522 213.453 297.895 213.468C298.267 213.483 298.638 213.419 298.984 213.28C300.801 212.567 302.578 211.755 304.307 210.849C304.743 210.612 305.124 210.288 305.427 209.895C305.73 209.502 305.948 209.051 306.066 208.569C306.184 208.088 306.2 207.587 306.114 207.098C306.027 206.61 305.839 206.146 305.562 205.734L297.884 194.286L291.758 197.946Z" fill="#F47960"/>
<path d="M253.537 235.971L348.17 270.414C349.11 270.755 349.968 271.288 350.692 271.977C351.415 272.666 351.989 273.498 352.375 274.42C352.762 275.342 352.954 276.333 352.939 277.333C352.924 278.332 352.702 279.318 352.288 280.227L352.005 280.855C351.638 281.664 351.114 282.392 350.464 282.997C349.813 283.602 349.05 284.073 348.217 284.382C347.384 284.691 346.499 284.832 345.611 284.798C344.723 284.763 343.851 284.553 343.045 284.18L251.156 241.671L253.537 235.971Z" fill="#2B3E3C"/>
<path opacity="0.2" d="M210.039 261.125C235.84 261.125 256.755 240.587 256.755 215.252C256.755 189.917 235.84 169.379 210.039 169.379C184.238 169.379 163.323 189.917 163.323 215.252C163.323 240.587 184.238 261.125 210.039 261.125Z" fill="url(#paint14_linear_56:929)"/>
<path d="M158.053 215.257C158.053 243.449 181.326 266.302 210.035 266.302C238.745 266.302 262.017 243.446 262.017 215.257C262.017 187.069 238.745 164.213 210.035 164.213C181.326 164.213 158.053 187.062 158.053 215.257ZM165.69 215.257C165.69 191.207 185.543 171.711 210.035 171.711C234.527 171.711 254.383 191.202 254.383 215.257C254.383 239.313 234.528 258.804 210.037 258.804C185.545 258.804 165.692 239.303 165.692 215.257H165.69Z" fill="#2B3E3C"/>
<path d="M258.07 221.447H258.041C257.983 221.439 257.931 221.409 257.895 221.363C257.859 221.316 257.843 221.258 257.85 221.2C258.004 220.006 258.108 218.788 258.17 217.584C258.171 217.555 258.178 217.527 258.19 217.5C258.202 217.474 258.219 217.45 258.24 217.43C258.262 217.411 258.287 217.396 258.315 217.386C258.342 217.377 258.371 217.373 258.4 217.375C258.458 217.378 258.513 217.404 258.552 217.447C258.591 217.49 258.612 217.547 258.61 217.605C258.55 218.821 258.442 220.049 258.288 221.256C258.281 221.308 258.255 221.357 258.215 221.392C258.175 221.427 258.123 221.446 258.07 221.447ZM257.712 207.174C257.66 207.174 257.61 207.156 257.571 207.123C257.531 207.089 257.505 207.043 257.496 206.992C256.913 203.743 255.984 200.565 254.725 197.513C247.32 179.547 229.779 167.942 210.039 167.942C200.889 167.926 191.92 170.488 184.16 175.336C184.111 175.362 184.054 175.368 184 175.354C183.946 175.339 183.9 175.305 183.871 175.258C183.841 175.211 183.83 175.154 183.841 175.099C183.851 175.045 183.882 174.996 183.927 174.963C191.757 170.072 200.807 167.486 210.039 167.502C229.958 167.502 247.658 179.216 255.132 197.347C256.403 200.429 257.34 203.637 257.929 206.918C257.935 206.947 257.934 206.977 257.928 207.005C257.922 207.034 257.911 207.061 257.894 207.085C257.878 207.109 257.856 207.13 257.832 207.145C257.807 207.161 257.78 207.172 257.751 207.177C257.738 207.177 257.725 207.176 257.712 207.174Z" fill="white"/>
<path d="M331.018 261.116L322.072 260.387L318.198 263.958C318.198 263.958 319.115 265.225 321.981 264.497C324.848 263.769 328.772 263.593 328.772 263.593C328.772 263.593 332.727 265.376 332.775 262.043L331.018 261.116Z" fill="url(#paint15_linear_56:929)"/>
<path d="M261.721 247.173C260.946 247.777 258.297 246.514 256.675 245.643C256.291 245.438 255.99 245.106 255.825 244.703C255.66 244.3 255.641 243.853 255.771 243.437C256.158 242.207 256.812 240.617 257.613 240.417C258.945 240.085 264.909 244.682 261.721 247.173Z" fill="#F47960"/>
<path d="M346.303 282.726C346.251 282.725 346.201 282.706 346.162 282.673C346.123 282.639 346.097 282.592 346.088 282.541C346.08 282.49 346.09 282.438 346.116 282.393C346.142 282.349 346.183 282.315 346.232 282.297C348.957 281.356 350.385 279.823 350.475 277.742C350.567 275.637 349.237 273.681 347.165 272.872L335.802 268.442C335.773 268.433 335.747 268.418 335.724 268.398C335.701 268.378 335.683 268.354 335.67 268.327C335.657 268.299 335.65 268.27 335.649 268.24C335.647 268.209 335.653 268.179 335.664 268.151C335.674 268.123 335.691 268.098 335.712 268.076C335.734 268.055 335.759 268.038 335.787 268.027C335.815 268.015 335.845 268.01 335.875 268.011C335.905 268.012 335.935 268.019 335.962 268.031L347.326 272.463C349.572 273.338 351.014 275.468 350.914 277.757C350.815 280.047 349.288 281.703 346.375 282.711C346.352 282.72 346.328 282.725 346.303 282.726Z" fill="white"/>
<path d="M332.378 267.091C332.35 267.091 332.323 267.087 332.298 267.077L330.826 266.502C330.797 266.493 330.77 266.478 330.748 266.458C330.725 266.439 330.706 266.414 330.693 266.387C330.68 266.36 330.673 266.33 330.672 266.3C330.671 266.27 330.676 266.24 330.687 266.212C330.698 266.184 330.715 266.158 330.736 266.137C330.757 266.115 330.782 266.098 330.81 266.087C330.838 266.076 330.868 266.07 330.899 266.071C330.929 266.072 330.958 266.079 330.986 266.092L332.458 266.666C332.506 266.685 332.546 266.719 332.572 266.764C332.597 266.809 332.605 266.862 332.596 266.912C332.586 266.963 332.559 267.009 332.519 267.041C332.479 267.074 332.429 267.092 332.378 267.091Z" fill="white"/>
<path d="M290.961 184.618C290.961 184.618 287.904 191.64 287.699 195.325C287.494 199.01 286.699 201.403 290.961 202.146C295.222 202.888 298.813 200.764 300.758 197.093C300.758 197.093 303.805 191.436 303.121 189.119C302.436 186.803 290.961 184.618 290.961 184.618Z" fill="url(#paint16_linear_56:929)"/>
<path d="M299.301 194.454H298.763C298.763 194.454 300.982 189.901 299.031 189.1C297.08 188.299 289.356 186.725 287.689 183.984C286.082 181.341 287.514 177.928 289.659 176.972C289.725 176.944 289.799 176.941 289.867 176.965C289.934 176.989 289.99 177.038 290.023 177.101L290.201 177.437C290.228 177.488 290.27 177.53 290.321 177.558C290.372 177.585 290.43 177.597 290.487 177.591C290.545 177.585 290.599 177.562 290.644 177.525C290.688 177.488 290.72 177.438 290.736 177.383C290.751 177.33 290.781 177.283 290.822 177.246C290.864 177.21 290.914 177.186 290.969 177.178C291.023 177.169 291.079 177.177 291.129 177.199C291.179 177.221 291.222 177.257 291.253 177.303C291.769 178.123 293.146 179.457 296.85 180.144C302.108 181.115 305.585 183.243 305.671 186.876C305.672 186.928 305.687 186.979 305.714 187.023C305.741 187.067 305.779 187.103 305.825 187.128C305.871 187.152 305.922 187.164 305.974 187.161C306.026 187.159 306.076 187.142 306.119 187.114C306.507 186.878 307.128 186.767 307.958 187.464C309.402 188.678 308.812 191.827 305.647 194.417C305.611 194.445 305.582 194.481 305.563 194.522C305.543 194.563 305.534 194.608 305.535 194.653C305.536 194.698 305.548 194.743 305.57 194.783C305.591 194.822 305.622 194.857 305.66 194.882C306.234 195.255 307.089 196.144 304.873 197.336C302.606 198.547 301.258 198.415 300.758 198.286C300.692 198.27 300.634 198.231 300.594 198.176C300.553 198.121 300.534 198.054 300.538 197.987L300.737 194.766C300.74 194.727 300.734 194.687 300.721 194.65C300.707 194.613 300.686 194.579 300.659 194.55C300.632 194.521 300.599 194.498 300.563 194.482C300.527 194.467 300.487 194.459 300.448 194.459L299.301 194.454Z" fill="url(#paint17_linear_56:929)"/>
<path d="M299.169 195.128C299.169 195.128 300.331 190.642 302.347 191.899C304.362 193.157 301.303 196.925 299.687 197.093L299.169 195.128Z" fill="url(#paint18_linear_56:929)"/>
<path d="M185.068 198.422C192.619 205.831 199.514 213.879 205.677 222.477C214.52 202.316 223.945 183.585 234.149 166.759L259.168 158.42C241.931 180.895 223.558 214.385 207.85 247.975C196.487 231.963 185.144 215.994 176.959 210.326L185.068 198.422Z" fill="#82C341"/>
<defs>
<linearGradient id="paint0_linear_56:929" x1="0" y1="324512" x2="1.02755e+06" y2="324512" gradientUnits="userSpaceOnUse">
<stop stop-color="#2B3E3C"/>
<stop offset="1" stop-color="#150E42"/>
</linearGradient>
<linearGradient id="paint1_linear_56:929" x1="297.102" y1="113.033" x2="-155.515" y2="425.73" gradientUnits="userSpaceOnUse">
<stop stop-color="#FDF53F"/>
<stop offset="0.66" stop-color="#7BB93E"/>
<stop offset="1" stop-color="#7BB93E"/>
</linearGradient>
<linearGradient id="paint2_linear_56:929" x1="180251" y1="44651.3" x2="179493" y2="56864.2" gradientUnits="userSpaceOnUse">
<stop stop-color="#2B3E3C"/>
<stop offset="1" stop-color="#150E42"/>
</linearGradient>
<linearGradient id="paint3_linear_56:929" x1="160.047" y1="65.182" x2="192.551" y2="116.263" gradientUnits="userSpaceOnUse">
<stop stop-color="#FDF53F"/>
<stop offset="1" stop-color="#D93C65"/>
</linearGradient>
<linearGradient id="paint4_linear_56:929" x1="192.568" y1="66.112" x2="225.07" y2="117.186" gradientUnits="userSpaceOnUse">
<stop stop-color="#FDF53F"/>
<stop offset="1" stop-color="#D93C65"/>
</linearGradient>
<linearGradient id="paint5_linear_56:929" x1="225.366" y1="66.2951" x2="257.869" y2="117.378" gradientUnits="userSpaceOnUse">
<stop stop-color="#FDF53F"/>
<stop offset="1" stop-color="#D93C65"/>
</linearGradient>
<linearGradient id="paint6_linear_56:929" x1="257.216" y1="66.6658" x2="289.72" y2="117.746" gradientUnits="userSpaceOnUse">
<stop stop-color="#FDF53F"/>
<stop offset="1" stop-color="#D93C65"/>
</linearGradient>
<linearGradient id="paint7_linear_56:929" x1="289.614" y1="66.6628" x2="322.121" y2="117.749" gradientUnits="userSpaceOnUse">
<stop stop-color="#FDF53F"/>
<stop offset="1" stop-color="#D93C65"/>
</linearGradient>
<linearGradient id="paint8_linear_56:929" x1="-176935" y1="5916.24" x2="-180219" y2="5916.24" gradientUnits="userSpaceOnUse">
<stop stop-color="#53D8FF"/>
<stop offset="1" stop-color="#3840F7"/>
</linearGradient>
<linearGradient id="paint9_linear_56:929" x1="321.17" y1="349.98" x2="315.369" y2="349.98" gradientUnits="userSpaceOnUse">
<stop stop-color="#F9B776"/>
<stop offset="1" stop-color="#F47960"/>
</linearGradient>
<linearGradient id="paint10_linear_56:929" x1="-64654.4" y1="8371.08" x2="-65136.9" y2="8371.08" gradientUnits="userSpaceOnUse">
<stop stop-color="#53D8FF"/>
<stop offset="1" stop-color="#3840F7"/>
</linearGradient>
<linearGradient id="paint11_linear_56:929" x1="58418.9" y1="22105.2" x2="58791.1" y2="22105.2" gradientUnits="userSpaceOnUse">
<stop stop-color="#F9B776"/>
<stop offset="1" stop-color="#F47960"/>
</linearGradient>
<linearGradient id="paint12_linear_56:929" x1="303.804" y1="133.683" x2="314.185" y2="259.11" gradientUnits="userSpaceOnUse">
<stop stop-color="#CB236D"/>
<stop offset="1" stop-color="#4C246D"/>
</linearGradient>
<linearGradient id="paint13_linear_56:929" x1="89409.2" y1="39884.5" x2="86449.1" y2="41175.8" gradientUnits="userSpaceOnUse">
<stop stop-color="#F9B776"/>
<stop offset="1" stop-color="#F47960"/>
</linearGradient>
<linearGradient id="paint14_linear_56:929" x1="-854609" y1="153106" x2="-922212" y2="153106" gradientUnits="userSpaceOnUse">
<stop stop-color="#B37CFF"/>
<stop offset="1" stop-color="#F895E7"/>
</linearGradient>
<linearGradient id="paint15_linear_56:929" x1="127104" y1="8825.82" x2="126600" y2="10326.3" gradientUnits="userSpaceOnUse">
<stop stop-color="#F9B776"/>
<stop offset="1" stop-color="#F47960"/>
</linearGradient>
<linearGradient id="paint16_linear_56:929" x1="-102358" y1="26301.3" x2="-100053" y2="27869.4" gradientUnits="userSpaceOnUse">
<stop stop-color="#F9B776"/>
<stop offset="1" stop-color="#F47960"/>
</linearGradient>
<linearGradient id="paint17_linear_56:929" x1="-139623" y1="30073.2" x2="-142239" y2="33485.9" gradientUnits="userSpaceOnUse">
<stop stop-color="#2B3582"/>
<stop offset="1" stop-color="#150E42"/>
</linearGradient>
<linearGradient id="paint18_linear_56:929" x1="-24333.7" y1="8075.48" x2="-23696.8" y2="8421.21" gradientUnits="userSpaceOnUse">
<stop stop-color="#F9B776"/>
<stop offset="1" stop-color="#F47960"/>
</linearGradient>
</defs>
</svg>
