<svg width="537" height="336" viewBox="0 0 537 336" fill="none" xmlns="http://www.w3.org/2000/svg">
<path d="M463.341 334.716C463.341 334.716 501.908 343.859 520.893 302.423C545.523 248.665 510.953 197.598 451.32 193.922C365.312 188.616 412.978 51.3007 277.258 88.5583C239.087 99.0349 156.092 44.9525 107.229 136.588C98.9198 152.17 74.0837 151.404 40.9908 177.987C-17.3813 224.879 3.63093 335.216 52.8056 335.713C101.98 336.211 463.341 334.716 463.341 334.716Z" fill="#00ADAB" fill-opacity="0.13"/>
<path d="M61.4146 335.513C61.4146 335.513 63.2072 323.767 86.0826 320.606C108.958 317.446 130.229 292.107 167.955 295.784C205.68 299.46 236.978 322.537 279.921 315.467C322.863 308.396 349.751 317.409 359.385 324.519C369.018 331.628 408.88 322.849 411.824 335.879L61.4146 335.513Z" fill="#A8D29F"/>
<path d="M155.449 55.5949C155.449 55.5949 129.629 54.3316 143.325 133.021C143.325 133.021 152.541 159.731 140.908 176.947H312.132V55.5949H155.449Z" fill="#00ADAB"/>
<path d="M173.035 260.176C173.035 260.176 161.073 246.22 172.297 237.357C172.297 237.357 180.494 232.393 187.181 232.795C187.181 232.795 177.709 248.681 180.774 250.26C183.839 251.839 190.053 231.799 190.053 231.799C190.053 231.799 208.709 229.982 214.712 232.876C214.712 232.876 198.762 245.927 202.12 246.704C205.478 247.481 222.707 234.662 222.707 234.662C222.707 234.662 240.073 237.616 239.148 248.211C238.223 258.805 232.239 262.07 229.605 261.793C226.972 261.516 211.592 255.638 211.258 257.794C210.924 259.951 220.183 266.99 226.668 267.319C226.668 267.319 214.423 280.822 206.287 276.925C198.151 273.029 197.455 266.851 192.384 264.533C187.313 262.216 182.982 262.223 185.077 264.586C187.172 266.949 196.349 269.246 199.25 274.376C202.152 279.506 204.753 282.967 196.335 281.701C187.917 280.436 174.235 274.274 173.633 267.221L173.035 260.176Z" fill="#599DAD"/>
<path d="M230.616 248.504C230.616 248.504 183.452 246.686 173.037 260.176C173.037 260.176 170.733 267.076 163.644 273.354L162.54 276.364C162.54 276.364 170.72 267.746 173.637 267.226C173.635 267.23 169.061 250.519 230.616 248.504Z" fill="#599DAD"/>
<path d="M163.642 273.358C163.642 273.358 153.52 280.845 152.815 294.22L154.654 294.386C154.654 294.386 157.887 280.554 163.742 275.144C169.597 269.734 163.642 273.358 163.642 273.358Z" fill="#599DAD"/>
<path d="M131.21 242.626C131.21 242.626 150.239 231.97 141.36 217.508C141.36 217.508 134.255 208.626 126.643 206.343C126.643 206.343 130.704 227.91 126.643 228.416C122.583 228.923 123.853 204.062 123.853 204.062C123.853 204.062 103.809 194.419 95.9452 195.18C95.9452 195.18 108.376 216.238 104.318 215.731C100.26 215.225 86.3025 193.919 86.3025 193.919C86.3025 193.919 65.7515 190.114 62.4456 202.292C59.1397 214.47 64.4746 220.559 67.5192 221.321C70.5638 222.082 90.0992 221.827 89.5925 224.365C89.0858 226.903 75.8918 230.954 68.5348 228.682C68.5348 228.682 76.653 248.726 87.309 247.711C97.9651 246.695 101.264 240.099 107.86 239.593C114.456 239.086 119.277 240.861 115.978 242.637C112.679 244.414 101.516 243.219 96.1883 247.747C90.8603 252.275 86.5479 255.068 96.4428 257.099C106.338 259.13 124.096 257.86 127.65 250.249L131.21 242.626Z" fill="#6BB7BF"/>
<path d="M71.8408 206.091C71.8408 206.091 125.121 223.343 131.21 242.626C131.21 242.626 130.956 251.26 136.284 261.146V264.951C136.284 264.951 130.704 252.001 127.65 250.237C127.659 250.237 139.583 233.492 71.8408 206.091Z" fill="#6BB7BF"/>
<path d="M136.284 261.146C136.284 261.146 144.502 273.624 139.817 288.813L137.704 288.245C137.704 288.245 139.749 271.515 135.457 263.102C131.165 254.688 136.284 261.146 136.284 261.146Z" fill="#6BB7BF"/>
<path d="M161.484 227.93C161.484 227.93 136.4 213.882 148.106 194.819C148.106 194.819 157.471 183.113 167.505 180.105C167.505 180.105 162.152 208.531 167.505 209.201C172.858 209.872 171.183 177.095 171.183 177.095C171.183 177.095 197.603 164.385 207.97 165.389C207.97 165.389 191.584 193.147 196.935 192.479C202.286 191.811 220.68 163.717 220.68 163.717C220.68 163.717 247.771 158.7 252.117 174.752C256.463 190.804 249.443 198.836 245.428 199.836C241.413 200.836 215.664 200.517 216.332 203.851C217 207.184 234.392 212.546 244.092 209.531C244.092 209.531 233.388 235.951 219.342 234.615C205.296 233.279 200.938 224.581 192.252 223.911C183.566 223.241 177.202 225.583 181.551 227.926C185.899 230.268 200.613 228.691 207.636 234.662C214.659 240.633 220.346 244.312 207.302 246.988C194.258 249.665 170.847 247.99 166.178 237.959L161.484 227.93Z" fill="#86D1CD"/>
<path d="M239.744 179.769C239.744 179.769 169.511 202.512 161.484 227.937C161.484 227.937 161.818 239.297 154.795 252.351V257.367C154.795 257.367 162.152 240.311 166.167 237.97C166.167 237.964 150.446 215.89 239.744 179.769Z" fill="#6BB7BF"/>
<path d="M154.795 252.344C154.795 252.344 143.964 268.784 150.139 288.813L152.925 288.063C152.925 288.063 150.221 266.024 155.879 254.92C161.536 243.817 154.795 252.344 154.795 252.344Z" fill="#6BB7BF"/>
<path d="M160.636 332.23C187.772 332.23 209.77 310.232 209.77 283.096H111.505C111.505 310.232 133.503 332.23 160.636 332.23Z" fill="#2B3E3C"/>
<path d="M172.728 331.853C170.704 332.105 168.666 332.231 166.625 332.23C139.49 332.23 117.492 310.23 117.492 283.094H129.7C129.7 308.164 148.474 328.847 172.728 331.853Z" fill="#899795"/>
<path d="M210.452 334.729H110.826C110.826 333.122 111.465 331.58 112.602 330.444C113.739 329.307 115.28 328.668 116.888 328.667H204.39C205.998 328.668 207.539 329.307 208.676 330.444C209.813 331.58 210.451 333.122 210.452 334.729V334.729Z" fill="#2B3E3C"/>
<path d="M210.891 283.094H109.89V284.6H210.891V283.094Z" fill="#2B3E3C"/>
<path d="M338.433 96.2766C338.433 96.2766 329.827 80.0357 342.723 73.8511C342.723 73.8511 351.811 70.8088 358.244 72.6673C358.244 72.6673 345.52 86.0863 348.16 88.2993C350.8 90.5123 361.266 72.3265 361.266 72.3265C361.266 72.3265 379.865 74.6554 385.086 78.7883C385.086 78.7883 366.662 88.0221 369.768 89.5171C372.874 91.0121 392.489 82.2964 392.489 82.2964C392.489 82.2964 408.782 88.99 405.553 99.1099C402.324 109.23 395.769 111.12 393.266 110.268C390.762 109.416 377.043 100.31 376.243 102.338C375.443 104.367 382.932 113.272 389.194 115.014C389.194 115.014 374.287 125.5 367.205 119.913C360.123 114.326 360.807 108.148 356.356 104.786C351.905 101.423 347.69 100.469 349.215 103.231C350.739 105.994 359.191 110.252 360.893 115.894C362.595 121.535 364.376 125.482 356.442 122.399C348.508 119.315 336.509 110.302 337.472 103.29L338.433 96.2766Z" fill="#599DAD"/>
<path d="M397.171 97.5285C397.171 97.5285 351.555 85.4024 338.433 96.2765C338.433 96.2765 334.671 102.502 326.378 107.073L324.637 109.77C324.637 109.77 334.503 103.156 337.472 103.29C337.472 103.29 336.677 85.9817 397.171 97.5285Z" fill="#599DAD"/>
<path d="M326.378 107.074C326.378 107.074 314.859 112.156 311.235 125.053L312.993 125.616C312.993 125.616 319.183 112.831 326.072 108.837C332.961 104.842 326.378 107.074 326.378 107.074Z" fill="#599DAD"/>
<path d="M281.761 66.9826C281.761 66.9826 256.271 53.6887 267.404 34.2851C267.404 34.2851 276.415 22.3067 286.353 18.9985C286.353 18.9985 281.852 47.5745 287.221 48.0812C292.59 48.5878 289.947 15.8789 289.947 15.8789C289.947 15.8789 315.979 2.38958 326.373 3.08256C326.373 3.08256 310.819 31.3177 316.149 30.4907C321.479 29.6637 339.02 1.03541 339.02 1.03541C339.02 1.03541 365.946 -4.7743 370.772 11.1303C375.598 27.0349 368.814 35.278 364.833 36.4004C360.852 37.5228 335.1 37.9545 335.868 41.2786C336.636 44.6026 354.179 49.4331 363.783 46.134C363.783 46.134 353.872 72.8628 339.792 71.9449C325.712 71.0269 321.107 62.4634 312.396 62.0522C303.684 61.641 297.4 64.1721 301.819 66.3828C306.238 68.5935 320.904 66.5827 328.093 72.3425C335.282 78.1022 341.083 81.608 328.125 84.6708C315.167 87.7336 291.717 86.7588 286.739 76.8707L281.761 66.9826Z" fill="#86D1CD"/>
<path d="M358.551 16.5151C358.551 16.5151 289.025 41.3376 281.754 66.9826C281.754 66.9826 282.436 78.343 275.794 91.5847L275.944 96.5992C275.944 96.5992 282.79 79.3314 286.732 76.873C286.737 76.873 270.378 55.2768 358.551 16.5151Z" fill="#6BB7BF"/>
<path d="M275.802 91.5847C275.802 91.5847 265.466 108.348 272.232 128.165L274.995 127.334C274.995 127.334 271.635 105.372 276.969 94.1181C282.304 82.8645 275.802 91.5847 275.802 91.5847Z" fill="#6BB7BF"/>
<path d="M345.068 102.17H166.305V335.302H345.068V102.17Z" fill="#00ADAB"/>
<path d="M347.908 102.17H172.149V335.302H347.908V102.17Z" fill="#E9F3FE"/>
<path d="M471.839 334.732H436.422C434.525 333.121 437.735 329.465 441.091 329.22C442.548 329.11 444.39 329.415 446.496 329.86C446.983 323.385 449.766 294.286 460.256 295.454C472.051 296.763 460.256 308.271 456.923 315.083C454.453 320.129 451.847 327.352 450.657 330.778C451.613 330.987 452.606 331.189 453.61 331.376C455.174 326.577 460.992 310.432 468.379 311.381C477.063 312.481 473.573 318.954 467.418 322.799C462.901 325.623 457.355 329.64 454.721 331.58C457.008 331.978 459.326 332.163 461.647 332.135C467.729 331.982 470.692 333.766 471.839 334.732Z" fill="#A8D29F"/>
<path d="M347.91 102.168H172.149C173.121 88.8764 171.656 79.22 169.309 72.2856C164.801 58.9394 157.04 55.5927 157.04 55.5927H322.797C336.945 55.5927 347.915 64.1152 350.9 75.4279C351.012 75.8528 351.128 76.2777 351.205 76.7003C354.034 89.6466 348.026 101.932 347.91 102.168Z" fill="#E9F3FE"/>
<path d="M347.91 102.168H172.149C173.121 88.8764 171.656 79.22 169.309 72.2856C187.272 75.5733 231.757 82.5827 279.375 81.4012C310.18 80.6378 334.523 78.577 351.198 76.7003C354.033 89.6466 348.026 101.932 347.91 102.168Z" fill="#00ADAB" fill-opacity="0.22"/>
<path d="M301.478 151.556H208.273C207.311 151.556 206.532 152.336 206.532 153.297V154.187C206.532 155.149 207.311 155.928 208.273 155.928H301.478C302.439 155.928 303.218 155.149 303.218 154.187V153.297C303.218 152.336 302.439 151.556 301.478 151.556Z" fill="#00ADAB" fill-opacity="0.34"/>
<path d="M265.406 158.911H207.905C207.147 158.911 206.532 159.525 206.532 160.283V161.91C206.532 162.668 207.147 163.283 207.905 163.283H265.406C266.164 163.283 266.779 162.668 266.779 161.91V160.283C266.779 159.525 266.164 158.911 265.406 158.911Z" fill="#00ADAB" fill-opacity="0.34"/>
<path d="M197.556 162.576V153.644H196.376C195.663 153.644 195.306 153.349 195.306 152.751C195.306 152.324 195.586 152.02 196.145 151.843C196.59 151.72 197.047 151.648 197.508 151.627C198.134 151.578 198.636 151.555 199.017 151.556C199.385 151.556 199.616 151.631 199.712 151.784C199.807 151.936 199.855 152.311 199.855 152.92V162.583H201.08C201.866 162.583 202.259 162.922 202.259 163.601C202.259 164.314 201.866 164.673 201.08 164.673H196.181C195.869 164.684 195.563 164.586 195.315 164.396C195.2 164.303 195.108 164.185 195.047 164.05C194.986 163.914 194.958 163.767 194.966 163.619C194.966 162.928 195.365 162.583 196.163 162.583L197.556 162.576Z" fill="#00ADAB" fill-opacity="0.34"/>
<path d="M301.478 197.598H208.273C207.311 197.598 206.532 198.377 206.532 199.338V200.229C206.532 201.19 207.311 201.969 208.273 201.969H301.478C302.439 201.969 303.218 201.19 303.218 200.229V199.338C303.218 198.377 302.439 197.598 301.478 197.598Z" fill="#00ADAB" fill-opacity="0.34"/>
<path d="M265.406 204.955H207.905C207.147 204.955 206.532 205.569 206.532 206.327V207.954C206.532 208.712 207.147 209.326 207.905 209.326H265.406C266.164 209.326 266.779 208.712 266.779 207.954V206.327C266.779 205.569 266.164 204.955 265.406 204.955Z" fill="#00ADAB" fill-opacity="0.34"/>
<path d="M202.443 208.436C202.443 209.029 202.027 209.326 201.195 209.326H196.013C195.264 209.326 194.891 209.023 194.893 208.418C194.917 208.169 195.022 207.936 195.192 207.754C195.488 207.418 195.92 206.913 196.488 206.239C197.349 205.156 198.07 204.219 198.651 203.43C198.849 203.167 199.133 202.767 199.503 202.231C199.766 201.822 199.922 201.353 199.957 200.867C199.963 200.68 199.931 200.493 199.863 200.318C199.795 200.143 199.693 199.984 199.562 199.849C199.431 199.716 199.273 199.612 199.1 199.542C198.926 199.473 198.74 199.441 198.553 199.447C198.17 199.441 197.799 199.576 197.51 199.827C197.261 200.088 197.096 200.418 197.037 200.774C196.89 201.374 196.794 201.722 196.753 201.815C196.693 201.969 196.586 202.101 196.447 202.192C196.308 202.282 196.144 202.328 195.979 202.322C195.838 202.328 195.697 202.301 195.569 202.243C195.44 202.184 195.328 202.096 195.24 201.985C195.064 201.761 194.974 201.48 194.988 201.195C194.989 200.815 195.048 200.437 195.161 200.074C195.376 199.315 195.852 198.656 196.503 198.211C197.166 197.786 197.941 197.572 198.728 197.596C199.61 197.568 200.468 197.879 201.127 198.466C201.452 198.761 201.709 199.123 201.881 199.527C202.053 199.931 202.135 200.367 202.122 200.806C202.1 201.586 201.853 202.343 201.411 202.987C201.148 203.399 200.606 204.126 199.787 205.168C199.364 205.708 198.701 206.488 197.796 207.509H201.204C202.03 207.51 202.443 207.819 202.443 208.436Z" fill="#00ADAB" fill-opacity="0.34"/>
<path d="M301.478 236.007H208.273C207.311 236.007 206.532 236.787 206.532 237.748V238.638C206.532 239.6 207.311 240.379 208.273 240.379H301.478C302.439 240.379 303.218 239.6 303.218 238.638V237.748C303.218 236.787 302.439 236.007 301.478 236.007Z" fill="#00ADAB" fill-opacity="0.34"/>
<path d="M265.406 243.362H207.905C207.147 243.362 206.532 243.977 206.532 244.734V246.361C206.532 247.119 207.147 247.734 207.905 247.734H265.406C266.164 247.734 266.779 247.119 266.779 246.361V244.734C266.779 243.977 266.164 243.362 265.406 243.362Z" fill="#00ADAB" fill-opacity="0.34"/>
<path d="M202.443 244.073C202.461 244.582 202.365 245.089 202.161 245.555C201.957 246.022 201.65 246.436 201.263 246.768C200.475 247.43 199.47 247.775 198.441 247.736C197.642 247.759 196.855 247.54 196.183 247.107C195.192 246.439 194.697 245.637 194.697 244.703C194.691 244.452 194.78 244.208 194.945 244.019C195.027 243.925 195.128 243.85 195.243 243.799C195.357 243.749 195.481 243.725 195.606 243.728C195.885 243.728 196.148 243.917 196.397 244.294C196.794 244.919 197.026 245.262 197.09 245.328C197.265 245.511 197.477 245.657 197.711 245.754C197.946 245.851 198.199 245.898 198.453 245.891C199.21 245.891 199.748 245.612 200.066 245.053C200.228 244.722 200.306 244.355 200.293 243.987C200.293 242.927 199.675 242.34 198.439 242.228C197.739 242.165 197.389 241.869 197.389 241.34C197.387 241.155 197.445 240.975 197.555 240.826C197.665 240.678 197.821 240.569 197.998 240.517C198.756 240.237 199.14 240.093 199.153 240.084C199.559 239.812 199.762 239.344 199.762 238.679C199.77 238.506 199.744 238.333 199.683 238.17C199.622 238.007 199.528 237.859 199.407 237.734C199.28 237.616 199.131 237.525 198.968 237.466C198.805 237.407 198.633 237.38 198.46 237.389C198.043 237.364 197.632 237.49 197.301 237.743C197.015 238.035 196.81 238.396 196.706 238.791C196.667 238.956 196.572 239.102 196.437 239.206C196.303 239.309 196.137 239.362 195.967 239.356C195.841 239.357 195.718 239.326 195.607 239.267C195.496 239.208 195.401 239.122 195.331 239.018C195.169 238.804 195.082 238.543 195.083 238.275C195.088 237.924 195.182 237.58 195.356 237.275C195.669 236.704 196.155 236.247 196.744 235.969C197.324 235.676 197.966 235.526 198.616 235.533C199.452 235.508 200.266 235.806 200.888 236.364C201.189 236.641 201.426 236.98 201.583 237.357C201.74 237.734 201.813 238.141 201.797 238.55C201.809 239.061 201.69 239.566 201.452 240.018C201.213 240.47 200.863 240.853 200.434 241.131C201.773 241.651 202.443 242.631 202.443 244.073Z" fill="#00ADAB" fill-opacity="0.34"/>
<path d="M232.559 112.577H290.622C291.104 112.577 291.566 112.768 291.907 113.109C292.248 113.45 292.44 113.912 292.44 114.394V115.86C292.44 116.098 292.393 116.335 292.301 116.555C292.21 116.776 292.076 116.976 291.907 117.145C291.738 117.314 291.538 117.448 291.318 117.539C291.097 117.63 290.861 117.677 290.622 117.677H232.559C232.077 117.677 231.614 117.486 231.274 117.145C230.933 116.804 230.741 116.342 230.741 115.86V114.394C230.741 114.156 230.788 113.919 230.88 113.699C230.971 113.478 231.105 113.278 231.274 113.109C231.442 112.94 231.643 112.806 231.863 112.715C232.084 112.624 232.32 112.577 232.559 112.577Z" fill="#00ADAB" fill-opacity="0.34"/>
<path d="M217.418 120.417H305.764C306.351 120.417 306.915 120.651 307.33 121.066C307.746 121.482 307.979 122.045 307.979 122.633V123.278C307.979 123.866 307.745 124.43 307.329 124.846C306.914 125.262 306.349 125.496 305.761 125.496H217.418C216.83 125.496 216.266 125.262 215.85 124.846C215.434 124.43 215.201 123.866 215.201 123.278V122.633C215.201 122.342 215.258 122.053 215.37 121.784C215.481 121.516 215.644 121.271 215.85 121.065C216.056 120.86 216.301 120.697 216.57 120.585C216.839 120.474 217.127 120.417 217.418 120.417V120.417Z" fill="#00ADAB" fill-opacity="0.34"/>
<path d="M254.782 179.503C235.635 179.503 217.465 177.099 203.919 173.666C190.234 170.197 182.864 164.525 182.864 159.495C182.864 154.937 188.871 150.745 200.236 147.371C189.346 150.604 183.52 155.351 183.52 159.495C183.52 164.096 191.071 168.647 204.235 171.991C217.733 175.413 235.683 177.299 254.782 177.299C273.881 177.299 291.828 175.402 305.327 171.994C318.491 168.656 326.041 164.105 326.041 159.497C326.041 154.628 318.089 148.575 305.293 143.702C290.74 138.16 272.802 136.106 254.782 136.106C220.948 136.095 207.021 140.053 194.944 145.001C207.082 140.03 220.835 134.398 254.789 134.398C272.881 134.398 290.897 137.463 305.518 143.031C318.587 148.01 326.705 154.317 326.705 159.497C326.705 164.528 319.168 169.208 305.484 172.675C291.931 176.111 273.927 179.503 254.782 179.503Z" fill="#00ADAB"/>
<path d="M371.049 224.388C371.049 224.388 370.42 230.523 369.729 231.677C369.039 232.831 366.094 236.541 364.838 237.268C363.581 237.996 365.603 232.386 365.347 231.295C365.09 230.205 364.315 233.285 363.756 233.358C363.197 233.431 363.347 230.657 363.327 229.646C363.306 228.635 366.017 226.144 366.973 223.993C367.93 221.841 371.049 224.388 371.049 224.388Z" fill="#FFB27D"/>
<path d="M295.746 167.854L294.337 165.198C294.337 165.198 295.034 160.461 289.111 157.473C289.111 157.473 286.944 156.591 285.719 158.359C284.583 159.988 287.868 159.695 287.691 162.483C287.514 165.271 288.827 166.904 290.681 167.813L292.203 169.576L295.746 167.854Z" fill="#FFB27D"/>
<path d="M351.829 161.501C351.829 161.501 346.733 186.515 318.687 194.687C309.932 197.239 290.042 168.415 290.042 168.415C290.042 168.415 290.742 165.759 295.123 166.37C295.123 166.37 314.49 179.189 316.935 180.582C319.098 181.818 333.326 164.696 339.81 161.935C346.295 159.175 351.829 161.501 351.829 161.501Z" fill="#FFC840"/>
<path d="M277.195 156.575L276.399 161.754L302.443 165.753L303.239 160.574L277.195 156.575Z" fill="#2B3E3C"/>
<path d="M270.749 158.241L276.406 161.758L277.201 156.582L270.749 158.241Z" fill="#00ADAB"/>
<path d="M306.009 162.765L305.759 164.4C305.684 164.884 305.421 165.318 305.026 165.607C304.632 165.897 304.138 166.018 303.655 165.943L302.451 165.759L303.246 160.581L304.557 160.783C304.782 160.818 304.999 160.897 305.194 161.015C305.389 161.133 305.559 161.289 305.693 161.473C305.828 161.657 305.926 161.866 305.98 162.087C306.034 162.309 306.044 162.539 306.009 162.765Z" fill="#00ADAB"/>
<path d="M385.313 318.748C385.313 318.748 388.792 321.929 388.113 324.18C387.433 326.432 384.296 327.938 383.871 330.696C383.446 333.455 381.749 334.959 380.222 334.959H372.951C372.951 334.959 371.815 333.019 374.541 332.432C377.268 331.846 378.281 328.608 378.111 325.6C377.941 322.592 378.365 318.582 378.365 318.582L384.137 317.243L385.313 318.748Z" fill="#2B3E3C"/>
<path d="M342.63 326.961C342.63 326.961 343.255 334.186 341.721 334.938L322.181 334.898C322.181 334.898 322.181 332.641 325.321 332.142C328.461 331.642 333.978 329.801 334.912 325.707C335.845 321.613 342.63 326.961 342.63 326.961Z" fill="#2B3E3C"/>
<path d="M326.125 224.886C326.125 224.886 327.155 237.552 328.368 252.778C330.015 273.454 332.003 298.867 332.192 303.672C332.531 312.029 333.889 325.398 333.889 325.398C333.889 325.398 337.113 328.579 343.564 327.236C343.564 327.236 349.312 308.151 350.953 287.961C350.98 287.629 351.005 287.295 351.03 286.963C352.557 266.408 354.933 223.118 354.933 223.118L326.125 224.886Z" fill="#00ADAB"/>
<path d="M326.125 224.885C326.125 224.885 327.155 237.552 328.368 252.778L350.953 287.968C350.98 287.636 351.005 287.302 351.03 286.97C352.557 266.415 354.933 223.125 354.933 223.125L326.125 224.885Z" fill="#029795"/>
<path d="M330.833 226.39C330.833 226.39 349.417 272.263 361.636 293.821C373.855 315.378 377.677 321.395 377.677 321.395C377.677 321.395 384.677 318.636 385.314 316.757C385.314 316.757 380.64 275.14 372.456 264.992C367.832 259.26 362.402 242.044 362.147 236.039C361.893 230.034 360.491 218.117 360.491 218.117L330.833 226.39Z" fill="#00ADAB"/>
<path d="M355.285 155.696C355.285 155.696 342.709 161.763 335.461 159.511C336.84 157.91 338.504 156.579 340.369 155.585C340.117 154.131 339.915 152.858 339.81 151.797C339.637 150.516 339.534 149.227 339.503 147.935L344.354 144.12L348.955 140.469C348.592 150.727 355.285 155.696 355.285 155.696Z" fill="#FFB27D"/>
<path d="M361.911 220.466C361.938 221.234 360.293 222.114 359.569 222.443C354.188 224.804 349.169 226.451 343.482 227.001C336.761 227.682 328.816 226.176 326.085 226.233C325.805 226.229 325.536 226.121 325.331 225.931C325.135 225.792 324.997 217.694 325.135 207.509C325.135 207.097 325.135 206.686 325.165 206.273V206.136C325.219 202.156 325.358 197.982 325.553 193.81C325.944 184.64 326.669 175.799 327.896 170.915C329.375 165.148 332.719 161.333 335.759 158.559L338.259 156.364C340.758 156.857 343.416 156.721 346.066 155.43C348.965 154.031 352.089 152.52 352.591 152.904C356.381 155.676 358.953 161.908 360.316 169.869C361.126 174.861 361.506 179.913 361.452 184.97C361.452 186.946 361.395 188.978 361.284 190.982C360.616 201.853 361.284 211.296 361.675 216.761C361.8 218.344 361.884 219.587 361.911 220.466Z" fill="#FFC840"/>
<path d="M361.688 219.966C317.655 219.88 353.568 172.187 353.568 172.187L360.7 169.869C361.29 175.226 361.566 180.612 361.527 186.001C361.527 188.114 361.486 190.284 361.406 192.427C360.922 204.041 361.406 214.129 361.688 219.966Z" fill="#FDAF17"/>
<path d="M349.039 144.383C349.039 144.383 345.858 150.177 339.81 151.797C339.637 150.516 339.534 149.227 339.503 147.935L344.354 144.12L349.039 144.383Z" fill="#ED985F"/>
<path d="M337.291 147.757C337.291 147.757 349.287 149.721 350.414 142.345C351.541 134.97 353.845 130.258 346.236 128.695C338.627 127.131 336.693 129.722 335.719 132.103C334.744 134.484 334.201 147.058 337.291 147.757Z" fill="#FFB27D"/>
<path d="M354.775 127.811C354.884 127.686 355.134 127.584 355.684 127.554C355.365 127.374 355.007 127.273 354.641 127.261C354.523 126.484 354.109 125.107 352.771 124.762C352.989 124.889 353.175 125.064 353.316 125.274C353.457 125.484 353.549 125.723 353.584 125.973C352.035 124.382 348.715 123.221 339.522 123.948C327.405 124.905 331.4 132.662 332.967 133.586C334.535 134.511 338.484 131.976 341.406 132.207C344.328 132.439 344.884 136.663 345.875 137.242C346.866 137.822 346.477 136.788 347.82 136.19C349.163 135.593 349.288 137.808 348.901 139.253C348.515 140.698 350.356 142.604 350.356 142.604L352.219 140.598C354.082 138.592 355.836 130.097 354.991 128.286L354.775 127.811Z" fill="#2B3E3C"/>
<path d="M352.593 152.842C352.593 152.842 360.184 156.437 363.822 161.962C369.468 170.533 376.009 201.767 376.13 204.659C376.25 207.552 371.358 227.973 371.358 227.973C371.358 227.973 366.391 227.646 365.11 225.14C365.11 225.14 366.103 204.157 365.473 202.81C364.844 201.463 344.77 174.666 347.029 168.956C349.287 163.246 352.593 152.842 352.593 152.842Z" fill="#FFC840"/>
<path d="M294.31 165.071C294.31 165.071 294.723 163.442 293.592 162.708C292.46 161.974 291.422 159.981 290.945 160.252C289.956 160.811 291.486 162.551 291.206 164.719C291.106 165.48 292.871 167.47 294.31 165.071Z" fill="#FFB27D"/>
<path d="M109.889 319.466C109.889 319.466 92.06 273.815 79.5567 281.083C67.0534 288.352 109.889 319.466 109.889 319.466Z" fill="#A8D29F"/>
<path d="M101.073 319.466C101.073 319.466 77.521 299.11 66.765 302.879C56.0089 306.649 101.073 319.466 101.073 319.466Z" fill="#A8D29F"/>
<path d="M350.453 326.041C350.453 326.041 355.881 307.169 362.247 309.396C368.614 311.622 350.453 326.041 350.453 326.041Z" fill="#A8D29F"/>
<path d="M355.406 325.009C355.406 325.009 369.265 315.921 372.306 318.727C375.346 321.533 355.406 325.009 355.406 325.009Z" fill="#A8D29F"/>
<path d="M308.058 284.603H199.98C199.631 284.601 199.297 284.463 199.051 284.216C198.804 283.97 198.665 283.636 198.664 283.287C198.665 282.939 198.804 282.605 199.051 282.358C199.297 282.112 199.631 281.973 199.98 281.972H308.058C308.406 281.973 308.74 282.112 308.986 282.358C309.232 282.605 309.371 282.939 309.371 283.287V283.287C309.371 283.635 309.232 283.969 308.986 284.216C308.74 284.462 308.406 284.601 308.058 284.603V284.603Z" fill="#00ADAB" fill-opacity="0.34"/>
<path d="M308.058 289.867H199.98C199.631 289.866 199.297 289.727 199.051 289.481C198.804 289.234 198.665 288.9 198.664 288.552V288.552C198.665 288.203 198.804 287.869 199.051 287.623C199.297 287.376 199.631 287.237 199.98 287.236H308.058C308.406 287.237 308.74 287.376 308.986 287.623C309.232 287.869 309.371 288.203 309.371 288.552V288.552C309.371 288.9 309.232 289.234 308.986 289.48C308.74 289.727 308.406 289.866 308.058 289.867V289.867Z" fill="#00ADAB" fill-opacity="0.34"/>
<path d="M308.058 295.702H199.98C199.631 295.701 199.297 295.562 199.051 295.315C198.804 295.069 198.665 294.735 198.664 294.386C198.665 294.038 198.804 293.704 199.051 293.457C199.297 293.211 199.631 293.072 199.98 293.071H308.058C308.406 293.072 308.74 293.211 308.986 293.458C309.232 293.704 309.371 294.038 309.371 294.386V294.386C309.371 294.735 309.232 295.069 308.986 295.315C308.74 295.562 308.406 295.701 308.058 295.702V295.702Z" fill="#00ADAB" fill-opacity="0.34"/>
<path d="M293.869 298.903H199.891C199.213 298.903 198.664 299.452 198.664 300.13V300.307C198.664 300.985 199.213 301.534 199.891 301.534H293.869C294.547 301.534 295.096 300.985 295.096 300.307V300.13C295.096 299.452 294.547 298.903 293.869 298.903Z" fill="#00ADAB" fill-opacity="0.34"/>
<path d="M536.477 334.732H0.522579C0.233967 334.732 0 334.966 0 335.254V335.352C0 335.641 0.233967 335.874 0.522579 335.874H536.477C536.766 335.874 537 335.641 537 335.352V335.254C537 334.966 536.766 334.732 536.477 334.732Z" fill="#00ADAB"/>
</svg>
