<svg width="140" height="140" viewBox="0 0 140 140" fill="none" xmlns="http://www.w3.org/2000/svg">
<circle cx="70" cy="70" r="70" fill="#FFF3F3"/>
<circle cx="70" cy="70" r="50" fill="#FFF3F3" stroke="#EF4129" stroke-width="8"/>
<path d="M77.2714 70.5L88.9272 58.8441C90.3576 57.4138 90.3576 55.0947 88.9272 53.6632L86.3368 51.0728C84.9064 49.6424 82.5874 49.6424 81.1559 51.0728L69.5 62.7286L57.8441 51.0728C56.4138 49.6424 54.0947 49.6424 52.6632 51.0728L50.0728 53.6632C48.6424 55.0936 48.6424 57.4126 50.0728 58.8441L61.7286 70.5L50.0728 82.1559C48.6424 83.5862 48.6424 85.9053 50.0728 87.3368L52.6632 89.9272C54.0936 91.3576 56.4138 91.3576 57.8441 89.9272L69.5 78.2714L81.1559 89.9272C82.5862 91.3576 84.9064 91.3576 86.3368 89.9272L88.9272 87.3368C90.3576 85.9064 90.3576 83.5874 88.9272 82.1559L77.2714 70.5Z" fill="#EF4129"/>
</svg>
