<svg width="910" height="485" viewBox="0 0 910 485" fill="none" xmlns="http://www.w3.org/2000/svg">
<g clip-path="url(#clip0_56:549)">
<path d="M855.689 443.031C850.288 432.723 828.344 424.438 818.502 422.556C766.072 412.549 711.141 413.95 658.01 414.11C600.159 414.29 544.948 423.557 487.577 427.84C457.731 430.082 426.204 426.059 396.279 425.038C347.029 423.317 297.792 421.315 248.569 419.034C206.121 417.032 162.072 421.496 124.545 444.912C120.304 447.574 116.003 450.796 114.063 455.559C101.9 485.58 253.47 481.798 273.234 482.318C372.834 484.9 472.514 486.321 572.153 483.539C646.168 481.538 723.423 481.658 796.878 471.21C813.121 468.889 835.245 468.068 849.268 458.501C857.11 453.178 858.17 447.894 855.689 443.031Z" fill="#E9E9E9"/>
<path d="M791.217 33.6236C792.517 33.6236 793.837 33.6236 795.218 33.6236" stroke="#D2E8F9" stroke-miterlimit="10"/>
<path d="M803.219 34.264C829.064 36.8859 860.59 47.7935 856.909 70.1492C851.028 105.794 692.717 92.645 654.869 93.0052C578.854 93.7657 501.999 94.0459 427.444 110.678C409.301 114.68 383.436 123.647 385.316 146.703C385.996 154.708 390.777 162.094 396.818 167.557C418.603 187.231 448.929 189.113 477.094 192.575C519.683 197.799 722.303 190.834 788.536 212.589C801.579 216.872 817.882 222.376 818.422 241.029C819.802 288.422 702.139 286.081 666.852 287.061C572.653 289.463 478.355 288.522 384.156 286.661C308.021 285.16 231.666 283.819 155.651 278.916C127.325 277.074 80.996 276.534 59.3717 255.259C47.3693 243.251 45.709 221.715 64.8128 210.668C78.2754 202.882 117.783 206.285 132.986 204.984C178.995 200.981 164.993 173.121 127.785 169.559" stroke="#2B3E3C" stroke-opacity="0.38" stroke-miterlimit="10" stroke-dasharray="4.01 4.01"/>
<path d="M123.824 169.259C122.524 169.259 121.184 169.259 119.823 169.259" stroke="#D2E8F9" stroke-miterlimit="10"/>
<path d="M793.917 68.2879L781.775 4.1229C781.609 3.24939 781.215 2.43513 780.634 1.76206C780.053 1.08898 779.306 0.580809 778.466 0.288673C777.627 -0.00346196 776.725 -0.069262 775.852 0.0978929C774.979 0.265048 774.166 0.659262 773.493 1.24088L724.144 43.8107C723.468 44.3895 722.957 45.1363 722.661 45.9757C722.366 46.8152 722.297 47.7178 722.461 48.5924C722.625 49.4671 723.017 50.283 723.597 50.9579C724.177 51.6328 724.924 52.1429 725.764 52.4368L787.256 74.0519C788.099 74.346 789.005 74.4125 789.882 74.2448C790.759 74.0771 791.577 73.6811 792.252 73.0967C792.928 72.5122 793.437 71.76 793.73 70.9157C794.022 70.0715 794.087 69.1651 793.917 68.2879Z" fill="#FFF5E2"/>
<path d="M784.555 67.3072C784.207 67.306 783.862 67.245 783.535 67.1271L732.865 49.3946C732.346 49.2077 731.886 48.8883 731.528 48.4682C731.171 48.048 730.93 47.5417 730.829 46.9994C730.728 46.4572 730.77 45.898 730.952 45.3772C731.134 44.8565 731.448 44.3923 731.865 44.0309L772.533 9.00632C772.952 8.64272 773.46 8.3973 774.004 8.29529C774.549 8.19328 775.112 8.23836 775.633 8.42591C776.144 8.61674 776.596 8.93631 776.947 9.35361C777.297 9.77091 777.534 10.2718 777.634 10.8076L787.636 63.5646C787.725 64.021 787.711 64.4915 787.596 64.9422C787.481 65.3928 787.268 65.8122 786.971 66.1702C786.674 66.5283 786.302 66.816 785.881 67.0126C785.46 67.2092 785 67.3098 784.535 67.3072H784.555ZM735.586 46.0323L783.455 62.804L774.033 13.0091L735.586 46.0323Z" fill="#FDAF17"/>
<path d="M762.571 45.7721C762.122 45.5928 761.753 45.2569 761.532 44.8264C761.311 44.3959 761.254 43.9 761.371 43.4305L766.392 25.7981C766.503 25.4081 766.692 25.0448 766.948 24.7305C767.204 24.4162 767.522 24.1575 767.881 23.9701C768.241 23.7828 768.635 23.6708 769.039 23.641C769.443 23.6112 769.849 23.6641 770.232 23.7967C770.624 23.9263 770.984 24.1363 771.289 24.4131C771.595 24.69 771.839 25.0276 772.007 25.4044C772.174 25.7812 772.261 26.1889 772.263 26.6013C772.264 27.0138 772.178 27.4219 772.013 27.7995L764.951 44.7113C764.747 45.1436 764.394 45.4882 763.957 45.6827C763.521 45.8773 763.029 45.909 762.571 45.7721Z" fill="#FDAF17"/>
<path d="M762.931 50.5755C762.798 50.9501 762.557 51.2767 762.238 51.5136C761.919 51.7506 761.536 51.8871 761.139 51.9058C760.743 51.9245 760.349 51.8246 760.009 51.6187C759.669 51.4128 759.399 51.1103 759.231 50.7498C759.064 50.3893 759.007 49.9871 759.069 49.5945C759.131 49.2019 759.309 48.8366 759.579 48.5452C759.849 48.2538 760.2 48.0496 760.587 47.9585C760.974 47.8674 761.379 47.8936 761.75 48.0337C762.241 48.2184 762.639 48.5881 762.859 49.0634C763.08 49.5386 763.106 50.0815 762.931 50.5755V50.5755Z" fill="#FDAF17"/>
<path d="M116.023 147.603L76.0151 127.73C75.4698 127.464 74.8645 127.345 74.2592 127.385C73.6538 127.425 73.0695 127.623 72.5641 127.959C72.0587 128.294 71.6498 128.756 71.3779 129.299C71.106 129.842 70.9806 130.446 71.0141 131.052L73.8547 175.523C73.904 176.123 74.1088 176.699 74.4487 177.196C74.7887 177.692 75.2521 178.092 75.7933 178.354C76.3345 178.617 76.9347 178.734 77.5349 178.694C78.1351 178.653 78.7144 178.457 79.2157 178.125L116.343 153.508C116.832 153.172 117.227 152.715 117.489 152.183C117.751 151.65 117.872 151.059 117.84 150.466C117.808 149.873 117.624 149.298 117.306 148.797C116.987 148.296 116.546 147.885 116.023 147.603Z" fill="#FFF5E2"/>
<path d="M111.582 152.287C111.433 152.472 111.258 152.634 111.062 152.767L80.5359 173.021C80.2184 173.229 79.8526 173.351 79.4741 173.376C79.0956 173.4 78.7171 173.326 78.3755 173.161C78.0385 172.991 77.7522 172.734 77.5452 172.418C77.3381 172.102 77.2174 171.737 77.1952 171.36L74.9348 134.774C74.9253 134.404 75.0112 134.037 75.1843 133.709C75.3574 133.381 75.6119 133.104 75.9233 132.903C76.2347 132.702 76.5925 132.584 76.9624 132.561C77.3323 132.539 77.7018 132.612 78.0354 132.773L110.842 149.125C111.179 149.29 111.465 149.543 111.673 149.856C111.88 150.169 112.001 150.531 112.022 150.906C112.053 151.405 111.896 151.898 111.582 152.287ZM79.8558 170.119L108.721 150.986L77.7153 135.555L79.8558 170.119Z" fill="#FDAF17"/>
<path d="M90.7979 155.369C90.5193 155.551 90.1814 155.619 89.8539 155.56C89.5264 155.5 89.2342 155.317 89.0375 155.049L81.5361 145.042C81.3597 144.823 81.2314 144.569 81.1596 144.297C81.0878 144.025 81.0741 143.741 81.1194 143.463C81.1647 143.186 81.268 142.921 81.4225 142.686C81.577 142.451 81.7793 142.251 82.0162 142.1C82.2441 141.945 82.5017 141.838 82.7726 141.788C83.0435 141.737 83.3221 141.743 83.5907 141.805C83.8593 141.867 84.1121 141.984 84.3335 142.148C84.5548 142.312 84.7397 142.521 84.8767 142.76L91.158 153.568C91.3484 153.854 91.4175 154.205 91.35 154.543C91.2825 154.88 91.084 155.177 90.7979 155.369Z" fill="#FDAF17"/>
<path d="M93.5784 157.15C93.7201 157.369 93.794 157.624 93.7908 157.885C93.7876 158.145 93.7076 158.399 93.5606 158.614C93.4137 158.829 93.2064 158.996 92.965 159.094C92.7235 159.191 92.4586 159.215 92.2036 159.162C91.9486 159.11 91.7149 158.983 91.5318 158.798C91.3487 158.612 91.2245 158.377 91.1747 158.121C91.125 157.866 91.1519 157.601 91.2521 157.36C91.3524 157.12 91.5214 156.914 91.7381 156.77C91.8835 156.673 92.0467 156.606 92.2183 156.572C92.3899 156.539 92.5665 156.54 92.7377 156.575C92.9089 156.611 93.0714 156.68 93.2157 156.778C93.36 156.877 93.4833 157.003 93.5784 157.15Z" fill="#FDAF17"/>
<path d="M143.588 237.306C145.422 237.306 146.909 235.819 146.909 233.984C146.909 232.149 145.422 230.662 143.588 230.662C141.755 230.662 140.268 232.149 140.268 233.984C140.268 235.819 141.755 237.306 143.588 237.306Z" stroke="#D2E8F9" stroke-miterlimit="10"/>
<path d="M636.546 175.823C638.38 175.823 639.866 174.336 639.866 172.501C639.866 170.666 638.38 169.179 636.546 169.179C634.712 169.179 633.225 170.666 633.225 172.501C633.225 174.336 634.712 175.823 636.546 175.823Z" stroke="#D2E8F9" stroke-miterlimit="10"/>
<path d="M374.994 82.718C376.828 82.718 378.315 81.2305 378.315 79.3957C378.315 77.5608 376.828 76.0733 374.994 76.0733C373.161 76.0733 371.674 77.5608 371.674 79.3957C371.674 81.2305 373.161 82.718 374.994 82.718Z" stroke="#D2E8F9" stroke-miterlimit="10"/>
<path d="M371.014 335.395C372.847 335.395 374.334 333.908 374.334 332.073C374.334 330.238 372.847 328.75 371.014 328.75C369.18 328.75 367.693 330.238 367.693 332.073C367.693 333.908 369.18 335.395 371.014 335.395Z" stroke="#D2E8F9" stroke-miterlimit="10"/>
<path d="M448.409 136.436V143.941" stroke="#D2E8F9" stroke-linecap="round" stroke-linejoin="round"/>
<path d="M452.169 140.178H444.648" stroke="#D2E8F9" stroke-linecap="round" stroke-linejoin="round"/>
<path d="M583.255 40.3883V47.9136" stroke="#D2E8F9" stroke-linecap="round" stroke-linejoin="round"/>
<path d="M587.016 44.151H579.495" stroke="#D2E8F9" stroke-linecap="round" stroke-linejoin="round"/>
<path d="M791.876 243.15V250.676" stroke="#D2E8F9" stroke-linecap="round" stroke-linejoin="round"/>
<path d="M795.637 246.913H788.116" stroke="#D2E8F9" stroke-linecap="round" stroke-linejoin="round"/>
<path d="M515.862 458.041C515.862 458.041 501.859 464.045 501.859 466.987C501.859 468.709 521.083 466.267 522.243 465.106C524.104 463.245 521.503 458.301 521.503 458.301L515.862 458.041Z" fill="#2B3E3C"/>
<path d="M514.962 449.695L515.862 458.301C516.072 458.766 516.413 459.159 516.843 459.433C517.273 459.706 517.773 459.849 518.283 459.842C518.905 459.856 519.523 459.723 520.085 459.456C520.648 459.188 521.14 458.793 521.523 458.301L520.823 447.534" fill="#FFB288"/>
<path d="M539.387 252.417C544.468 272.911 542.588 283.339 535.126 298.789C530.605 350.826 527.465 402.622 521.383 453.318L514.962 453.698C500.359 404.323 486.957 330.512 488.657 263.044" fill="#2B3E3C"/>
<path d="M536.206 259.462C537.938 264.329 538.679 269.494 538.386 274.653C538.126 282.418 534.966 289.463 532.925 296.848C530.185 306.695 529.985 316.482 529.224 326.569C528.064 342.367 526.877 358.151 525.664 373.922C523.703 399.66 521.703 425.398 519.662 451.136L519.482 453.438" fill="#2B3E3C"/>
<path d="M536.206 259.462C537.938 264.329 538.679 269.494 538.386 274.653C538.126 282.418 534.966 289.463 532.925 296.848C530.185 306.695 529.985 316.482 529.224 326.569C528.064 342.367 526.877 358.151 525.664 373.922C523.703 399.66 521.703 425.398 519.662 451.136L519.482 453.438" stroke="#2B3E3C" stroke-width="0.5" stroke-miterlimit="10"/>
<path d="M571.613 460.042C571.613 460.042 557.61 466.047 557.61 468.989C557.61 470.71 576.834 468.268 577.994 467.107C579.855 465.246 577.234 460.303 577.234 460.303L571.613 460.042Z" fill="#2B3E3C"/>
<path d="M570.713 451.697L571.613 460.303C571.823 460.767 572.164 461.16 572.594 461.434C573.024 461.708 573.524 461.85 574.034 461.844C574.656 461.857 575.274 461.725 575.836 461.457C576.399 461.189 576.891 460.794 577.274 460.303L576.594 449.535" fill="#FFB288"/>
<path d="M585.876 250.676C592.317 270.79 591.117 281.317 584.715 297.248C583.655 349.445 580.055 403.943 577.354 454.939H570.753C552.909 406.645 533.825 332.073 531.065 264.646" fill="#2B3E3C"/>
<path d="M582.695 259.002C582.695 259.002 590.157 276.474 577.554 301.031C576.094 324.167 575.354 454.979 575.354 454.979" fill="#2B3E3C"/>
<path d="M582.695 259.002C582.695 259.002 590.157 276.474 577.554 301.031C576.094 324.167 575.354 454.979 575.354 454.979" stroke="#2B3E3C" stroke-width="0.5" stroke-miterlimit="10"/>
<path d="M564.252 264.545C565.595 266.494 567.51 267.977 569.733 268.788C571.922 269.6 574.209 270.119 576.534 270.329C579.29 270.716 582.075 270.863 584.856 270.77" fill="#2B3E3C"/>
<path d="M564.252 264.545C565.595 266.494 567.51 267.977 569.733 268.788C571.922 269.6 574.209 270.119 576.534 270.329C579.29 270.716 582.075 270.863 584.856 270.77" stroke="#2B3E3C" stroke-width="0.5" stroke-miterlimit="10"/>
<path d="M565.172 267.808C567.616 269.912 570.556 271.359 573.714 272.011C576.852 272.658 580.051 272.966 583.256 272.931" fill="#2B3E3C"/>
<path d="M565.172 267.808C567.616 269.912 570.556 271.359 573.714 272.011C576.852 272.658 580.051 272.966 583.256 272.931" stroke="#2B3E3C" stroke-width="0.5" stroke-miterlimit="10"/>
<path d="M509.561 153.408C487.316 192.135 463.371 227.199 449.189 269.489L444.948 267.227C446.028 227.92 458.77 170.76 475.494 135.135" fill="#FFB288"/>
<path d="M498.699 112.979C493.381 114.685 488.335 117.145 483.716 120.284C476.176 125.553 470.203 132.767 466.432 141.159C462.683 149.523 460.169 158.389 458.971 167.477C465.301 170.468 472.044 172.492 478.975 173.482C486.29 174.241 493.664 174.241 500.979 173.482" fill="#00ADAB"/>
<path d="M482.095 135.855C479.735 177.745 481.535 220.815 482.615 261.563C482.615 261.563 497.198 265.446 532.625 265.446C568.052 265.446 591.077 254.659 591.077 254.659C584.236 212.809 578.794 161.433 562.031 126.969C562.031 126.969 543.107 106.555 524.464 105.714C520.593 105.776 516.793 106.765 513.382 108.596C510.741 109.817 498.659 112.779 498.659 112.779L482.095 135.855Z" fill="#00ADAB"/>
<path d="M481.915 139.598C480.975 147.603 480.975 172.501 480.975 172.501" stroke="#02605F" stroke-width="0.5" stroke-miterlimit="10"/>
<path d="M517.183 274.733C576.414 268.168 601.199 343.281 614.762 372.421C646.648 441.309 766.952 433.644 821.783 433.644C893.577 433.644 925.103 457.841 891.577 470.55" stroke="#7BB93E" stroke-width="5" stroke-linecap="round" stroke-linejoin="round"/>
<path d="M537.586 278.195C537.586 308.676 514.522 327.069 494.818 327.069H462.472V229.241H494.818C514.522 229.241 537.586 247.634 537.586 278.195Z" fill="#FDAF17"/>
<path d="M520.923 278.195C520.923 307.976 503.299 332.133 481.535 332.133H445.868V224.157H481.535C503.299 224.157 520.923 248.334 520.923 278.195Z" fill="#EF8417"/>
<g style="mix-blend-mode:multiply" opacity="0.5">
<path d="M528.825 248.654C521.123 259.162 513.582 269.829 506.3 280.677C507.34 280.472 508.299 279.972 509.061 279.236C509.061 280.056 507.761 281.457 508.901 281.978C510.041 282.498 511.261 281.157 512.442 281.517C513.562 281.257 514.602 279.856 515.422 279.056C515.158 279.653 514.99 280.288 514.922 280.937C522.804 277.875 529.845 270.53 535.966 264.625C534.549 258.921 532.131 253.513 528.825 248.654Z" fill="#FDAF17"/>
</g>
<path d="M448.409 332.073C470.162 332.073 487.797 307.924 487.797 278.135C487.797 248.346 470.162 224.197 448.409 224.197C426.656 224.197 409.021 248.346 409.021 278.135C409.021 307.924 426.656 332.073 448.409 332.073Z" fill="#FFC840"/>
<path d="M451.709 297.248C451.709 301.672 448.689 305.254 444.948 305.254C441.207 305.254 438.207 301.672 438.207 297.248C438.207 292.825 441.227 289.243 444.948 289.243C448.669 289.243 451.709 292.805 451.709 297.248Z" fill="#EF8417"/>
<path d="M451.709 259.002C451.709 263.445 448.689 267.007 444.948 267.007C441.207 267.007 438.207 263.425 438.207 259.002C438.207 254.578 441.227 250.996 444.948 250.996C448.669 250.996 451.709 254.578 451.709 259.002Z" fill="#EF8417"/>
<path d="M572.853 166.777C572.853 166.777 575.354 192.255 563.951 213.45C554.23 231.462 534.866 255.019 519.243 267.948L515.482 267.027C520.923 246.133 538.106 208.987 539.167 195.157C540.227 181.327 539.987 165.136 540.247 157.39" fill="#FFB288"/>
<path d="M524.504 105.714C524.504 105.714 545.448 107.155 557.61 117.442C574.974 132.113 577.614 160.833 577.614 167.477C572.373 173.141 560.891 173.482 552.529 173.482C547.439 173.45 542.449 172.069 538.067 169.479L536.366 137.777" fill="#00ADAB"/>
<path d="M517.022 263.925C514.551 264.27 512.224 265.296 510.301 266.887C508.48 268.328 506.3 270.73 506.46 271.831C506.62 272.931 509.701 270.75 510.081 271.21C510.461 271.67 504.92 279.996 505.96 280.617C507 281.237 511.701 273.692 511.701 273.692C511.701 273.692 507.14 281.697 508.9 281.938C510.661 282.178 514.422 274.452 514.422 274.452C514.422 274.452 511.001 281.277 512.181 281.537C513.361 281.798 516.522 274.993 516.522 274.993C516.522 274.993 513.941 280.797 514.922 280.897C516.943 279.282 518.388 277.056 519.042 274.552C520.083 271.11 521.303 268.128 520.363 265.426" fill="#FFB288"/>
<path d="M538.887 141.119V169.979" stroke="#02605F" stroke-width="0.5" stroke-miterlimit="10"/>
<path d="M481.055 79.0955C480.935 80.3363 480.895 81.5972 480.895 82.8581C480.761 85.5958 481.458 88.3101 482.896 90.6436C483.987 92.1845 485.577 93.3014 487.397 93.8058C488.677 94.146 490.337 94.0059 490.897 92.8051C491.064 92.3649 491.132 91.8935 491.097 91.4241C491.079 86.7536 490.176 82.1288 488.437 77.7946" fill="#2B3E3C"/>
<path d="M512.682 81.7173C510.881 74.6924 505.24 64.8655 496.018 66.8469C493.141 67.3635 490.447 68.6206 488.203 70.4944C485.958 72.3683 484.239 74.7945 483.216 77.5344C481.215 84.119 484.476 91.7843 488.437 97.1681C489.83 99.2404 491.686 100.96 493.858 102.192C499.179 104.954 506.38 102.692 510.001 98.1888C511.679 95.832 512.793 93.1211 513.258 90.2652C513.722 87.4094 513.525 84.4849 512.682 81.7173Z" fill="#FFB288"/>
<path d="M499.779 100.07L502.78 111.058L498.779 113.059C499.914 114.357 501.365 115.34 502.991 115.911C504.617 116.483 506.364 116.624 508.061 116.322C520.623 114.5 524.584 105.794 524.584 105.794L517.483 105.054L509.641 91.6643" fill="#FFB288"/>
<path d="M518.802 74.0519C518.263 71.6583 517.229 69.4037 515.769 67.4325C514.308 65.4612 512.453 63.8166 510.321 62.6039C502.879 58.0807 492.317 57.7205 485.676 63.9448C481.915 67.4873 475.134 80.0561 483.235 82.5379C485.776 83.3184 488.376 81.7773 490.577 80.3163L497.298 75.8132C498.051 75.2 498.957 74.8054 499.919 74.6724C500.708 74.7439 501.458 75.0484 502.074 75.5473C502.691 76.0461 503.145 76.7168 503.379 77.4743C503.817 78.9965 504.145 80.5483 504.36 82.1176C504.543 83.2371 505.143 84.2455 506.04 84.9396C506.266 85.1073 506.525 85.2254 506.799 85.2863C507.074 85.3471 507.359 85.3493 507.634 85.2926C507.91 85.2359 508.171 85.1217 508.399 84.9574C508.628 84.7931 508.819 84.5824 508.96 84.3391C509.131 83.5815 509.131 82.7952 508.96 82.0375C508.96 81.257 509.38 80.3163 510.161 80.3363C510.438 80.3646 510.699 80.4843 510.901 80.6766C512.901 82.1976 512.221 85.2398 512.901 87.6415C512.901 87.9617 512.341 92.8051 512.541 93.0452C518.862 91.5842 519.443 77.5144 518.802 74.0519Z" fill="#2B3E3C"/>
<path d="M509.581 80.9568C509.564 80.5112 509.718 80.0759 510.012 79.7408C510.306 79.4057 510.717 79.1962 511.161 79.1555C511.613 79.1407 512.064 79.2163 512.486 79.3778C512.909 79.5393 513.295 79.7835 513.622 80.0962C514.223 80.5808 514.712 81.1891 515.057 81.8798C515.402 82.5704 515.595 83.3273 515.622 84.099C515.587 85.3055 515.197 86.475 514.502 87.4613C514.097 88.1765 513.463 88.7337 512.701 89.0424C512.194 89.1618 511.663 89.141 511.167 88.9824C510.67 88.8238 510.226 88.5333 509.881 88.1418" fill="#FFB288"/>
<path d="M286.817 457.741C286.817 457.741 300.299 459.982 300.68 462.945C300.9 464.646 281.776 466.667 280.476 465.666C278.475 464.065 280.936 458.081 280.936 458.081L286.817 457.741Z" fill="#2B3E3C"/>
<path d="M285.736 449.455L286.857 458.001C286.706 458.487 286.419 458.92 286.028 459.247C285.638 459.573 285.161 459.78 284.656 459.842C284.038 459.936 283.407 459.883 282.813 459.689C282.219 459.494 281.679 459.163 281.236 458.722L279.655 448.074" fill="#FFB288"/>
<path d="M235.326 255.039C232.906 276.034 232.766 286.121 242.148 300.511C246.589 320.805 253.41 341.599 258.571 362.394C256.351 387.231 271.914 426.779 280.275 455.019L286.277 453.978C294.398 403.143 297.399 325.188 290.117 256.92" fill="#2B3E3C"/>
<path d="M239.247 283.479C239.247 283.479 262.452 357.21 262.452 361.213C262.452 365.216 263.092 378.966 264.132 387.892C266.013 404.243 280.816 452.417 280.816 452.417" fill="#2B3E3C"/>
<path d="M239.247 283.479C239.247 283.479 262.452 357.21 262.452 361.213C262.452 365.216 263.092 378.966 264.132 387.892C266.013 404.243 280.816 452.417 280.816 452.417" stroke="#2B3E3C" stroke-width="0.5" stroke-miterlimit="10"/>
<path d="M286.543 455.12L280.475 455.626L279.793 452.953L286.472 452.696L286.543 455.12Z" fill="#2B3E3C" stroke="#2B3E3C"/>
<path d="M181.916 458.161C181.916 458.161 192.458 465.787 191.538 468.468C190.998 470.009 173.835 463.645 173.134 462.244C172.054 460.002 176.755 455.96 176.755 455.96L181.916 458.161Z" fill="#2B3E3C"/>
<path d="M184.497 450.636L181.836 458.321C181.504 458.677 181.075 458.928 180.602 459.042C180.129 459.156 179.633 459.128 179.176 458.962C178.612 458.781 178.099 458.472 177.675 458.058C177.252 457.645 176.93 457.139 176.735 456.58L179.876 446.813" fill="#FFB288"/>
<path d="M190.038 250.676C183.616 270.79 184.797 281.317 191.218 297.248C191.598 316.302 191.798 335.595 192.018 354.889C178.435 388.913 176.295 419.394 178.015 451.777L184.556 454.198C184.556 454.198 223.544 386.151 230.706 359.352C238.825 328.386 243.573 296.633 244.868 264.646" fill="#2B3E3C"/>
<path d="M191.598 255.039C191.598 255.039 184.496 275.813 193.798 295.827C193.798 301.411 196.999 347.864 195.799 355.029C195.178 358.471 188.817 374.883 184.556 390.874C179.795 408.546 178.795 450.316 178.795 450.316" fill="#2B3E3C"/>
<path d="M191.598 255.039C191.598 255.039 184.496 275.813 193.798 295.827C193.798 301.411 196.999 347.864 195.799 355.029C195.178 358.471 188.817 374.883 184.556 390.874C179.795 408.546 178.795 450.316 178.795 450.316" stroke="#2B3E3C" stroke-width="0.5" stroke-miterlimit="10"/>
<path d="M184.239 454.387L177.32 451.461L178.12 448.105L185.501 451.542L184.239 454.387Z" fill="#2B3E3C" stroke="#2B3E3C"/>
<path d="M299.019 95.2468L293.758 90.7636V81.4771C293.758 80.0361 291.758 71.4701 290.037 71.4701C288.317 71.4701 287.877 69.3086 286.997 70.1892C286.116 71.0698 287.717 80.8367 286.997 81.5572C286.276 82.2777 285.356 76.9139 284.676 77.5544C283.996 78.1948 284.056 82.0575 284.056 84.0589C284.361 86.7614 285.477 89.3081 287.257 91.3641C288.857 92.9652 295.918 100.591 295.918 100.591L299.019 95.2468Z" fill="#EF9467"/>
<path d="M296.379 92.2847L292.058 97.2682C292.058 97.2682 309.401 120.244 314.882 127.93C309.141 125.53 303.658 122.553 298.519 119.043C290.377 113.7 282.196 110.858 276.515 110.858C264.512 110.858 270.794 150.466 284.716 156.27C311.162 160.272 340.727 157.731 345.328 148.444C352.07 134.654 313.262 102.212 296.379 92.2847Z" fill="#00ADAB"/>
<path d="M314.822 127.93C314.822 127.93 318.063 137.176 324.064 140.098" stroke="#02605F" stroke-width="0.5" stroke-miterlimit="10"/>
<path d="M215.783 121.345C184.276 156.75 184.736 217.633 184.736 259.022C184.736 259.022 207.881 274.813 243.208 274.813C278.535 274.813 293.218 266.107 293.218 266.107C294.278 224.077 286.817 206.064 293.718 136.736C293.718 136.736 282.456 110.858 276.435 110.858C270.413 110.858 246.909 108.536 246.909 108.536L215.783 121.345Z" fill="#00ADAB"/>
<path d="M292.058 157.21C292.058 157.21 292.778 145.082 295.718 142.14" stroke="#02605F" stroke-width="0.5" stroke-miterlimit="10"/>
<path d="M257.371 82.0575C258.531 74.9125 263.632 64.7054 272.974 65.8462C278.835 66.5867 283.376 70.6295 286.657 75.3729C289.477 79.3757 288.417 83.3785 284.396 93.6457C282.803 96.4118 280.714 98.861 278.235 100.871C273.174 104.093 265.813 102.472 261.812 98.2289C259.894 96.0469 258.498 93.4571 257.728 90.6554C256.959 87.8536 256.837 84.9135 257.371 82.0575Z" fill="#FFB288"/>
<path d="M258.611 81.1169C259.951 80.9167 258.611 80.0361 259.211 81.257C259.591 82.0575 259.711 82.2777 260.472 82.5379C261.232 82.798 261.232 83.4585 261.852 83.9388C262.832 84.6593 263.652 83.6787 264.072 82.8381C264.727 81.2283 264.921 79.4682 264.632 77.7545C264.492 76.4336 264.052 74.3521 265.332 73.4315C266.613 72.5108 268.713 73.7717 269.813 74.0919C271.474 74.5723 273.134 75.1126 274.814 75.613C278.808 77.0853 283.073 77.6792 287.317 77.3542C289.219 77.1794 291.054 76.557 292.67 75.5379C294.287 74.5188 295.64 73.1318 296.619 71.4901C298.739 67.4873 294.478 62.0035 290.157 62.0035C289.031 62.1241 287.919 62.352 286.837 62.6839C286.429 62.784 286.004 62.784 285.596 62.6839C284.656 62.4037 284.236 61.343 283.716 60.5224C282.929 59.3917 281.833 58.5113 280.56 57.9861C279.287 57.4609 277.89 57.3131 276.535 57.5603C273.475 58.2333 270.472 59.1433 267.553 60.2823C266.013 60.4922 264.452 60.4922 262.912 60.2823C262.054 60.334 261.225 60.6086 260.506 61.0789C259.787 61.5492 259.203 62.199 258.811 62.9641C257.491 61.6032 254.57 64.9655 253.85 65.8462C250.65 69.7289 249.649 75.3328 249.569 80.2563C249.569 84.5393 250.209 90.8036 254.91 92.5249C256.911 93.2654 258.151 93.6456 258.231 91.8244C257.515 89.4779 257.098 87.0503 256.991 84.5993C256.838 83.8341 256.923 83.0405 257.234 82.3249C257.545 81.6094 258.067 81.0062 258.731 80.5965" fill="#2B3E3C"/>
<path d="M274.054 99.0494L273.034 109.857L276.575 110.858C275.839 112.409 274.716 113.746 273.315 114.738C271.914 115.73 270.281 116.344 268.573 116.522C255.991 118.203 247.109 108.516 247.109 108.516L251.31 107.716L257.671 87.7015" fill="#FFB288"/>
<path d="M260.712 81.0368C260.691 80.5908 260.498 80.1704 260.173 79.8642C259.848 79.558 259.417 79.39 258.971 79.3956C258.522 79.4179 258.081 79.5303 257.675 79.7263C257.27 79.9223 256.908 80.1978 256.611 80.5365C253.09 84.0389 257.511 92.5449 260.992 88.1618" fill="#FFB288"/>
<path d="M284.416 93.4055C283.856 94.7264 281.636 95.2468 280.415 95.4069C274.414 96.0674 269.593 92.2447 263.912 91.5442C263.366 91.3967 262.795 91.3669 262.236 91.4566C261.677 91.5463 261.144 91.7535 260.672 92.0645C260.331 92.4802 260.077 92.9602 259.926 93.476C259.775 93.9918 259.729 94.5328 259.791 95.0667C259.72 96.4 259.72 97.7361 259.791 99.0695C259.844 100.217 260.151 101.338 260.692 102.352C263.252 106.615 271.794 107.335 276.115 107.075C277.869 107.064 279.584 106.55 281.056 105.594C283.056 104.113 283.416 101.591 284.156 99.2896C284.707 97.3764 284.796 95.3598 284.416 93.4055Z" fill="#2B3E3C"/>
<path d="M280.235 98.0688C280.045 97.9401 279.824 97.8642 279.595 97.8486C277.434 97.6963 275.283 97.4156 273.154 97.008C272.79 96.9472 272.418 96.9472 272.054 97.008C271.689 97.1627 271.372 97.4106 271.133 97.7267C270.894 98.0428 270.743 98.4161 270.694 98.8093C270.614 99.1615 270.665 99.5309 270.838 99.8479C271.011 100.165 271.294 100.408 271.634 100.53C272.931 101.135 274.344 101.449 275.775 101.451C277.11 101.662 278.478 101.415 279.655 100.751C280.236 100.31 281.096 98.6892 280.235 98.0688Z" fill="#FFB288"/>
<path d="M254.21 254.338C185.377 250.736 145.289 286.361 116.823 351.026C79.8958 435.085 28.2656 441.75 5.00098 441.289" stroke="#82C341" stroke-width="5" stroke-linecap="round" stroke-linejoin="round"/>
<path d="M227.805 259.942C230.326 290.344 254.85 306.755 274.494 305.114L306.721 302.432L298.599 204.984L266.373 207.666C246.729 209.307 225.265 229.561 227.805 259.942Z" fill="#FDAF17"/>
<path d="M244.408 258.561C246.869 288.262 266.413 310.858 288.137 309.057L323.684 306.075L314.722 198.559L279.175 201.521C257.491 203.343 241.928 228.88 244.408 258.561Z" fill="#EF8417"/>
<path d="M321.154 306.287C342.832 304.477 358.399 278.945 355.923 249.259C353.447 219.573 333.866 196.975 312.188 198.785C290.51 200.595 274.944 226.127 277.42 255.813C279.896 285.499 299.476 308.097 321.154 306.287Z" fill="#FFC840"/>
<path d="M314.982 271.851C315.342 276.274 318.663 279.596 322.364 279.276C326.064 278.956 328.805 275.153 328.365 270.73C327.925 266.307 324.684 263.004 320.983 263.305C317.283 263.605 314.602 267.448 314.982 271.851Z" fill="#FDAF17"/>
<path d="M311.802 233.764C312.162 238.167 315.483 241.489 319.203 241.189C322.924 240.889 325.625 237.046 325.204 232.623C324.784 228.2 321.524 224.898 317.803 225.198C314.082 225.498 311.422 229.341 311.802 233.764Z" fill="#FDAF17"/>
<path d="M319.643 238.747L369.893 234.564C371.358 234.432 372.713 233.728 373.664 232.604C374.614 231.481 375.085 230.028 374.974 228.56C374.918 227.828 374.719 227.114 374.387 226.459C374.055 225.804 373.597 225.221 373.04 224.743C372.483 224.265 371.836 223.902 371.138 223.674C370.441 223.447 369.705 223.359 368.973 223.417L318.703 227.6C314.862 227.86 315.602 239.088 319.643 238.747Z" fill="#E2E8ED"/>
<path d="M322.824 276.854L373.074 272.651C374.541 272.524 375.899 271.821 376.851 270.696C377.802 269.572 378.271 268.116 378.155 266.647C378.099 265.915 377.9 265.2 377.568 264.545C377.236 263.89 376.778 263.307 376.221 262.829C375.663 262.352 375.017 261.989 374.319 261.761C373.621 261.533 372.885 261.446 372.154 261.503L321.904 265.686C318.063 265.946 318.763 277.194 322.824 276.854Z" fill="#E2E8ED"/>
<path d="M198.999 166.777C198.999 166.777 196.499 192.255 207.881 213.45C217.623 231.462 236.967 255.019 252.59 267.948L256.351 267.027C250.91 246.133 233.746 208.987 232.666 195.157C231.586 181.327 231.866 165.136 231.606 157.39" fill="#FFB288"/>
<path d="M246.949 108.536C246.949 108.536 224.944 109.817 212.162 119.424C190.158 136.015 194.498 180.587 200.9 202.382C207.301 224.177 238.047 256.88 248.049 263.925C249.669 263.925 254.45 263.525 254.29 259.762C248.729 242.77 233.066 198.139 233.066 198.139L235.547 137.837" fill="#00ADAB"/>
<path d="M254.83 263.925C257.296 264.271 259.616 265.296 261.532 266.887C263.372 268.328 265.533 270.73 265.393 271.831C265.253 272.931 262.132 270.75 261.772 271.21C261.412 271.67 266.913 279.996 265.773 280.617C264.632 281.237 260.051 273.692 260.051 273.692C260.051 273.692 264.612 281.697 262.832 281.938C261.372 282.078 257.311 274.452 257.311 274.452C257.311 274.452 260.732 281.277 259.571 281.537C258.411 281.798 255.231 274.993 255.231 274.993C255.231 274.993 257.811 280.797 256.811 280.897C254.797 279.279 253.359 277.054 252.71 274.552C251.65 271.11 250.43 268.128 251.37 265.426" fill="#FFB288"/>
<path d="M239.267 215.831L233.066 198.139L237.707 147.523" stroke="#02605F" stroke-width="0.5" stroke-miterlimit="10"/>
<path d="M195.859 159.772C195.739 173.482 197.379 190.394 200.9 202.382C203.98 212.869 212.702 225.898 222.024 237.346" stroke="#02605F" stroke-width="0.5" stroke-miterlimit="10"/>
<path d="M668.252 85.2198L671.813 82.7981C672.418 79.6937 673.267 76.6421 674.353 73.6717C675.607 71.3992 677.253 69.3665 679.214 67.6675C680.094 67.0871 684.035 64.8455 685.035 65.8462C685.535 66.3465 683.855 70.8097 683.035 71.5702C682.215 72.3307 680.014 75.7731 680.374 76.8539C680.734 77.9347 682.595 75.573 683.035 75.1327C683.475 74.6924 684.075 74.132 684.275 74.7124C684.635 75.6531 682.635 81.0568 681.075 82.6179C679.521 84.2666 677.455 85.3391 675.213 85.6601L669.692 90.5235" fill="#FFB288"/>
<path d="M711.041 59.7619C713.88 61.633 716.31 64.0611 718.184 66.8992C720.058 69.7373 721.337 72.9265 721.943 76.2735C722.077 77.4726 722.518 78.6167 723.223 79.5958C723.934 80.2373 724.763 80.7336 725.663 81.0568C728.079 82.2213 730.235 83.8596 732.005 85.8743C733.774 87.8891 735.121 90.2392 735.965 92.7851C736.706 94.9466 736.126 98.0087 736.986 99.85C738.026 102.112 741.847 102.612 743.927 103.292C747.035 104.333 749.74 106.319 751.665 108.972C753.589 111.626 754.637 114.816 754.661 118.094C754.685 121.373 753.685 124.577 751.8 127.259C749.915 129.941 747.239 131.967 744.147 133.053C744.919 134.25 745.419 135.601 745.612 137.012C745.806 138.423 745.688 139.859 745.267 141.219C744.395 143.932 742.925 146.415 740.966 148.484C736.987 152.821 732.105 156.233 726.665 158.477C721.225 160.721 715.359 161.744 709.48 161.473C706.089 161.383 702.739 160.706 699.578 159.472C696.086 157.89 692.839 155.814 689.936 153.307C686.149 150.633 683.022 147.128 680.795 143.06C678.794 138.877 678.974 133.394 682.275 130.151C680.349 130.455 678.375 130.189 676.598 129.385C674.821 128.581 673.318 127.275 672.273 125.628C671.266 123.964 670.599 122.116 670.311 120.193C670.022 118.269 670.118 116.307 670.593 114.42C671.575 110.642 673.348 107.115 675.794 104.073C677.66 102.072 678.982 99.6258 679.634 96.968C680.214 92.4448 677.634 88.402 677.034 83.9188C676.014 76.9339 676.334 70.9097 682.315 67.2071C684.315 62.2236 686.556 58.3809 692.077 56.9199C695.265 56.0787 698.591 55.8968 701.851 56.3855C705.112 56.8741 708.239 58.023 711.041 59.7619Z" fill="#2B3E3C"/>
<path d="M696.638 112.899C676.634 107.655 653.85 115.921 648.769 115.901C655.73 108.916 668.533 93.3855 672.953 88.0217C673.064 87.1059 672.913 86.1774 672.516 85.3446C672.119 84.5118 671.494 83.8091 670.713 83.3184C670.713 83.3184 615.982 111.638 621.483 130.091C627.224 149.405 680.835 139.938 685.136 145.462" fill="#00ADAB"/>
<path d="M700.558 292.605C700.558 294.246 693.357 329.391 692.817 333.174C691.297 344.161 697.098 355.189 696.538 372.201C695.837 392.915 687.036 448.574 685.915 451.036C684.795 453.498 679.434 451.236 679.434 451.236C679.434 451.236 663.971 376.584 663.091 346.023C662.371 320.865 666.032 266.407 666.032 266.407" fill="#FFB288"/>
<path d="M686.476 451.997C686.908 452.858 687.199 453.784 687.336 454.739L687.136 458.642H686.136L685.776 456.74C683.854 457.164 682.025 457.93 680.375 459.002C679.074 459.882 672.373 459.802 671.413 459.262C671.217 459.176 671.045 459.044 670.91 458.877C670.776 458.711 670.683 458.514 670.64 458.305C670.597 458.095 670.605 457.878 670.663 457.672C670.721 457.466 670.827 457.277 670.973 457.12C671.353 456.68 678.534 453.538 678.534 453.538" fill="#2B3E3C"/>
<path d="M679.435 451.236C678.854 452.637 673.193 455.739 673.713 456.14C676.23 456.612 678.83 456.341 681.195 455.359C684.516 454.258 686.396 453.018 686.516 452.137L685.876 449.795" fill="#FFB288"/>
<path d="M750.148 294.066C750.148 295.707 744.147 331.052 743.667 334.855C742.467 345.862 748.608 356.71 748.548 373.742C748.548 394.477 741.406 450.376 740.346 452.877C739.286 455.379 733.885 453.278 733.885 453.278C733.885 453.278 716.142 379.226 714.341 348.604C712.841 323.487 714.841 268.928 714.841 268.928" fill="#FFB288"/>
<path d="M740.987 453.798C741.446 454.648 741.764 455.568 741.927 456.52C741.927 458.842 741.927 460.523 741.927 460.523H740.927L740.507 458.641C738.601 459.119 736.798 459.939 735.186 461.063C733.885 461.984 727.184 462.104 726.224 461.584C726.027 461.502 725.852 461.376 725.714 461.214C725.576 461.051 725.478 460.859 725.429 460.651C725.38 460.444 725.382 460.228 725.433 460.021C725.484 459.814 725.584 459.623 725.724 459.462C726.084 459.002 733.165 455.659 733.165 455.659" fill="#2B3E3C"/>
<path d="M733.945 453.278C733.405 454.699 727.824 457.961 728.364 458.341C730.889 458.732 733.473 458.384 735.805 457.341C739.106 456.14 740.946 454.839 741.026 453.958L740.326 451.637" fill="#FFB288"/>
<path d="M732.145 203.643C732.145 203.643 748.008 214.03 754.049 238.968C762.151 272.591 750.149 338.417 750.149 338.417C733.239 342.982 715.812 345.343 698.298 345.442C671.293 345.222 655.29 336.076 655.23 334.454C655.17 332.833 651.229 282.978 656.69 249.175C662.851 211.148 678.554 200.981 678.554 200.981" fill="#2B3E3C"/>
<path d="M710.681 112.259C713.121 111.338 719.502 113.58 731.445 118.143C736.686 123.827 738.986 136.276 740.126 147.283C737.026 174.102 733.565 188.732 735.225 197.779C735.626 199.92 737.586 201.541 737.226 204.523C736.566 210.708 726.464 211.648 707.22 213.83C687.976 216.011 670.733 207.285 671.773 204.563C672.813 201.841 676.074 199.44 676.594 197.639C677.114 195.837 678.694 172.861 676.594 170.139C674.493 167.417 669.152 159.572 669.152 151.927C669.152 141.179 675.154 136.356 678.954 130.451C685.396 120.605 690.297 114.44 696.538 112.899C706.64 110.417 710.681 112.259 710.681 112.259Z" fill="#00ADAB"/>
<path d="M678.354 125.848C678.7 128.768 678.119 131.723 676.694 134.294C675.973 135.495 671.613 139.938 670.692 142.76" stroke="#015150" stroke-width="0.5" stroke-miterlimit="10"/>
<path d="M706.14 99.1695C711.381 93.9659 712.141 84.0789 709.821 77.3942C707.14 69.869 696.438 64.245 689.057 68.9483C674.514 78.1948 689.217 115.941 706.14 99.1695Z" fill="#FFB288"/>
<path d="M696.138 98.2489L696.398 114.26C696.398 114.26 695.798 117.843 702.099 118.063C710.721 118.363 710.721 112.179 710.721 112.179L705.72 95.607" fill="#FFB288"/>
<path d="M702.619 61.8433C701.82 61.2744 700.87 60.957 699.89 60.9321C698.91 60.9071 697.944 61.1757 697.118 61.7032C696.139 62.5541 695.103 63.3365 694.017 64.0449C693.123 64.3421 692.206 64.5696 691.277 64.7254C689.13 65.3231 687.135 66.3735 685.427 67.8061C683.719 69.2386 682.338 71.0202 681.375 73.0312C679.594 77.034 680.175 83.5586 683.475 86.4206C683.374 82.875 684.216 79.3662 685.916 76.2534C686.267 75.5164 686.811 74.8887 687.491 74.4374C688.171 73.9862 688.961 73.7284 689.776 73.6917C691.577 73.8918 692.577 75.8332 693.877 77.114C696.012 78.7785 698.615 79.7306 701.319 79.836C704.299 80.2763 706.58 80.7966 708.04 83.6987C708.628 84.9797 709.07 86.3222 709.36 87.7015C709.809 89.3255 710.11 90.9867 710.26 92.6649C710.235 93.7084 710.343 94.7509 710.581 95.7671C711.017 96.7204 711.662 97.5629 712.469 98.2318C713.277 98.9006 714.224 99.3785 715.241 99.6298C716.762 100.13 719.242 100.611 720.262 98.8893C721.114 97.2987 721.709 95.5828 722.023 93.8057C722.75 88.2796 721.434 82.6779 718.322 78.0547C715.121 72.9711 710.561 69.5688 706.46 65.3258C705.302 64.0363 704.015 62.8694 702.619 61.8433Z" fill="#2B3E3C"/>
<path d="M706.66 86.6007C706.781 85.9685 707.078 85.3834 707.517 84.9126C707.956 84.4417 708.518 84.1042 709.14 83.9388C713.241 83.3184 712.621 89.4227 711.041 91.5842C710.1 92.8251 707.72 94.4662 706.66 90.9838" fill="#FFB288"/>
<path d="M750.148 211.869L748.148 215.871C748.148 215.871 740.867 217.613 740.147 218.893C738.926 220.895 737.106 223.717 737.106 225.298C737.106 226.879 737.246 233.884 739.246 233.884C740.487 233.884 743.427 228.18 744.027 227.379C745.448 225.498 751.189 224.137 751.189 219.194L754.709 211.768" fill="#FFB288"/>
<path d="M710.681 112.079C710.681 112.079 727.624 107.756 740.887 116.081C751.189 122.586 777.694 154.949 777.694 173.482C777.694 185.97 752.909 216.912 752.909 216.912L748.788 213.97C748.788 213.97 751.189 189.653 758.39 176.244C753.069 170.92 732.385 154.408 727.144 149.205" fill="#00ADAB"/>
<path d="M724.463 147.503C728.164 150.786 737.926 158.651 737.926 158.651" stroke="#015150" stroke-width="0.5" stroke-miterlimit="10"/>
</g>
<defs>
<clipPath id="clip0_56:549">
<rect width="910" height="485" fill="white"/>
</clipPath>
</defs>
</svg>
