<svg width="140" height="140" viewBox="0 0 140 140" fill="none" xmlns="http://www.w3.org/2000/svg">
<circle cx="70" cy="70" r="70" fill="#F5FFFF"/>
<circle cx="70" cy="70" r="50" fill="#F5FFFF" stroke="#00ADAB" stroke-width="8"/>
<path d="M62.0833 87.9143H64.1667V72.9607H62.0833C60.9327 72.9607 60 72.0338 60 70.8904V65.9453C60 64.8019 60.9327 63.875 62.0833 63.875H73.75C74.9006 63.875 75.8333 64.8019 75.8333 65.9453V87.9143H77.9167C79.0673 87.9143 80 88.8412 80 89.9846V94.9297C80 96.0731 79.0673 97 77.9167 97H62.0833C60.9327 97 60 96.0731 60 94.9297V89.9846C60 88.8412 60.9327 87.9143 62.0833 87.9143ZM70 44C65.8578 44 62.5 47.3368 62.5 51.4531C62.5 55.5694 65.8578 58.9062 70 58.9062C74.1422 58.9062 77.5 55.5694 77.5 51.4531C77.5 47.3368 74.1421 44 70 44Z" fill="#00ADAB"/>
</svg>
