<?xml version="1.0" encoding="utf-8"?>
<!-- Generator: Adobe Illustrator 25.2.3, SVG Export Plug-In . SVG Version: 6.00 Build 0)  -->
<svg version="1.1" id="Capa_1" xmlns="http://www.w3.org/2000/svg" xmlns:xlink="http://www.w3.org/1999/xlink" x="0px" y="0px"
	 viewBox="0 0 176 180" style="enable-background:new 0 0 176 180;" xml:space="preserve">
<style type="text/css">
	.st0{fill:#FFF5E2;}
	.st1{fill:#FDAF17;}
</style>
<path class="st0" d="M173,148.7L99.2,11.5c-1-1.9-2.5-3.4-4.2-4.5c-1.7-1.1-3.7-1.7-5.8-1.7c-2,0-4,0.6-5.8,1.6
	c-1.8,1.1-3.2,2.6-4.2,4.5L5,147.8c-1,1.9-1.6,4-1.6,6.1c0,2.2,0.5,4.3,1.5,6.1c1,1.9,2.5,3.4,4.2,4.5c1.7,1.1,3.7,1.7,5.8,1.7
	l148.2,0.9c2,0,4-0.6,5.8-1.6c1.8-1.1,3.2-2.6,4.2-4.5c1-1.9,1.6-4,1.6-6.2C174.6,152.7,174.1,150.5,173,148.7z"/>
<path class="st1" d="M152.5,153.5c-0.7,0.3-1.5,0.4-2.3,0.4l-122,0c-1.3,0-2.5-0.4-3.6-1c-1.1-0.7-2-1.6-2.6-2.8
	c-0.6-1.2-1-2.5-1-3.8c0-1.3,0.3-2.6,0.9-3.8L82.8,30c0.6-1.2,1.5-2.1,2.6-2.8c1.1-0.7,2.3-1,3.6-1c1.2,0,2.4,0.4,3.5,1.1
	c1.1,0.7,2,1.6,2.6,2.8l61.2,112.5c0.5,1,0.9,2.1,1,3.2c0.1,1.1,0,2.2-0.4,3.3c-0.4,1.1-0.9,2-1.7,2.8
	C154.4,152.6,153.5,153.2,152.5,153.5L152.5,153.5z M31.5,144.1l115.3,0.1L89,37.9L31.5,144.1z"/>
<path class="st1" d="M89.1,121.9c-1.1-0.1-2.1-0.5-2.9-1.3c-0.8-0.8-1.3-1.9-1.4-3.1l-2.5-44.3c-0.1-1,0.1-2,0.4-2.9
	c0.3-0.9,0.8-1.8,1.4-2.5c0.6-0.7,1.4-1.3,2.2-1.7c0.8-0.4,1.8-0.6,2.7-0.6c0.9,0,1.9,0.2,2.7,0.6c0.9,0.4,1.6,1,2.3,1.7
	c0.6,0.7,1.1,1.6,1.5,2.5c0.3,0.9,0.4,1.9,0.4,2.9l-2.4,44.3c-0.1,1.2-0.6,2.2-1.4,3C91.2,121.4,90.2,121.9,89.1,121.9z"/>
<path class="st1" d="M94.2,135c0,1-0.3,1.9-0.8,2.7c-0.5,0.8-1.2,1.4-2.1,1.8c-0.8,0.4-1.8,0.4-2.6,0.2c-0.9-0.2-1.7-0.7-2.3-1.4
	c-0.6-0.7-1.1-1.6-1.2-2.5c-0.2-0.9-0.1-1.9,0.3-2.8c0.4-0.9,1-1.6,1.7-2.1c0.8-0.5,1.6-0.8,2.6-0.8c1.2,0,2.3,0.6,3.2,1.5
	C93.7,132.5,94.2,133.7,94.2,135L94.2,135z"/>
</svg>
