<?xml version="1.0" encoding="utf-8"?>
<!-- Generator: Adobe Illustrator 25.2.3, SVG Export Plug-In . SVG Version: 6.00 Build 0)  -->
<svg version="1.1" xmlns="http://www.w3.org/2000/svg" xmlns:xlink="http://www.w3.org/1999/xlink" x="0px" y="0px"
	 viewBox="0 0 750 500" style="enable-background:new 0 0 750 500;" xml:space="preserve">
<style type="text/css">
	.st0{display:none;}
	.st1{display:inline;}
	.st2{fill:#F5F5F5;}
	.st3{fill:#FFBE9D;}
	.st4{fill:#EB996E;}
	.st5{fill:#263238;}
	.st6{fill:#455A64;}
	.st7{fill:#2B3E3C;}
	.st8{opacity:0.3;}
	.st9{fill:#00ADAB;}
	.st10{fill:#E0E0E0;}
	.st11{fill:#EBEBEB;}
	.st12{fill:#FAFAFA;}
	.st13{fill:#82C341;}
	.st14{fill:none;}
	.st15{fill:#FFFFFF;}
	.st16{display:inline;fill:#FFFFFF;}
</style>
<g id="Background_Complete">
</g>
<g id="Background_Simple" class="st0">
	<g class="st1">
		<path class="st2" d="M618.12,108.23l-2.48-4.09c-20.91-34.46-58.72-55.24-98.59-52.72c-5.12,0.32-10.23,1.02-15.26,2.1
			c-36.25,7.76-67.78,35.17-80.86,70.27c-7.69,20.64-9.84,44.41-24.43,60.8c-18.99,21.33-51.22,22-79.56,21.11
			c-28.34-0.88-60.6-0.13-79.49,21.28c-11.83,13.41-15.59,32.48-14.64,50.44c2.53,47.54,35.66,90.05,77.79,111.18
			c42.13,21.13,91.74,23.02,137.85,13.73c64.6-13.02,126.03-48.78,162.95-104.01C638.32,243.09,647.66,167.84,618.12,108.23z"/>
	</g>
	<g class="st1">
		
			<ellipse transform="matrix(0.2298 -0.9732 0.9732 0.2298 -2.992 229.257)" class="st2" cx="143.34" cy="116.52" rx="18.95" ry="18.95"/>
	</g>
</g>
<g id="Character">
	<g>
		<g>
			<g>
				<g>
					<g>
						<g>
							<g>
								<g>
									<g>
										<g>
											<g>
												<g>
													<g>
														<g>
															<g>
																<g>
																	<g>
																		<g>
																			<g>
																				<g>
																					<g>
																						<g>
																							<path class="st3" d="M328.36,131.98l-1.27,102.41c-0.22,17.42,3.02,43.04,30.57,42.13l0,0
																								c23.84-2.6,30.17-25.17,30.35-41.42c0.09-7.71,0.18-14.14,0.24-14.93c0,0,26.1-2.13,28.3-27.91
																								c1.06-12.46,1.17-38.3,0.99-61.67c-0.19-25.11-19.66-45.85-44.7-47.67l-2.49-0.18
																								C343.4,82.34,328.01,105.02,328.36,131.98z"/>
																						</g>
																					</g>
																				</g>
																			</g>
																		</g>
																	</g>
																</g>
															</g>
														</g>
													</g>
												</g>
											</g>
										</g>
									</g>
								</g>
							</g>
							<g>
								<g>
									<g>
										<g>
											<g>
												<g>
													<g>
														<g>
															<g>
																<g>
																	<g>
																		<g>
																			<g>
																				<g>
																					<g>
																						<g>
																							<path class="st4" d="M388.26,220.17c0,0-16.33-0.23-32.87-12.39c0,0,6.82,19.45,32.74,19L388.26,220.17z"/>
																						</g>
																					</g>
																				</g>
																			</g>
																		</g>
																	</g>
																</g>
															</g>
														</g>
													</g>
												</g>
											</g>
										</g>
									</g>
								</g>
							</g>
						</g>
					</g>
				</g>
				<g>
					<g>
						<g>
							<g>
								<g>
									<g>
										<g>
											<g>
												<g>
													<g>
														<g>
															<g>
																<g>
																	<g>
																		<g>
																			<g>
																				<g>
																					<g>
																						<g>
																							<g>
																								<g>
																									<g>
																										<g>
																											<path class="st5" d="M373.48,141.16c-0.51,0.52-3.49-1.87-7.81-1.99c-4.31-0.18-7.54,2-8,1.45
																												c-0.22-0.25,0.31-1.2,1.72-2.19c1.39-0.99,3.73-1.91,6.42-1.82c2.69,0.1,4.92,1.18,6.2,2.25
																												C373.31,139.94,373.73,140.92,373.48,141.16z"/>
																										</g>
																									</g>
																								</g>
																							</g>
																						</g>
																					</g>
																				</g>
																			</g>
																		</g>
																	</g>
																</g>
															</g>
														</g>
													</g>
												</g>
											</g>
										</g>
									</g>
									<g>
										<g>
											<g>
												<g>
													<g>
														<g>
															<g>
																<g>
																	<g>
																		<g>
																			<g>
																				<g>
																					<g>
																						<g>
																							<g>
																								<g>
																									<g>
																										<path class="st5" d="M372.57,150.09c-0.07,1.85-1.69,3.31-3.62,3.27c-1.92-0.04-3.43-1.56-3.36-3.41
																											c0.07-1.85,1.69-3.31,3.61-3.27C371.13,146.72,372.64,148.24,372.57,150.09z"/>
																									</g>
																								</g>
																							</g>
																						</g>
																					</g>
																				</g>
																			</g>
																		</g>
																	</g>
																</g>
															</g>
														</g>
													</g>
												</g>
											</g>
										</g>
									</g>
									<g>
										<g>
											<g>
												<g>
													<g>
														<g>
															<g>
																<g>
																	<g>
																		<g>
																			<g>
																				<g>
																					<g>
																						<g>
																							<g>
																								<g>
																									<g>
																										<path class="st5" d="M384.3,171.2c0-0.23,2.49-0.47,6.53-0.69c1.02-0.03,1.99-0.16,2.21-0.84
																											c0.29-0.71-0.05-1.84-0.46-3.05c-0.77-2.52-1.58-5.16-2.43-7.93c-3.36-11.28-5.71-20.53-5.25-20.66
																											c0.46-0.13,3.55,8.91,6.9,20.19c0.8,2.78,1.57,5.43,2.3,7.97c0.3,1.18,0.86,2.53,0.23,4.01
																											c-0.33,0.74-1.11,1.23-1.77,1.36c-0.66,0.15-1.23,0.12-1.74,0.11C386.79,171.59,384.3,171.43,384.3,171.2
																											z"/>
																									</g>
																								</g>
																							</g>
																						</g>
																					</g>
																				</g>
																			</g>
																		</g>
																	</g>
																</g>
															</g>
														</g>
													</g>
												</g>
											</g>
										</g>
									</g>
								</g>
							</g>
						</g>
						<g>
							<g>
								<g>
									<g>
										<g>
											<g>
												<g>
													<g>
														<g>
															<g>
																<g>
																	<g>
																		<g>
																			<g>
																				<g>
																					<g>
																						<path class="st5" d="M371.64,124.92c-0.42,0.96-3.88,0.24-8.02,0.45c-4.14,0.13-7.54,1.13-8.02,0.2
																							c-0.21-0.44,0.43-1.32,1.84-2.18c1.4-0.85,3.58-1.6,6.06-1.71c2.48-0.1,4.71,0.47,6.16,1.21
																							C371.12,123.63,371.82,124.46,371.64,124.92z"/>
																					</g>
																				</g>
																			</g>
																		</g>
																	</g>
																</g>
															</g>
														</g>
													</g>
												</g>
											</g>
										</g>
									</g>
								</g>
							</g>
						</g>
						<g>
							<g>
								<g>
									<g>
										<g>
											<g>
												<g>
													<g>
														<g>
															<g>
																<g>
																	<g>
																		<g>
																			<g>
																				<g>
																					<g>
																						<path class="st5" d="M412.66,132.92c-0.45,0.78-3.82-0.09-7.91-0.21c-4.08-0.2-7.47,0.4-7.91-0.42
																							c-0.19-0.39,0.48-1.09,1.91-1.71c1.41-0.62,3.59-1.09,6.04-1c2.45,0.1,4.61,0.75,6.01,1.48
																							C412.21,131.79,412.86,132.55,412.66,132.92z"/>
																					</g>
																				</g>
																			</g>
																		</g>
																	</g>
																</g>
															</g>
														</g>
													</g>
												</g>
											</g>
										</g>
									</g>
								</g>
							</g>
						</g>
					</g>
				</g>
				<g>
					<g>
						<g>
							<g>
								<g>
									<g>
										<g>
											<g>
												<g>
													<g>
														<g>
															<g>
																<g>
																	<g>
																		<path class="st3" d="M329.07,151.24c-0.43-0.22-17.35-6.54-18.07,11.14c-0.72,17.68,17.18,14.76,17.23,14.26
																			C328.28,176.14,329.07,151.24,329.07,151.24z"/>
																	</g>
																</g>
															</g>
														</g>
													</g>
												</g>
											</g>
										</g>
									</g>
								</g>
							</g>
						</g>
					</g>
				</g>
				<g>
					<g>
						<g>
							<g>
								<g>
									<g>
										<g>
											<g>
												<g>
													<g>
														<g>
															<g>
																<g>
																	<g>
																		<g>
																			<path class="st4" d="M323.1,169.72c-0.08-0.06-0.32,0.2-0.85,0.42c-0.52,0.21-1.4,0.34-2.3-0.05
																				c-1.84-0.76-3.29-3.79-3.25-6.98c0.02-1.61,0.42-3.13,1.04-4.37c0.59-1.27,1.47-2.14,2.41-2.27
																				c0.94-0.18,1.59,0.41,1.78,0.92c0.22,0.5,0.09,0.85,0.18,0.89c0.05,0.05,0.39-0.28,0.28-1.02
																				c-0.06-0.35-0.25-0.78-0.65-1.14c-0.41-0.36-1.03-0.56-1.68-0.52c-1.37,0.04-2.65,1.24-3.33,2.61
																				c-0.76,1.37-1.25,3.08-1.27,4.88c-0.03,3.57,1.66,6.98,4.18,7.82c1.23,0.38,2.28,0.04,2.84-0.35
																				C323.06,170.15,323.16,169.76,323.1,169.72z"/>
																		</g>
																	</g>
																</g>
															</g>
														</g>
													</g>
												</g>
											</g>
										</g>
									</g>
								</g>
							</g>
						</g>
					</g>
				</g>
				<g>
					<g>
						<path class="st5" d="M380.12,183.44c0.19-0.45-3.27-1.48-5.71-4.73c-1.22-1.6-1.92-3.34-2.45-4.62
							c-0.52-1.28-0.91-2.09-1.1-2.03c-0.18,0.06-0.14,0.93,0.15,2.32c0.3,1.38,0.9,3.36,2.28,5.17c1.36,1.84,3.18,2.93,4.52,3.46
							C379.16,183.56,380.08,183.6,380.12,183.44z"/>
					</g>
				</g>
				<g>
					<g>
						<path class="st5" d="M451.79,107.45c-0.28-1.04-1.04-1.89-1.96-2.44c-2.02-1.19-4.34-1.03-6.59-1.07
							c-6.84-0.11-13.63-2.2-19.39-5.89c-2.7-3.89-5.73-7.54-9.02-10.93c-7.81-8.06-14.24-13.54-20.9-16.22
							c-8.6-3.46-22.99-4.87-31.96-2.51c-8.97,2.35-17.03,9.63-18.27,18.82c-5.03-4.25-12.58-4.22-18.71-1.75l-0.15-0.07
							c-6.82,2.43-10.7,9.64-12.71,16.6c-2.01,6.96-2.87,14.4-6.56,20.64c-0.77,1.3-1.69,2.87-1.01,4.22
							c0.52,1.05,1.85,1.48,3.01,1.31c1.16-0.17,2.19-0.81,3.18-1.44c-0.76,1.82-1.52,3.64-2.28,5.47c2.47,0.43,5.03,0.23,7.42-0.5
							c1.45,6.51,3.18,13.94,4.85,18.35c2.85-0.01,5.46,0.2,7.22,1.78c2.39,2.15,3.46,6.19,7.43,4.66c2.02-0.78,3.87-5.02,4.54-7.08
							c4.49-13.66,5.98-28.3,4.36-42.59c2.83-3.01,6.24-5.47,9.99-7.21l-0.31,0.27c7.21-2.5,15.36-4.96,22.19-1.58
							c5.3,2.62,8.42,8.13,12.38,12.52c7.51,8.32,17.65,12.84,28.85,13.33c0.38,7.26-0.23,17.52,0.15,24.78l6.11-11.63l0.01,0.06
							c0.5-0.85,0.91-1.71,1.31-2.57l0.14-0.26l0-0.03c0.64-1.38,1.24-2.76,2.04-4.13c0.02,0.02,0.05,0.04,0.07,0.06
							c3.93,3.47,9.73-1.84,6.63-6.07c-0.62-0.84-1.35-1.59-2.19-2.2c1.8,1.69,4.48,2.5,6.84,1.77c2.36-0.72,4.19-3.11,3.98-5.57
							c-0.14-1.68-1.34-3.18-2.85-3.84c3.18,0.24,6.43-0.45,9.2-2.03C450.62,111.44,452.4,109.73,451.79,107.45z"/>
					</g>
				</g>
				<g>
					<g>
						<path class="st6" d="M351.81,90.16c0.05,0.07-1.08,0.68-2.59,2.37c-1.49,1.68-3.17,4.59-3.96,8.56
							c-0.41,1.97-0.66,4.18-0.66,6.55c-0.01,2.38,0.18,4.92,0.36,7.6c0.17,2.68,0.37,5.51,0.19,8.46
							c-0.09,1.47-0.26,2.97-0.58,4.46c-0.32,1.47-0.71,3.06-1.82,4.33c-0.88,1.03-2.36,1.49-3.64,1.22
							c-1.29-0.23-2.44-0.91-3.27-1.85c-1.66-1.94-2.07-4.39-2.49-6.56l0.54,0.07c-0.88,1.95-1.79,3.87-3.14,5.4
							c-1.32,1.54-3.15,2.57-5.02,2.73c-0.93,0.08-1.86-0.07-2.66-0.47c-0.81-0.4-1.4-1.07-1.81-1.78
							c-0.39-0.72-0.59-1.52-0.55-2.29c0.04-0.77,0.34-1.49,0.83-2.01l0.27,0.24c-1.99,2.26-4.09,3.48-5.54,4.16
							c-0.73,0.34-1.32,0.54-1.72,0.67c-0.4,0.12-0.61,0.17-0.62,0.15c-0.01-0.02,0.19-0.1,0.58-0.25c0.38-0.16,0.95-0.39,1.66-0.75
							c1.41-0.72,3.44-1.97,5.35-4.22l0.27,0.24c-0.87,0.92-0.92,2.53-0.17,3.83c0.38,0.64,0.92,1.24,1.63,1.57
							c0.71,0.35,1.56,0.48,2.41,0.39c1.71-0.17,3.42-1.13,4.66-2.6c1.27-1.47,2.15-3.34,3.02-5.29l0.37-0.83l0.17,0.89
							c0.41,2.16,0.85,4.52,2.37,6.27c0.75,0.84,1.8,1.46,2.93,1.65c1.13,0.22,2.32-0.15,3.09-1.04c0.97-1.09,1.37-2.6,1.68-4.05
							c0.31-1.46,0.49-2.92,0.58-4.37c0.18-2.9,0-5.71-0.16-8.39c-0.17-2.68-0.34-5.23-0.31-7.64c0.02-2.4,0.3-4.64,0.74-6.64
							c0.86-4.02,2.63-6.97,4.2-8.63C350.64,90.71,351.81,90.16,351.81,90.16z"/>
					</g>
				</g>
				<g>
					<g>
						<path class="st6" d="M431.59,115.26c0.01,0.01-0.06,0.07-0.21,0.18c-0.17,0.13-0.39,0.28-0.64,0.47
							c-0.28,0.21-0.64,0.46-1.09,0.7c-0.45,0.26-0.95,0.57-1.57,0.83c-2.4,1.14-6.24,2.27-11.04,1.99
							c-4.76-0.27-10.47-1.95-15.56-5.75c-5.15-3.7-9.67-9.16-13.37-15.41c-1.88-3.12-3.4-6.32-5.09-9.28
							c-1.67-2.96-3.52-5.69-5.76-7.85c-2.21-2.17-4.78-3.77-7.43-4.51c-1.32-0.39-2.65-0.48-3.92-0.45
							c-1.27,0.07-2.48,0.32-3.59,0.69c-2.22,0.75-4.02,1.97-5.38,3.24c-1.37,1.27-2.28,2.62-2.91,3.78
							c-1.17,2.37-1.24,3.89-1.33,3.87c-0.01,0,0-0.09,0.02-0.27c0.03-0.21,0.07-0.47,0.12-0.79c0.13-0.69,0.42-1.69,0.98-2.91
							c0.61-1.19,1.51-2.59,2.89-3.91c1.37-1.32,3.19-2.6,5.47-3.4c1.14-0.39,2.38-0.67,3.7-0.75c1.31-0.05,2.71,0.04,4.08,0.43
							c2.75,0.74,5.41,2.38,7.68,4.59c2.3,2.2,4.2,4.98,5.89,7.96c1.71,2.98,3.24,6.17,5.1,9.26c3.67,6.2,8.13,11.6,13.18,15.27
							c5,3.76,10.58,5.45,15.26,5.77c4.72,0.33,8.52-0.71,10.91-1.77C430.4,116.14,431.55,115.18,431.59,115.26z"/>
					</g>
				</g>
				<g>
					<g>
						<path class="st6" d="M433.94,103.92c0.02,0.04-0.31,0.26-0.92,0.64c-0.61,0.39-1.55,0.88-2.74,1.39
							c-1.19,0.52-2.66,1.01-4.34,1.42c-1.68,0.38-3.56,0.66-5.54,0.74c-1.99,0.05-3.88-0.11-5.58-0.38c-1.69-0.3-3.2-0.7-4.42-1.14
							c-1.22-0.44-2.19-0.86-2.82-1.21c-0.64-0.34-0.98-0.55-0.96-0.58c0.05-0.1,1.47,0.63,3.92,1.39c1.22,0.39,2.71,0.73,4.37,1
							c1.67,0.24,3.53,0.38,5.48,0.32c1.95-0.07,3.79-0.33,5.44-0.67c1.65-0.37,3.11-0.81,4.3-1.28
							C432.51,104.65,433.88,103.82,433.94,103.92z"/>
					</g>
				</g>
				<g>
					<g>
						<g>
							<g>
								<g>
									<g>
										<g>
											<g>
												<g>
													<g>
														<path class="st5" d="M412.85,142.78c-0.51,0.52-3.49-1.88-7.81-1.99c-4.31-0.18-7.54,2-8,1.45
															c-0.22-0.25,0.31-1.2,1.72-2.19c1.39-0.99,3.73-1.91,6.42-1.82c2.69,0.1,4.92,1.18,6.2,2.25
															C412.68,141.57,413.11,142.55,412.85,142.78z"/>
													</g>
												</g>
											</g>
										</g>
									</g>
								</g>
							</g>
						</g>
					</g>
				</g>
				<g>
					<g>
						<g>
							<g>
								<g>
									<g>
										<g>
											<g>
												<g>
													<path class="st5" d="M408.45,151.34c-0.07,1.85-1.69,3.31-3.62,3.27c-1.92-0.04-3.43-1.56-3.36-3.41
														c0.07-1.84,1.69-3.31,3.61-3.27C407.01,147.97,408.52,149.5,408.45,151.34z"/>
												</g>
											</g>
										</g>
									</g>
								</g>
							</g>
						</g>
					</g>
				</g>
			</g>
			<g>
				<path class="st3" d="M569.56,245.63c0-7.49-7.16-7.49-7.16-7.49c-2.73-3.58-5.8-2.28-5.8-2.28l-11.59,7.82
					c-1.7,2.93-12.95,14.01-12.95,14.01c-3.07-2.28-3.07-6.84-6.74-12.38c-3.68-5.54-12-4.89-12-4.89s6.48,14.66,7.16,23.78
					c0.68,9.12-4.98,34.56-4.98,34.56l32.77,9.21c0,0,2.07-13.96,5.74-15.08c4.42-1.36,6.88-7.88,6.88-7.88
					c4.78-9.68,14.48-23.74,15.84-30.91C578.08,246.93,569.56,245.63,569.56,245.63z"/>
			</g>
			<g>
				<g>
					<g>
						<path class="st7" d="M325.88,229.43c20.87,13.12,41.9,18.05,63.21,9.56l32.02,8.18l31.51,210.49l-184.72,1.6l9.1-48.89
							l22.9-175.66L325.88,229.43z"/>
					</g>
					<g>
						<path class="st7" d="M421.11,247.17c0,0,24.91,10.34,34.41,28.46c9.51,18.12,24.78,68.97,24.78,68.97l28.14-51.68l52.23,13.35
							c0,0-38.88,107.24-48.64,117c-10.69,10.69-39.81,21.47-54.06,13.15c-14.26-8.32-17.16-39.89-17.16-39.89L421.11,247.17z"/>
					</g>
					<g>
						<g>
							<path class="st5" d="M422.83,335.21c-0.14,0-0.26-9.35-0.26-20.88c0-11.53,0.12-20.88,0.26-20.88
								c0.14,0,0.26,9.35,0.26,20.88C423.09,325.86,422.98,335.21,422.83,335.21z"/>
						</g>
					</g>
					<g>
						<g>
							<path class="st5" d="M432.58,259.2c0.07,0.03-0.43,1.33-1.22,3.45c-0.78,2.11-1.83,5.05-2.84,8.33
								c-1.02,3.29-1.81,6.29-2.36,8.48c-0.55,2.19-0.87,3.55-0.95,3.53c-0.04-0.01,0-0.36,0.1-0.98c0.09-0.63,0.26-1.53,0.49-2.63
								c0.46-2.21,1.2-5.25,2.22-8.55c1.02-3.3,2.12-6.23,3-8.31c0.44-1.04,0.81-1.88,1.08-2.45
								C432.38,259.49,432.55,259.18,432.58,259.2z"/>
						</g>
					</g>
				</g>
				<g>
					<g>
						<path class="st7" d="M296.52,313.54l5.78-79.31c0,0-43.48,4.03-57.87,34.71c-12.13,25.85-45.59,103.62-49.18,114.26
							c-10.51,31.22,5.91,74.14,73.61,71.66l7.72-42.44L296.52,313.54z"/>
					</g>
					<g>
						<g>
							<path d="M247.83,421.26c-0.02-0.01,0.11-0.27,0.35-0.76c0.27-0.53,0.64-1.24,1.1-2.13c1-1.89,2.41-4.54,4.15-7.8
								c0.44-0.82,0.9-1.68,1.39-2.58c0.49-0.89,1.06-1.86,1.99-2.56c0.93-0.7,2.15-0.98,3.34-0.96c1.2,0.01,2.41,0.27,3.6,0.58
								c2.4,0.63,4.86,1.53,7.28,2.75c1.21,0.61,2.4,1.33,3.49,2.23l0.4,0.35c0.16,0.14,0.29,0.36,0.34,0.54
								c0.13,0.37,0.19,0.73,0.22,1.09c0.07,0.72,0.07,1.44,0.05,2.15c-0.11,2.87-0.46,5.63-0.82,8.29
								c-0.37,2.66-0.77,5.22-1.18,7.66c-0.82,4.87-1.64,9.24-2.34,12.9c-0.71,3.62-1.29,6.57-1.7,8.67
								c-0.19,0.99-0.35,1.77-0.46,2.36c-0.11,0.54-0.16,0.82-0.17,0.82c-0.02,0,0-0.29,0.07-0.84c0.07-0.55,0.2-1.35,0.37-2.38
								c0.37-2.11,0.89-5.07,1.54-8.7c0.65-3.67,1.44-8.04,2.23-12.91c0.39-2.43,0.79-4.99,1.15-7.65c0.35-2.66,0.7-5.42,0.8-8.24
								c0.02-0.7,0.02-1.41-0.04-2.09c-0.03-0.34-0.09-0.67-0.19-0.96c-0.06-0.15-0.11-0.24-0.21-0.34l-0.38-0.33
								c-1.05-0.86-2.21-1.56-3.39-2.17c-2.37-1.21-4.8-2.1-7.16-2.74c-1.18-0.31-2.35-0.57-3.49-0.59
								c-1.13-0.03-2.24,0.23-3.08,0.85c-0.85,0.62-1.4,1.53-1.89,2.4c-0.49,0.89-0.96,1.75-1.41,2.56
								c-1.79,3.23-3.25,5.86-4.29,7.72c-0.5,0.87-0.89,1.57-1.19,2.09C248,421.03,247.85,421.27,247.83,421.26z"/>
						</g>
					</g>
					<g>
						<g>
							<path class="st5" d="M216.39,383.59c0-0.02,0.18-0.02,0.51-0.02c0.39,0.02,0.88,0.03,1.46,0.06c1.27,0.06,3.1,0.17,5.36,0.38
								c2.26,0.21,4.95,0.53,7.9,1.15c2.94,0.61,6.14,1.56,9.29,3.08c3.13,1.53,5.91,3.38,8.17,5.39c2.23,2.03,3.96,4.2,4.96,6.27
								c1.01,2.06,1.43,3.9,1.5,5.17c0.09,0.63,0.02,1.13,0.03,1.47c-0.01,0.33-0.02,0.51-0.04,0.51c-0.06,0-0.04-0.71-0.19-1.95
								c-0.13-1.25-0.6-3.04-1.63-5.03c-1.02-2-2.74-4.1-4.95-6.08c-2.24-1.96-4.99-3.77-8.08-5.28c-3.09-1.49-6.25-2.44-9.16-3.08
								c-2.91-0.64-5.59-1-7.83-1.25c-2.25-0.26-4.07-0.42-5.34-0.54c-0.58-0.06-1.06-0.11-1.45-0.15
								C216.57,383.64,216.39,383.61,216.39,383.59z"/>
						</g>
					</g>
					<g>
						<g>
							<path class="st5" d="M262.92,379.58c0.06,0.03-0.33,1.22-1.08,3.12c-0.74,1.9-1.85,4.49-3.13,7.32
								c-1.24,2.76-2.37,5.26-3.26,7.25c-0.83,1.86-1.35,3.01-1.42,2.98c-0.06-0.03,0.33-1.22,1.08-3.12
								c0.74-1.9,1.85-4.49,3.13-7.32c1.24-2.76,2.37-5.26,3.26-7.25C262.33,380.7,262.85,379.56,262.92,379.58z"/>
						</g>
					</g>
					<g>
						<g>
							<path class="st5" d="M286.98,317.16c-0.14,0-0.26-5.03-0.26-11.23c0-6.2,0.12-11.23,0.26-11.23c0.14,0,0.26,5.03,0.26,11.23
								C287.24,312.13,287.12,317.16,286.98,317.16z"/>
						</g>
					</g>
					<g class="st8">
						<g>
							<path d="M255.52,407.04c-11.44,3.99-19.17,14.37-22.29,26.07c-0.33,1.23-0.55,2.68,0.28,3.65c0.85,1,2.47,0.97,3.59,0.29
								c1.12-0.67,1.85-1.82,2.55-2.93C245.15,425.3,250.53,417.13,255.52,407.04L255.52,407.04z"/>
						</g>
					</g>
					<g>
						<g class="st8">
							<g>
								<path d="M241.34,384.41c-5.98-3.32-12.86-4.75-19.69-5.16c-2.68-0.16-5.34,0.15-7.96,0.7c-3.57,0.75-7.67,2.55-8.46,5.12
									c8.21-2.57,20.29-0.88,28.7,0.96c8.48,1.85,15.37,6.66,20.09,14.24C252,393.87,247.2,387.67,241.34,384.41z"/>
							</g>
						</g>
					</g>
					<g>
						<g>
							<path class="st5" d="M280.58,283.39c-0.04,0.01-0.18-0.44-0.4-1.25c-0.21-0.81-0.56-1.98-1.03-3.41
								c-0.94-2.85-2.51-6.72-4.83-10.67c-2.33-3.95-4.94-7.2-6.98-9.41c-1.02-1.11-1.87-1.98-2.48-2.56
								c-0.6-0.59-0.92-0.93-0.9-0.96s0.39,0.26,1.04,0.81c0.65,0.54,1.55,1.38,2.61,2.46c2.12,2.16,4.81,5.41,7.16,9.4
								c2.34,4,3.88,7.92,4.74,10.82c0.43,1.45,0.73,2.64,0.88,3.47C280.54,282.92,280.62,283.38,280.58,283.39z"/>
						</g>
					</g>
				</g>
			</g>
			<g>
				<g>
					<g>
						<path class="st9" d="M296.55,459.23L248.1,342.34c-2.21-5.33,0.56-9.66,6.19-9.66h9.75c3.98,0,6.69-2.19,6.94-5.61l0.32-4.3
							c0.26-3.42,2.97-5.61,6.96-5.61h46.32c3.61,0,7.69,1.8,10.73,4.75l3.76,3.64c3.03,2.94,7.11,4.75,10.72,4.75h58.99
							c5.63,0,11.94,4.32,14.09,9.66l48.03,119.28H296.55z"/>
					</g>
				</g>
				<g class="st8">
					<g>
						<path d="M296.55,459.23L248.1,342.34c-2.21-5.33,0.56-9.66,6.19-9.66h9.75c3.98,0,6.69-2.19,6.94-5.61l0.32-4.3
							c0.26-3.42,2.97-5.61,6.96-5.61h46.32c3.61,0,7.69,1.8,10.73,4.75l3.76,3.64c3.03,2.94,7.11,4.75,10.72,4.75h58.99
							c5.63,0,11.94,4.32,14.09,9.66l48.03,119.28H296.55z"/>
					</g>
				</g>
				<g>
					<path class="st10" d="M288.54,419.53l-18.27-70.65c-1.2-4.65,1.84-9.32,6.08-9.32h143.23c2.83,0,5.32,2.15,6.1,5.26
						l26.6,106.34c1.17,4.67-0.7,7.47-4.94,7.42l-144.11,0.04c-2.79-0.04-5.24-2.15-6.02-5.22L288.54,419.53z"/>
				</g>
				<g>
					<g>
						<path class="st11" d="M298.44,456.04l-7.78-111.26c-0.28-3.95,2.85-7.3,6.81-7.3h148.4v118.56H298.44z"/>
					</g>
					<g>
						<g>
							<g>
								<g>
									<path class="st12" d="M296.78,458.58l17.65-114.7c0.81-3.74,4.18-6.41,8.07-6.41h150.12c5.93,0,9.92,5.96,7.58,11.3
										l-32.42,104.96L296.78,458.58z"/>
								</g>
							</g>
						</g>
					</g>
				</g>
				<g>
					<g>
						<g>
							<g>
								<g>
									<path class="st9" d="M296.55,459.18l36.41-107.42c1.52-4.48,5.57-7.47,10.13-7.47h154.76c4.99,0,8.5,5.11,6.91,10.04
										L470.9,459.23L296.55,459.18z"/>
								</g>
							</g>
						</g>
					</g>
				</g>
			</g>
			<g class="st8">
				<g>
					<path d="M371.38,441.2c0,0-5.84,0.27-8.54,0.45c-12.83,0.88-25.86-1.44-37.6-6.67c-3.64-1.62-7.49-3.91-8.59-7.74
						c-1.23-4.29,1.55-8.76,4.93-11.67c3.39-2.91,7.51-4.98,10.45-8.34c2.94-3.36,4.33-8.8,1.44-12.19l-0.8,0.59
						c-2.09,5.3-7.92,7.86-12.75,10.9c-8.97,5.64-15.8,14.57-18.9,24.7c-1.7,5.56-2.15,12.05,1.22,16.79
						c2.39,3.36,6.31,5.27,10.18,6.71c11.71,4.34,24.22,4.5,36.71,4.52c3.95,0,16.05-0.16,16.05-0.16c3.81-1.04,5.06-3.02,7.35-6.23
						C374.63,449.89,374.17,443.51,371.38,441.2z"/>
				</g>
			</g>
			<g>
				<g>
					<g>
						<path class="st3" d="M371.38,439.44l-40.36-6.07l-15.67-9.02c-2.07-1.19-3.48-3.31-3.6-5.69c0-0.04,0-0.09-0.01-0.13
							c-0.12-2.97,1.69-5.68,4.44-6.83c4.97-2.09,12.85-4.88,16.21-10.77c4.83-8.46,0-10.21,0-10.21l-33.71,13.47l-23.86,16.24
							l-4.8,27.08l33.29,10.87c0,0,37.1,2.09,47.34,0.94c10.24-1.15,10.24-5.92,10.24-5.92c1.9-0.59,5.74-3.97,5.74-7.11
							C371.58,441.63,371.38,439.44,371.38,439.44"/>
					</g>
				</g>
				<g>
					<g>
						<g>
							<path class="st4" d="M319.75,451.09c0.01-0.05,0.61,0.07,1.66,0.32c1.05,0.26,2.59,0.6,4.49,0.97
								c3.8,0.76,9.11,1.56,15.01,1.79c5.91,0.22,11.26-0.15,15.11-0.62c1.92-0.23,3.48-0.45,4.55-0.62
								c1.07-0.16,1.67-0.23,1.68-0.19c0.01,0.05-0.57,0.2-1.63,0.45c-1.06,0.25-2.61,0.55-4.54,0.84
								c-3.85,0.59-9.25,1.05-15.2,0.82c-5.95-0.24-11.3-1.11-15.09-2c-1.9-0.44-3.42-0.86-4.46-1.19
								C320.3,451.34,319.74,451.14,319.75,451.09z"/>
						</g>
					</g>
				</g>
				<g>
					<g>
						<g>
							<path class="st4" d="M323.44,444.85c0.01-0.05,0.61,0.07,1.69,0.32c1.07,0.26,2.63,0.6,4.56,0.97
								c3.86,0.75,9.26,1.5,15.26,1.69c6,0.18,11.44-0.22,15.34-0.7c1.95-0.24,3.53-0.46,4.62-0.64c1.09-0.17,1.7-0.24,1.71-0.19
								c0.01,0.05-0.58,0.21-1.66,0.46c-1.08,0.26-2.65,0.56-4.61,0.86c-3.91,0.61-9.38,1.09-15.43,0.91
								c-6.05-0.19-11.48-1.02-15.34-1.9c-1.93-0.43-3.48-0.85-4.53-1.19C324,445.1,323.42,444.9,323.44,444.85z"/>
						</g>
					</g>
				</g>
			</g>
		</g>
		<g>
			<g>
				<g>
					<g>
						<g>
							<g>
								<g>
									<g>
										<g>
											<g>
												<path class="st11" d="M561.5,297.31l-71.72,14.17c-4.96,0.98-9.77-2.25-10.75-7.2L459.43,205
													c-0.98-4.96,2.25-9.77,7.2-10.75l45.48-8.98l42.38,29.34l14.21,71.95C569.68,291.52,566.46,296.33,561.5,297.31z"/>
											</g>
										</g>
									</g>
								</g>
							</g>
							<g>
								<g>
									<g>
										<g>
											<g>
												<path class="st2" d="M512.12,185.27l5.52,27.94c0.91,4.61,5.38,7.61,9.99,6.7l26.86-5.3L512.12,185.27z"/>
											</g>
										</g>
									</g>
								</g>
							</g>
							<g>
								<g>
									<g>
										<g>
											<g>
												<path class="st10" d="M518.48,215.59c0,0,0.98,6.85,9.14,7.55c0.31,0.03,0.62,0.03,0.92,0.02
													c3.63-0.07,27.53-0.52,27.43-1.05c-0.11-0.57-1.48-7.51-1.48-7.51l-26.86,5.31
													C527.63,219.91,520.88,221.01,518.48,215.59z"/>
											</g>
										</g>
									</g>
								</g>
							</g>
						</g>
					</g>
					<g>
						<g>
							<g>
								<g>
									<g>
										<g>
											<path class="st5" d="M561.5,297.31c0,0,0.13-0.04,0.39-0.11c0.26-0.06,0.64-0.17,1.13-0.37c0.96-0.38,2.4-1.13,3.7-2.7
												c1.26-1.54,2.39-4.03,1.97-6.98c-0.52-2.91-1.24-6.25-1.98-10c-2.99-15.02-7.27-36.52-12.44-62.5l0.09,0.14
												c-12.83-8.87-27.13-18.76-42.39-29.31l0.19,0.04c-8.43,1.67-17.21,3.4-26.24,5.19c-4.52,0.89-9.1,1.8-13.73,2.71
												c-1.16,0.23-2.32,0.46-3.48,0.69c-1.16,0.25-2.35,0.4-3.43,0.81c-2.18,0.8-4.01,2.51-4.97,4.65
												c-0.67,1.48-0.94,3.15-0.72,4.75c0.25,1.61,0.63,3.26,0.93,4.88c0.64,3.25,1.28,6.48,1.91,9.68
												c1.26,6.41,2.51,12.73,3.74,18.93c2.45,12.41,4.81,24.38,7.05,35.79c1.12,5.7,2.22,11.26,3.28,16.67
												c0.53,2.7,1.06,5.36,1.57,7.98c0.26,1.31,0.51,2.61,0.77,3.9c0.28,1.29,0.43,2.59,0.91,3.75
												c0.95,2.35,2.94,4.17,5.23,4.99c1.14,0.42,2.36,0.59,3.56,0.52c1.18-0.08,2.38-0.39,3.55-0.6
												c4.71-0.92,9.23-1.81,13.54-2.66c17.25-3.37,31.21-6.1,40.87-7.99c4.82-0.93,8.56-1.65,11.12-2.15
												c1.26-0.24,2.23-0.42,2.89-0.55C561.17,297.36,561.5,297.31,561.5,297.31s-0.33,0.08-0.98,0.22
												c-0.66,0.14-1.62,0.34-2.88,0.6c-2.55,0.51-6.29,1.27-11.1,2.24c-9.65,1.93-23.6,4.71-40.84,8.15
												c-4.31,0.86-8.83,1.75-13.53,2.69c-1.18,0.21-2.35,0.53-3.61,0.62c-1.25,0.08-2.52-0.1-3.72-0.53
												c-2.4-0.85-4.48-2.76-5.48-5.22c-0.52-1.24-0.67-2.56-0.95-3.83c-0.26-1.29-0.51-2.59-0.77-3.9
												c-0.52-2.62-1.05-5.28-1.58-7.98c-1.07-5.4-2.17-10.96-3.3-16.66c-2.26-11.4-4.63-23.37-7.08-35.78
												c-1.23-6.21-2.48-12.52-3.74-18.93c-0.63-3.2-1.27-6.43-1.91-9.68c-0.31-1.64-0.67-3.23-0.94-4.91
												c-0.23-1.7,0.05-3.47,0.76-5.03c1.02-2.26,2.95-4.07,5.26-4.92c1.16-0.44,2.36-0.58,3.51-0.83
												c1.16-0.23,2.33-0.46,3.48-0.69c4.63-0.91,9.21-1.82,13.73-2.71c9.03-1.78,17.81-3.51,26.25-5.18l0.1-0.02l0.09,0.06
												c15.25,10.57,29.54,20.48,42.36,29.36l0.07,0.05l0.02,0.09c5.09,25.99,9.31,47.5,12.26,62.53
												c0.72,3.76,1.41,7.09,1.92,10.03c0.41,3.01-0.77,5.53-2.06,7.08c-1.34,1.58-2.8,2.31-3.78,2.68
												c-0.49,0.19-0.88,0.29-1.15,0.34C561.64,297.29,561.5,297.31,561.5,297.31z"/>
										</g>
									</g>
								</g>
							</g>
						</g>
					</g>
					<g>
						<g>
							<g>
								<g>
									<g>
										<g>
											<path class="st5" d="M554.49,214.61c0,0.02-0.23,0.08-0.68,0.19c-0.5,0.11-1.16,0.26-1.97,0.44
												c-1.77,0.37-4.24,0.89-7.26,1.52c-3.09,0.63-6.74,1.37-10.78,2.18c-2.03,0.4-4.17,0.82-6.38,1.26
												c-2.28,0.41-4.82-0.18-6.77-1.69c-0.98-0.75-1.79-1.69-2.36-2.75c-0.59-1.04-0.88-2.24-1.07-3.33
												c-0.43-2.21-0.85-4.34-1.24-6.38c-0.78-4.05-1.48-7.71-2.08-10.8c-0.56-3.03-1.02-5.51-1.36-7.29
												c-0.14-0.82-0.26-1.48-0.34-1.99c-0.07-0.46-0.1-0.7-0.08-0.7c0.02,0,0.08,0.23,0.19,0.68c0.11,0.5,0.26,1.15,0.44,1.97
												c0.37,1.77,0.89,4.24,1.52,7.26c0.63,3.09,1.37,6.74,2.19,10.78c0.41,2.03,0.83,4.16,1.27,6.37
												c0.2,1.12,0.46,2.19,1.02,3.18c0.54,0.99,1.3,1.88,2.22,2.58c1.84,1.42,4.22,1.97,6.37,1.6
												c2.21-0.43,4.34-0.84,6.37-1.23c4.05-0.78,7.71-1.48,10.8-2.08c3.03-0.56,5.51-1.02,7.29-1.35
												c0.82-0.14,1.48-0.26,1.99-0.34C554.25,214.62,554.49,214.59,554.49,214.61z"/>
										</g>
									</g>
								</g>
							</g>
						</g>
					</g>
				</g>
				<g>
					<g>
						<path class="st5" d="M515.69,210.47c0.03,0.14-8.42,1.93-18.87,3.99c-10.45,2.06-18.94,3.62-18.97,3.48
							c-0.03-0.14,8.42-1.93,18.87-3.99C507.16,211.89,515.66,210.33,515.69,210.47z"/>
					</g>
				</g>
				<g>
					<g>
						<path class="st5" d="M536.39,220.86c0.03,0.14-12.44,2.72-27.84,5.76c-15.41,3.04-27.92,5.4-27.95,5.25
							c-0.03-0.14,12.44-2.72,27.85-5.77C523.85,223.07,536.36,220.72,536.39,220.86z"/>
					</g>
				</g>
				<g>
					<g>
						<path class="st5" d="M539.14,234.8c0.03,0.14-12.44,2.72-27.84,5.76c-15.41,3.04-27.92,5.4-27.95,5.25
							c-0.03-0.14,12.44-2.72,27.85-5.77C526.6,237.01,539.12,234.66,539.14,234.8z"/>
					</g>
				</g>
				<g>
					<g>
						<path class="st5" d="M486.1,259.76c-0.03-0.14,12.44-2.72,27.84-5.77c15.41-3.04,27.92-5.4,27.95-5.25
							c0.03,0.14-12.44,2.72-27.85,5.77C498.64,257.54,486.13,259.9,486.1,259.76z"/>
					</g>
				</g>
				<g>
					<g>
						<path class="st5" d="M544.65,262.67c0.03,0.14-12.44,2.72-27.84,5.76c-15.41,3.04-27.92,5.4-27.95,5.25
							c-0.03-0.14,12.44-2.72,27.85-5.77C532.11,264.88,544.62,262.53,544.65,262.67z"/>
					</g>
				</g>
				<g>
					<g>
						<path class="st5" d="M547.4,276.61c0.03,0.14-12.44,2.72-27.84,5.76c-15.41,3.04-27.92,5.4-27.95,5.25
							c-0.03-0.14,12.44-2.72,27.85-5.77C534.86,278.82,547.37,276.47,547.4,276.61z"/>
					</g>
				</g>
				<g>
					<path class="st13" d="M517.68,285.86l-52.63,10.4c-2.29,0.45-4.51-1.04-4.96-3.32l-3.77-19.09c-0.45-2.29,1.04-4.51,3.32-4.96
						l52.63-10.4c2.29-0.45,4.51,1.04,4.96,3.32L521,280.9C521.45,283.19,519.97,285.41,517.68,285.86z"/>
					<g>
						
							<rect x="473.65" y="268.36" transform="matrix(0.981 -0.1938 0.1938 0.981 -44.542 100.5256)" class="st14" width="35.93" height="19.2"/>
						<path class="st15" d="M489.16,281.21c0.2,1.02,0.12,1.99-0.25,2.9c-0.36,0.92-1.01,1.7-1.93,2.36
							c-0.92,0.66-2.08,1.13-3.46,1.4c-1.66,0.33-3.1,0.29-4.3-0.13c-0.86-0.3-1.6-0.78-2.23-1.44c-0.63-0.66-1.01-1.35-1.15-2.06
							c-0.08-0.41-0.01-0.8,0.22-1.15c0.23-0.35,0.57-0.57,1.01-0.66c0.36-0.07,0.69-0.02,0.98,0.16c0.29,0.18,0.57,0.48,0.84,0.9
							c0.32,0.49,0.64,0.9,0.96,1.21s0.73,0.54,1.23,0.68s1.12,0.14,1.85,0c1.01-0.2,1.79-0.6,2.33-1.19
							c0.54-0.6,0.74-1.25,0.6-1.95c-0.11-0.56-0.37-0.98-0.78-1.26s-0.9-0.46-1.48-0.54c-0.58-0.08-1.34-0.13-2.28-0.16
							c-1.27-0.04-2.35-0.18-3.24-0.39c-0.89-0.22-1.64-0.61-2.25-1.17c-0.61-0.56-1.01-1.33-1.2-2.3c-0.18-0.93-0.09-1.8,0.27-2.62
							c0.36-0.82,0.99-1.52,1.87-2.1s1.97-0.99,3.27-1.25c1.03-0.2,1.96-0.25,2.76-0.14s1.5,0.32,2.08,0.65
							c0.58,0.33,1.03,0.7,1.36,1.12c0.32,0.42,0.53,0.86,0.61,1.3c0.08,0.41,0.01,0.8-0.21,1.18c-0.22,0.38-0.55,0.62-0.98,0.7
							c-0.39,0.08-0.71,0.04-0.95-0.12c-0.24-0.16-0.52-0.43-0.85-0.83c-0.43-0.58-0.9-1-1.4-1.27c-0.5-0.27-1.22-0.31-2.17-0.13
							c-0.88,0.17-1.55,0.51-2.02,1c-0.46,0.49-0.64,1.01-0.53,1.56c0.07,0.34,0.22,0.61,0.45,0.82c0.23,0.21,0.53,0.37,0.88,0.48
							c0.36,0.11,0.71,0.19,1.06,0.22c0.35,0.04,0.92,0.07,1.72,0.11c0.99,0.03,1.9,0.11,2.73,0.23c0.82,0.12,1.54,0.31,2.16,0.59
							s1.13,0.68,1.55,1.21C488.7,279.67,488.99,280.36,489.16,281.21z"/>
						<path class="st15" d="M494.36,270.05l-0.6,13.89c-0.02,0.46-0.05,0.82-0.08,1.09c-0.03,0.27-0.11,0.49-0.25,0.67
							c-0.14,0.17-0.36,0.29-0.68,0.35c-0.78,0.15-1.24-0.11-1.37-0.78c-0.04-0.18-0.05-0.63-0.03-1.37l0.59-13.89
							c0.03-0.74,0.1-1.25,0.2-1.54s0.38-0.48,0.82-0.57c0.38-0.08,0.69-0.04,0.93,0.1c0.24,0.14,0.39,0.38,0.45,0.7
							C494.39,268.94,494.4,269.39,494.36,270.05z"/>
						<path class="st15" d="M501.59,284.31c-0.47,0.09-0.92,0.02-1.32-0.22c-0.41-0.24-0.66-0.63-0.77-1.19
							c-0.09-0.47-0.01-0.9,0.26-1.3s0.64-0.65,1.12-0.75c0.48-0.09,0.93-0.01,1.33,0.26c0.41,0.27,0.66,0.64,0.75,1.11
							c0.11,0.54,0.02,1-0.26,1.38C502.42,283.98,502.05,284.22,501.59,284.31z"/>
					</g>
				</g>
				<g class="st0">
					<path class="st16" d="M472.19,275.66l4.7-0.93c3.38-0.67,6.11,0.91,6.72,4.04c0.62,3.13-1.3,5.63-4.68,6.3l-4.7,0.93
						L472.19,275.66z M478.42,283.13c2.05-0.41,3.16-1.9,2.76-3.88c-0.39-1.98-1.98-2.94-4.03-2.53l-2.19,0.43l1.27,6.41
						L478.42,283.13z"/>
					<path class="st16" d="M484.76,278.55c-0.61-3.07,1.34-5.82,4.6-6.47c3.25-0.64,6.11,1.14,6.72,4.23
						c0.61,3.09-1.35,5.82-4.6,6.47C488.21,283.42,485.37,281.62,484.76,278.55z M493.65,276.79c-0.39-1.96-2.04-3.04-3.89-2.67
						c-1.85,0.37-2.97,1.98-2.58,3.95c0.39,1.96,2.04,3.04,3.89,2.67C492.92,280.38,494.04,278.76,493.65,276.79z"/>
					<path class="st16" d="M497.23,276.09c-0.62-3.12,1.34-5.82,4.56-6.46c1.79-0.35,3.41,0,4.62,0.99l-1.26,1.72
						c-0.85-0.66-1.81-0.9-2.84-0.7c-1.93,0.38-3.04,2.01-2.66,3.96c0.39,1.95,2.03,3.04,3.96,2.66c1.03-0.21,1.82-0.79,2.36-1.74
						l1.82,1.11c-0.74,1.39-2.1,2.33-3.91,2.69C500.68,280.96,497.84,279.2,497.23,276.09z"/>
				</g>
			</g>
			<g>
				<g>
					<g>
						<path class="st3" d="M550.22,223.44c0,0,5.3-6.71,9.38-2.96c4.08,3.75,2.9,5.68-0.98,11.61c0,0,8.66-0.45,5.88,8.44
							c0,0,8.63-0.95,7.8,6.32c0,0,6.51,6.37,3.13,10.48c-3.39,4.11-15.68,11.53-18.78,10.25c-3.1-1.28-3.13-5.67-3.13-5.67
							s-3.69-1.66-4.71-3.61c-1.02-1.95,0.73-4.67,0.73-4.67s-3.11-3.18-3.88-4.07s0.42-5.01,0.42-5.01l4.97-4.82
							c0,0-6.84,2.97-8.27,1.84c-1.43-1.13-3.03-2.11-1.51-4.18c1.53-2.07,6.95-6.7,6.95-6.7L550.22,223.44z"/>
					</g>
				</g>
				<g>
					<g>
						<g>
							<path class="st4" d="M554.21,262.42c-0.08-0.09,0.84-1.06,2.24-2.72c1.41-1.63,3.4-4.04,6.32-5.79
								c2.86-1.75,5.49-3.16,7.1-4.57c1.65-1.37,2.3-2.56,2.42-2.49c0.08,0.02-0.41,1.38-2.03,2.93c-1.58,1.58-4.25,3.11-7.05,4.83
								c-2.82,1.69-4.79,3.94-6.33,5.49C555.36,261.66,554.28,262.51,554.21,262.42z"/>
						</g>
					</g>
				</g>
				<g>
					<g>
						<g>
							<path class="st4" d="M549.42,254.92c-0.16-0.16,3.02-3.6,7.1-7.67c2.05-2.01,3.81-3.96,5.32-5.15
								c1.49-1.22,2.62-1.67,2.66-1.57c0.06,0.11-0.93,0.71-2.28,2.01c-1.37,1.26-3.05,3.26-5.12,5.29
								C553.02,251.91,549.58,255.08,549.42,254.92z"/>
						</g>
					</g>
				</g>
				<g>
					<g>
						<g>
							<path class="st4" d="M551.05,239.73c-0.16-0.21,1.8-1.76,3.98-3.84c2.22-2.06,3.3-4.27,3.51-4.19
								c0.24,0.05-0.61,2.61-2.93,4.78C553.34,238.64,551.16,239.89,551.05,239.73z"/>
						</g>
					</g>
				</g>
				<g>
					<g>
						<g>
							<path class="st4" d="M550.22,223.41c0.01,0.01-0.02,0.18-0.09,0.5c-0.09,0.37-0.2,0.84-0.34,1.41
								c-0.34,1.3-0.8,3.1-1.39,5.39l-0.01,0.05l-0.04,0.04c-1,0.88-2.12,1.89-3.34,3.03c-1.18,1.15-2.6,2.4-3.69,3.95
								c-0.24,0.39-0.42,0.83-0.38,1.25c0.04,0.42,0.31,0.82,0.67,1.17c0.35,0.35,0.78,0.67,1.22,1.01c0.36,0.31,0.83,0.3,1.38,0.27
								c2.16-0.25,4.43-1.14,6.71-2.08l1.6-0.66l-1.24,1.21c-1.56,1.53-3.23,3.15-4.95,4.84l0.08-0.11
								c-0.63,1.54-1.03,3.48-0.26,5.03c0.86,1.54,2.39,2.84,3.92,3.99l0.34,0.25l-0.27,0.32c-1.08,1.28-1.85,3.3-0.43,4.54
								c1.26,1.31,2.98,2.31,4.69,3.21l-0.58,0.32l0.01-0.1c0,0,0-0.04,0-0.03l0,0.01c0.1,0.12-0.23-0.29,0.24,0.35
								c1.12-0.53,0.32-0.22,0.57-0.3l0,0l0,0.01l-0.01,0.19l0,0.4c0.01,0.27,0.04,0.54,0.08,0.82c0.08,0.54,0.22,1.07,0.43,1.57
								c0.21,0.49,0.5,0.95,0.88,1.32c0.38,0.36,0.84,0.69,1.28,0.74c1.01,0.11,2.19-0.26,3.27-0.65c1.1-0.4,2.18-0.91,3.25-1.46
								c2.02-1.05,3.95-2.23,5.78-3.5c1.82-1.28,3.59-2.61,5.06-4.15c0.75-0.76,1.24-1.6,1.31-2.6c0.09-0.98-0.15-1.98-0.53-2.91
								c-0.78-1.87-2.05-3.53-3.4-4.95l-0.12-0.13l0.01-0.19c0.05-0.98,0.09-1.98-0.29-2.84c-0.34-0.87-0.96-1.58-1.74-2.06
								c-1.59-0.96-3.58-1.13-5.34-1.02l-0.5,0.03l0.12-0.49c0.13-0.54,0.29-1.07,0.4-1.61c0.03-0.54,0.19-1.07,0.12-1.59
								c0.03-1.05-0.31-2.05-0.89-2.82c-1.22-1.55-3.36-2.02-5.15-2.02l-0.58,0l0.31-0.47c1.03-1.57,2.04-3.06,2.79-4.55
								c0.36-0.75,0.64-1.5,0.71-2.25c0.07-0.75-0.11-1.47-0.44-2.1c-0.71-1.22-1.73-2.29-2.72-2.96c-1.06-0.64-2.27-0.62-3.24-0.33
								c-1.97,0.62-3.21,1.81-4.03,2.52c-0.41,0.37-0.7,0.68-0.9,0.88C550.34,223.32,550.24,223.42,550.22,223.41
								c-0.01-0.01,0.07-0.14,0.25-0.36c0.18-0.22,0.45-0.55,0.85-0.95c0.39-0.4,0.9-0.88,1.55-1.37c0.65-0.49,1.46-1.02,2.5-1.35
								c1.01-0.33,2.36-0.4,3.54,0.3c0.27,0.2,0.55,0.4,0.83,0.61c0.25,0.23,0.5,0.47,0.75,0.72c0.48,0.52,0.99,1.06,1.36,1.76
								c0.38,0.68,0.61,1.52,0.53,2.37c-0.07,0.85-0.36,1.67-0.73,2.45c-0.76,1.55-1.76,3.06-2.77,4.64l-0.27-0.47
								c1.01-0.03,2.01,0.11,3.02,0.43c0.99,0.32,1.99,0.89,2.69,1.78c0.7,0.89,1.09,2.06,1.06,3.21c0.07,0.58-0.09,1.14-0.12,1.73
								c-0.11,0.57-0.27,1.13-0.41,1.7l-0.38-0.46c1.92-0.13,3.96,0.02,5.81,1.09c0.9,0.54,1.66,1.4,2.06,2.42
								c0.45,1.02,0.41,2.14,0.35,3.21l-0.11-0.32c1.44,1.5,2.74,3.17,3.6,5.2c0.41,1.01,0.7,2.13,0.6,3.29
								c-0.05,0.59-0.24,1.15-0.48,1.69c-0.32,0.51-0.65,1-1.04,1.39c-1.55,1.62-3.33,2.97-5.18,4.27
								c-1.86,1.29-3.81,2.49-5.87,3.56c-1.09,0.56-2.2,1.08-3.34,1.5c-1.15,0.4-2.32,0.82-3.68,0.68c-1.44-0.3-2.28-1.42-2.79-2.54
								c-0.24-0.58-0.4-1.17-0.48-1.77c-0.04-0.3-0.07-0.6-0.08-0.9l0-0.45l0.01-0.24l0.01-0.05l0-0.01
								c0.24-0.09-0.55,0.22,0.57-0.31c0.47,0.64,0.14,0.23,0.24,0.35v0.03l0,0.08l-0.01,0.12l-0.05,0.6l-0.53-0.28
								c-1.78-0.95-3.5-1.93-4.92-3.4c-0.34-0.38-0.67-0.81-0.84-1.35c-0.17-0.53-0.17-1.09-0.07-1.6c0.22-1.03,0.72-1.88,1.35-2.65
								l0.07,0.57c-1.6-1.23-3.14-2.5-4.14-4.29c-0.47-0.93-0.56-1.98-0.46-2.94c0.1-0.97,0.35-1.87,0.73-2.74l0.02-0.06l0.05-0.05
								c1.74-1.67,3.41-3.29,4.99-4.8l0.37,0.55c-2.35,0.94-4.59,1.81-6.93,2.07c-0.56,0.04-1.29,0.02-1.79-0.41
								c-0.42-0.34-0.86-0.67-1.26-1.07c-0.39-0.39-0.75-0.9-0.81-1.52c-0.05-0.61,0.2-1.15,0.47-1.59
								c1.22-1.67,2.62-2.83,3.84-3.99c1.24-1.13,2.38-2.12,3.41-2.98l-0.06,0.09c0.67-2.28,1.19-4.08,1.57-5.37
								c0.17-0.56,0.31-1.02,0.43-1.38C550.15,223.56,550.21,223.41,550.22,223.41z"/>
						</g>
					</g>
				</g>
			</g>
		</g>
	</g>
</g>
<g id="Files">
	<g>
		<g>
			<g>
				<g>
					<g>
						<g>
							<g>
								<g>
									<g>
										<path class="st11" d="M248.58,144.18l-58.9,14.49c-4.07,1-8.18-1.49-9.18-5.56l-20.06-81.52c-1-4.07,1.49-8.18,5.56-9.18
											l37.35-9.19l36.25,22.69L254.13,135C255.13,139.07,252.65,143.18,248.58,144.18z"/>
									</g>
								</g>
							</g>
						</g>
					</g>
					<g>
						<g>
							<g>
								<g>
									<g>
										<path class="st2" d="M203.35,53.22l5.65,22.94c0.93,3.79,4.75,6.1,8.54,5.17l22.06-5.42L203.35,53.22z"/>
									</g>
								</g>
							</g>
						</g>
					</g>
					<g>
						<g>
							<g>
								<g>
									<g>
										<path class="st10" d="M209.79,78.1c0,0,1.08,5.64,7.86,5.91c0.25,0.01,0.51,0,0.77-0.02c3.01-0.19,22.8-1.49,22.69-1.92
											c-0.12-0.47-1.52-6.17-1.52-6.17l-22.06,5.43C217.53,81.33,211.98,82.5,209.79,78.1z"/>
									</g>
								</g>
							</g>
						</g>
					</g>
				</g>
			</g>
			<g>
				<g>
					<g>
						<g>
							<g>
								<g>
									<path class="st5" d="M248.58,144.18c-0.01-0.03,0.44-0.1,1.24-0.46c0.78-0.35,1.94-1.03,2.96-2.38
										c0.98-1.33,1.82-3.43,1.36-5.85c-0.55-2.39-1.27-5.13-2.03-8.21c-3.06-12.34-7.43-29.99-12.72-51.32l0.1,0.13
										c-10.97-6.86-23.21-14.5-36.26-22.66l0.19,0.03c-6.92,1.71-14.13,3.48-21.55,5.31c-3.71,0.91-7.47,1.84-11.27,2.78
										c-0.95,0.23-1.9,0.47-2.86,0.7c-0.95,0.25-1.94,0.42-2.8,0.8c-1.76,0.74-3.2,2.22-3.91,4.02c-0.5,1.25-0.65,2.63-0.41,3.94
										c0.27,1.32,0.64,2.68,0.96,4c0.66,2.67,1.31,5.32,1.96,7.95c1.29,5.26,2.57,10.45,3.82,15.55
										c2.5,10.19,4.92,20.03,7.22,29.39c1.15,4.68,2.27,9.25,3.36,13.69c0.54,2.22,1.08,4.41,1.61,6.56
										c0.26,1.08,0.53,2.14,0.78,3.2c0.28,1.06,0.45,2.13,0.9,3.07c0.87,1.9,2.58,3.33,4.5,3.92c0.96,0.3,1.97,0.4,2.95,0.29
										c0.97-0.11,1.95-0.42,2.92-0.64c3.87-0.95,7.58-1.85,11.12-2.72c14.16-3.45,25.63-6.24,33.57-8.17
										c3.96-0.95,7.03-1.69,9.13-2.2c1.04-0.24,1.83-0.43,2.38-0.56C248.3,144.23,248.58,144.18,248.58,144.18
										s-0.27,0.08-0.8,0.22c-0.55,0.14-1.34,0.34-2.37,0.61c-2.1,0.53-5.16,1.3-9.11,2.29c-7.93,1.97-19.38,4.82-33.53,8.33
										c-3.54,0.88-7.25,1.79-11.11,2.75c-0.97,0.22-1.92,0.53-2.97,0.65c-1.04,0.11-2.11,0.01-3.12-0.3
										c-2.03-0.62-3.84-2.12-4.77-4.13c-0.48-1.01-0.65-2.1-0.93-3.14c-0.26-1.06-0.53-2.13-0.79-3.2
										c-0.53-2.15-1.07-4.34-1.62-6.55c-1.1-4.44-2.22-9-3.38-13.68c-2.31-9.36-4.73-19.2-7.25-29.39
										c-1.26-5.1-2.53-10.28-3.83-15.55c-0.65-2.63-1.3-5.28-1.96-7.95c-0.32-1.35-0.68-2.65-0.97-4.04
										c-0.26-1.41-0.09-2.89,0.44-4.23c0.76-1.92,2.3-3.51,4.19-4.31c0.95-0.41,1.94-0.58,2.88-0.83
										c0.96-0.24,1.91-0.47,2.86-0.7c3.8-0.94,7.57-1.86,11.28-2.77c7.42-1.82,14.63-3.59,21.56-5.3l0.1-0.03l0.09,0.06
										c13.05,8.18,25.27,15.84,36.23,22.72l0.08,0.05l0.02,0.09c5.21,21.35,9.53,39.01,12.54,51.36
										c0.74,3.09,1.44,5.82,1.97,8.24c0.45,2.49-0.43,4.62-1.44,5.96c-1.05,1.36-2.24,2.02-3.04,2.36
										c-0.4,0.17-0.72,0.27-0.94,0.32C248.69,144.16,248.58,144.18,248.58,144.18z"/>
								</g>
							</g>
						</g>
					</g>
				</g>
			</g>
			<g>
				<g>
					<g>
						<g>
							<g>
								<g>
									<path class="st5" d="M239.59,75.91c0,0.02-0.19,0.08-0.55,0.19c-0.42,0.12-0.96,0.27-1.61,0.45
										c-1.48,0.38-3.49,0.91-5.96,1.55c-2.54,0.64-5.54,1.4-8.85,2.23c-1.67,0.41-3.42,0.84-5.24,1.29
										c-1.89,0.43-4.03,0.04-5.71-1.14c-0.84-0.59-1.55-1.34-2.07-2.2c-0.53-0.84-0.82-1.84-1.02-2.73
										c-0.44-1.82-0.87-3.57-1.27-5.24c-0.8-3.32-1.52-6.33-2.13-8.88c-0.57-2.48-1.05-4.51-1.39-6
										c-0.14-0.66-0.26-1.21-0.35-1.64c-0.07-0.38-0.11-0.57-0.09-0.58c0.02,0,0.08,0.19,0.19,0.55
										c0.12,0.42,0.27,0.96,0.45,1.61c0.38,1.47,0.91,3.49,1.55,5.96c0.64,2.54,1.4,5.54,2.23,8.85c0.42,1.67,0.85,3.42,1.3,5.23
										c0.21,0.93,0.46,1.79,0.96,2.59c0.48,0.79,1.14,1.5,1.93,2.04c1.57,1.1,3.55,1.46,5.31,1.07c1.81-0.44,3.56-0.86,5.23-1.26
										c3.32-0.8,6.33-1.52,8.88-2.13c2.48-0.57,4.51-1.05,6-1.39c0.66-0.14,1.21-0.26,1.64-0.35
										C239.39,75.92,239.59,75.89,239.59,75.91z"/>
								</g>
							</g>
						</g>
					</g>
				</g>
			</g>
		</g>
		<g>
			<g>
				<path class="st5" d="M207.27,73.97c0.03,0.14-6.89,1.96-15.47,4.08c-8.58,2.11-15.57,3.71-15.6,3.57
					c-0.03-0.14,6.89-1.96,15.48-4.08C200.25,75.43,207.24,73.83,207.27,73.97z"/>
			</g>
		</g>
		<g>
			<g>
				<path class="st5" d="M224.83,81.78c0.03,0.14-10.2,2.78-22.85,5.89c-12.65,3.11-22.94,5.52-22.97,5.38
					c-0.03-0.14,10.19-2.78,22.85-5.89C214.51,84.06,224.8,81.64,224.83,81.78z"/>
			</g>
		</g>
		<g>
			<g>
				<path class="st5" d="M227.65,93.23c0.03,0.14-10.2,2.78-22.85,5.89c-12.65,3.11-22.94,5.52-22.97,5.38
					c-0.03-0.14,10.19-2.78,22.85-5.89C217.33,95.5,227.61,93.09,227.65,93.23z"/>
			</g>
		</g>
		<g>
			<g>
				<path class="st5" d="M230.46,104.68c0.03,0.14-10.2,2.78-22.85,5.89c-12.65,3.11-22.94,5.52-22.97,5.38
					c-0.03-0.14,10.19-2.78,22.85-5.89C220.14,106.95,230.43,104.54,230.46,104.68z"/>
			</g>
		</g>
		<g>
			<g>
				<path class="st5" d="M233.28,116.12c0.03,0.14-10.2,2.78-22.85,5.89c-12.65,3.11-22.94,5.52-22.97,5.38
					c-0.03-0.14,10.19-2.78,22.85-5.89C222.96,118.39,233.25,115.98,233.28,116.12z"/>
			</g>
		</g>
		<g>
			<g>
				<path class="st5" d="M236.1,127.57c0.03,0.14-10.2,2.78-22.85,5.89c-12.65,3.11-22.94,5.52-22.97,5.38
					c-0.03-0.14,10.19-2.78,22.85-5.89C225.78,129.84,236.06,127.43,236.1,127.57z"/>
			</g>
		</g>
		<g>
			<path class="st13" d="M209.74,136.88l-40.45,9.95c-2.26,0.56-4.55-0.83-5.11-3.09l-3.51-14.28c-0.56-2.26,0.83-4.55,3.09-5.11
				l40.45-9.95c2.26-0.56,4.55,0.83,5.11,3.09l3.51,14.28C213.39,134.04,212.01,136.33,209.74,136.88z"/>
			<g>
				
					<rect x="172.36" y="120.87" transform="matrix(0.971 -0.2389 0.2389 0.971 -25.659 49.2481)" class="st14" width="35.93" height="19.2"/>
				<path class="st15" d="M188.03,133.83c0.25,1.01,0.21,1.98-0.11,2.91c-0.32,0.93-0.93,1.75-1.82,2.45
					c-0.89,0.7-2.02,1.22-3.39,1.56c-1.65,0.41-3.08,0.43-4.3,0.07c-0.87-0.26-1.63-0.71-2.29-1.34c-0.66-0.63-1.07-1.3-1.25-2
					c-0.1-0.41-0.04-0.8,0.17-1.16c0.21-0.36,0.54-0.6,0.98-0.71c0.36-0.09,0.69-0.05,0.99,0.12c0.3,0.17,0.6,0.45,0.88,0.86
					c0.34,0.48,0.68,0.87,1.02,1.16c0.33,0.3,0.75,0.5,1.26,0.63c0.5,0.12,1.12,0.09,1.85-0.09c1-0.25,1.76-0.68,2.27-1.3
					c0.51-0.62,0.68-1.28,0.51-1.98c-0.14-0.55-0.42-0.96-0.84-1.22c-0.42-0.26-0.92-0.42-1.5-0.47c-0.58-0.05-1.34-0.07-2.29-0.05
					c-1.27,0.01-2.35-0.07-3.25-0.24s-1.67-0.53-2.3-1.06c-0.63-0.53-1.07-1.28-1.31-2.24c-0.23-0.92-0.18-1.8,0.15-2.63
					c0.32-0.84,0.91-1.56,1.77-2.18c0.85-0.62,1.92-1.08,3.2-1.4c1.02-0.25,1.94-0.34,2.75-0.27s1.51,0.26,2.11,0.56
					c0.6,0.3,1.07,0.65,1.41,1.06c0.34,0.41,0.57,0.83,0.67,1.27c0.1,0.4,0.05,0.8-0.16,1.19c-0.21,0.39-0.52,0.64-0.95,0.75
					c-0.39,0.1-0.7,0.07-0.95-0.07c-0.25-0.14-0.54-0.41-0.89-0.79c-0.46-0.55-0.94-0.96-1.45-1.2c-0.51-0.25-1.24-0.26-2.18-0.03
					c-0.87,0.21-1.53,0.58-1.97,1.09s-0.59,1.04-0.46,1.58c0.08,0.33,0.24,0.6,0.49,0.8c0.24,0.2,0.54,0.34,0.9,0.44
					c0.36,0.1,0.72,0.15,1.07,0.17c0.35,0.02,0.92,0.03,1.72,0.03c1-0.01,1.91,0.02,2.73,0.1s1.56,0.24,2.18,0.49
					c0.63,0.25,1.16,0.62,1.61,1.13C187.49,132.31,187.82,132.99,188.03,133.83z"/>
				<path class="st15" d="M192.71,122.44l0.04,13.9c0,0.46-0.01,0.82-0.03,1.09c-0.02,0.27-0.09,0.5-0.22,0.68
					c-0.13,0.18-0.35,0.31-0.66,0.39c-0.77,0.19-1.24-0.05-1.41-0.72c-0.04-0.17-0.07-0.63-0.09-1.37l-0.05-13.9
					c0-0.74,0.04-1.26,0.12-1.55s0.35-0.5,0.79-0.61c0.38-0.09,0.69-0.07,0.94,0.06c0.25,0.13,0.41,0.36,0.49,0.68
					C192.69,121.34,192.71,121.78,192.71,122.44z"/>
				<path class="st15" d="M200.58,136.35c-0.47,0.12-0.91,0.06-1.33-0.16c-0.42-0.22-0.69-0.6-0.83-1.15
					c-0.11-0.46-0.05-0.9,0.2-1.32c0.24-0.41,0.61-0.68,1.08-0.8c0.48-0.12,0.93-0.05,1.34,0.19c0.42,0.25,0.69,0.61,0.8,1.08
					c0.13,0.54,0.07,1-0.19,1.39C201.4,135.99,201.04,136.24,200.58,136.35z"/>
			</g>
		</g>
	</g>
	<g>
		<g>
			<g>
				<g>
					<g>
						<g>
							<g>
								<g>
									<g>
										<path class="st11" d="M570.09,145.98l-59.93-9.38c-4.14-0.65-6.97-4.53-6.32-8.67l12.98-82.94
											c0.65-4.14,4.53-6.97,8.67-6.32l38,5.95l24.67,34.93l-9.41,60.12C578.12,143.79,574.24,146.62,570.09,145.98z"/>
									</g>
								</g>
							</g>
						</g>
					</g>
					<g>
						<g>
							<g>
								<g>
									<g>
										<path class="st2" d="M563.51,44.6l-3.65,23.34c-0.6,3.85,2.03,7.46,5.88,8.07l22.45,3.52L563.51,44.6z"/>
									</g>
								</g>
							</g>
						</g>
					</g>
					<g>
						<g>
							<g>
								<g>
									<g>
										<path class="st10" d="M559.84,70.04c0,0-1.18,5.62,4.97,8.49c0.23,0.11,0.47,0.2,0.71,0.28
											c2.85,0.98,21.6,7.43,21.67,6.99c0.08-0.48,0.98-6.27,0.98-6.27l-22.45-3.51C565.73,76.02,560.16,74.95,559.84,70.04z"/>
									</g>
								</g>
							</g>
						</g>
					</g>
				</g>
			</g>
			<g>
				<g>
					<g>
						<g>
							<g>
								<g>
									<path class="st5" d="M570.09,145.98c0-0.04,0.45,0.08,1.32,0.05c0.86-0.02,2.19-0.2,3.65-1.05
										c1.42-0.84,3.01-2.46,3.51-4.87c0.42-2.41,0.81-5.23,1.3-8.36c1.94-12.56,4.73-30.54,8.09-52.25l0.04,0.16
										c-7.47-10.56-15.81-22.34-24.7-34.91l0.17,0.1c-7.05-1.1-14.38-2.25-21.93-3.43c-3.77-0.59-7.6-1.19-11.47-1.79
										c-0.97-0.15-1.94-0.3-2.91-0.46c-0.98-0.14-1.95-0.36-2.89-0.34c-1.91,0.01-3.81,0.81-5.16,2.2
										c-0.94,0.96-1.62,2.18-1.9,3.48c-0.26,1.32-0.44,2.72-0.66,4.06c-0.43,2.72-0.85,5.41-1.27,8.09
										c-0.84,5.36-1.67,10.63-2.48,15.82c-1.63,10.37-3.2,20.37-4.7,29.9c-0.75,4.76-1.48,9.41-2.19,13.92
										c-0.36,2.26-0.71,4.48-1.05,6.67c-0.17,1.09-0.34,2.18-0.51,3.26c-0.15,1.08-0.41,2.14-0.36,3.18
										c0.07,2.09,1.1,4.06,2.64,5.35c0.77,0.65,1.67,1.13,2.61,1.41c0.94,0.27,1.96,0.37,2.94,0.54
										c3.93,0.62,7.71,1.22,11.31,1.79c14.4,2.29,26.05,4.14,34.12,5.43c4.02,0.65,7.14,1.16,9.27,1.5
										c1.05,0.18,1.85,0.31,2.41,0.4C569.82,145.91,570.09,145.98,570.09,145.98s-0.28-0.03-0.83-0.1
										c-0.56-0.08-1.37-0.2-2.42-0.35c-2.14-0.32-5.26-0.8-9.29-1.4c-8.08-1.24-19.74-3.04-34.15-5.26
										c-3.6-0.56-7.38-1.14-11.31-1.75c-0.98-0.17-1.98-0.26-2.99-0.54c-1-0.29-1.95-0.8-2.76-1.48
										c-1.63-1.35-2.72-3.44-2.8-5.65c-0.05-1.12,0.21-2.19,0.35-3.26c0.17-1.08,0.34-2.16,0.51-3.26
										c0.34-2.19,0.69-4.41,1.04-6.67c0.7-4.51,1.43-9.16,2.17-13.93c1.49-9.53,3.05-19.53,4.67-29.9
										c0.81-5.19,1.64-10.46,2.47-15.82c0.42-2.68,0.84-5.38,1.27-8.09c0.23-1.36,0.4-2.71,0.67-4.1c0.31-1.4,1.03-2.7,2.04-3.73
										c1.44-1.48,3.48-2.35,5.53-2.35c1.04-0.01,2.01,0.22,2.98,0.35c0.97,0.15,1.94,0.3,2.91,0.46c3.87,0.61,7.7,1.21,11.47,1.8
										c7.55,1.18,14.88,2.34,21.93,3.44l0.1,0.02l0.06,0.09c8.87,12.58,17.19,24.37,24.65,34.95l0.05,0.07l-0.01,0.09
										c-3.44,21.7-6.28,39.67-8.27,52.22c-0.51,3.14-0.92,5.93-1.36,8.36c-0.54,2.47-2.18,4.1-3.63,4.94
										c-1.5,0.85-2.85,1-3.71,1.01c-0.44,0.01-0.77-0.03-0.99-0.07C570.2,146,570.09,145.98,570.09,145.98z"/>
								</g>
							</g>
						</g>
					</g>
				</g>
			</g>
			<g>
				<g>
					<g>
						<g>
							<g>
								<g>
									<path class="st5" d="M588.18,79.53c0,0.02-0.2,0-0.58-0.04c-0.44-0.06-0.99-0.13-1.66-0.21c-1.51-0.22-3.57-0.51-6.09-0.87
										c-2.59-0.39-5.65-0.85-9.03-1.36c-1.7-0.27-3.48-0.54-5.33-0.83c-1.91-0.34-3.73-1.52-4.83-3.26
										c-0.55-0.87-0.92-1.84-1.06-2.83c-0.17-0.98-0.05-2.01,0.12-2.91c0.29-1.84,0.58-3.62,0.85-5.32
										c0.55-3.37,1.05-6.42,1.47-9.01c0.43-2.51,0.78-4.56,1.03-6.07c0.12-0.67,0.23-1.21,0.31-1.65
										c0.08-0.38,0.12-0.57,0.14-0.57c0.02,0,0,0.2-0.04,0.58c-0.06,0.44-0.12,0.99-0.21,1.66c-0.22,1.51-0.51,3.57-0.87,6.09
										c-0.39,2.59-0.85,5.65-1.36,9.03c-0.26,1.7-0.54,3.48-0.82,5.33c-0.17,0.93-0.27,1.82-0.11,2.76
										c0.14,0.92,0.48,1.82,0.99,2.63c1.02,1.62,2.71,2.72,4.48,3.04c1.84,0.3,3.62,0.58,5.31,0.86
										c3.37,0.55,6.42,1.05,9.01,1.47c2.51,0.43,4.56,0.78,6.07,1.03c0.67,0.12,1.21,0.23,1.65,0.31
										C587.98,79.46,588.18,79.51,588.18,79.53z"/>
								</g>
							</g>
						</g>
					</g>
				</g>
			</g>
		</g>
		<g>
			<g>
				<path class="st5" d="M559.11,65.26c-0.02,0.14-7.12-0.85-15.85-2.22c-8.73-1.37-15.79-2.59-15.77-2.73
					c0.02-0.14,7.12,0.85,15.85,2.22C552.07,63.89,559.14,65.11,559.11,65.26z"/>
			</g>
		</g>
		<g>
			<g>
				<path class="st5" d="M572.29,79.25c-0.02,0.14-10.48-1.38-23.35-3.39c-12.88-2.02-23.29-3.76-23.27-3.91
					c0.02-0.14,10.47,1.38,23.35,3.39C561.89,77.36,572.31,79.11,572.29,79.25z"/>
			</g>
		</g>
		<g>
			<g>
				<path class="st5" d="M570.47,90.89c-0.02,0.14-10.48-1.38-23.35-3.39c-12.88-2.02-23.29-3.76-23.27-3.91
					c0.02-0.14,10.47,1.38,23.35,3.39C560.07,89,570.49,90.75,570.47,90.89z"/>
			</g>
		</g>
		<g>
			<g>
				<path class="st5" d="M568.64,102.54c-0.02,0.14-10.48-1.38-23.35-3.39c-12.88-2.02-23.29-3.76-23.27-3.91
					c0.02-0.14,10.47,1.38,23.35,3.39C558.25,100.65,568.67,102.4,568.64,102.54z"/>
			</g>
		</g>
		<g>
			<g>
				<path class="st5" d="M566.82,114.18c-0.02,0.14-10.48-1.38-23.35-3.39c-12.88-2.02-23.29-3.76-23.27-3.91
					c0.02-0.14,10.47,1.38,23.35,3.39C556.43,112.29,566.84,114.04,566.82,114.18z"/>
			</g>
		</g>
		<g>
			<g>
				<path class="st5" d="M565,125.83c-0.02,0.14-10.48-1.38-23.35-3.39c-12.88-2.02-23.29-3.76-23.27-3.91
					c0.02-0.14,10.47,1.38,23.35,3.39C554.6,123.94,565.02,125.69,565,125.83z"/>
			</g>
		</g>
		<g>
			<path class="st13" d="M537.09,124.25l-41.16-6.44c-2.3-0.36-3.88-2.52-3.52-4.82l2.27-14.53c0.36-2.3,2.52-3.88,4.82-3.52
				l41.16,6.44c2.3,0.36,3.88,2.52,3.52,4.82l-2.27,14.53C541.56,123.03,539.4,124.61,537.09,124.25z"/>
			<g>
				
					<rect x="512.05" y="92.87" transform="matrix(0.1547 -0.988 0.988 0.1547 331.4811 609.066)" class="st14" width="19.2" height="35.93"/>
				<path class="st15" d="M518.24,113.04c-0.16,1.03-0.57,1.91-1.23,2.64c-0.66,0.74-1.53,1.25-2.62,1.56
					c-1.09,0.3-2.33,0.35-3.73,0.13c-1.67-0.26-3.01-0.79-4-1.6c-0.7-0.58-1.23-1.28-1.6-2.12s-0.49-1.61-0.38-2.33
					c0.07-0.42,0.27-0.75,0.6-1s0.73-0.34,1.18-0.27c0.36,0.06,0.65,0.22,0.87,0.49c0.21,0.27,0.38,0.65,0.48,1.13
					c0.13,0.57,0.29,1.06,0.49,1.46s0.5,0.76,0.92,1.06c0.42,0.31,1,0.52,1.74,0.63c1.02,0.16,1.88,0.05,2.59-0.32
					s1.12-0.92,1.23-1.63c0.09-0.56-0.01-1.05-0.3-1.45c-0.29-0.41-0.69-0.74-1.21-1.01c-0.52-0.27-1.21-0.58-2.09-0.93
					c-1.17-0.48-2.14-0.97-2.91-1.48c-0.76-0.51-1.33-1.13-1.71-1.87c-0.38-0.74-0.49-1.59-0.34-2.57c0.15-0.93,0.53-1.72,1.15-2.37
					c0.62-0.64,1.45-1.09,2.47-1.33c1.03-0.24,2.19-0.26,3.5-0.05c1.04,0.16,1.92,0.43,2.64,0.81c0.72,0.38,1.3,0.82,1.73,1.33
					c0.44,0.51,0.73,1.01,0.89,1.52c0.16,0.51,0.2,0.98,0.13,1.43c-0.06,0.41-0.27,0.75-0.61,1.04c-0.34,0.28-0.73,0.39-1.16,0.32
					c-0.39-0.06-0.68-0.21-0.85-0.44c-0.17-0.23-0.35-0.59-0.51-1.07c-0.21-0.69-0.5-1.25-0.88-1.67c-0.38-0.43-1.04-0.71-2-0.86
					c-0.89-0.14-1.63-0.06-2.24,0.25c-0.6,0.3-0.95,0.73-1.04,1.28c-0.05,0.34-0.01,0.65,0.14,0.92c0.15,0.28,0.37,0.53,0.66,0.76
					c0.3,0.23,0.6,0.42,0.92,0.57s0.84,0.38,1.58,0.7c0.92,0.37,1.75,0.76,2.48,1.15c0.73,0.39,1.34,0.82,1.83,1.29
					c0.48,0.47,0.83,1.03,1.04,1.66C518.33,111.44,518.37,112.18,518.24,113.04z"/>
				<path class="st15" d="M526.95,104.35l-5.33,12.84c-0.18,0.42-0.33,0.76-0.45,1c-0.12,0.24-0.28,0.42-0.46,0.54
					c-0.19,0.12-0.44,0.15-0.76,0.1c-0.79-0.12-1.13-0.52-1.02-1.2c0.03-0.18,0.17-0.61,0.44-1.29l5.32-12.84
					c0.28-0.68,0.52-1.15,0.71-1.38s0.52-0.32,0.96-0.25c0.39,0.06,0.67,0.2,0.84,0.42c0.18,0.22,0.24,0.49,0.19,0.81
					C527.36,103.32,527.21,103.74,526.95,104.35z"/>
				<path class="st15" d="M528.85,120.22c-0.48-0.08-0.87-0.29-1.17-0.66c-0.3-0.36-0.41-0.82-0.32-1.38
					c0.07-0.47,0.3-0.85,0.69-1.14c0.38-0.29,0.82-0.39,1.31-0.32s0.88,0.31,1.17,0.7c0.29,0.39,0.4,0.82,0.32,1.3
					c-0.09,0.55-0.33,0.95-0.72,1.21S529.31,120.29,528.85,120.22z"/>
			</g>
		</g>
	</g>
	<g>
		<g>
			<g>
				<g>
					<g>
						<g>
							<g>
								<g>
									<g>
										<path class="st11" d="M654.08,434.69l-59.93-9.38c-4.14-0.65-6.97-4.53-6.32-8.67l12.98-82.94
											c0.65-4.14,4.53-6.97,8.67-6.32l38,5.95l24.67,34.93l-9.41,60.12C662.11,432.51,658.22,435.34,654.08,434.69z"/>
									</g>
								</g>
							</g>
						</g>
					</g>
					<g>
						<g>
							<g>
								<g>
									<g>
										<path class="st2" d="M647.49,333.32l-3.65,23.34c-0.6,3.85,2.03,7.46,5.88,8.07l22.45,3.52L647.49,333.32z"/>
									</g>
								</g>
							</g>
						</g>
					</g>
					<g>
						<g>
							<g>
								<g>
									<g>
										<path class="st10" d="M643.83,358.76c0,0-1.18,5.62,4.97,8.49c0.23,0.11,0.47,0.2,0.71,0.28
											c2.85,0.98,21.6,7.43,21.67,6.99c0.08-0.48,0.98-6.27,0.98-6.27l-22.45-3.51C649.72,364.74,644.15,363.67,643.83,358.76z"
											/>
									</g>
								</g>
							</g>
						</g>
					</g>
				</g>
			</g>
			<g>
				<g>
					<g>
						<g>
							<g>
								<g>
									<path class="st5" d="M654.08,434.69c0-0.04,0.45,0.08,1.32,0.05c0.86-0.02,2.19-0.2,3.65-1.05
										c1.42-0.84,3.01-2.46,3.51-4.87c0.42-2.41,0.81-5.23,1.3-8.36c1.94-12.56,4.73-30.54,8.09-52.25l0.04,0.16
										c-7.47-10.56-15.81-22.34-24.7-34.91l0.17,0.1c-7.05-1.1-14.38-2.25-21.93-3.43c-3.77-0.59-7.6-1.19-11.47-1.79
										c-0.97-0.15-1.94-0.3-2.91-0.46c-0.98-0.14-1.95-0.36-2.89-0.34c-1.91,0.01-3.81,0.81-5.16,2.2
										c-0.94,0.96-1.62,2.18-1.9,3.48c-0.26,1.32-0.44,2.72-0.66,4.06c-0.43,2.72-0.85,5.41-1.27,8.09
										c-0.84,5.36-1.67,10.63-2.48,15.82c-1.63,10.37-3.2,20.37-4.7,29.9c-0.75,4.76-1.48,9.41-2.19,13.92
										c-0.36,2.26-0.71,4.48-1.05,6.67c-0.17,1.09-0.34,2.18-0.51,3.26c-0.15,1.08-0.41,2.14-0.36,3.18
										c0.07,2.09,1.1,4.06,2.64,5.35c0.77,0.65,1.67,1.13,2.61,1.41c0.94,0.27,1.96,0.37,2.94,0.54
										c3.93,0.62,7.71,1.22,11.31,1.79c14.4,2.29,26.05,4.14,34.12,5.43c4.02,0.65,7.14,1.16,9.27,1.5
										c1.05,0.18,1.85,0.31,2.41,0.4C653.81,434.63,654.08,434.69,654.08,434.69s-0.28-0.03-0.83-0.1
										c-0.56-0.08-1.37-0.2-2.42-0.35c-2.14-0.32-5.26-0.8-9.29-1.4c-8.08-1.24-19.74-3.04-34.15-5.26
										c-3.6-0.56-7.38-1.14-11.31-1.75c-0.98-0.17-1.98-0.26-2.99-0.54c-1-0.29-1.95-0.8-2.76-1.48
										c-1.63-1.35-2.72-3.44-2.8-5.65c-0.05-1.12,0.21-2.19,0.35-3.26c0.17-1.08,0.34-2.16,0.51-3.26
										c0.34-2.19,0.69-4.41,1.04-6.67c0.7-4.51,1.43-9.16,2.17-13.93c1.49-9.53,3.05-19.53,4.67-29.9
										c0.81-5.19,1.64-10.46,2.47-15.82c0.42-2.68,0.84-5.38,1.27-8.09c0.23-1.36,0.4-2.71,0.67-4.1c0.31-1.4,1.03-2.7,2.04-3.73
										c1.44-1.48,3.48-2.35,5.53-2.35c1.04-0.01,2.01,0.22,2.98,0.35c0.97,0.15,1.94,0.3,2.91,0.46c3.87,0.61,7.7,1.21,11.47,1.8
										c7.55,1.18,14.88,2.34,21.93,3.44l0.1,0.02l0.06,0.09c8.87,12.58,17.19,24.37,24.65,34.95l0.05,0.07l-0.01,0.09
										c-3.44,21.7-6.28,39.67-8.27,52.22c-0.51,3.14-0.92,5.93-1.36,8.36c-0.54,2.47-2.18,4.1-3.63,4.94
										c-1.5,0.85-2.85,1-3.71,1.01c-0.44,0.01-0.77-0.03-0.99-0.07C654.19,434.72,654.08,434.69,654.08,434.69z"/>
								</g>
							</g>
						</g>
					</g>
				</g>
			</g>
			<g>
				<g>
					<g>
						<g>
							<g>
								<g>
									<path class="st5" d="M672.17,368.25c0,0.02-0.2,0-0.58-0.04c-0.44-0.06-0.99-0.13-1.66-0.21
										c-1.51-0.22-3.57-0.51-6.09-0.87c-2.59-0.39-5.65-0.85-9.03-1.36c-1.7-0.27-3.48-0.54-5.33-0.83
										c-1.91-0.34-3.73-1.52-4.83-3.26c-0.55-0.87-0.92-1.84-1.06-2.83c-0.17-0.98-0.05-2.01,0.12-2.91
										c0.29-1.84,0.58-3.62,0.85-5.32c0.55-3.37,1.05-6.42,1.47-9.01c0.43-2.51,0.78-4.56,1.03-6.07
										c0.12-0.67,0.23-1.21,0.31-1.65c0.08-0.38,0.12-0.57,0.14-0.57c0.02,0,0,0.2-0.04,0.58c-0.06,0.44-0.12,0.99-0.21,1.66
										c-0.22,1.51-0.51,3.57-0.87,6.09c-0.39,2.59-0.85,5.65-1.36,9.03c-0.26,1.7-0.54,3.48-0.82,5.33
										c-0.17,0.93-0.27,1.82-0.11,2.76c0.14,0.92,0.48,1.82,0.99,2.63c1.02,1.62,2.71,2.72,4.48,3.04
										c1.84,0.3,3.62,0.58,5.31,0.86c3.37,0.55,6.42,1.05,9.01,1.47c2.51,0.43,4.56,0.78,6.07,1.03
										c0.67,0.12,1.21,0.23,1.65,0.31C671.97,368.18,672.17,368.23,672.17,368.25z"/>
								</g>
							</g>
						</g>
					</g>
				</g>
			</g>
		</g>
		<g>
			<g>
				<path class="st5" d="M643.1,353.98c-0.02,0.14-7.12-0.85-15.85-2.22c-8.73-1.37-15.79-2.59-15.77-2.73
					c0.02-0.14,7.12,0.85,15.85,2.22C636.06,352.61,643.12,353.83,643.1,353.98z"/>
			</g>
		</g>
		<g>
			<g>
				<path class="st5" d="M656.28,367.97c-0.02,0.14-10.48-1.38-23.35-3.39c-12.88-2.02-23.29-3.76-23.27-3.91
					c0.02-0.14,10.47,1.38,23.35,3.39C645.88,366.08,656.3,367.83,656.28,367.97z"/>
			</g>
		</g>
		<g>
			<g>
				<path class="st5" d="M654.46,379.61c-0.02,0.14-10.48-1.38-23.35-3.39c-12.88-2.02-23.29-3.76-23.27-3.91
					c0.02-0.14,10.47,1.38,23.35,3.39C644.06,377.72,654.48,379.47,654.46,379.61z"/>
			</g>
		</g>
		<g>
			<g>
				<path class="st5" d="M652.63,391.26c-0.02,0.14-10.48-1.38-23.35-3.39c-12.88-2.02-23.29-3.76-23.27-3.91
					c0.02-0.14,10.47,1.38,23.35,3.39C642.24,389.37,652.65,391.12,652.63,391.26z"/>
			</g>
		</g>
		<g>
			<g>
				<path class="st5" d="M650.81,402.9c-0.02,0.14-10.48-1.38-23.35-3.39c-12.88-2.02-23.29-3.76-23.27-3.91
					c0.02-0.14,10.47,1.38,23.35,3.39C640.41,401.01,650.83,402.76,650.81,402.9z"/>
			</g>
		</g>
		<g>
			<g>
				<path class="st5" d="M648.99,414.55c-0.02,0.14-10.48-1.38-23.35-3.39c-12.88-2.02-23.29-3.76-23.27-3.91
					c0.02-0.14,10.47,1.38,23.35,3.39C638.59,412.66,649.01,414.41,648.99,414.55z"/>
			</g>
		</g>
		<g>
			<path class="st13" d="M621.08,412.96l-41.16-6.44c-2.3-0.36-3.88-2.52-3.52-4.82l2.27-14.53c0.36-2.3,2.52-3.88,4.82-3.52
				l41.16,6.44c2.3,0.36,3.88,2.52,3.52,4.82l-2.27,14.53C625.54,411.75,623.39,413.33,621.08,412.96z"/>
			<g>
				
					<rect x="596.04" y="381.58" transform="matrix(0.1547 -0.988 0.988 0.1547 117.2343 936.1091)" class="st14" width="19.2" height="35.93"/>
				<path class="st15" d="M602.23,401.76c-0.16,1.03-0.57,1.91-1.23,2.64s-1.53,1.25-2.62,1.56c-1.09,0.3-2.33,0.35-3.73,0.13
					c-1.67-0.26-3.01-0.79-4-1.6c-0.7-0.58-1.23-1.28-1.6-2.12s-0.49-1.61-0.38-2.33c0.07-0.42,0.27-0.75,0.6-1
					c0.34-0.25,0.73-0.34,1.18-0.27c0.36,0.06,0.65,0.22,0.87,0.49c0.21,0.27,0.38,0.65,0.48,1.13c0.13,0.57,0.29,1.06,0.49,1.46
					c0.2,0.4,0.5,0.76,0.92,1.06c0.42,0.31,1,0.52,1.74,0.63c1.02,0.16,1.88,0.05,2.6-0.32s1.12-0.92,1.23-1.63
					c0.09-0.56-0.01-1.05-0.3-1.45c-0.29-0.41-0.69-0.74-1.21-1.01c-0.51-0.27-1.21-0.58-2.09-0.93c-1.17-0.48-2.14-0.97-2.91-1.48
					c-0.76-0.51-1.33-1.13-1.71-1.87s-0.49-1.59-0.34-2.57c0.15-0.93,0.53-1.72,1.15-2.37c0.62-0.64,1.45-1.09,2.47-1.33
					s2.19-0.26,3.5-0.05c1.04,0.16,1.92,0.43,2.64,0.81c0.72,0.38,1.3,0.82,1.73,1.33c0.44,0.51,0.73,1.01,0.89,1.52
					c0.16,0.51,0.2,0.98,0.13,1.43c-0.06,0.41-0.27,0.75-0.61,1.04c-0.34,0.28-0.73,0.39-1.16,0.32c-0.39-0.06-0.68-0.21-0.85-0.44
					s-0.34-0.59-0.51-1.07c-0.21-0.69-0.5-1.25-0.88-1.67c-0.38-0.43-1.04-0.71-2-0.86c-0.89-0.14-1.63-0.06-2.24,0.25
					c-0.6,0.3-0.95,0.73-1.04,1.28c-0.05,0.34-0.01,0.65,0.14,0.92c0.15,0.28,0.37,0.53,0.66,0.76c0.3,0.23,0.6,0.42,0.92,0.57
					s0.84,0.38,1.58,0.7c0.92,0.37,1.75,0.76,2.48,1.15c0.73,0.39,1.34,0.82,1.83,1.29c0.48,0.47,0.83,1.03,1.04,1.66
					C602.32,400.16,602.36,400.9,602.23,401.76z"/>
				<path class="st15" d="M610.94,393.07l-5.33,12.84c-0.18,0.42-0.33,0.76-0.45,1c-0.12,0.24-0.27,0.42-0.46,0.54
					c-0.19,0.12-0.44,0.15-0.76,0.1c-0.79-0.12-1.13-0.52-1.02-1.2c0.03-0.18,0.18-0.61,0.44-1.29l5.32-12.84
					c0.28-0.68,0.52-1.15,0.71-1.38c0.2-0.24,0.52-0.32,0.96-0.25c0.39,0.06,0.67,0.2,0.84,0.42c0.17,0.22,0.24,0.49,0.19,0.81
					C611.35,392.03,611.2,392.46,610.94,393.07z"/>
				<path class="st15" d="M612.83,408.94c-0.48-0.08-0.87-0.29-1.17-0.66c-0.3-0.36-0.41-0.82-0.32-1.38
					c0.07-0.47,0.3-0.85,0.69-1.14c0.38-0.29,0.82-0.39,1.31-0.32s0.87,0.31,1.17,0.7c0.29,0.39,0.4,0.82,0.32,1.3
					c-0.09,0.55-0.32,0.95-0.72,1.21S613.3,409.01,612.83,408.94z"/>
			</g>
		</g>
	</g>
	<g>
		<g>
			<g>
				<g>
					<g>
						<g>
							<g>
								<g>
									<g>
										<path class="st11" d="M189.39,297.31l-60.5,4.34c-4.18,0.3-7.81-2.85-8.11-7.03l-6.01-83.74
											c-0.3-4.18,2.85-7.81,7.03-8.11l38.37-2.75l31.9,28.48l4.35,60.7C196.72,293.38,193.57,297.01,189.39,297.31z"/>
									</g>
								</g>
							</g>
						</g>
					</g>
					<g>
						<g>
							<g>
								<g>
									<g>
										<path class="st2" d="M160.17,200.02l1.69,23.57c0.28,3.89,3.66,6.81,7.54,6.54l22.66-1.62L160.17,200.02z"/>
									</g>
								</g>
							</g>
						</g>
					</g>
					<g>
						<g>
							<g>
								<g>
									<g>
										<path class="st10" d="M162.32,225.63c0,0,0.11,5.74,6.75,7.15c0.25,0.05,0.5,0.09,0.76,0.11c3,0.32,22.72,2.38,22.69,1.94
											c-0.03-0.48-0.45-6.33-0.45-6.33l-22.66,1.63C169.41,230.12,163.73,230.34,162.32,225.63z"/>
									</g>
								</g>
							</g>
						</g>
					</g>
				</g>
			</g>
			<g>
				<g>
					<g>
						<g>
							<g>
								<g>
									<path class="st5" d="M189.39,297.31c0-0.04,0.45-0.02,1.3-0.25c0.83-0.22,2.08-0.69,3.32-1.85
										c1.19-1.14,2.38-3.07,2.33-5.53c-0.14-2.44-0.38-5.27-0.61-8.44c-0.93-12.68-2.26-30.82-3.87-52.73l0.07,0.15
										c-9.66-8.61-20.43-18.21-31.92-28.46l0.18,0.06c-7.11,0.51-14.52,1.05-22.14,1.6c-3.81,0.27-7.67,0.55-11.58,0.83
										c-0.98,0.07-1.96,0.14-2.94,0.21c-0.98,0.08-1.98,0.09-2.9,0.32c-1.86,0.44-3.53,1.65-4.54,3.3
										c-0.7,1.14-1.09,2.48-1.07,3.82c0.04,1.35,0.18,2.75,0.27,4.11c0.2,2.74,0.39,5.46,0.58,8.17
										c0.39,5.41,0.77,10.73,1.14,15.97c0.75,10.47,1.47,20.57,2.15,30.19c0.34,4.81,0.67,9.5,1,14.06
										c0.16,2.28,0.32,4.52,0.48,6.74c0.08,1.11,0.16,2.2,0.23,3.29c0.1,1.09,0.09,2.18,0.37,3.17c0.54,2.02,1.98,3.71,3.77,4.62
										c0.9,0.46,1.88,0.72,2.86,0.79c0.98,0.05,1.99-0.08,2.98-0.13c3.97-0.28,7.78-0.55,11.42-0.8
										c14.54-1.01,26.31-1.82,34.47-2.39c4.06-0.27,7.22-0.48,9.37-0.62c1.06-0.06,1.87-0.11,2.44-0.15
										C189.11,297.31,189.39,297.31,189.39,297.31s-0.28,0.04-0.83,0.09c-0.56,0.05-1.37,0.11-2.43,0.2
										c-2.16,0.17-5.31,0.41-9.37,0.72c-8.15,0.6-19.92,1.48-34.46,2.55c-3.64,0.27-7.45,0.55-11.42,0.84
										c-1,0.06-1.98,0.19-3.04,0.14c-1.04-0.06-2.08-0.34-3.03-0.82c-1.9-0.95-3.42-2.74-4-4.88c-0.3-1.08-0.29-2.18-0.39-3.26
										c-0.08-1.09-0.16-2.18-0.24-3.29c-0.16-2.21-0.32-4.46-0.49-6.73c-0.33-4.56-0.67-9.25-1.02-14.06
										c-0.69-9.62-1.42-19.72-2.18-30.19c-0.38-5.23-0.76-10.56-1.15-15.97c-0.19-2.7-0.39-5.43-0.59-8.17
										c-0.09-1.38-0.22-2.73-0.27-4.15c-0.01-1.43,0.4-2.87,1.15-4.09c1.07-1.77,2.86-3.07,4.86-3.54
										c1.01-0.24,2.01-0.24,2.98-0.33c0.98-0.07,1.96-0.14,2.94-0.21c3.91-0.28,7.77-0.56,11.58-0.83
										c7.62-0.54,15.03-1.07,22.14-1.58l0.11-0.01l0.08,0.07c11.48,10.26,22.23,19.88,31.87,28.51l0.07,0.06l0.01,0.09
										c1.53,21.92,2.8,40.06,3.69,52.74c0.21,3.17,0.43,5.98,0.55,8.45c0.03,2.53-1.2,4.49-2.43,5.63
										c-1.27,1.16-2.55,1.62-3.39,1.82c-0.43,0.1-0.76,0.15-0.98,0.16C189.51,297.31,189.39,297.31,189.39,297.31z"/>
								</g>
							</g>
						</g>
					</g>
				</g>
			</g>
			<g>
				<g>
					<g>
						<g>
							<g>
								<g>
									<path class="st5" d="M192.07,228.5c0,0.02-0.2,0.05-0.58,0.09c-0.44,0.04-0.99,0.1-1.67,0.17
										c-1.52,0.13-3.6,0.31-6.13,0.52c-2.61,0.2-5.69,0.44-9.1,0.71c-1.72,0.12-3.52,0.25-5.38,0.39
										c-1.93,0.1-3.98-0.64-5.44-2.09c-0.73-0.72-1.31-1.59-1.67-2.52c-0.39-0.92-0.5-1.95-0.54-2.87
										c-0.13-1.86-0.25-3.66-0.37-5.38c-0.22-3.41-0.43-6.49-0.6-9.11c-0.15-2.54-0.27-4.62-0.36-6.14
										c-0.03-0.68-0.05-1.23-0.07-1.67c-0.01-0.38-0.01-0.58,0.01-0.59c0.02,0,0.05,0.2,0.09,0.58c0.04,0.44,0.1,0.99,0.17,1.67
										c0.13,1.52,0.31,3.6,0.52,6.13c0.2,2.61,0.44,5.69,0.71,9.1c0.13,1.72,0.26,3.51,0.4,5.38c0.05,0.95,0.15,1.84,0.51,2.71
										c0.34,0.86,0.88,1.67,1.56,2.34c1.36,1.35,3.25,2.04,5.05,1.95c1.86-0.12,3.66-0.24,5.37-0.36
										c3.41-0.22,6.49-0.42,9.11-0.6c2.54-0.15,4.62-0.27,6.14-0.36c0.68-0.03,1.23-0.05,1.67-0.07
										C191.86,228.48,192.07,228.48,192.07,228.5z"/>
								</g>
							</g>
						</g>
					</g>
				</g>
			</g>
		</g>
		<g>
			<g>
				<path class="st5" d="M160.54,221.13c0.01,0.14-7.13,0.77-15.94,1.4c-8.82,0.63-15.97,1.03-15.98,0.88
					c-0.01-0.14,7.13-0.77,15.94-1.4C153.37,221.38,160.53,220.99,160.54,221.13z"/>
			</g>
		</g>
		<g>
			<g>
				<path class="st5" d="M176.52,231.8c0.01,0.14-10.52,1.02-23.51,1.95c-13,0.93-23.54,1.57-23.55,1.43s10.52-1.02,23.51-1.95
					C165.97,232.29,176.51,231.66,176.52,231.8z"/>
			</g>
		</g>
		<g>
			<g>
				<path class="st5" d="M177.37,243.56c0.01,0.14-10.52,1.02-23.51,1.95c-13,0.93-23.54,1.57-23.55,1.43
					c-0.01-0.14,10.52-1.02,23.51-1.95C166.81,244.05,177.36,243.41,177.37,243.56z"/>
			</g>
		</g>
		<g>
			<g>
				<path class="st5" d="M178.21,255.31c0.01,0.14-10.52,1.02-23.51,1.95c-13,0.93-23.54,1.57-23.55,1.43
					c-0.01-0.14,10.52-1.02,23.51-1.95C167.65,255.81,178.2,255.17,178.21,255.31z"/>
			</g>
		</g>
		<g>
			<g>
				<path class="st5" d="M179.05,267.07c0.01,0.14-10.52,1.02-23.51,1.95c-13,0.93-23.54,1.57-23.55,1.43
					c-0.01-0.14,10.52-1.02,23.51-1.95C168.5,267.56,179.04,266.93,179.05,267.07z"/>
			</g>
		</g>
		<g>
			<g>
				<path class="st5" d="M179.9,278.83c0.01,0.14-10.52,1.02-23.51,1.95c-13,0.93-23.54,1.57-23.55,1.43
					c-0.01-0.14,10.52-1.02,23.51-1.95C169.34,279.32,179.89,278.68,179.9,278.83z"/>
			</g>
		</g>
		<g>
			<path class="st13" d="M152.35,283.56l-41.55,2.98c-2.33,0.17-4.35-1.58-4.51-3.91l-1.05-14.67c-0.17-2.33,1.58-4.35,3.91-4.51
				l41.55-2.98c2.33-0.17,4.35,1.58,4.51,3.91l1.05,14.67C156.43,281.37,154.68,283.39,152.35,283.56z"/>
			<g>
				
					<rect x="116.33" y="264.36" transform="matrix(0.9974 -0.0715 0.0715 0.9974 -19.2559 10.3096)" class="st14" width="35.93" height="19.2"/>
				<path class="st15" d="M131.46,276.88c0.08,1.04-0.13,1.99-0.6,2.85c-0.47,0.86-1.21,1.57-2.2,2.11c-1,0.54-2.2,0.86-3.61,0.96
					c-1.69,0.12-3.11-0.1-4.25-0.66c-0.81-0.4-1.49-0.97-2.03-1.71c-0.54-0.73-0.84-1.46-0.89-2.19c-0.03-0.42,0.09-0.79,0.36-1.11
					c0.27-0.32,0.63-0.5,1.08-0.53c0.37-0.03,0.68,0.07,0.95,0.29c0.27,0.21,0.51,0.55,0.72,0.99c0.26,0.53,0.53,0.97,0.81,1.32
					c0.28,0.35,0.66,0.62,1.13,0.83c0.48,0.21,1.09,0.28,1.84,0.23c1.03-0.07,1.85-0.37,2.46-0.9c0.61-0.52,0.89-1.15,0.84-1.86
					c-0.04-0.57-0.25-1.02-0.62-1.35c-0.37-0.33-0.84-0.57-1.4-0.72c-0.56-0.15-1.31-0.29-2.25-0.44c-1.25-0.2-2.31-0.46-3.16-0.79
					s-1.55-0.8-2.09-1.44c-0.53-0.63-0.84-1.44-0.91-2.43c-0.07-0.94,0.13-1.8,0.59-2.57c0.46-0.77,1.17-1.39,2.11-1.85
					c0.95-0.46,2.08-0.74,3.39-0.84c1.05-0.08,1.97-0.01,2.76,0.2c0.79,0.21,1.45,0.51,1.99,0.9c0.54,0.4,0.94,0.82,1.21,1.28
					c0.27,0.46,0.42,0.91,0.45,1.37c0.03,0.41-0.09,0.8-0.36,1.15c-0.27,0.35-0.62,0.54-1.06,0.58c-0.4,0.03-0.71-0.05-0.93-0.23
					c-0.22-0.18-0.47-0.49-0.74-0.93c-0.36-0.62-0.77-1.1-1.23-1.43c-0.46-0.33-1.18-0.46-2.14-0.39c-0.9,0.06-1.6,0.31-2.13,0.75
					c-0.52,0.43-0.76,0.93-0.72,1.48c0.03,0.34,0.14,0.63,0.34,0.87c0.21,0.24,0.48,0.43,0.82,0.59s0.68,0.27,1.02,0.35
					c0.34,0.08,0.91,0.19,1.69,0.33c0.98,0.16,1.88,0.34,2.68,0.56s1.49,0.5,2.07,0.85c0.58,0.35,1.04,0.81,1.39,1.39
					S131.4,276.02,131.46,276.88z"/>
				<path class="st15" d="M137.99,266.45l-2.31,13.71c-0.08,0.45-0.15,0.81-0.21,1.07c-0.06,0.26-0.17,0.47-0.33,0.63
					c-0.16,0.16-0.4,0.25-0.71,0.27c-0.79,0.06-1.22-0.26-1.27-0.94c-0.01-0.18,0.03-0.63,0.14-1.36l2.29-13.71
					c0.12-0.73,0.25-1.23,0.39-1.51s0.43-0.43,0.88-0.46c0.39-0.03,0.69,0.04,0.91,0.22c0.22,0.17,0.34,0.42,0.37,0.75
					C138.16,265.35,138.11,265.8,137.99,266.45z"/>
				<path class="st15" d="M143.41,281.49c-0.48,0.04-0.91-0.09-1.28-0.38c-0.37-0.29-0.58-0.71-0.62-1.27
					c-0.03-0.47,0.1-0.9,0.41-1.26c0.31-0.37,0.71-0.57,1.2-0.6s0.92,0.1,1.29,0.42c0.37,0.31,0.57,0.71,0.61,1.2
					c0.04,0.55-0.1,1-0.43,1.34S143.88,281.46,143.41,281.49z"/>
			</g>
		</g>
	</g>
	<g>
		<g>
			<g>
				<g>
					<g>
						<g>
							<g>
								<g>
									<g>
										<path class="st11" d="M157.77,443.69l-60.65-0.22c-4.19-0.02-7.58-3.42-7.56-7.62l0.3-83.95
											c0.01-4.19,3.42-7.58,7.62-7.56l38.47,0.14l29.67,30.8l-0.22,60.85C165.37,440.32,161.96,443.71,157.77,443.69z"/>
									</g>
								</g>
							</g>
						</g>
					</g>
					<g>
						<g>
							<g>
								<g>
									<g>
										<path class="st2" d="M135.93,344.48l-0.08,23.63c-0.01,3.9,3.13,7.07,7.03,7.08l22.72,0.08L135.93,344.48z"/>
									</g>
								</g>
							</g>
						</g>
					</g>
					<g>
						<g>
							<g>
								<g>
									<g>
										<path class="st10" d="M136.15,370.18c0,0-0.32,5.73,6.2,7.64c0.24,0.07,0.5,0.13,0.75,0.17
											c2.96,0.54,22.48,4.08,22.48,3.64c0-0.49,0.02-6.35,0.02-6.35l-22.72-0.08C142.88,375.19,137.21,374.98,136.15,370.18z"/>
									</g>
								</g>
							</g>
						</g>
					</g>
				</g>
			</g>
			<g>
				<g>
					<g>
						<g>
							<g>
								<g>
									<path class="st5" d="M157.77,443.69c0-0.04,0.46,0.01,1.31-0.15c0.85-0.15,2.13-0.53,3.45-1.59
										c1.28-1.05,2.6-2.88,2.74-5.34c0.05-2.45,0.01-5.29,0.03-8.46c0.02-12.71,0.06-30.9,0.1-52.87l0.06,0.15
										c-8.98-9.31-19-19.69-29.69-30.77l0.18,0.08c-7.13-0.02-14.56-0.05-22.2-0.07c-3.82-0.01-7.69-0.03-11.61-0.04
										c-0.98,0-1.96-0.01-2.95-0.01c-0.99,0.01-1.98-0.06-2.91,0.1c-1.89,0.3-3.65,1.38-4.77,2.95
										c-0.78,1.09-1.27,2.39-1.36,3.73c-0.06,1.34-0.02,2.75-0.04,4.12c-0.01,2.75-0.02,5.48-0.03,8.19
										c-0.02,5.42-0.04,10.76-0.06,16.01c-0.04,10.5-0.08,20.62-0.12,30.27c-0.02,4.82-0.04,9.52-0.06,14.09
										c-0.01,2.28-0.02,4.54-0.03,6.75c-0.01,1.11-0.01,2.21-0.02,3.3c0.01,1.09-0.08,2.18,0.13,3.19
										c0.39,2.05,1.7,3.85,3.42,4.89c0.86,0.52,1.82,0.86,2.79,1c0.97,0.13,1.99,0.07,2.98,0.09c3.98,0.02,7.8,0.04,11.45,0.06
										c14.58,0.09,26.38,0.16,34.55,0.21c4.07,0.04,7.23,0.06,9.39,0.08c1.06,0.02,1.88,0.03,2.44,0.03
										C157.49,443.67,157.77,443.69,157.77,443.69s-0.28,0.02-0.83,0.02c-0.57,0-1.38,0.01-2.44,0.02
										c-2.16,0-5.32,0.01-9.39,0.02c-8.17-0.01-19.97-0.02-34.55-0.04c-3.65-0.01-7.47-0.02-11.45-0.02
										c-1-0.02-1.99,0.04-3.04-0.09c-1.03-0.14-2.05-0.5-2.95-1.05c-1.82-1.09-3.21-2.99-3.62-5.17c-0.22-1.1-0.13-2.2-0.14-3.28
										c0-1.09,0.01-2.19,0.01-3.3c0.01-2.22,0.01-4.47,0.02-6.75c0.01-4.57,0.03-9.27,0.04-14.09
										c0.03-9.65,0.06-19.77,0.09-30.27c0.02-5.25,0.04-10.59,0.05-16.01c0.01-2.71,0.02-5.44,0.03-8.19
										c0.02-1.38-0.02-2.74,0.04-4.15c0.09-1.43,0.61-2.83,1.45-3.99c1.2-1.68,3.09-2.84,5.11-3.16c1.03-0.17,2.02-0.09,3-0.1
										c0.98,0,1.97,0.01,2.95,0.01c3.92,0.01,7.79,0.03,11.61,0.04c7.64,0.03,15.07,0.06,22.2,0.09l0.11,0l0.07,0.08
										c10.67,11.1,20.68,21.5,29.64,30.82l0.06,0.06l0,0.09c-0.12,21.97-0.21,40.16-0.28,52.87c-0.03,3.18-0.02,6-0.08,8.47
										c-0.16,2.52-1.53,4.38-2.85,5.43c-1.35,1.06-2.66,1.42-3.52,1.56c-0.43,0.07-0.77,0.09-0.99,0.09
										C157.88,443.7,157.77,443.69,157.77,443.69z"/>
								</g>
							</g>
						</g>
					</g>
				</g>
			</g>
			<g>
				<g>
					<g>
						<g>
							<g>
								<g>
									<path class="st5" d="M165.6,375.28c0,0.02-0.2,0.03-0.58,0.05c-0.44,0.01-0.99,0.03-1.67,0.04
										c-1.52,0.01-3.61,0.04-6.15,0.06c-2.62,0.01-5.71,0.01-9.13,0.02c-1.72,0-3.53-0.01-5.4-0.02
										c-1.94-0.04-3.92-0.94-5.27-2.49c-0.68-0.77-1.18-1.68-1.48-2.64c-0.32-0.95-0.35-1.98-0.32-2.9
										c0.01-1.87,0.02-3.67,0.03-5.39c0.03-3.42,0.06-6.51,0.09-9.13c0.04-2.55,0.08-4.63,0.1-6.15
										c0.02-0.68,0.04-1.23,0.05-1.67c0.02-0.38,0.04-0.58,0.05-0.58c0.02,0,0.03,0.2,0.05,0.58c0.01,0.44,0.03,0.99,0.04,1.67
										c0.02,1.52,0.04,3.61,0.06,6.15c0.01,2.62,0.01,5.71,0.02,9.13c0,1.72,0,3.52,0,5.39c-0.02,0.95,0.01,1.84,0.31,2.74
										c0.28,0.89,0.75,1.73,1.38,2.45c1.25,1.45,3.09,2.28,4.89,2.33c1.86,0.02,3.66,0.03,5.38,0.05
										c3.42,0.03,6.51,0.06,9.13,0.09c2.55,0.04,4.63,0.08,6.15,0.11c0.68,0.02,1.23,0.04,1.67,0.06
										C165.4,375.24,165.6,375.26,165.6,375.28z"/>
								</g>
							</g>
						</g>
					</g>
				</g>
			</g>
		</g>
		<g>
			<g>
				<path class="st5" d="M134.71,365.56c0,0.14-7.17,0.23-16,0.2c-8.84-0.03-16-0.17-16-0.32c0-0.14,7.16-0.23,16-0.2
					C127.55,365.27,134.71,365.42,134.71,365.56z"/>
			</g>
		</g>
		<g>
			<g>
				<path class="st5" d="M149.85,377.4c0,0.14-10.56,0.22-23.59,0.18c-13.03-0.05-23.59-0.2-23.59-0.34s10.56-0.22,23.59-0.18
					C139.29,377.1,149.85,377.26,149.85,377.4z"/>
			</g>
		</g>
		<g>
			<g>
				<path class="st5" d="M149.81,389.19c0,0.14-10.56,0.22-23.59,0.18c-13.03-0.05-23.59-0.2-23.59-0.34s10.56-0.22,23.59-0.18
					C139.25,388.89,149.81,389.04,149.81,389.19z"/>
			</g>
		</g>
		<g>
			<g>
				<path class="st5" d="M149.77,400.97c0,0.14-10.56,0.22-23.59,0.18c-13.03-0.05-23.59-0.2-23.59-0.34
					c0-0.14,10.56-0.22,23.59-0.18C139.21,400.68,149.77,400.83,149.77,400.97z"/>
			</g>
		</g>
		<g>
			<g>
				<path class="st5" d="M149.73,412.76c0,0.14-10.56,0.22-23.59,0.18c-13.03-0.05-23.59-0.2-23.59-0.34s10.56-0.22,23.59-0.18
					C139.16,412.46,149.73,412.62,149.73,412.76z"/>
			</g>
		</g>
		<g>
			<g>
				<path class="st5" d="M149.68,424.55c0,0.14-10.56,0.22-23.59,0.18c-13.03-0.05-23.59-0.2-23.59-0.34
					c0-0.14,10.56-0.22,23.59-0.18C139.12,424.25,149.69,424.4,149.68,424.55z"/>
			</g>
		</g>
		<g>
			<path class="st13" d="M121.86,427.2l-41.66-0.15c-2.33-0.01-4.21-1.91-4.21-4.24l0.05-14.71c0.01-2.33,1.91-4.21,4.24-4.21
				l41.66,0.15c2.33,0.01,4.21,1.91,4.21,4.24l-0.05,14.71C126.09,425.32,124.19,427.21,121.86,427.2z"/>
			<g>
				
					<rect x="94.97" y="398.31" transform="matrix(3.562761e-03 -1 1 3.562761e-03 -312.0667 519.3572)" class="st14" width="19.2" height="35.93"/>
				<path class="st15" d="M101.53,418.97c0,1.04-0.27,1.97-0.81,2.8s-1.32,1.47-2.36,1.94c-1.03,0.47-2.26,0.7-3.67,0.69
					c-1.7-0.01-3.09-0.33-4.19-0.98c-0.78-0.46-1.41-1.08-1.9-1.85c-0.49-0.77-0.73-1.52-0.72-2.25c0-0.42,0.15-0.78,0.44-1.08
					s0.67-0.45,1.12-0.45c0.37,0,0.68,0.12,0.93,0.35c0.25,0.24,0.47,0.58,0.65,1.05c0.22,0.55,0.45,1,0.7,1.37
					c0.25,0.37,0.61,0.67,1.07,0.91s1.07,0.36,1.82,0.36c1.03,0,1.87-0.23,2.52-0.71c0.65-0.48,0.97-1.08,0.97-1.8
					c0-0.57-0.17-1.03-0.52-1.39c-0.35-0.36-0.79-0.63-1.34-0.82s-1.29-0.39-2.21-0.61c-1.23-0.29-2.27-0.64-3.1-1.03
					s-1.49-0.92-1.98-1.59s-0.73-1.5-0.72-2.49c0-0.95,0.26-1.78,0.78-2.52s1.27-1.29,2.24-1.69c0.98-0.39,2.13-0.58,3.45-0.58
					c1.05,0,1.97,0.14,2.73,0.4s1.41,0.61,1.91,1.05s0.88,0.89,1.11,1.37c0.23,0.48,0.35,0.94,0.35,1.4c0,0.41-0.15,0.79-0.44,1.12
					c-0.29,0.33-0.66,0.5-1.1,0.49c-0.4,0-0.7-0.1-0.91-0.3c-0.21-0.2-0.43-0.53-0.67-0.98c-0.31-0.65-0.68-1.16-1.12-1.52
					c-0.44-0.37-1.14-0.55-2.11-0.55c-0.9,0-1.62,0.19-2.18,0.58s-0.83,0.87-0.83,1.42c0,0.34,0.09,0.64,0.28,0.89
					s0.44,0.47,0.77,0.65c0.33,0.18,0.66,0.32,0.99,0.43c0.34,0.1,0.89,0.25,1.66,0.45c0.97,0.23,1.84,0.48,2.63,0.76s1.45,0.61,2,1
					c0.55,0.39,0.98,0.89,1.28,1.49C101.38,417.37,101.53,418.11,101.53,418.97z"/>
				<path class="st15" d="M108.83,409.06l-3.33,13.5c-0.11,0.45-0.21,0.8-0.29,1.05c-0.08,0.26-0.21,0.46-0.38,0.6
					c-0.17,0.14-0.41,0.22-0.73,0.21c-0.8,0-1.19-0.35-1.19-1.04c0-0.18,0.08-0.63,0.24-1.35l3.32-13.5
					c0.17-0.72,0.34-1.21,0.5-1.47c0.16-0.27,0.46-0.4,0.92-0.4c0.39,0,0.69,0.1,0.9,0.28c0.21,0.19,0.31,0.45,0.31,0.77
					C109.08,407.98,109,408.42,108.83,409.06z"/>
				<path class="st15" d="M113.1,424.46c-0.48,0-0.9-0.16-1.25-0.47c-0.35-0.31-0.52-0.75-0.52-1.31c0-0.48,0.17-0.89,0.51-1.23
					c0.34-0.34,0.75-0.51,1.24-0.51s0.91,0.17,1.26,0.51c0.35,0.34,0.52,0.75,0.52,1.24c0,0.55-0.18,0.99-0.53,1.3
					C113.98,424.31,113.57,424.47,113.1,424.46z"/>
			</g>
		</g>
	</g>
</g>
<g id="Desk">
	<g>
		<g>
			<path class="st5" d="M709.12,459.46c0,0.14-149.49,0.26-333.85,0.26c-184.42,0-333.88-0.12-333.88-0.26
				c0-0.14,149.45-0.26,333.88-0.26C559.64,459.2,709.12,459.32,709.12,459.46z"/>
		</g>
	</g>
	<g>
	</g>
	<g>
	</g>
	<g>
	</g>
	<g>
	</g>
	<g>
	</g>
	<g>
	</g>
</g>
</svg>
