<?xml version="1.0" encoding="utf-8"?>
<!-- Generator: Adobe Illustrator 25.2.3, SVG Export Plug-In . SVG Version: 6.00 Build 0)  -->
<svg version="1.1" xmlns="http://www.w3.org/2000/svg" xmlns:xlink="http://www.w3.org/1999/xlink" x="0px" y="0px"
	 viewBox="0 0 500 500" style="enable-background:new 0 0 500 500;" xml:space="preserve">
<style type="text/css">
	.st0{fill:#F5F5F5;}
	.st1{fill:#E0E0E0;}
	.st2{fill:#2B3F3C;}
	.st3{opacity:0.15;fill:#FFFFFF;}
	.st4{opacity:0.3;fill:#FFFFFF;}
	.st5{opacity:0.1;}
	.st6{opacity:0.2;}
	.st7{fill:#FAFAFA;}
	.st8{fill:#F0997A;}
	.st9{fill:#FAFAFA;stroke:#83C440;stroke-miterlimit:10;}
	.st10{fill:none;stroke:#37474F;stroke-miterlimit:10;}
	.st11{fill:#83C440;stroke:#83C440;stroke-miterlimit:10;}
	.st12{fill:#FFBDA7;}
	.st13{opacity:0.6;fill:#BA68C8;}
	.st14{fill:#BA68C8;}
	.st15{fill:#01ADA9;stroke:#01ADA9;stroke-miterlimit:10;}
	.st16{fill:#AF6152;}
	.st17{fill:#FAFAFA;stroke:#FBAF19;stroke-miterlimit:10;}
	.st18{fill:#FBAF19;}
	.st19{fill:#C8856A;}
	.st20{opacity:0.2;fill:#FFFFFF;}
	.st21{fill:#455A64;}
	.st22{fill:#263238;}
	.st23{fill:#EBEBEB;}
	.st24{fill:#FFA8A7;}
	.st25{fill:#F28F8F;}
	.st26{fill:#FFC4C3;}
	.st27{fill:#FAFAFA;stroke:#EE4128;stroke-miterlimit:10;}
	.st28{fill:#EE4128;}
	.st29{fill:#01ADA9;}
	.st30{opacity:0.4;}
	.st31{fill:#FFFFFF;}
</style>
<g id="Floor">
	<path id="Floor_00000005965202398111346440000006762333848445564333_" class="st0" d="M107.9,281.6c-78.5,45.3-78.5,118.8,0,164.1
		c78.5,45.3,205.7,45.3,284.2,0c78.5-45.3,78.5-118.8,0-164.1C313.6,236.3,186.4,236.3,107.9,281.6z"/>
</g>
<g id="Shadow">
	<polygon id="Shadow_00000041276344266838644410000006735960460601459628_" class="st1" points="246.3,470.3 105.9,389.5 
		246.3,308.3 386.7,389.1 	"/>
</g>
<g id="Box">
	<g id="Box_9_">
		<g id="Box_5_">
			<g id="Box_7_">
				<polygon id="XMLID_341_" class="st2" points="246.3,453.8 246.3,346.6 133.2,281.5 133.2,388.7 				"/>
				<polygon id="XMLID_340_" class="st2" points="246.3,346.6 359.4,281.2 359.4,388.4 246.3,453.8 				"/>
				<polygon id="XMLID_325_" class="st3" points="246.2,346.8 359.3,281.4 359.3,388.6 246.2,454 				"/>
				<polygon id="XMLID_337_" class="st2" points="246.3,346.6 130.2,279.8 246.3,212.7 362.3,279.5 				"/>
				<polygon id="XMLID_00000165218304267130454570000013065339925238833854_" class="st4" points="246.5,346.4 130.5,279.6 
					246.5,212.6 362.6,279.4 				"/>
				<polygon id="XMLID_336_" class="st2" points="246.3,346.6 246.3,365.7 130.2,298.9 130.2,279.8 				"/>
				<polygon id="XMLID_335_" class="st2" points="362.3,279.5 246.3,346.6 246.3,365.7 362.3,298.7 				"/>
				<polygon id="XMLID_324_" class="st3" points="362.3,279.5 246.3,346.6 246.3,365.7 362.3,298.7 				"/>
				<path class="st5" d="M133.2,300.6l0,4.2l113.1,65.1v-4.2L133.2,300.6z M359.4,300.4l-113.1,65.3l0,4.2l113.1-65.3L359.4,300.4z"
					/>
			</g>
		</g>
		<g>
			<polygon class="st2" points="205,294.5 220.5,303.5 287.6,264.7 272.1,255.8 			"/>
			<polygon class="st6" points="283.7,267 287.6,264.7 272.1,255.8 272.1,260.3 			"/>
			<polygon class="st5" points="208.8,296.8 272.1,260.3 272.1,255.8 205,294.5 			"/>
		</g>
		<g>
			<path class="st7" d="M270.4,408.6l-7.3-23.1l5.6-3.2l3.2,11.1c1.3,4.4,1.8,6.2,1.8,6.3l0.1-0.1c0-0.1,0.5-2.5,1.8-8.2l3.2-14.9
				l5.3-3.1l-7.3,31.5L270.4,408.6z"/>
			<path class="st7" d="M295,366.6c6.3-3.6,10.8-0.4,10.8,8c0,8.3-4.5,16.8-10.8,20.4c-6.3,3.6-10.8,0.4-10.8-8
				C284.2,378.6,288.7,370.2,295,366.6z M295,388.7c3.4-2,5.8-6.5,5.8-11.4c0-4.9-2.5-6.6-5.8-4.7c-3.4,2-5.8,6.5-5.8,11.4
				C289.2,389,291.6,390.7,295,388.7z"/>
			<path class="st7" d="M318,359.9v21.2l-4.9,2.8v-21.2l-6.3,3.6v-6.1l17.4-10.1v6.1L318,359.9z"/>
			<path class="st7" d="M326.8,348.8l14.9-8.6v6.1l-10,5.8v4.7l7.4-4.3v5.5l-7.4,4.3v5l10.1-5.9v6.1l-15.1,8.7V348.8z"/>
		</g>
	</g>
</g>
<g id="Hand_3">
	<g id="Hand_00000176752921195349448660000016477762437069818283_">
		<path class="st8" d="M400,219.8c1.7,0.5,8.2,1.8,8.5-0.9c0.1-0.8-0.3-1.5-0.7-2.2c-2.3-3.8-4.9-7.7-8.9-9.4
			c-4.2-1.8-9.2-2.3-13.7-3.1c-5.1-0.9-10.1-1.9-15-3.4c-0.6-0.2-1.1-0.4-1.7-0.2c-1.1,0.3-1.5,1.7-1.5,2.9c0.1,3.4,2.2,6.5,4.8,8.7
			c1.4,1.2,3,2.1,4.7,2.8c2.1,0.9,4.3,1.1,6.5,1.5c2.4,0.4,4.8,1.2,7.2,1.6C390.9,218.2,400,219.4,400,219.8z"/>
		<g>
			<g>
				<path class="st9" d="M364,230.2c-17.6-14.4-35.2-28.8-52.8-43.2c23.1-16.5,38.9-35.7,50.5-61.7c17.6,14.4,35.2,28.8,52.8,43.2
					C402.9,194.4,387.2,213.7,364,230.2z"/>
				<path class="st10" d="M370.1,177.1c-7.4-6-11-9-18.4-15c5.8-7.7,8.4-11.8,12.7-20.5c7.4,6,11,9,18.4,15
					C378.5,165.3,375.9,169.4,370.1,177.1z"/>
				<path class="st10" d="M346.1,201.5c-7.4-6-11-9-18.4-15c7.6-5.9,11.2-9.3,17.6-16.5c7.4,6,11,9,18.4,15
					C357.3,192.2,353.8,195.5,346.1,201.5z"/>
				<g>
					<path class="st1" d="M397.3,177.9c-5.2-4.2-7.8-6.3-12.9-10.6c-0.5-0.4-0.6-1.1-0.3-1.7c0-0.1,0.1-0.1,0.1-0.2
						c0.3-0.5,0.9-0.7,1.4-0.3c5.2,4.2,7.8,6.3,12.9,10.6c0.5,0.4,0.6,1.1,0.3,1.7c0,0.1-0.1,0.1-0.1,0.2
						C398.4,178.2,397.8,178.3,397.3,177.9z"/>
					<path class="st1" d="M399.3,187.5c-7.2-5.9-10.9-8.9-18.1-14.8c-0.5-0.4-0.6-1.1-0.3-1.7c0-0.1,0.1-0.1,0.1-0.2
						c0.3-0.5,1-0.6,1.4-0.3c7.2,5.9,10.9,8.9,18.1,14.8c0.5,0.4,0.6,1.1,0.3,1.7c0,0.1-0.1,0.1-0.1,0.2
						C400.4,187.8,399.8,187.9,399.3,187.5z"/>
					<path class="st1" d="M397,191.1c-7.2-5.9-10.9-8.9-18.1-14.8c-0.5-0.4-0.6-1.1-0.2-1.6c0-0.1,0.1-0.1,0.1-0.2
						c0.3-0.5,1-0.6,1.5-0.2c7.2,5.9,10.9,8.9,18.1,14.8c0.5,0.4,0.6,1.1,0.2,1.6c0,0.1-0.1,0.1-0.1,0.2
						C398.1,191.4,397.4,191.5,397,191.1z"/>
				</g>
				<g>
					<path class="st1" d="M376,205.8c-5.2-4.2-7.8-6.3-12.9-10.6c-0.5-0.4-0.5-1.1-0.1-1.5c0.1-0.1,0.1-0.1,0.2-0.2
						c0.4-0.4,1.2-0.5,1.6-0.1c5.2,4.2,7.8,6.3,12.9,10.6c0.5,0.4,0.5,1.1,0.1,1.5c-0.1,0.1-0.1,0.1-0.2,0.2
						C377.2,206.1,376.5,206.2,376,205.8z"/>
					<path class="st1" d="M376.7,214.3c-7.2-5.9-10.9-8.9-18.1-14.8c-0.5-0.4-0.5-1,0-1.5c0.1-0.1,0.1-0.1,0.2-0.1
						c0.5-0.4,1.2-0.5,1.7-0.1c7.2,5.9,10.9,8.9,18.1,14.8c0.5,0.4,0.5,1,0,1.5c-0.1,0.1-0.1,0.1-0.2,0.1
						C377.9,214.7,377.1,214.7,376.7,214.3z"/>
					<path class="st1" d="M373.4,217.1c-7.2-5.9-10.9-8.9-18.1-14.8c-0.5-0.4-0.5-1,0-1.4c0.1-0.1,0.1-0.1,0.2-0.1
						c0.5-0.4,1.2-0.4,1.7,0c7.2,5.9,10.9,8.9,18.1,14.8c0.5,0.4,0.5,1,0,1.4c-0.1,0.1-0.1,0.1-0.2,0.1
						C374.7,217.5,373.9,217.5,373.4,217.1z"/>
				</g>
				<g>
					<path class="st11" d="M365.1,167.7c-0.9-6.2-1.4-9.3-2.6-15.6c2.2-0.4,3.2-0.6,5.4-1c0.7,3.4,1,5,1.6,8.3
						c7.1-2.9,10.4-4.4,16.8-7.7c1,2.5,1.5,3.7,2.5,6.2C380,162.1,375.2,164.1,365.1,167.7z"/>
				</g>
			</g>
		</g>
		<g id="Hand">
			<g>
				<path class="st12" d="M468.6,247.6c-4.7-2.1-19.7-3-28-4.7c-10-2.1-15-5.6-22.8-15.1c-7.8-9.5-9.5-11.5-12.1-14.7
					c-1.9-2.3-2.1-3.5-10.3-3.7c-8.3-0.2-19.1,0.7-21.8,1c-2.7,0.3-5.5,0.4-10.8,2.4c-5.3,2-8.1,2.9-10.5,4.2
					c-2.4,1.3-3.2,5.7-4.1,8.4c-0.9,2.7-1.2,4.9,0.8,5.5c1.9,0.6,5.7,0.4,9-3.8l2.9-0.8c0,0-6.2,4.8-7.1,6.7c-0.9,1.9-1.3,5.7,0,7.7
					c1.3,2,3.3,5,3.3,5s-1.4,3.5,1.3,6.3c2.7,2.8,4.4,4.4,4.4,4.4s-2,1.2-3.6,3.2c-1.6,1.9,0.2,4.6,4.4,4.7c3.3,0,8.5-2.7,12.4-3.7
					c3.9-0.9,9.6-2.9,12.5-1.9c0.9,0.3,2.8,1.7,4.5,2.8c1.7,1.1,3.3,1.7,5.2,3.3c3.9,3.1,6.1,6.6,12.9,8c6.8,1.4,11,0.7,16.6,2.9
					c3.7,1.5,40.7,18.5,41.5,19c10.6,5.5,18.7-1.2,18.1-15C486.7,265.9,479.5,252.5,468.6,247.6z M362.5,241.2l-0.4-0.8l4.2-3.9
					c0,0,3.8-0.3,6.9-0.3c-2.8,0.5-4.3,1.1-5.5,1.9C366,239.2,362.5,241.2,362.5,241.2z M370.6,251.5c-3.1,1.4-4.3,2.4-4.3,2.4
					l-0.6-2.5c0,0,3.3-1.9,4.1-2c0.7-0.1,7.6-0.8,10.2-1.2C375,249.5,372.8,250.5,370.6,251.5z"/>
				<path class="st8" d="M443.5,280.9c-2.9-1.8-5.8-3.3-9.7-5.9c-1.2-0.8-3.5-2.1-4.9-2.5c-1.1-0.3-2.3-0.3-3.5-0.2
					c-3.2,0.2-6.5,1-9.6,1.2c0.3,0,0.7,0.1,1,0.1c3.9,0.4,7.1,0.5,11,2.1c2.1,0.9,15.6,7,26.6,12.1v0
					C454.3,287.8,446.5,282.7,443.5,280.9z"/>
			</g>
			<g>
				<path class="st8" d="M384.8,219.9c-3.7-0.2-7.4-0.5-11.1-0.6c-1.2-0.1-2.6,0-3.8,0.5c-1.8,0.8-3.5,1.9-5.1,3.1
					c-2.4,1.1-5.8,2.1-7.7,2.4c-2.5,0.3-5-1-4.8-0.8c0.2,0.2,1.8,1.7,0.8,3.9c-0.6,1.3-1.5,2.4-2.5,2.9c2,0.1,4.9-0.8,7.4-4.1
					l2.9-0.8c0,0,5.9-4.6,9.3-5.9c1.1-0.4,2.3-0.5,3.5-0.4c3.7,0.1,7.4,0.3,11.1,0.3c1.2-0.1,2.5,0,3.7-0.3
					C387.3,220.1,386.1,220,384.8,219.9z M362.1,240.4l4.2-3.9c2.4-0.2,4.6-0.3,6.9-0.3c3.1-0.7,9.6-2.1,11.4-4.1
					c-2.8,1.2-6.4,2.4-10.3,2.4c-3.9-0.1-6.7-0.8-8.5,0.5c-1.8,1.3-5,4.8-5.3,5.3c-1.2,1.8-3.1,2.8-3.5,5.5c0.7-1.7,5.5-4.5,5.5-4.5
					L362.1,240.4z M370.7,248.1c-1.1,0.3-4.2,1.7-5.5,2.4c-1.3,0.7-0.3,2.2-1.8,2.9c-1.5,0.7-4.8-1.1-4.8-1.1c0,0,0,0,0,0
					c2.5,2.6,4.2,4.1,4.2,4.1l3.5-2.6c0.1-0.6-0.1-1.4-0.6-2.5c0,0,3.3-1.9,4.1-2c0.7-0.1,7.6-0.8,10.2-1.2c1.8-0.3,5.3-2.4,5.8-4.9
					c-3,2.7-3.3,3.5-6.5,4C376.1,247.7,371.8,247.8,370.7,248.1z"/>
				<g>
					<path class="st8" d="M369.1,223.2c0,0,0-0.2-0.1-0.2c-1.1,0.9-1.7,2.1-2.1,3.4c-0.4,1.6-0.2,3.2,0.1,4.9c0,0,0,0,0,0
						c-0.2-1.5-0.1-3.1,0.2-4.6C367.6,225.5,368.2,224.2,369.1,223.2z M369.1,225c-0.2,0.4-0.4,0.9-0.7,1.3
						c-0.1,0.2-0.2,0.4-0.4,0.6c-0.1,0.2-0.2,0.4-0.3,0.7c0,0,0,0.2,0.1,0.1c0.2-0.2,0.3-0.3,0.5-0.6c0.1-0.2,0.2-0.4,0.4-0.7
						c0.2-0.4,0.5-0.9,0.6-1.4C369.3,225.1,369.2,224.9,369.1,225z M366.5,224.6c-0.5,0.4-0.6,1-0.6,1.5c0,0.4-0.1,0.7,0,1.1
						c0,0.4,0.1,0.8,0.1,1.3c0,0.1,0.1,0,0.1,0c0-0.7,0.1-1.3,0.1-2c0-0.6,0.1-1.2,0.5-1.6C366.8,224.8,366.6,224.5,366.5,224.6z"/>
					<path class="st8" d="M368.1,242.6c-0.1-0.4-0.1-0.9-0.1-1.3c0-0.1-0.1-0.2-0.2-0.1c-0.1,0.4-0.1,0.9,0,1.3
						c0.1,0.5,0.3,1,0.6,1.4c0.1,0.1,0.1-0.1,0.1-0.1C368.3,243.4,368.2,243.1,368.1,242.6z M371.2,242.7c0-0.2-0.1-0.4-0.1-0.5
						c-0.1-0.4-0.2-0.7-0.4-1.1c0-0.1-0.1-0.1-0.1-0.1c-0.1,0-0.1,0.1,0,0.2c0.1,0.3,0.2,0.7,0.3,1c0,0.2,0.1,0.4,0.1,0.5
						c0,0.2,0.1,0.4,0.1,0.6c0,0.1,0.1,0.1,0.2,0C371.3,243.1,371.2,242.8,371.2,242.7z M369.6,242.5c-0.1-0.5-0.2-0.9-0.3-1.4
						c-0.1-0.4-0.2-0.9-0.4-1.3c-0.1-0.1-0.3-0.2-0.2,0c0.1,0.4,0.2,0.9,0.3,1.3c0.1,0.5,0.2,0.9,0.3,1.4c0.2,0.9,0.2,1.9,0.4,2.8
						c0,0.1,0.1,0.1,0.1,0c0.1-0.5,0-1,0-1.5C369.8,243.4,369.7,243,369.6,242.5z"/>
					<path class="st8" d="M372.7,255.4c-0.1-0.7-0.3-1.5-0.7-2c-0.1-0.1-0.2,0-0.2,0.1c0.1,0.3,0.2,0.6,0.3,1c0.1,0.3,0.1,0.6,0.2,1
						c0.1,0.8,0.3,1.6,0.6,2.3c0,0.1,0.2,0.1,0.2,0c0-0.4,0-0.8-0.1-1.1C372.9,256.2,372.8,255.8,372.7,255.4z M371.5,256.4
						c-0.1-0.1-0.2-0.2-0.2-0.3c-0.1-0.2-0.3-0.4-0.3-0.6c0,0,0-0.1-0.1-0.1c0,0,0,0.1,0,0.1c0.1,0.3,0.2,0.5,0.3,0.8
						c0.1,0.2,0.3,0.4,0.6,0.6c0.1,0,0.1-0.1,0-0.1C371.7,256.6,371.6,256.5,371.5,256.4z M374,255.3c-0.1-0.4-0.2-0.9-0.4-1.3
						c0-0.1-0.1-0.2-0.2-0.2c-0.1,0-0.1,0.1-0.1,0.2c0.1,0.4,0.2,0.8,0.3,1.2c0,0.2,0.1,0.4,0.1,0.6c0,0.1,0,0.2,0.1,0.3
						c0,0.1,0,0.2,0.1,0.3c0,0.1,0.1,0.1,0.2,0c0.1-0.1,0.1-0.2,0.1-0.3c0-0.1,0-0.2,0-0.3C374.1,255.7,374,255.5,374,255.3z"/>
					<path class="st8" d="M369.7,212.3c-1,1.8-1.3,3.9-1,5.9c0,0.1,0.1,0.1,0.1,0c0.1-2,0.5-3.9,1.2-5.7
						C370.1,212.4,369.8,212.2,369.7,212.3z M367.9,214.1c-0.2,0.3-0.2,0.6-0.3,0.9c-0.1,0.3-0.1,0.7-0.1,1c0,0.1,0.1,0.2,0.1,0.1
						c0-0.1,0-0.3,0.1-0.5c0-0.2,0-0.3,0.1-0.5c0-0.1,0.1-0.3,0.1-0.4c0-0.2,0.1-0.3,0.2-0.4c0-0.1,0-0.1,0-0.2
						C368,214,367.9,214,367.9,214.1z M370.9,214.4c-0.1,0-0.2,0-0.2,0.1c0,0.4-0.1,0.7-0.2,1.1c0,0.1-0.1,0.2-0.1,0.2
						c0,0.1-0.1,0.2-0.1,0.3c0,0.1-0.1,0.2-0.1,0.3c0,0.1-0.1,0.2-0.1,0.3c0,0.1,0,0.2,0.1,0.2c0.1-0.1,0.1-0.1,0.2-0.2
						c0.1-0.1,0.1-0.2,0.2-0.2c0.1-0.1,0.2-0.4,0.2-0.5c0.1-0.4,0.2-0.7,0.2-1.1C371.1,214.5,371,214.4,370.9,214.4z"/>
				</g>
				<path class="st8" d="M407.1,226.4c-0.8-1.2-1.7-2.3-2.6-3.4c-0.8-1-1.7-2-2.8-2.6c-0.8-0.4-1.8-0.7-2.7-0.7
					c-1.1-0.1-2.2,0.2-3.3,0.4c-0.1,0-0.3,0.1-0.4,0.2c0.3,0.1,0.7,0.1,1,0.1c0.5,0,1.1,0,1.6,0.1c1.1,0,2.4,0.2,3.4,0.9
					c1,0.6,1.7,1.6,2.5,2.4c1,1,1.9,2,3,3C407.2,227.1,407.3,226.6,407.1,226.4z M399.5,231.1c-0.5-0.4-1.1-0.7-1.7-0.8
					c-1.3-0.3-2.6-0.1-4,0.1c-0.2,0-0.5,0.2-0.4,0.4c1.7,0.3,3.7,0.3,5.3,1.2c0.5,0.3,1,0.9,1.6,1.1c0.5,0.2,0.3-0.5,0.2-0.7
					c-0.2-0.3-0.4-0.7-0.6-0.9C399.8,231.3,399.7,231.2,399.5,231.1z M397,244.1c-0.6-0.4-1.3-0.7-1.6-0.7c-0.9-0.1-1.8,0-2.7,0.3
					c-0.1,0-0.3,0.2-0.2,0.3c0,0,0.1,0,0.1,0c1.2,0.2,2.5,0.2,3.6,0.7c0.3,0.1,0.6,0.3,0.8,0.4c0.2,0.1,0.4,0.1,0.5,0
					C397.9,244.8,397.5,244.4,397,244.1z"/>
			</g>
			<g id="Nail_00000083082535631252283610000004824474451484429485_">
				<path class="st12" d="M348.6,224.2c1.6,0.8,2,2.8,1.9,3.9c-0.1,0.9-0.4,1.6-0.8,2.3c-0.9,1.5-2.5,0.2-2.3-1.8
					C347.8,226.8,348,226.3,348.6,224.2z"/>
				<path class="st13" d="M348.6,224.2c1.6,0.8,2,2.8,1.9,3.9c-0.1,0.9-0.4,1.6-0.8,2.3c-0.9,1.5-2.5,0.2-2.3-1.8
					C347.8,226.8,348,226.3,348.6,224.2z"/>
				<path class="st14" d="M350.5,227.3c-0.7-0.5-1.5-1.4-2-2.5c0.1-0.2,0.1-0.4,0.2-0.6C349.9,224.9,350.4,226.3,350.5,227.3z"/>
			</g>
			<g id="Nail">
				<path class="st12" d="M362.1,257c-0.6,1.5-0.2,2.5,0.2,3.5c-0.7,0.8-1.6,1.6-2.3,1.8c-1.2,0.3-2.1-1.5-0.5-3
					C361.2,257.6,362.1,257,362.1,257z"/>
				<path class="st13" d="M362.1,257c-0.6,1.5-0.2,2.5,0.2,3.5c-0.7,0.8-1.6,1.6-2.3,1.8c-1.2,0.3-2.1-1.5-0.5-3
					C361.2,257.6,362.1,257,362.1,257z"/>
				<path class="st14" d="M362.1,257c-1.1,0.7-2.1,2.7,0.2,3.5C361.9,259.5,361.5,258.6,362.1,257z"/>
			</g>
		</g>
		<g>
			<path class="st15" d="M412.7,273.1c0.8,4.5,2.7,7.8,5.5,9.4c1.2,0.7,2.5,1,3.8,1c1.7,0,3.5-0.5,5.2-1.5c1.4-0.8,2.8-1.9,4.1-3.3
				c5.7-6,9.9-16.5,9.9-26.2c0-3.2-0.5-6.1-1.3-8.4c-1-2.7-2.5-4.8-4.6-5.9c-2-1.1-4.5-1.3-7.1-0.3c0.7,0.5,1.4,0.9,2.1,1.3
				c0.6-0.1,0.9-0.2,1.1-0.2c1,0,2,0.3,2.9,0.8c1,0.6,1.9,1.5,2.7,2.7c1.5,2.4,2.3,5.9,2.3,10c0,9.3-4.1,19.5-9.6,25.1
				c-1.1,1.1-2.3,2-3.4,2.7c-2.6,1.5-5.1,1.7-7.2,0.5c-2.1-1.2-3.7-3.9-4.4-7.5C414.1,273.3,413.4,273.2,412.7,273.1z"/>
		</g>
	</g>
</g>
<g id="Hand_2">
	<g id="Hand_00000169518321616620872850000011498937680656117907_">
		<path class="st16" d="M100.8,216.5c-1.7,0.6-8.5,1.9-8.8-0.9c-0.1-0.8,0.3-1.6,0.8-2.3c2.3-3.9,5.1-7.9,9.3-9.8
			c4.3-1.9,9.6-2.3,14.2-3.2c5.2-0.9,10.5-1.9,15.6-3.5c0.6-0.2,1.2-0.4,1.8-0.2c1.2,0.3,1.6,1.8,1.5,3c-0.2,3.5-2.2,6.7-4.9,9
			c-1.5,1.2-3.1,2.2-4.8,2.9c-2.2,0.9-4.4,1.1-6.7,1.6c-2.5,0.4-4.9,1.2-7.5,1.6C110.3,214.8,100.8,216.1,100.8,216.5z"/>
		<g>
			<g>
				<path class="st17" d="M186.3,182.1c-16.9,14-33.9,28-50.8,42c-20.8-16.8-36.5-35.7-49.1-59.4c16.9-14,33.9-28,50.8-42
					C149.8,146.3,165.5,165.2,186.3,182.1z"/>
				<path class="st10" d="M129.1,173c-7.1,5.9-10.6,8.8-17.7,14.6c-5.7-7.3-8.3-11.2-12.9-19.2c7.1-5.9,10.6-8.8,17.7-14.6
					C120.9,161.8,123.5,165.7,129.1,173z"/>
				<path class="st10" d="M151.8,196.8c-7.1,5.9-10.6,8.8-17.7,14.6c-7-6.1-10.3-9.3-16.4-16.3c7.1-5.9,10.6-8.8,17.7-14.6
					C141.5,187.5,144.8,190.8,151.8,196.8z"/>
				<g>
					<path class="st1" d="M137.3,145.6c-5,4.1-7.5,6.2-12.4,10.3c-0.5,0.4-1.1,0.3-1.4-0.2c0-0.1-0.1-0.1-0.1-0.2
						c-0.3-0.5-0.2-1.2,0.3-1.6c5-4.1,7.5-6.2,12.4-10.3c0.5-0.4,1.1-0.3,1.4,0.2c0,0.1,0.1,0.1,0.1,0.2
						C137.8,144.5,137.7,145.2,137.3,145.6z"/>
					<path class="st1" d="M145.6,146.4c-7,5.8-10.5,8.7-17.4,14.4c-0.5,0.4-1.1,0.3-1.4-0.2c0-0.1-0.1-0.1-0.1-0.2
						c-0.3-0.5-0.2-1.2,0.2-1.6c7-5.8,10.5-8.7,17.4-14.4c0.5-0.4,1.1-0.3,1.4,0.2c0,0.1,0.1,0.1,0.1,0.2
						C146.1,145.3,146,146,145.6,146.4z"/>
					<path class="st1" d="M147.9,149.8c-7,5.8-10.5,8.7-17.4,14.4c-0.5,0.4-1.1,0.3-1.5-0.2c0-0.1-0.1-0.1-0.1-0.2
						c-0.3-0.5-0.3-1.2,0.2-1.6c7-5.8,10.5-8.7,17.4-14.4c0.5-0.4,1.1-0.3,1.5,0.2c0,0.1,0.1,0.1,0.1,0.2
						C148.5,148.7,148.4,149.4,147.9,149.8z"/>
				</g>
				<g>
					<path class="st1" d="M158.2,172.1c-5,4.1-7.5,6.2-12.4,10.3c-0.5,0.4-1.2,0.3-1.6-0.1c-0.1-0.1-0.1-0.1-0.1-0.2
						c-0.4-0.4-0.4-1.1,0.1-1.5c5-4.1,7.5-6.2,12.4-10.3c0.5-0.4,1.2-0.3,1.6,0.1c0.1,0.1,0.1,0.1,0.1,0.2
						C158.7,171.1,158.6,171.7,158.2,172.1z"/>
					<path class="st1" d="M167.4,172.2c-7,5.8-10.5,8.7-17.4,14.4c-0.5,0.4-1.2,0.3-1.6-0.1c-0.1-0.1-0.1-0.1-0.2-0.1
						c-0.4-0.4-0.4-1.1,0.1-1.4c7-5.8,10.5-8.7,17.4-14.4c0.5-0.4,1.2-0.3,1.6,0.1c0.1,0.1,0.1,0.1,0.2,0.1
						C167.9,171.2,167.9,171.8,167.4,172.2z"/>
					<path class="st1" d="M170.4,175c-7,5.8-10.5,8.7-17.4,14.4c-0.5,0.4-1.2,0.4-1.6-0.1c-0.1-0.1-0.1-0.1-0.2-0.1
						c-0.4-0.4-0.4-1,0-1.4c7-5.8,10.5-8.7,17.4-14.4c0.5-0.4,1.2-0.4,1.6,0.1c0.1,0.1,0.1,0.1,0.2,0.1
						C170.9,174,170.9,174.6,170.4,175z"/>
				</g>
				<g>
					<path class="st18" d="M139.2,201.5c-6.1-1.5-9.1-2.2-14.9-3.9c0.6-2.1,0.9-3.2,1.5-5.3c3,0.9,4.5,1.3,7.6,2.2
						c0.5-7.5,0.9-11.3,1.9-19.1c2.3,0.3,3.4,0.5,5.7,0.8C139.9,186.5,139.5,191.6,139.2,201.5z"/>
				</g>
			</g>
		</g>
		<g id="Hand_00000034775269801431660200000002809577342005357488_">
			<g>
				<path class="st19" d="M12.2,277.9c-0.6,14.3,7.7,21.2,18.7,15.5c0.9-0.5,38.5-17,42.1-18.9c5.3-2.8,9.3-1.6,16.3-3.1
					c7-1.5,9.3-5.1,13.4-8.3c2-1.6,3.6-2.3,5.4-3.4c1.8-1.1,3.7-2.5,4.7-2.9c3-1,8.8,1.1,12.9,2c4.1,0.9,9.4,3.8,12.8,3.8
					c4.3,0,6.1-2.9,4.5-4.8c-1.7-2-3.7-3.3-3.7-3.3s1.8-1.7,4.6-4.6c2.8-2.9,1.4-6.5,1.4-6.5s2.1-3.1,3.4-5.2c1.3-2.1,1-6,0-8
					c-1-2-7.4-6.9-7.4-6.9l3,0.8c3.4,4.4,7.3,4.6,9.3,4c2-0.6,1.7-3,0.8-5.7s-1.8-7.3-4.3-8.7c-2.4-1.4-5.4-2.4-10.9-4.4
					c-5.4-2-8.3-2.1-11.1-2.4c-2.8-0.3-14-1.2-22.6-1c-8.6,0.2-8.8,1.5-10.7,3.8c-2.7,3.3-4.9,5-12.5,15.2
					c-4.2,5.5-13.2,8.1-23.7,10.2c-4.7,1-14.1,2.6-22.7,5.5c-0.9,0.3-1.9,0.7-2.8,1.2C22.2,247.4,12.8,263.6,12.2,277.9z
					 M134.3,235.5c-1.3-0.9-2.8-1.5-5.7-2c3.2,0,7.1,0.3,7.1,0.3l4.4,4l-0.4,0.8C139.6,238.7,136,236.6,134.3,235.5z M121.6,245.8
					c2.6,0.5,9.7,1.1,10.5,1.3c0.8,0.2,4.2,2.1,4.2,2.1l-0.6,2.6c0,0-1.2-1-4.4-2.5C129,248.2,126.7,247.2,121.6,245.8z"/>
				<path class="st19" d="M12.2,277.9c-0.6,14.3,7.7,21.2,18.7,15.5c0.9-0.5,37.6-16.9,41.3-18.5c5.8-2.5,10.1-2,17.1-3.5
					c7-1.5,9.3-5.1,13.4-8.3c2-1.6,3.6-2.3,5.4-3.4c1.8-1.1,3.7-2.5,4.7-2.9c3-1,8.8,1.1,12.9,2c4.1,0.9,9.4,3.8,12.8,3.8
					c4.3,0,6.1-2.9,4.5-4.8c-1.7-2-3.7-3.3-3.7-3.3s1.8-1.7,4.6-4.6c2.8-2.9,1.4-6.5,1.4-6.5s2.1-3.1,3.4-5.2c1.3-2.1,1-6,0-8
					c-1-2-7.4-6.9-7.4-6.9l3,0.8c3.4,4.4,7.3,4.6,9.3,4c2-0.6,1.7-3,0.8-5.7s-1.8-7.3-4.3-8.7c-2.4-1.4-5.4-2.4-10.9-4.4
					c-5.4-2-8.3-2.1-11.1-2.4c-2.8-0.3-14-1.2-22.6-1c-8.6,0.2-8.8,1.5-10.7,3.8c-2.7,3.3-4.9,5-12.5,15.2
					c-4.2,5.5-13.2,8.1-23.7,10.2c-4.7,1-14.1,2.6-22.7,5.5c-0.9,0.3-1.9,0.7-2.8,1.2C22.2,247.4,12.8,263.6,12.2,277.9z
					 M134.3,235.5c-1.3-0.9-2.8-1.5-5.7-2c3.2,0,7.1,0.3,7.1,0.3l4.4,4l-0.4,0.8C139.6,238.7,136,236.6,134.3,235.5z M121.6,245.8
					c2.6,0.5,9.7,1.1,10.5,1.3c0.8,0.2,4.2,2.1,4.2,2.1l-0.6,2.6c0,0-1.2-1-4.4-2.5C129,248.2,126.7,247.2,121.6,245.8z"/>
				<path class="st16" d="M74.6,270.8c-1.2-0.1-2.5-0.1-3.6,0.2c-1.5,0.4-2.7,1.2-3.9,2.2c-2.8,2.1-4.6,3.3-8,5.8
					c-2.6,1.9-4.2,3.2-7.4,5.1c9.4-4.2,18.8-8.4,20.6-9.2c4.7-2,8.4-2.1,13.3-2.8C82.3,271.8,77.9,271,74.6,270.8z"/>
			</g>
			<g>
				<path class="st16" d="M112.7,216.7c1.2,0.3,2.6,0.3,3.8,0.3c3.8,0,7.7-0.1,11.5-0.3c1.3-0.1,2.5,0,3.7,0.4
					c3.5,1.4,9.6,6.1,9.6,6.1l3,0.8c2.6,3.4,5.5,4.3,7.6,4.2c-1.1-0.6-1.9-1.6-2.6-3c-1.1-2.3,0.6-3.8,0.8-4c0.2-0.2-2.4,1.2-5,0.8
					c-2-0.3-5.5-1.3-7.9-2.4c-1.6-1.3-3.3-2.4-5.3-3.2c-1.2-0.5-2.6-0.6-3.9-0.5c-3.8,0.1-7.7,0.4-11.5,0.6
					C115.3,216.7,114,216.8,112.7,216.7z M139.6,238.7c0,0,5,3,5.7,4.7c-0.4-2.7-2.4-3.8-3.6-5.7c-0.3-0.5-3.6-4.1-5.5-5.4
					c-1.9-1.3-4.8-0.6-8.8-0.5c-4,0.1-7.8-1.2-10.7-2.4c1.9,2.1,8.6,3.5,11.8,4.2c2.3,0,4.6,0.1,7.1,0.3l4.4,4L139.6,238.7z
					 M122.3,244.8c-3.3-0.5-3.7-1.3-6.7-4.1c0.6,2.7,4.2,4.8,6,5.1c2.6,0.5,9.7,1.1,10.5,1.3c0.8,0.2,4.2,2.1,4.2,2.1
					c-0.5,1.1-0.7,2-0.6,2.6l3.6,2.7c0,0,1.7-1.6,4.3-4.3c0,0,0,0,0,0c0,0-3.3,1.9-4.9,1.1c-1.6-0.8-0.5-2.3-1.9-3
					c-1.3-0.8-4.5-2.2-5.7-2.5C130,245.5,125.6,245.4,122.3,244.8z"/>
				<g>
					<path class="st16" d="M134.7,223.7c0.3,1.5,0.4,3.2,0.3,4.8c0,0,0,0,0,0c0.3-1.7,0.5-3.4,0.1-5c-0.4-1.4-1-2.7-2.1-3.6
						c-0.1-0.1-0.1,0.1-0.1,0.2C133.8,221.1,134.4,222.4,134.7,223.7z M132.6,222.1c0.2,0.5,0.4,1,0.6,1.4c0.1,0.2,0.2,0.5,0.4,0.7
						c0.1,0.2,0.3,0.4,0.5,0.6c0.1,0.1,0.1-0.1,0.1-0.1c-0.1-0.2-0.2-0.5-0.3-0.7c-0.1-0.2-0.3-0.4-0.4-0.6
						c-0.2-0.5-0.5-0.9-0.7-1.4C132.8,221.8,132.6,222,132.6,222.1z M135.3,221.7c0.4,0.5,0.5,1.1,0.5,1.7c0.1,0.7,0.1,1.4,0.1,2.1
						c0,0.1,0.1,0.1,0.1,0c0.1-0.4,0.1-0.9,0.1-1.3c0-0.4,0-0.8,0-1.1c-0.1-0.6-0.2-1.2-0.7-1.6
						C135.4,221.3,135.2,221.6,135.3,221.7z"/>
					<path class="st16" d="M133.4,241.3c0,0.1,0,0.2,0.1,0.1c0.4-0.4,0.6-0.9,0.7-1.4c0.1-0.5,0.1-0.9,0-1.4c0-0.1-0.2,0-0.2,0.1
						c0,0.5,0,0.9-0.1,1.4C133.8,240.5,133.6,240.9,133.4,241.3z M130.6,240.7c0,0.1,0.1,0.1,0.2,0c0.1-0.2,0.1-0.4,0.1-0.6
						c0-0.2,0.1-0.4,0.1-0.6c0.1-0.4,0.2-0.7,0.3-1.1c0-0.1,0-0.1,0-0.2c-0.1,0-0.1,0.1-0.1,0.1c-0.1,0.4-0.3,0.8-0.4,1.1
						c0,0.2-0.1,0.4-0.1,0.6C130.6,240.3,130.6,240.5,130.6,240.7z M132.1,241.4c0,0.5-0.1,1,0,1.5c0,0.1,0.1,0.1,0.1,0
						c0.2-0.9,0.2-1.9,0.4-2.9c0.1-0.5,0.2-1,0.3-1.4c0.1-0.5,0.3-0.9,0.3-1.4c0-0.2-0.2-0.1-0.2,0c-0.2,0.4-0.3,0.9-0.4,1.3
						c-0.1,0.5-0.2,1-0.3,1.4C132.2,240.5,132.1,241,132.1,241.4z"/>
					<path class="st16" d="M128.8,254.6c-0.1,0.4-0.1,0.8-0.1,1.2c0,0.1,0.1,0.1,0.2,0c0.3-0.7,0.4-1.6,0.6-2.4
						c0.1-0.3,0.1-0.7,0.2-1c0.1-0.3,0.2-0.7,0.3-1c0-0.1,0-0.3-0.2-0.1c-0.5,0.6-0.6,1.4-0.8,2.1
						C129,253.8,128.9,254.2,128.8,254.6z M130.1,254.6c0,0,0,0.2,0,0.1c0.2-0.1,0.4-0.4,0.6-0.6c0.2-0.2,0.3-0.5,0.3-0.8
						c0,0,0-0.1,0-0.1c0,0-0.1,0-0.1,0.1c-0.1,0.2-0.2,0.4-0.3,0.7c-0.1,0.1-0.2,0.2-0.2,0.3C130.3,254.4,130.2,254.5,130.1,254.6z
						 M127.7,253.9c0,0.1,0,0.2,0,0.4c0,0.1,0,0.2,0.1,0.3c0.1,0.1,0.1,0,0.2-0.1c0.1-0.1,0.1-0.2,0.1-0.3c0-0.1,0.1-0.2,0.1-0.4
						c0-0.2,0-0.4,0.1-0.6c0.1-0.4,0.1-0.9,0.3-1.3c0-0.1,0-0.2-0.1-0.2c-0.1,0-0.2,0.1-0.2,0.2c-0.2,0.4-0.3,0.9-0.4,1.3
						C127.7,253.4,127.7,253.7,127.7,253.9z"/>
					<path class="st16" d="M131.9,209c0.7,1.9,1.1,3.9,1.2,5.9c0,0.1,0.1,0.1,0.1,0c0.3-2.1,0-4.3-1-6.1
						C132.1,208.6,131.8,208.9,131.9,209z M133.9,210.6c0,0-0.1,0.1,0,0.2c0,0.2,0.1,0.3,0.2,0.5c0,0.2,0.1,0.3,0.1,0.5
						c0,0.2,0.1,0.3,0.1,0.5c0,0.2,0,0.3,0.1,0.5c0,0.1,0.1,0,0.1-0.1c0.1-0.3,0-0.7-0.1-1c-0.1-0.3-0.2-0.7-0.3-1
						C134,210.5,134,210.5,133.9,210.6z M130.8,211.1c0,0.4,0.1,0.8,0.2,1.2c0.1,0.2,0.1,0.4,0.3,0.5c0.1,0.1,0.1,0.2,0.2,0.3
						c0.1,0.1,0.1,0.1,0.2,0.2c0.1,0.1,0.1-0.1,0.1-0.2c0-0.1-0.1-0.2-0.1-0.3c0-0.1-0.1-0.2-0.1-0.3c0-0.1-0.1-0.2-0.1-0.3
						c0-0.1-0.1-0.2-0.1-0.3c-0.1-0.4-0.2-0.7-0.2-1.1c0-0.1-0.1-0.1-0.2-0.1C130.8,211,130.8,211.1,130.8,211.1z"/>
				</g>
				<path class="st16" d="M93.8,223.8c1.1-1,2.1-2,3.1-3.1c0.8-0.8,1.6-1.9,2.6-2.5c1-0.7,2.3-0.8,3.5-0.9c0.6,0,1.1,0,1.7-0.1
					c0.4,0,0.7,0,1.1-0.1c-0.1-0.1-0.2-0.2-0.4-0.2c-1.1-0.2-2.2-0.5-3.4-0.4c-1,0.1-1.9,0.3-2.8,0.7c-1.2,0.6-2.1,1.6-2.9,2.7
					c-0.9,1.2-1.9,2.3-2.7,3.5C93.3,223.6,93.4,224,93.8,223.8z M101,228.5c-0.3,0.3-0.5,0.6-0.7,1c-0.1,0.2-0.4,0.9,0.2,0.7
					c0.6-0.2,1.1-0.8,1.6-1.1c1.6-1,3.7-0.9,5.5-1.3c0.1-0.2-0.2-0.3-0.4-0.4c-1.4-0.2-2.8-0.4-4.1-0.1c-0.6,0.2-1.2,0.4-1.7,0.8
					C101.2,228.3,101.1,228.4,101,228.5z M103.3,242.7c0.1,0.2,0.4,0.1,0.5,0c0.3-0.1,0.6-0.3,0.9-0.5c1.1-0.5,2.5-0.5,3.7-0.7
					c0,0,0.1,0,0.1,0c0.1-0.1-0.1-0.2-0.2-0.3c-0.9-0.3-1.8-0.5-2.8-0.3c-0.2,0-1,0.3-1.6,0.7C103.4,242,103,242.4,103.3,242.7z"/>
			</g>
			<g id="Nail_00000013885620102128277750000002440867600420484512_">
				<path class="st19" d="M154,221.1c-1.7,0.9-2.1,2.9-1.9,4c0.2,0.9,0.5,1.5,0.9,2.1c1,1.6,2.5,0.4,2.3-1.6
					C154.9,223.7,154.6,223.2,154,221.1z"/>
				<path class="st20" d="M154,221.1c-1.7,0.9-2.1,2.9-1.9,4c0.2,0.9,0.5,1.5,0.9,2.1c1,1.6,2.5,0.4,2.3-1.6
					C154.9,223.7,154.6,223.2,154,221.1z"/>
				<path class="st16" d="M152.1,224.3c0.7-0.5,1.5-1.4,2.1-2.6c-0.1-0.2-0.1-0.4-0.2-0.6C152.7,221.8,152.2,223.2,152.1,224.3z"/>
			</g>
			<g id="Nail_00000157285804671108111890000005019061892991307189_">
				<path class="st19" d="M140.1,255c0.6,1.6,0.2,2.6-0.2,3.6c0.7,0.8,1.6,1.7,2.4,1.9c1.2,0.3,2.2-1.6,0.5-3.1
					C141,255.6,140.1,255,140.1,255z"/>
				<path class="st20" d="M140.1,255c0.6,1.6,0.2,2.6-0.2,3.6c0.7,0.8,1.6,1.7,2.4,1.9c1.2,0.3,2.2-1.6,0.5-3.1
					C141,255.6,140.1,255,140.1,255z"/>
				<path class="st16" d="M140.1,255c1.1,0.7,2.2,2.8-0.2,3.6C140.3,257.6,140.7,256.6,140.1,255z"/>
			</g>
		</g>
	</g>
</g>
<g id="Hand_1">
	<g id="Hand_00000079445663924828286110000006326482553531104695_">
		<g>
			<path id="XMLID_1373_" class="st21" d="M202.3,54.4l5.9-10.2l-22-12.7c0,0,0,0,0,0l0,0l0,0c-3.7-2.1-8.8-1.8-14.4,1.4
				c-11.2,6.5-20.3,22.3-20.3,35.2c0,6.5,2.3,11.1,6,13.2l0,0l22.1,12.8l6-10.5C194.2,76.9,201,65.1,202.3,54.4z"/>
			<path id="XMLID_1371_" class="st22" d="M193.9,45.6c-11.2,6.5-20.3,22.3-20.3,35.2c0,13,9.1,18.2,20.3,11.7
				c11.2-6.5,20.3-22.3,20.3-35.2C214.3,44.4,205.2,39.1,193.9,45.6z"/>
			<path id="XMLID_1377_" class="st0" d="M214.6,60.9l5.5-9.7l-11-6.3c0,0,0,0,0,0l0,0l0,0c-3.5-2-8.3-1.7-13.6,1.4
				c-10.6,6.1-19.3,21.1-19.3,33.4c0,6.2,2.2,10.5,5.7,12.5l0,0l11.1,6.4l5.7-10C206.9,82.3,213.3,71.1,214.6,60.9z"/>
			<path id="XMLID_2141_" class="st23" d="M176.9,73.7c-0.4,2-0.6,4-0.6,6c0,6.2,2.2,10.5,5.7,12.5l0,0l11.1,6.4l5.7-10
				c0.6-0.4,1.1-0.9,1.6-1.3L176.9,73.7z"/>
			<path id="XMLID_1367_" class="st1" d="M206.6,52.7c-10.6,6.1-19.3,21.1-19.3,33.4c0,12.3,8.6,17.3,19.3,11.1
				c10.6-6.1,19.3-21.1,19.3-33.4C225.9,51.5,217.3,46.5,206.6,52.7z"/>
		</g>
		<g id="Hand_00000127008001840590609530000014193394110455941535_">
			<g id="Hand_00000115516478526016082220000017490373581112611999_">
				<g>
					<path class="st24" d="M278.2,109.8c1.7,4.8,0.1,6.9-1.6,8.6l-10.1,8c0,0-17.1-7.6-22.4-8.1c-2.3-0.2-7.2-0.8-7.1,2.7
						c0,1,0.5,1.9,0.9,2.7l-16.4,6.9c-4.2-4.6-5.2-5.7-8.8-9.9c-4.7-5.3-4.9-7.9-6.6-13.9c-1-3.5-2.1-6.1-3.2-8
						c-1.7-2.8-3.8-4.4-6.4-6.1c-2.6-1.6-5.6-3.5-9.1-5.5c0-0.4,0-0.8,0-1.3c0-12.3,8.6-27.3,19.3-33.4c1.9-1.1,3.7-1.8,5.5-2.3
						c4.8,3.6,22.9,16.7,29.6,20.7c4.6,2.7,15.8,8.2,20.3,9.9c5.5,1.9,7.6,2,10,7.7c2.4,5.7,4.7,9.6,6.7,13.1
						C280.6,105.3,279.3,108.5,278.2,109.8z"/>
					<path class="st25" d="M266.1,88.4c-0.4-0.6-1-1-1.6-1.4c-0.3-0.2-0.6-0.4-1-0.7c-0.4-0.2-0.8-0.5-1.2-0.7c-0.1,0-0.1,0.1,0,0.1
						c1.1,1.1,2.6,1.7,3.5,3.1c0.4,0.5,0.7,1.2,0.9,1.8c0.4,0.8,0.7,1.5,1.1,2.3c0,0.1,0.1,0,0.1,0
						C267.5,91.2,267.1,89.7,266.1,88.4z"/>
					<path class="st25" d="M278.2,109.8c0.2-0.3,0.5-0.7,0.7-1.1c-1.2-2.4-3.9-6.7-6.1-12.1C274.3,100.8,275.6,103,278.2,109.8z"/>
					<path class="st25" d="M269.8,88.3c-0.1-0.3-0.1-0.7-0.3-1c-0.2-0.6-0.5-1.1-0.9-1.6c-0.5-0.5-1.1-0.9-1.7-1.2
						c-0.7-0.3-1.4-0.7-2.1-0.8c0,0,0,0,0,0c0.6,0.4,1.3,0.7,1.9,1c0.6,0.3,1.2,0.7,1.6,1.2c0.8,0.9,1.1,2.1,1.6,3.2
						c0,0.1,0.1,0,0.1,0C269.9,88.8,269.8,88.5,269.8,88.3z"/>
					<path class="st25" d="M277.9,116.9c-0.2-2.5-1.5-4.1-2.9-7.3c-1.7-3.9-5.5-11.5-6.8-15.9c0.4,4,3.1,17.6,5,27.4l3.4-2.7
						C277,118,277.5,117.4,277.9,116.9z"/>
					<path class="st25" d="M237.6,123.2c-0.2-0.5-0.5-1-0.7-1.5c-0.2-0.5-0.5-1-0.7-1.5c-0.4-0.9-0.7-1.9-1-2.8c-0.3-1-0.4-2-0.5-3
						c0-0.5,0-1,0-1.5c0-0.3,0.1-0.5,0.1-0.8c0-0.2,0.1-0.4,0.1-0.6c0-0.2,0-0.3,0-0.5c0-0.1-0.2-0.3-0.2-0.2
						c-0.1,0.2-0.2,0.4-0.3,0.7c-0.1,0.2-0.1,0.4-0.1,0.7c-0.1,0.4-0.1,0.9-0.1,1.3c0,0.8,0,1.7,0.2,2.5c0.3,1.6,0.8,3.2,1.6,4.6
						c0.2,0.4,0.5,0.8,0.7,1.2C236.9,122.4,237.2,122.9,237.6,123.2C237.6,123.3,237.6,123.3,237.6,123.2z"/>
					<path class="st25" d="M268.9,120.1l-10.3-19.5c0,0-10.6,3-15.6,5.8c-5,2.8-7.4,12.4-5.4,16.9l0.2,0c-0.4-0.7-0.7-1.5-0.7-2.3
						c-0.1-3.5,4.8-3,7.1-2.7c5.3,0.6,22.4,8.1,22.4,8.1l2.5-2L268.9,120.1z"/>
				</g>
				<g>
					<g>
						<path class="st24" d="M260.8,84.9c6,2.6,6.7,5.9,7.8,10.2c1.1,4.3,5.1,13.3,6.7,17.4c1.6,4.1,1.9,5.1,0.4,10.7
							c-1.6,5.6-6.1,16.4-6.1,16.4S256,97,255.1,92.6C254.2,88.3,254.8,83.3,260.8,84.9z"/>
						<path class="st25" d="M274.2,120.4C274.2,120.4,274.2,120.4,274.2,120.4c0.2,0.1,0.5,0,0.7,0c0.2,0,0.5-0.1,0.7-0.1
							c0.2,0,0.5-0.1,0.7-0.1c0-0.2,0.1-0.3,0.1-0.5c-0.6,0.1-1.2,0.2-1.8,0.4C274.5,120.2,274.3,120.2,274.2,120.4z M274.2,117.5
							c0.6-0.2,1.2-0.4,1.8-0.5c0.2,0,0.3,0,0.5,0c0-0.2,0-0.3-0.1-0.5c-0.2,0-0.4,0-0.5,0.1c-0.7,0.1-1.4,0.3-1.9,0.6
							C273.8,117.3,274,117.5,274.2,117.5z M276.2,118.1c-0.4,0-0.8,0.1-1.1,0.1c-0.8,0.1-1.6,0.3-2.2,0.8c-0.2,0.1,0.1,0.3,0.2,0.3
							c0.7-0.2,1.3-0.5,2-0.6c0.3-0.1,0.7-0.1,1-0.1c0.2,0,0.4,0,0.5,0c0-0.1,0-0.3,0-0.4C276.5,118.1,276.3,118.1,276.2,118.1z"/>
						<path class="st25" d="M270.3,111.6c-1.7-3.3-4.9-10.3-6.4-14.8l-5.4-1.7l-1.8,3.4c3.8,12.9,12.7,41.1,12.7,41.1
							s0.7-1.6,1.6-3.9c0,0,1.2-10,1.7-14.4C273.3,116.8,272,114.8,270.3,111.6z"/>
					</g>
					<g>
						<path class="st24" d="M250.9,136.1c-0.3-0.2-0.7-0.5-1-0.7c-4.5-3.3-9.2-6.7-11.9-11.6l-16.4,6.9c4.2,4.6,6.3,6.3,8.9,8.7
							c2.7,2.4,10.7,5.7,16,8.4c5.2,2.6,7.5,4,8.8,3.2C256.8,150.1,258.7,141.4,250.9,136.1z"/>
						<g>
							<path class="st25" d="M231.9,140.4c0.1-0.2,0.1-0.4,0.2-0.6c0.1-0.4,0.3-0.8,0.5-1.1c0.2-0.4,0.5-0.7,0.6-1.1
								c0-0.1-0.1-0.3-0.2-0.2c-0.4,0.3-0.6,0.7-0.8,1.1c-0.2,0.4-0.4,0.9-0.6,1.3c0,0.1-0.1,0.2-0.1,0.3
								C231.6,140.2,231.8,140.3,231.9,140.4z"/>
							<path class="st25" d="M233.7,141.3c0.2-0.6,0.4-1.3,0.7-1.9c0.3-0.5,0.6-1,0.9-1.4c0.3-0.3,0.5-0.6,0.8-0.8
								c0.2-0.2,0.5-0.4,0.7-0.6c0.1-0.1,0-0.2-0.1-0.2c-0.6,0.2-1.2,0.6-1.7,1.1c-0.5,0.5-0.9,1-1.2,1.6c-0.4,0.6-0.6,1.4-0.8,2.1
								c0,0,0,0,0,0c0.2,0.1,0.4,0.2,0.6,0.3C233.6,141.4,233.7,141.3,233.7,141.3z"/>
							<path class="st25" d="M235.5,141.1c0.2-0.5,0.4-1,0.6-1.4c0.1-0.2,0.2-0.4,0.4-0.6c0.1-0.2,0.3-0.4,0.4-0.6
								c0-0.1-0.1-0.2-0.2-0.2c-0.4,0.2-0.8,0.8-1,1.2c-0.3,0.4-0.5,0.9-0.7,1.4c-0.1,0.3-0.2,0.6-0.3,0.9c0.2,0.1,0.4,0.2,0.6,0.3
								C235.2,141.9,235.3,141.5,235.5,141.1z"/>
						</g>
						<path class="st26" d="M244.3,146.6c0.5-2.9,2.3-4.3,2.3-4.3s3.8,1.6,5.4,3c1.6,1.5,2.8,4.6,1.8,5.7
							C251.5,151,248.3,148.8,244.3,146.6z"/>
						<path class="st4" d="M244.3,146.6c0.5,0.3,0.9,0.5,1.4,0.8c0.4-1.4,0.9-3.4,0.9-5C246.5,142.3,244.8,143.7,244.3,146.6z"/>
					</g>
					<g>
						<path class="st24" d="M251.2,109.6c2.6,4.3,6.7,12.1,6.7,13.1c0.3,5.7-0.1,11.6-0.1,17.8s-0.1,10.6,2.6,14.7
							c2.4,3.7,6.9,4.7,7.6,0.7c0.6-3.4,0.9-10.4,1.4-16.2c0.5-5.8,1.8-14.1,2.1-18.7c0.3-4.7-2.7-9.2-4.8-15.3
							c-1.8-5.2-3.3-11.8-6.1-14.7c-2.8-2.8-13.4-8.1-17.3-10.1L251.2,109.6z"/>
						<g>
							<g>
								<path class="st25" d="M271.3,121.3c-0.3,0-0.7,0-1,0c-0.7,0-1.4-0.2-2.1-0.4c-0.2,0-0.1,0.2,0,0.3c0.6,0.3,1.4,0.5,2.2,0.5
									c0.4,0,0.7,0,1.1,0c0,0,0,0,0,0c0-0.1,0-0.3,0-0.4C271.5,121.3,271.4,121.3,271.3,121.3z"/>
								<path class="st25" d="M267.4,117.1c-0.1,0.1,0,0.3,0.1,0.2c0.8-0.2,1.6-0.3,2.5-0.1c0.4,0.1,0.7,0.2,1.1,0.3
									c0.1,0,0.2,0.1,0.3,0.1c0-0.2-0.1-0.4-0.1-0.6c-0.4-0.1-0.8-0.3-1.1-0.3C269.2,116.6,268.2,116.7,267.4,117.1z"/>
								<path class="st25" d="M269,118.6c-0.7,0-1.3,0-2,0.2c-0.5,0.1-1.3,0.3-1.7,0.7c0,0,0,0.1,0,0.1c0.3,0,0.6-0.1,0.9-0.2
									c0.3-0.1,0.6-0.1,0.9-0.2c0.6-0.1,1.2-0.1,1.8-0.1c0.6,0,1.2,0.1,1.7,0.3c0.3,0.1,0.7,0.2,1,0.4c0-0.2,0-0.4,0-0.7
									c-0.2-0.1-0.5-0.2-0.7-0.2C270.3,118.7,269.6,118.6,269,118.6z"/>
							</g>
							<g>
								<path class="st25" d="M269.1,142.9c-0.2-0.1-0.5-0.1-0.7-0.2c-0.5-0.1-1-0.2-1.4-0.3c-0.1,0-0.2,0-0.2,0.2
									c0,0.1,0.1,0.2,0.2,0.2c0.4,0.1,0.9,0.2,1.3,0.3c0.2,0.1,0.4,0.1,0.6,0.2c0.1,0,0.2,0,0.2,0.1
									C269.2,143.2,269.2,143.1,269.1,142.9C269.2,143,269.2,143,269.1,142.9z"/>
								<path class="st25" d="M267.7,141.4c0.5,0.1,1,0.3,1.4,0.5c0.1,0,0.1,0,0.2,0.1c0-0.2,0-0.3,0-0.5c0,0,0,0-0.1,0
									c-0.5-0.2-1-0.4-1.5-0.5c-0.5-0.1-1-0.2-1.6-0.3c-0.5-0.1-1.2-0.1-1.7,0c-0.1,0-0.1,0.2,0,0.2c0.5,0.1,1.1,0.1,1.7,0.2
									C266.7,141.1,267.2,141.2,267.7,141.4z"/>
								<path class="st25" d="M266.9,140c0.7,0.2,1.4,0.3,2,0.6c0.2,0.1,0.3,0.1,0.5,0.2c0-0.1,0-0.3,0-0.4c-0.1,0-0.2-0.1-0.3-0.1
									c-0.7-0.2-1.5-0.4-2.2-0.5C266.7,139.7,266.8,140,266.9,140z"/>
							</g>
						</g>
						<path class="st26" d="M268.9,147.7c-2.5-2.4-5.2-1.6-5.2-1.6s-0.5,3.3-0.4,6.2c0.2,2.9,2.1,4.4,3.6,4.6
							C268.4,157.2,268.6,154.3,268.9,147.7z"/>
						<path class="st4" d="M268.8,148.7c0-0.3,0-0.7,0-1.1c-2.5-2.4-5.2-1.6-5.2-1.6C264.2,147,267,148.6,268.8,148.7z"/>
						<path class="st25" d="M262.2,91.8c-1.2-1.6-2.9-2.5-4.7-3.4c-1-0.5-1.9-1-2.8-1.6c-0.1,0-0.1,0.1,0,0.1c1.4,1.2,3,2.1,4.5,3.1
							c0.7,0.5,1.4,1,2,1.7c0.7,0.8,1.2,1.7,1.6,2.7c0.5,1,0.8,2.1,1.3,3.2c0,0.1,0.1,0,0.1,0C263.9,95.5,263.4,93.4,262.2,91.8z"/>
					</g>
				</g>
			</g>
			<g>
				<g>
					<path class="st27" d="M293.4,204.9c-20.2,9.1-40.5,18.2-60.7,27.3c-12.1-26.2-20.5-52.7-26-81c20.2-9.1,40.5-18.2,60.7-27.3
						C272.8,152.2,281.2,178.7,293.4,204.9z"/>
					<path class="st10" d="M244.9,174.5c-8.5,3.8-12.7,5.7-21.1,9.5c-2.9-9.8-4.2-14.7-6.4-24.8c8.5-3.8,12.7-5.7,21.1-9.5
						C240.6,159.8,241.9,164.8,244.9,174.5z"/>
					<path class="st10" d="M257.3,208.3c-8.5,3.8-12.7,5.7-21.1,9.5c-4-9.2-5.9-13.9-9.2-23.6c8.5-3.8,12.7-5.7,21.1-9.5
						C251.4,194.4,253.3,199.1,257.3,208.3z"/>
					<g>
						<path class="st1" d="M260.9,148.1c-5.9,2.7-8.9,4-14.8,6.7c-0.6,0.3-1.2-0.1-1.3-0.7c0-0.1,0-0.1,0-0.1
							c-0.2-0.7,0.2-1.4,0.7-1.7c5.9-2.7,8.9-4,14.8-6.7c0.6-0.3,1.1,0.1,1.3,0.8c0,0.1,0,0.1,0,0.1
							C261.8,147.1,261.5,147.9,260.9,148.1z"/>
						<path class="st1" d="M268.5,151.9c-8.3,3.7-12.5,5.6-20.8,9.3c-0.6,0.3-1.2-0.1-1.3-0.7c0-0.1,0-0.1,0-0.1
							c-0.2-0.7,0.2-1.4,0.7-1.7c8.3-3.7,12.5-5.6,20.8-9.3c0.6-0.3,1.2,0.1,1.3,0.7c0,0.1,0,0.1,0,0.1
							C269.4,150.9,269.1,151.6,268.5,151.9z"/>
						<path class="st1" d="M269.7,156.3c-8.3,3.7-12.5,5.6-20.8,9.3c-0.6,0.3-1.2-0.1-1.4-0.7c0-0.1,0-0.1,0-0.1
							c-0.2-0.7,0.1-1.4,0.7-1.7c8.3-3.7,12.5-5.6,20.8-9.3c0.6-0.3,1.2,0.1,1.3,0.7c0,0.1,0,0.1,0,0.1
							C270.6,155.3,270.3,156,269.7,156.3z"/>
					</g>
					<g>
						<path class="st1" d="M271.8,183.8c-5.9,2.7-8.9,4-14.8,6.7c-0.6,0.3-1.2-0.1-1.5-0.7c0-0.1,0-0.1,0-0.1
							c-0.2-0.6,0-1.4,0.6-1.6c5.9-2.7,8.9-4,14.8-6.7c0.6-0.3,1.2,0.1,1.4,0.7c0,0.1,0,0.1,0,0.1
							C272.6,182.8,272.4,183.5,271.8,183.8z"/>
						<path class="st1" d="M280.1,187.2c-8.3,3.7-12.5,5.6-20.8,9.3c-0.6,0.3-1.2,0-1.5-0.7c0-0.1,0-0.1-0.1-0.1
							c-0.2-0.6,0-1.3,0.6-1.6c8.3-3.7,12.5-5.6,20.8-9.3c0.6-0.3,1.2,0.1,1.5,0.7c0,0.1,0,0.1,0.1,0.1
							C281,186.2,280.7,186.9,280.1,187.2z"/>
						<path class="st1" d="M281.8,191.3c-8.3,3.7-12.5,5.6-20.8,9.3c-0.6,0.3-1.2,0-1.5-0.7c0-0.1,0-0.1-0.1-0.1
							c-0.3-0.6,0-1.3,0.6-1.6c8.3-3.7,12.5-5.6,20.8-9.3c0.6-0.3,1.2,0,1.5,0.7c0,0.1,0,0.1,0.1,0.1
							C282.6,190.3,282.4,191,281.8,191.3z"/>
					</g>
					<g>
						<path class="st28" d="M235.9,175.3c-4.9-3-7.3-4.6-12-7.7c1.2-2.4,1.8-3.5,2.9-5.9c2.4,1.6,3.7,2.4,6.2,4.1
							c2.7-8.7,4.2-13,7.2-21.8c2,0.8,3,1.2,5,2C241.9,155.7,238.7,165.5,235.9,175.3z"/>
					</g>
				</g>
			</g>
			<g id="Fingers">
				<g>
					<path class="st24" d="M260.8,84.9c6,2.6,6.7,5.9,7.8,10.2c1.1,4.3,5.1,13.3,6.7,17.4c1.6,4.1,1.9,5.1,0.4,10.7
						c-1.6,5.6-6.1,16.4-6.1,16.4S256,97,255.1,92.6C254.2,88.3,254.8,83.3,260.8,84.9z"/>
					<path class="st25" d="M274.2,120.4C274.2,120.4,274.2,120.4,274.2,120.4c0.2,0.1,0.5,0,0.7,0c0.2,0,0.5-0.1,0.7-0.1
						c0.2,0,0.5-0.1,0.7-0.1c0-0.2,0.1-0.3,0.1-0.5c-0.6,0.1-1.2,0.2-1.8,0.4C274.5,120.2,274.3,120.2,274.2,120.4z M274.2,117.5
						c0.6-0.2,1.2-0.4,1.8-0.5c0.2,0,0.3,0,0.5,0c0-0.2,0-0.3-0.1-0.5c-0.2,0-0.4,0-0.5,0.1c-0.7,0.1-1.4,0.3-1.9,0.6
						C273.8,117.3,274,117.5,274.2,117.5z M276.2,118.1c-0.4,0-0.8,0.1-1.1,0.1c-0.8,0.1-1.6,0.3-2.2,0.8c-0.2,0.1,0.1,0.3,0.2,0.3
						c0.7-0.2,1.3-0.5,2-0.6c0.3-0.1,0.7-0.1,1-0.1c0.2,0,0.4,0,0.5,0c0-0.1,0-0.3,0-0.4C276.5,118.1,276.3,118.1,276.2,118.1z"/>
					<path class="st25" d="M270.3,111.6c-1.7-3.3-4.9-10.3-6.4-14.8l-5.4-1.7l-1.8,3.4c3.8,12.9,12.7,41.1,12.7,41.1
						s0.7-1.6,1.6-3.9c0,0,1.2-10,1.7-14.4C273.3,116.8,272,114.8,270.3,111.6z"/>
				</g>
				<g>
					<path class="st24" d="M251.2,109.6c2.6,4.3,6.7,12.1,6.7,13.1c0.3,5.7-0.1,11.6-0.1,17.8s-0.1,10.6,2.6,14.7
						c2.4,3.7,6.9,4.7,7.6,0.7c0.6-3.4,0.9-10.4,1.4-16.2c0.5-5.8,1.8-14.1,2.1-18.7c0.3-4.7-2.7-9.2-4.8-15.3
						c-1.8-5.2-3.3-11.8-6.1-14.7c-2.8-2.8-13.4-8.1-17.3-10.1L251.2,109.6z"/>
					<g>
						<g>
							<path class="st25" d="M271.3,121.3c-0.3,0-0.7,0-1,0c-0.7,0-1.4-0.2-2.1-0.4c-0.2,0-0.1,0.2,0,0.3c0.6,0.3,1.4,0.5,2.2,0.5
								c0.4,0,0.7,0,1.1,0c0,0,0,0,0,0c0-0.1,0-0.3,0-0.4C271.5,121.3,271.4,121.3,271.3,121.3z"/>
							<path class="st25" d="M267.4,117.1c-0.1,0.1,0,0.3,0.1,0.2c0.8-0.2,1.6-0.3,2.5-0.1c0.4,0.1,0.7,0.2,1.1,0.3
								c0.1,0,0.2,0.1,0.3,0.1c0-0.2-0.1-0.4-0.1-0.6c-0.4-0.1-0.8-0.3-1.1-0.3C269.2,116.6,268.2,116.7,267.4,117.1z"/>
							<path class="st25" d="M269,118.6c-0.7,0-1.3,0-2,0.2c-0.5,0.1-1.3,0.3-1.7,0.7c0,0,0,0.1,0,0.1c0.3,0,0.6-0.1,0.9-0.2
								c0.3-0.1,0.6-0.1,0.9-0.2c0.6-0.1,1.2-0.1,1.8-0.1c0.6,0,1.2,0.1,1.7,0.3c0.3,0.1,0.7,0.2,1,0.4c0-0.2,0-0.4,0-0.7
								c-0.2-0.1-0.5-0.2-0.7-0.2C270.3,118.7,269.6,118.6,269,118.6z"/>
						</g>
						<g>
							<path class="st25" d="M269.1,142.9c-0.2-0.1-0.5-0.1-0.7-0.2c-0.5-0.1-1-0.2-1.4-0.3c-0.1,0-0.2,0-0.2,0.2
								c0,0.1,0.1,0.2,0.2,0.2c0.4,0.1,0.9,0.2,1.3,0.3c0.2,0.1,0.4,0.1,0.6,0.2c0.1,0,0.2,0,0.2,0.1
								C269.2,143.2,269.2,143.1,269.1,142.9C269.2,143,269.2,143,269.1,142.9z"/>
							<path class="st25" d="M267.7,141.4c0.5,0.1,1,0.3,1.4,0.5c0.1,0,0.1,0,0.2,0.1c0-0.2,0-0.3,0-0.5c0,0,0,0-0.1,0
								c-0.5-0.2-1-0.4-1.5-0.5c-0.5-0.1-1-0.2-1.6-0.3c-0.5-0.1-1.2-0.1-1.7,0c-0.1,0-0.1,0.2,0,0.2c0.5,0.1,1.1,0.1,1.7,0.2
								C266.7,141.1,267.2,141.2,267.7,141.4z"/>
							<path class="st25" d="M266.9,140c0.7,0.2,1.4,0.3,2,0.6c0.2,0.1,0.3,0.1,0.5,0.2c0-0.1,0-0.3,0-0.4c-0.1,0-0.2-0.1-0.3-0.1
								c-0.7-0.2-1.5-0.4-2.2-0.5C266.7,139.7,266.8,140,266.9,140z"/>
						</g>
					</g>
					<path class="st26" d="M268.9,147.7c-2.5-2.4-5.2-1.6-5.2-1.6s-0.5,3.3-0.4,6.2c0.2,2.9,2.1,4.4,3.6,4.6
						C268.4,157.2,268.6,154.3,268.9,147.7z"/>
					<path class="st4" d="M268.8,148.7c0-0.3,0-0.7,0-1.1c-2.5-2.4-5.2-1.6-5.2-1.6C264.2,147,267,148.6,268.8,148.7z"/>
					<path class="st25" d="M262.2,91.8c-1.2-1.6-2.9-2.5-4.7-3.4c-1-0.5-1.9-1-2.8-1.6c-0.1,0-0.1,0.1,0,0.1c1.4,1.2,3,2.1,4.5,3.1
						c0.7,0.5,1.4,1,2,1.7c0.7,0.8,1.2,1.7,1.6,2.7c0.5,1,0.8,2.1,1.3,3.2c0,0.1,0.1,0,0.1,0C263.9,95.5,263.4,93.4,262.2,91.8z"/>
				</g>
			</g>
		</g>
	</g>
</g>
<g id="Confetti">
	<g id="Confetti_1_">
		<path id="XMLID_8668_" class="st21" d="M424.9,98.6c0,0-2.5,5.4,0.3,10.1l4.8,0.4c0,0-2.3-2.5-1.4-9L424.9,98.6z"/>
		<path id="XMLID_8660_" class="st21" d="M110.3,45c0,0,2,5.6-1.2,10l-4.8,0c0,0,2.5-2.3,2.1-8.8L110.3,45z"/>
		<path id="XMLID_8657_" class="st21" d="M30.8,97.3c0,0,4.1,4.3,9.5,3.3l2.1-4.3c0,0-3.2,1.2-8.9-2L30.8,97.3z"/>
		<path id="XMLID_8656_" class="st21" d="M308.6,101.9c0,0,2.7,5.3,8.2,6l3.3-3.5c0,0-3.4,0.3-7.9-4.5L308.6,101.9z"/>
		<path id="XMLID_8655_" class="st21" d="M260.3,43.1c0,0,2.7,5.3,8.2,6l3.3-3.5c0,0-3.4,0.3-7.9-4.5L260.3,43.1z"/>
		<g>
			<g id="XMLID_8649_">
				<path id="XMLID_8650_" class="st29" d="M452.2,178.6c-2.9,2.6-7.8,4.5-11.7,3.6c-3-0.7-6.1-4-3.5-6.9c1-1.1,5.2-3.1,6.6-1.6
					c0.9,1,0,2.4-1,3c-2.8,1.9-7.2,0-8.5-2.9c-1.9-4.4,2.4-8.2,6-9.9c0.2-0.1,0-0.5-0.2-0.4c-6.3,2.3-10.5,11-2.4,14.1
					c2.2,0.8,4.9,0.8,6.6-1c1-1,1.4-2.5,0.2-3.5c-1.9-1.6-5.9-0.2-7.5,1.2c-1.9,1.6-1.9,4.1-0.3,6c4.1,4.8,12.2,2.3,16-1.5
					C452.6,178.8,452.4,178.5,452.2,178.6L452.2,178.6z"/>
			</g>
			<g id="XMLID_8641_">
				<path id="XMLID_8642_" class="st29" d="M362.8,76.8c-1.7,3.7-1,12.9,4.9,12.4c3.1-0.3,6.5-4.9,3.8-7.5c-0.2-0.1-0.4-0.1-0.5,0
					c-7,6.6,3.5,19,10.9,12c0.2-0.2-0.2-0.3-0.4-0.2c-3.3,2.4-7.2,1.9-9.9-1.2c-1.1-1.3-1.9-2.9-2.1-4.5c-0.2-1.3-0.1-4.2,1.3-4.9
					c0.6-0.3,0-0.5,0.5-0.1c0.3,0.3,0.4,0.8,0.4,1.2c0.1,0.9-0.4,1.9-0.9,2.6c-1.2,1.6-3.2,2.5-5.1,1.4c-3.6-2.1-3.5-7.6-2.5-11.1
					C363.4,76.6,362.9,76.6,362.8,76.8L362.8,76.8z"/>
			</g>
			<path id="XMLID_8638_" class="st29" d="M362.9,49.1c0,0-5.9,0.7-9.5-3.4l1.1-4.7c0,0,1.7,3,8.1,4.1L362.9,49.1z"/>
			<path id="XMLID_8637_" class="st29" d="M61.1,49.1c0,0-5.9,0.7-9.5-3.4l1.1-4.7c0,0,1.7,3,8.1,4.1L61.1,49.1z"/>
			<g id="XMLID_8632_">
				<path id="XMLID_8633_" class="st29" d="M462.9,49.3c1.8,5.5-5.9,15.1-11.6,10.6c-3.2-2.5-3.5-9.4,1.1-10.3
					c0.3-0.1,0.5,0.2,0.6,0.4c2,4.2,1,9-4.3,9.3c-4.7,0.3-8.9-3.1-10.2-7.5c-0.1-0.3,0.4-0.3,0.5-0.1c1.7,3.7,4.8,6.8,9.1,6.6
					c1.5-0.1,3.1-0.5,4.1-1.8c0.5-0.7,0.8-1.5,0.9-2.3c0.1-0.7-0.1-3.1-0.7-3.5c-1.3-0.8-2.5,2.4-2.6,3.3c-0.2,1.7,0.3,3.8,1.6,5
					c2.1,2,5.1,0.7,7-0.9c2.6-2.2,4.4-5.4,3.8-8.8C462.2,49,462.8,49,462.9,49.3L462.9,49.3z"/>
			</g>
			<g id="XMLID_8630_">
				<path id="XMLID_8631_" class="st29" d="M81.5,110.6c-3.3,0.5-7.2,2.7-8.8,5.8c-1.2,2.4-0.7,6.2,2.7,6c1.3-0.1,4.9-1.8,4.6-3.5
					c-0.2-1.2-1.6-1.3-2.6-1c-2.8,0.8-4,4.8-2.7,7.2c1.9,3.7,6.8,2.8,9.8,1.4c0.2-0.1,0.3,0.3,0.2,0.4c-5,3-13,0.9-10.7-6.1
					c0.6-1.9,2.1-3.7,4.3-3.9c1.2-0.1,2.4,0.5,2.5,1.8c0,2.1-3.1,4-4.9,4.3c-2.1,0.4-3.8-1-4.1-3c-1-5.3,5.1-9.4,9.7-9.8
					C81.6,110.3,81.7,110.6,81.5,110.6L81.5,110.6z"/>
			</g>
			<g id="XMLID_8626_">
				<path id="XMLID_8627_" class="st29" d="M41.6,165.1c4.6-0.7,11.8,4.6,9.6,9.7c-1.9,4.3-8.7,6.7-10.1,1c0-0.1,0-0.3,0.1-0.4
					c3.8-3,7.5,1.3,8.2,5c1,5.8-4.1,8.1-9.1,7.2c-0.2,0-0.3-0.4-0.1-0.4c3.8,0.1,8.7-0.6,8.7-5.4c0-2.5-1.6-6-4.3-6.7
					c-0.7-0.2-1.6-0.2-2.2,0.2c-1.3,0.8-0.4,2.3,0.9,2.9c2,0.9,4.5-0.4,5.9-1.9c4.9-4.8-2.8-10.5-7.6-10.8
					C41.5,165.4,41.4,165.1,41.6,165.1L41.6,165.1z"/>
			</g>
			<path id="XMLID_8619_" class="st29" d="M129.8,93.8c0,0,5.9-1,8.1-6.1l-2.4-4.2c0,0-0.7,3.3-6.6,6.3L129.8,93.8z"/>
			<path id="XMLID_8617_" class="st29" d="M458.1,131.9c0,0,5.2,2.9,10.1,0.3l0.8-4.8c0,0-2.7,2.1-9.1,0.7L458.1,131.9z"/>
		</g>
		<g class="st30">
			<g id="XMLID_8611_">
				<path id="XMLID_8612_" class="st31" d="M454.8,178.3c-2.9,2.6-7.8,4.5-11.7,3.6c-3-0.7-6.1-4-3.5-6.9c1-1.1,5.2-3.1,6.6-1.6
					c0.9,1,0,2.4-1,3c-2.8,1.9-7.2,0-8.5-2.9c-1.9-4.4,2.4-8.2,6-9.9c0.2-0.1,0-0.5-0.2-0.4c-6.3,2.3-10.5,11-2.4,14.1
					c2.2,0.8,4.9,0.8,6.6-1c1-1,1.4-2.5,0.2-3.5c-1.9-1.6-5.9-0.2-7.5,1.2c-1.9,1.6-1.9,4.1-0.3,6c4.1,4.8,12.2,2.3,16-1.5
					C455.1,178.5,454.9,178.2,454.8,178.3L454.8,178.3z"/>
			</g>
			<g id="XMLID_8603_">
				<path id="XMLID_8604_" class="st31" d="M365.4,76.5c-1.7,3.7-1,12.9,4.9,12.4c3.1-0.3,6.5-4.9,3.8-7.5c-0.2-0.1-0.4-0.1-0.5,0
					c-7,6.6,3.5,19,10.9,12c0.2-0.2-0.2-0.3-0.4-0.2c-3.3,2.4-7.2,1.9-9.9-1.2c-1.1-1.3-1.9-2.9-2.1-4.5c-0.2-1.3-0.1-4.2,1.3-4.9
					c0.6-0.3,0-0.5,0.5-0.1c0.3,0.3,0.4,0.8,0.4,1.2c0.1,0.9-0.4,1.9-0.9,2.6c-1.2,1.6-3.2,2.5-5.1,1.4c-3.6-2.1-3.5-7.6-2.5-11.1
					C366,76.3,365.5,76.3,365.4,76.5L365.4,76.5z"/>
			</g>
			<path id="XMLID_8600_" class="st31" d="M365.5,48.8c0,0-5.9,0.7-9.5-3.4l1.1-4.7c0,0,1.7,3,8.1,4.1L365.5,48.8z"/>
			<path id="XMLID_8599_" class="st31" d="M63.7,48.8c0,0-5.9,0.7-9.5-3.4l1.1-4.7c0,0,1.7,3,8.1,4.1L63.7,48.8z"/>
			<g id="XMLID_8595_">
				<path id="XMLID_8596_" class="st31" d="M465.5,49c1.8,5.5-5.9,15.1-11.6,10.6c-3.2-2.5-3.5-9.4,1.1-10.3
					c0.3-0.1,0.5,0.2,0.6,0.4c2,4.2,1,9-4.3,9.3c-4.7,0.3-8.9-3.1-10.2-7.5c-0.1-0.3,0.4-0.3,0.5-0.1c1.7,3.7,4.8,6.8,9.1,6.6
					c1.5-0.1,3.1-0.5,4.1-1.8c0.5-0.7,0.8-1.5,0.9-2.3c0.1-0.7-0.1-3.1-0.7-3.5c-1.3-0.8-2.5,2.4-2.6,3.3c-0.2,1.7,0.3,3.8,1.6,5
					c2.1,2,5.1,0.7,7-0.9c2.6-2.2,4.4-5.4,3.8-8.8C464.8,48.7,465.4,48.7,465.5,49L465.5,49z"/>
			</g>
			<g id="XMLID_8582_">
				<path id="XMLID_8583_" class="st31" d="M84.1,110.3c-3.3,0.5-7.2,2.7-8.8,5.8c-1.2,2.4-0.7,6.2,2.7,6c1.3-0.1,4.9-1.8,4.6-3.5
					c-0.2-1.2-1.6-1.3-2.6-1c-2.8,0.8-4,4.8-2.7,7.2c1.9,3.7,6.8,2.8,9.8,1.4c0.2-0.1,0.3,0.3,0.2,0.4c-5,3-13,0.9-10.7-6.1
					c0.6-1.9,2.1-3.7,4.3-3.9c1.2-0.1,2.4,0.5,2.5,1.8c0,2.1-3.1,4-4.9,4.3c-2.1,0.4-3.8-1-4.1-3c-1-5.3,5.1-9.4,9.7-9.8
					C84.2,110,84.3,110.3,84.1,110.3L84.1,110.3z"/>
			</g>
			<g id="XMLID_8578_">
				<path id="XMLID_8579_" class="st31" d="M41.6,165.1c4.6-0.7,11.8,4.6,9.6,9.7c-1.9,4.3-8.7,6.7-10.1,1c0-0.1,0-0.3,0.1-0.4
					c3.8-3,7.5,1.3,8.2,5c1,5.8-4.1,8.1-9.1,7.2c-0.2,0-0.3-0.4-0.1-0.4c3.8,0.1,8.7-0.6,8.7-5.4c0-2.5-1.6-6-4.3-6.7
					c-0.7-0.2-1.6-0.2-2.2,0.2c-1.3,0.8-0.4,2.3,0.9,2.9c2,0.9,4.5-0.4,5.9-1.9c4.9-4.8-2.8-10.5-7.6-10.8
					C41.5,165.4,41.4,165.1,41.6,165.1L41.6,165.1z"/>
			</g>
			<path id="XMLID_8571_" class="st31" d="M132.4,93.5c0,0,5.9-1,8.1-6.1l-2.4-4.2c0,0-0.7,3.3-6.6,6.3L132.4,93.5z"/>
			<path id="XMLID_8569_" class="st31" d="M460.6,131.6c0,0,5.2,2.9,10.1,0.3l0.8-4.8c0,0-2.7,2.1-9.1,0.7L460.6,131.6z"/>
		</g>
	</g>
</g>
</svg>
