<?xml version="1.0" encoding="utf-8"?>
<!-- Generator: Adobe Illustrator 25.2.3, SVG Export Plug-In . SVG Version: 6.00 Build 0)  -->
<svg version="1.1" xmlns="http://www.w3.org/2000/svg" xmlns:xlink="http://www.w3.org/1999/xlink" x="0px" y="0px"
	 viewBox="0 0 3710 3710" style="enable-background:new 0 0 3710 3710;" xml:space="preserve">
<style type="text/css">
	.st0{fill:url(#SVGID_1_);}
	.st1{opacity:0.3;}
	.st2{fill:#91B3FA;}
	.st3{fill:#BDD0FB;}
	.st4{opacity:0.61;fill:#FFFFFF;}
	.st5{opacity:0.57;fill:#FFFFFF;}
	.st6{fill:url(#SVGID_2_);}
	.st7{fill:url(#SVGID_3_);}
	.st8{opacity:0.6;fill:#FFFFFF;}
	.st9{fill:url(#SVGID_4_);}
	.st10{opacity:0.5;fill:#FFFFFF;}
	.st11{opacity:0.74;fill:#FFFFFF;}
	.st12{fill:#7D97F4;}
	.st13{fill:#FFFFFF;}
	.st14{fill:url(#SVGID_5_);}
	.st15{fill:url(#SVGID_6_);}
	.st16{fill:url(#SVGID_7_);}
	.st17{fill:url(#SVGID_8_);}
	.st18{fill:url(#SVGID_9_);}
	.st19{fill:url(#SVGID_10_);}
	.st20{fill:url(#SVGID_11_);}
	.st21{fill:url(#SVGID_12_);}
	.st22{fill:url(#SVGID_13_);}
	.st23{fill:url(#SVGID_14_);}
	.st24{fill:url(#SVGID_15_);}
	.st25{fill:url(#SVGID_16_);}
	.st26{fill:url(#SVGID_17_);}
	.st27{fill:url(#SVGID_18_);}
	.st28{fill:url(#SVGID_19_);}
	.st29{fill:url(#SVGID_20_);}
	.st30{fill:url(#SVGID_21_);}
	.st31{fill:url(#SVGID_22_);}
	.st32{fill:url(#SVGID_23_);}
	.st33{fill:url(#SVGID_24_);}
	.st34{fill:url(#SVGID_25_);}
	.st35{fill:url(#SVGID_26_);}
	.st36{fill:url(#SVGID_27_);}
	.st37{fill:url(#SVGID_28_);}
	.st38{fill:url(#SVGID_29_);}
	.st39{fill:url(#SVGID_30_);}
	.st40{fill:url(#SVGID_31_);}
	.st41{fill:url(#SVGID_32_);}
	.st42{fill:url(#SVGID_33_);}
	.st43{fill:url(#SVGID_34_);}
	.st44{fill:url(#SVGID_35_);}
	.st45{fill:url(#SVGID_36_);}
	.st46{fill:url(#SVGID_37_);}
	.st47{fill:url(#SVGID_38_);}
	.st48{fill:url(#SVGID_39_);}
	.st49{fill:url(#SVGID_40_);}
	.st50{fill:url(#SVGID_41_);}
	.st51{fill:url(#SVGID_42_);}
	.st52{fill:url(#SVGID_43_);}
	.st53{fill:url(#SVGID_44_);}
</style>
<g id="Background">
</g>
<g id="Illustration">
	<g>
		<linearGradient id="SVGID_1_" gradientUnits="userSpaceOnUse" x1="3674.738" y1="4006.5854" x2="1183.2635" y2="912.3305">
			<stop  offset="0" style="stop-color:#DAE3FE"/>
			<stop  offset="1" style="stop-color:#E9EFFD"/>
		</linearGradient>
		<path class="st0" d="M2989.3,2786.3c-57.2,60.2-111.4,99.1-154.2,129.8c-502.9,360.8-1097.9,255.7-1224.4,230
			C1424,3108.2,1063,3034.8,802,2727.9C407.2,2263.6,468.7,1532,774.9,1049.1c56-88.3,351.9-578.6,953.4-657.2
			c364-47.6,788.3,48.4,1095.6,305.8C3468.9,1238.1,3423,2329.8,2989.3,2786.3z"/>
		<g>
			<g>
				<g class="st1">
					<path class="st2" d="M3127.2,748c3.4-2,7.8-1.2,10.2,2.1c5.2,7.1,10.3,14.5,14.9,22.1c2.3,3.7,1.1,8.5-2.6,10.7
						c0,0-0.1,0.1-0.1,0.1c-3.7,2.2-8.4,1-10.6-2.6c-4.4-7.2-9.2-14.2-14.2-21c-2.6-3.5-1.8-8.4,1.6-10.9
						C3126.8,748.3,3127,748.2,3127.2,748z M3161.4,806.9c0.3-0.2,0.5-0.3,0.8-0.4c3.9-1.7,8.6,0,10.3,4c3.6,8.1,6.8,16.4,9.7,24.8
						c1.4,4.1-0.8,8.5-4.9,9.9c-4.1,1.4-8.5-0.8-9.9-4.9c-2.7-7.9-5.8-15.8-9.2-23.5C3156.6,813.1,3158,808.8,3161.4,806.9z
						 M3181.7,871.7c0.7-0.4,1.6-0.8,2.5-0.9c4.2-0.8,8.3,2,9.1,6.2c1.7,8.7,3,17.5,3.9,26.3c0.4,4.3-2.7,8.1-6.9,8.6
						c-4.3,0.5-8.1-2.7-8.6-6.9c-0.9-8.4-2.1-16.8-3.7-25C3177.3,876.6,3178.9,873.4,3181.7,871.7z M3187,939.5
						c1.2-0.7,2.7-1.1,4.2-1.1c4.3,0.1,7.7,3.8,7.5,8.1c-0.3,8.8-1,17.8-2.1,26.5c-0.5,4.3-4.4,7.3-8.7,6.8
						c-4.3-0.5-7.3-4.4-6.8-8.7c1-8.3,1.7-16.8,2-25.2C3183.2,943.2,3184.8,940.9,3187,939.5z M3177,1006.8c1.7-1,3.9-1.4,6-0.8
						c4.2,1.1,6.7,5.4,5.6,9.5c-2.3,8.5-4.9,17.1-7.9,25.4c-1.4,4.1-5.9,6.2-10,4.7c-4.1-1.5-6.2-5.9-4.7-10
						c2.8-7.9,5.4-16.1,7.5-24.2C3174,1009.5,3175.3,1007.8,3177,1006.8z M3152.4,1070.2c2.2-1.3,5.1-1.5,7.6-0.2
						c3.8,2,5.3,6.7,3.3,10.5c-4.1,7.8-8.6,15.6-13.3,23c-2.3,3.6-7.1,4.7-10.8,2.4c-3.6-2.3-4.7-7.1-2.4-10.8
						c4.5-7.1,8.8-14.5,12.7-21.9C3150.2,1072,3151.2,1071,3152.4,1070.2z M2915.5,1231.6c0.9-0.5,2-0.9,3.1-1
						c8.3-0.9,16.8-2.2,25-3.8c4.2-0.8,8.3,1.9,9.2,6.2c0.8,4.2-1.9,8.3-6.2,9.2c-8.7,1.7-17.6,3-26.3,4c-4.3,0.5-8.1-2.6-8.6-6.9
						C2911.4,1236,2912.9,1233.1,2915.5,1231.6z M3114.4,1126.6c2.8-1.6,6.4-1.4,9,0.8c3.3,2.8,3.7,7.7,0.9,11
						c-5.7,6.7-11.8,13.3-18.1,19.5c-3.1,3-8,3-11-0.1c-3-3.1-3-8,0.1-11c6-5.9,11.8-12.1,17.2-18.5
						C3113,1127.6,3113.7,1127,3114.4,1126.6z M2981.9,1216.8c0.4-0.3,0.9-0.5,1.4-0.7c7.9-2.7,15.9-5.9,23.5-9.3
						c3.9-1.7,8.6,0,10.3,4c1.7,3.9,0,8.6-4,10.3c-8.1,3.6-16.4,6.9-24.8,9.7c-4.1,1.4-8.5-0.8-9.9-4.8
						C2977.2,1222.5,2978.7,1218.6,2981.9,1216.8z M3064.8,1173c3.4-2,7.8-1.2,10.2,2.1c2.6,3.5,1.9,8.3-1.6,10.9
						c-7.1,5.3-14.5,10.3-22,14.9c0,0-0.1,0.1-0.1,0.1c-3.6,2.2-8.4,1-10.6-2.6c-2.3-3.7-1.1-8.5,2.5-10.7
						c7.1-4.4,14.2-9.2,20.9-14.2C3064.3,1173.3,3064.6,1173.2,3064.8,1173z"/>
					<path class="st2" d="M2860.7,1232.4c1.3-0.8,2.9-1.2,4.5-1.1c4,0.3,8.1,0.5,12.1,0.7c4.3,0.1,7.7,3.8,7.5,8.1
						c-0.1,4.3-3.8,7.7-8.1,7.5c-4.3-0.1-8.6-0.4-12.8-0.7c-4.3-0.3-7.5-4.1-7.2-8.4C2857.1,1235.9,2858.6,1233.7,2860.7,1232.4z"/>
				</g>
				<g class="st1">
					<path class="st2" d="M2649.1,1123.4c3.2-1.9,7.5-1.2,10,1.7c2.6,3.1,5.2,6.2,8,9.2c2.9,3.2,2.6,8.1-0.6,11
						c-3.2,2.9-8.1,2.6-11-0.6c-2.9-3.2-5.7-6.4-8.4-9.7c-2.8-3.3-2.3-8.2,1-11C2648.4,1123.9,2648.8,1123.6,2649.1,1123.4z"/>
					<path class="st2" d="M2728.4,667.6c3.1-1.8,6.2-3.6,9.4-5.3c3.8-2.1,8.5-0.7,10.6,3.1c2.1,3.8,0.7,8.6-3.1,10.6
						c-7.3,4-14.5,8.3-21.3,12.8c-3.6,2.4-8.4,1.4-10.8-2.2c-2.4-3.6-1.4-8.4,2.2-10.8C2719.6,672.9,2724,670.2,2728.4,667.6z
						 M2775.2,645c0.4-0.2,0.8-0.4,1.2-0.6c8.1-3.1,16.5-5.9,24.9-8.3c4.1-1.2,8.5,1.2,9.7,5.3c1.2,4.1-1.2,8.5-5.3,9.7
						c-7.9,2.3-15.9,4.9-23.6,7.9c-4,1.5-8.5-0.5-10.1-4.5C2770.5,650.9,2772,646.9,2775.2,645z M2682.7,700.6
						c3.2-1.9,7.3-1.3,9.8,1.6c2.8,3.2,2.5,8.2-0.7,11c-6.2,5.4-12.3,11.2-18,17.2c-3,3.1-7.9,3.2-11,0.2c-3.1-3-3.2-7.9-0.2-11
						c6-6.3,12.4-12.3,19-18.1C2681.9,701.1,2682.3,700.8,2682.7,700.6z M2840,628.2c0.9-0.5,1.8-0.8,2.9-1
						c8.6-1.2,17.4-2.1,26.1-2.6c4.3-0.2,8,3,8.2,7.3c0.2,4.3-3,8-7.3,8.2c-8.2,0.5-16.6,1.3-24.8,2.5c-4.3,0.6-8.2-2.4-8.8-6.6
						C2835.8,632.8,2837.4,629.8,2840,628.2z M2637.5,750c2.6-1.5,6-1.5,8.6,0.4c3.5,2.5,4.2,7.4,1.7,10.9
						c-4.9,6.7-9.5,13.6-13.8,20.7c-2.2,3.7-7,4.9-10.7,2.6c-3.7-2.2-4.9-7-2.6-10.7c4.5-7.4,9.4-14.8,14.5-21.8
						C2635.8,751.2,2636.6,750.5,2637.5,750z M2604.3,808c2.1-1.2,4.7-1.5,7.1-0.4c4,1.7,5.8,6.3,4.1,10.3
						c-3.3,7.6-6.3,15.4-8.9,23.2c-1.4,4.1-5.8,6.3-9.9,4.9c-4.1-1.4-6.3-5.8-4.9-9.9c2.8-8.2,6-16.5,9.4-24.4
						C2601.8,810.1,2602.9,808.8,2604.3,808z M2584.5,871.9c1.6-0.9,3.5-1.3,5.4-0.9c4.2,0.8,7,4.9,6.2,9.1
						c-1.6,8.1-2.8,16.4-3.7,24.6c-0.5,4.3-4.3,7.4-8.6,6.9c-4.3-0.5-7.4-4.3-6.9-8.6c0.9-8.6,2.2-17.4,3.9-25.9
						C2581.3,874.9,2582.7,873,2584.5,871.9z M2579.2,938.7c1.1-0.6,2.4-1,3.7-1.1c4.3-0.1,7.9,3.3,8,7.6c0.2,8.3,0.9,16.6,1.8,24.8
						c0.5,4.3-2.6,8.2-6.9,8.7c-4.3,0.5-8.2-2.6-8.7-6.9c-1-8.6-1.6-17.4-1.9-26.1C2575.3,942.7,2576.8,940.1,2579.2,938.7z
						 M2588.6,1004.9c0.6-0.4,1.3-0.6,2-0.8c4.2-1.1,8.4,1.4,9.5,5.6c2.1,8,4.5,16,7.2,23.8c1.4,4.1-0.7,8.5-4.8,9.9
						c-4.1,1.4-8.5-0.7-9.9-4.8c-2.9-8.2-5.4-16.6-7.6-25.1C2584.1,1010.2,2585.7,1006.7,2588.6,1004.9z M2612.4,1067.5
						c0.1-0.1,0.3-0.2,0.4-0.2c3.8-2,8.5-0.4,10.5,3.4c2.8,5.4,5.7,10.8,8.8,16.1c1.1,1.9,2.3,3.8,3.4,5.6c2.3,3.7,1.1,8.5-2.5,10.7
						c-3.7,2.4-8.5,1.1-10.7-2.5c-1.2-2-2.4-3.9-3.6-5.9c-3.2-5.5-6.4-11.2-9.3-16.9C2607.5,1074.1,2608.8,1069.6,2612.4,1067.5z"/>
					<path class="st2" d="M2907.1,626.2c1.3-0.8,2.9-1.2,4.6-1.1c4.2,0.3,8.5,0.8,12.7,1.3c4.3,0.5,7.3,4.4,6.8,8.7
						c-0.5,4.3-4.4,7.3-8.7,6.8c-4-0.5-8.1-0.9-12.1-1.2c-4.3-0.3-7.5-4.1-7.2-8.4C2903.5,629.6,2905,627.4,2907.1,626.2z"/>
				</g>
				<g>
					<path class="st2" d="M2944.1,709.5c-1.5-0.5-3.1-0.1-4.1,1.1l-28.1,34.4c-20.6-2.6-41.7-1.8-62.6,2.4l-30.7-32
						c-1.1-1.1-2.7-1.4-4.2-0.8l-48.4,22.3c-1.4,0.7-2.3,2.1-2.1,3.7l4.4,44.2c-16.8,13.1-31.1,28.7-42.5,46l-44.4-0.9
						c-1.6,0-3,0.9-3.5,2.4l-18.4,50c-0.5,1.5-0.1,3.1,1.1,4.1l34.4,28.1c-2.6,20.6-1.8,41.7,2.4,62.6l-32,30.7
						c-1.1,1.1-1.4,2.7-0.8,4.2l22.3,48.4c0.7,1.4,2.1,2.3,3.7,2.1l44.2-4.4c13.1,16.8,28.7,31.1,46,42.5l-0.9,44.4
						c0,1.6,0.9,3,2.4,3.5l50,18.4c1.5,0.5,3.1,0.1,4.1-1.1l28.1-34.4c20.6,2.6,41.7,1.8,62.6-2.4l30.7,32c1.1,1.1,2.7,1.4,4.2,0.8
						l48.4-22.3c1.4-0.7,2.3-2.1,2.1-3.7l-4.4-44.2c16.8-13.1,31.1-28.7,42.5-46l44.4,0.9c1.6,0,3-0.9,3.5-2.4l18.4-50
						c0.5-1.5,0.1-3.1-1.1-4.1l-34.4-28.1c2.6-20.6,1.8-41.7-2.4-62.6l32-30.7c1.1-1.1,1.4-2.7,0.8-4.2l-22.3-48.4
						c-0.7-1.4-2.1-2.3-3.7-2.1l-44.2,4.4c-13.1-16.8-28.7-31.1-46-42.5l0.9-44.4c0-1.6-0.9-3-2.4-3.5L2944.1,709.5z"/>
					<g>
						<path class="st3" d="M2860.9,892c22.5-13.3,52-8.4,68.8,12.5c18.5,23,14.9,56.7-8,75.3c-11.1,9-25.1,13.1-39.3,11.6
							c-14.2-1.5-27-8.5-36-19.6c-18.5-23-14.9-56.7,8-75.3C2856.5,894.8,2858.7,893.3,2860.9,892z M2908.9,973.5
							c1.7-1,3.4-2.2,5-3.5c17.6-14.2,20.4-40.1,6.2-57.7c-14.2-17.6-40.1-20.4-57.7-6.2c-17.6,14.2-20.4,40.1-6.2,57.7
							c6.9,8.5,16.7,13.9,27.6,15C2892.6,979.9,2901.4,978,2908.9,973.5z"/>
					</g>
					<g>
						<path class="st3" d="M2820.7,826c3.9-2.3,7.9-4.4,12-6.3l0,0c1.3-0.6,2.6-1.2,3.9-1.7c6.5-2.7,13.2-5,20-6.6
							c0.1,0,0.2,0,0.3-0.1c0.3-0.1,0.5-0.1,0.8-0.2c0.5-0.1,1-0.2,1.5-0.4c1.4-0.3,2.7,0.3,3.4,1.5c0.2,0.3,0.3,0.6,0.4,0.9
							c0.4,1.7-0.7,3.3-2.4,3.7c-8.7,1.9-17.2,4.8-25.3,8.6c-40.4,18.6-66.1,56.1-71.7,97.1c-3.1,22.8,0,46.8,10.4,69.2
							c1.8,3.9,3.8,7.8,6,11.4c14.6,24.8,37.1,43.6,64.5,53.7c31.4,11.6,65.5,10.3,95.9-3.8c62.8-29,90.3-103.6,61.4-166.4
							c-1.8-3.9-3.8-7.6-5.9-11.3c-9.3-15.8-22-29.4-37.2-39.8c-0.4-0.3-0.7-0.6-0.9-1c-0.6-1-0.6-2.3,0.1-3.3
							c1-1.4,2.9-1.8,4.3-0.8c15.9,10.9,29.2,25.1,39,41.7c2.3,3.8,4.3,7.8,6.2,11.8c30.4,65.9,1.5,144.3-64.4,174.7
							c-31.9,14.7-67.7,16.1-100.7,4c-28.7-10.6-52.4-30.4-67.7-56.4c-2.3-3.9-4.4-7.9-6.3-12c-14.7-31.9-16.1-67.7-4-100.7
							C2774.9,864.9,2794.7,841.3,2820.7,826z"/>
					</g>
				</g>
			</g>
			<g>
				<g class="st1">
					<path class="st2" d="M3252.2,435.5c1.8-1.1,4.1-0.9,5.7,0.6c3,2.8,5.9,5.7,8.8,8.7c1.8,1.9,1.7,5-0.2,6.8
						c-1.9,1.8-5,1.7-6.8-0.2c-2.7-2.8-5.5-5.6-8.3-8.3c-1.9-1.8-2-4.9-0.2-6.8C3251.4,436,3251.8,435.7,3252.2,435.5z"/>
					<path class="st2" d="M3276.8,463.2c2.1-1.2,4.8-0.7,6.3,1.3c4.2,5.7,8.1,11.6,11.7,17.7c0.8,1.3,1.5,2.6,2.2,3.9
						c1.3,2.3,0.3,5.2-1.8,6.6c-2.3,1.3-5.3,0.5-6.6-1.8c-0.7-1.2-1.4-2.5-2.1-3.7c-3.4-5.8-7.2-11.5-11.1-16.9
						c-1.6-2.1-1.1-5.2,1-6.7C3276.5,463.4,3276.7,463.3,3276.8,463.2z M3301.3,506.9c0.2-0.1,0.4-0.2,0.6-0.3
						c2.5-1,5.3,0.2,6.3,2.6c3.2,7.9,6,16.1,8.3,24.3c0.7,2.6-0.8,5.2-3.4,5.9c-2.6,0.7-5.2-0.8-5.9-3.4c-2.1-7.8-4.8-15.6-7.9-23.2
						C3298.4,510.6,3299.3,508.1,3301.3,506.9z M3314.5,555.2c0.5-0.3,1.1-0.5,1.8-0.6c2.6-0.4,5.1,1.5,5.5,4.1
						c1.2,8.4,1.9,17.1,2.1,25.6c0.1,2.7-2.1,4.9-4.7,4.9c-2.7,0-4.9-2.1-4.9-4.7c-0.1-8.1-0.8-16.4-2-24.4
						C3311.9,558,3312.9,556.1,3314.5,555.2z M3315.5,605.2c0.9-0.5,1.9-0.8,3-0.6c2.6,0.3,4.6,2.7,4.3,5.3
						c-0.9,8.5-2.3,17-4.3,25.3c-0.6,2.6-3.2,4.2-5.8,3.6c-2.6-0.6-4.2-3.2-3.6-5.8c1.8-7.9,3.2-16,4.1-24.1
						C3313.3,607.3,3314.2,606,3315.5,605.2z M3304.1,654c1.2-0.7,2.7-0.9,4.1-0.4c2.5,0.9,3.8,3.7,2.9,6.2
						c-2.9,8-6.4,15.9-10.3,23.5c-1.2,2.4-4.1,3.3-6.5,2.1s-3.3-4.1-2.1-6.5c3.7-7.2,7-14.8,9.8-22.4
						C3302.4,655.4,3303.2,654.5,3304.1,654z M3281.3,698.5c1.6-0.9,3.6-0.9,5.2,0.2c2.2,1.5,2.8,4.5,1.3,6.7
						c-4.8,7.1-10.1,13.9-15.7,20.3c-1.8,2-4.8,2.2-6.8,0.4c-2-1.8-2.2-4.8-0.4-6.8c5.4-6.1,10.4-12.6,15-19.3
						C3280.2,699.3,3280.7,698.9,3281.3,698.5z M3248.3,736.1c1.9-1.1,4.5-0.8,6,1c1.8,2,1.6,5-0.4,6.8c-6.4,5.6-13.2,11-20.2,15.8
						c-2.2,1.5-5.2,1-6.7-1.2c-1.5-2.2-1-5.2,1.2-6.7c6.7-4.6,13.2-9.7,19.3-15.1C3247.8,736.4,3248,736.3,3248.3,736.1z
						 M3184.1,774.7c0.2-0.1,0.5-0.3,0.8-0.4c6.6-2.5,13.2-5.3,19.5-8.5c1-0.5,1.9-1,2.8-1.4c2.4-1.2,5.3-0.3,6.5,2
						c1.2,2.4,0.3,5.4-2,6.5c-1,0.5-2,1-3,1.5c-6.7,3.3-13.5,6.3-20.4,8.9c-2.5,0.9-5.3-0.3-6.2-2.8
						C3181.2,778.3,3182.2,775.8,3184.1,774.7z"/>
				</g>
				<g class="st1">
					<path class="st2" d="M3007.3,410.3c2.3-1.3,5.2-0.6,6.6,1.7c1.4,2.3,0.7,5.2-1.6,6.6c-6.9,4.2-13.5,8.8-19.8,13.7
						c-2.1,1.6-5.1,1.3-6.8-0.8c-1.6-2.1-1.3-5.1,0.8-6.8C2993.1,419.5,3000.1,414.7,3007.3,410.3
						C3007.3,410.3,3007.3,410.3,3007.3,410.3z M3029.1,398.8c0.2-0.1,0.3-0.2,0.5-0.2c7.6-3.5,15.6-6.5,23.6-9
						c2.5-0.8,5.2,0.6,6,3.1c0.8,2.5-0.6,5.2-3.1,6.1c-7.6,2.4-15.2,5.3-22.5,8.6c-2.4,1.1-5.3,0-6.4-2.4
						C3026.2,402.6,3027,400,3029.1,398.8z M2968.7,440.7c1.8-1.1,4.3-0.8,5.8,0.7c1.9,1.9,1.9,4.9,0,6.8
						c-5.6,5.7-11,11.8-15.9,18.1c-1.6,2.1-4.7,2.5-6.8,0.9c-2.1-1.6-2.5-4.7-0.9-6.8c5.1-6.6,10.7-13,16.7-19
						C2968,441.2,2968.3,440.9,2968.7,440.7z M3076.1,384c0.5-0.3,1-0.5,1.6-0.6c8.3-1.5,16.7-2.6,25.1-3.1c2.7-0.2,4.9,1.9,5.1,4.5
						c0.2,2.7-1.9,4.9-4.5,5.1c-8,0.5-16,1.5-23.9,2.9c-2.6,0.5-5.1-1.2-5.6-3.9C3073.5,386.9,3074.4,385,3076.1,384z M2938.5,479.6
						c1.5-0.9,3.4-0.9,4.9,0c2.3,1.4,3,4.3,1.7,6.6c-4.1,6.9-7.8,14.1-11.1,21.4c-1.1,2.4-3.9,3.5-6.4,2.5c-2.4-1.1-3.5-3.9-2.5-6.4
						c3.4-7.7,7.3-15.2,11.6-22.4C2937.2,480.6,2937.8,480,2938.5,479.6z M2918.6,524.7c1.1-0.7,2.5-0.9,3.9-0.5
						c2.5,0.8,4,3.5,3.2,6c-2.3,7.7-4.2,15.6-5.6,23.4c-0.5,2.6-3,4.4-5.6,3.9c-2.6-0.5-4.4-3-3.9-5.6c1.5-8.2,3.4-16.5,5.9-24.5
						C2916.8,526.2,2917.6,525.2,2918.6,524.7z M2910,573.1c0.8-0.5,1.7-0.7,2.7-0.7c2.7,0.1,4.7,2.4,4.6,5.1
						c-0.4,8-0.4,16.1,0.2,24.1c0.2,2.7-1.8,5-4.5,5.1c-2.7,0.2-5-1.8-5.1-4.5c-0.6-8.4-0.6-16.9-0.2-25.3
						C2907.7,575.4,2908.6,573.9,2910,573.1z"/>
					<path class="st2" d="M3125.5,381c0.8-0.5,1.7-0.7,2.7-0.7c4.1,0.3,8.2,0.6,12.3,1.1c2.6,0.3,4.5,2.7,4.2,5.4
						c-0.3,2.6-2.7,4.5-5.4,4.2c-3.8-0.5-7.8-0.8-11.7-1.1c-2.7-0.2-4.7-2.5-4.5-5.1C3123.2,383.2,3124.2,381.7,3125.5,381z"/>
				</g>
				<g>
					<path class="st2" d="M3153.7,436.6c-1-0.4-2.1-0.1-2.7,0.7l-18.8,23c-13.8-1.7-27.9-1.2-41.9,1.6l-20.5-21.4
						c-0.7-0.8-1.8-1-2.8-0.5l-32.4,14.9c-0.9,0.4-1.5,1.4-1.4,2.5l3,29.5c-11.3,8.8-20.8,19.2-28.5,30.8l-29.7-0.6
						c-1,0-2,0.6-2.3,1.6l-12.3,33.4c-0.4,1-0.1,2.1,0.7,2.7l23,18.8c-1.7,13.8-1.2,27.9,1.6,41.9l-21.4,20.5
						c-0.8,0.7-1,1.8-0.5,2.8l14.9,32.4c0.4,0.9,1.4,1.5,2.5,1.4l29.5-3c8.8,11.3,19.2,20.8,30.8,28.5l-0.6,29.7c0,1,0.6,2,1.6,2.3
						l33.4,12.3c1,0.4,2.1,0.1,2.7-0.7l18.8-23c13.8,1.7,27.9,1.2,41.9-1.6l20.5,21.4c0.7,0.8,1.8,1,2.8,0.5l32.4-14.9
						c0.9-0.4,1.5-1.4,1.4-2.5l-3-29.5c11.3-8.8,20.8-19.2,28.5-30.8l29.7,0.6c1,0,2-0.6,2.3-1.6l12.3-33.4c0.4-1,0.1-2.1-0.7-2.7
						l-23-18.8c1.7-13.8,1.2-27.9-1.6-41.9l21.4-20.5c0.8-0.7,1-1.8,0.5-2.8l-14.9-32.4c-0.4-0.9-1.4-1.5-2.5-1.4l-29.5,3
						c-8.8-11.3-19.2-20.8-30.8-28.5l0.6-29.7c0-1-0.6-2-1.6-2.3L3153.7,436.6z"/>
					<g>
						<path class="st3" d="M3097.8,558.2c6.7-4,14.5-5.6,22.3-4.8c9.7,1,18.4,5.8,24.5,13.4c12.6,15.6,10.2,38.6-5.5,51.3
							c-15.7,12.6-38.7,10.2-51.3-5.5c-6.1-7.6-8.9-17.1-7.9-26.8c1-9.7,5.8-18.4,13.4-24.5C3094.8,560.1,3096.3,559.1,3097.8,558.2
							z M3129.9,612.8c1.1-0.7,2.2-1.4,3.2-2.2c11.5-9.3,13.3-26.2,4-37.7c-4.5-5.6-10.9-9.1-18-9.8c-7.1-0.8-14.1,1.3-19.7,5.8l0,0
							c-5.6,4.5-9.1,10.9-9.8,18c-0.8,7.1,1.3,14.1,5.8,19.7C3103.8,617,3118.6,619.4,3129.9,612.8z"/>
					</g>
					<g>
						<path class="st3" d="M3069.9,512.2c2.6-1.6,5.4-3,8.2-4.3c5.6-2.6,11.5-4.6,17.5-6c0.3-0.1,0.5-0.1,0.8-0.2
							c2.1-0.5,4.2,0.5,5.2,2.2c0.3,0.4,0.4,0.9,0.6,1.4c0.6,2.6-1.1,5.2-3.7,5.8c-5.6,1.3-11.1,3.1-16.4,5.5l0,0
							c-0.3,0.1-0.6,0.3-0.9,0.4c-12.4,5.8-22.8,14.6-30.7,25.3c-4.3,5.8-7.8,12.3-10.4,19.2c0,0.1,0,0.1-0.1,0.2
							c-0.1,0.2-0.1,0.3-0.2,0.5c-7.5,20.3-6.6,42.4,2.4,62.1c1.2,2.5,2.5,5,3.9,7.4c9.5,16,24,28.2,41.8,34.8
							c20.3,7.5,42.4,6.6,62.1-2.4c19.7-9.1,34.7-25.3,42.2-45.6c7.5-20.3,6.6-42.4-2.4-62.1c-1.2-2.5-2.4-4.9-3.8-7.3
							c-6-10.2-14.2-19-24.1-25.7c-0.6-0.4-1.1-0.9-1.4-1.5c-0.9-1.6-0.9-3.6,0.2-5.2c1.5-2.2,4.5-2.8,6.7-1.3
							c11,7.5,20.2,17.3,26.9,28.8c1.6,2.6,3,5.4,4.3,8.2c10.2,22,11.1,46.7,2.7,69.5c-8.4,22.8-25.1,40.9-47.2,51
							c-22,10.2-46.7,11.1-69.5,2.7c-19.8-7.3-36.1-21-46.7-38.9c-1.6-2.7-3-5.4-4.3-8.3C3013.9,585.7,3030.2,535.5,3069.9,512.2z"
							/>
					</g>
				</g>
			</g>
		</g>
		<g>
			<path class="st3" d="M878,399.8c170.5,96.1,1140.2,696,740.7,1707c0,0-740-230.6-765.4-1692.4C853,401.7,866.8,393.6,878,399.8z"
				/>
			<path class="st4" d="M945.8,554.7c34.2,52.4,67.4,105.4,100,158.7c32.6,53.3,64.7,107.1,96.1,161.2
				c62.8,108.2,123.2,217.8,180.2,329.2c56.9,111.4,110.6,224.6,158,340.5c23.9,57.9,45.7,116.7,65.2,176.2
				c19.4,59.6,36.6,120.1,48.9,181.7c0.7,3.6-1.6,7.1-5.2,7.8c-3.6,0.7-7.1-1.6-7.8-5.2l0,0l0,0c-11.8-61-28.5-121.2-47.6-180.5
				c-19.1-59.3-40.5-118-64.1-175.8c-46.7-115.8-99.7-229-155.9-340.5c-56.3-111.5-116.1-221.3-178.3-329.7
				c-31.1-54.2-62.8-108-95.2-161.5c-32.4-53.4-65.2-106.6-99.1-159.1l0,0c-0.8-1.3-0.5-3,0.8-3.9
				C943.2,553.1,944.9,553.4,945.8,554.7z"/>
		</g>
		<g>
			<path class="st2" d="M544.3,784.8c172.1,75.3,1155.8,554.4,872,1558.3c0,0-728.8-148.7-894.2-1541.9
				C520.6,789,533,779.9,544.3,784.8z"/>
			<path class="st5" d="M638.1,948.5c41.3,43.6,81.6,88.1,121.5,132.9c39.9,44.8,79.3,90.1,118.2,135.8
				c77.7,91.5,153.5,184.7,226.3,280.2c72.7,95.5,142.7,193.3,207.3,294.7c32.4,50.6,63,102.4,91.7,155.3
				c28.5,53,55,107.2,77.1,163.3c1.3,3.4-0.3,7.2-3.7,8.6c-3.4,1.3-7.2-0.3-8.6-3.7l0,0l0,0c-21.5-55.6-47.6-109.5-75.6-162.3
				c-28.2-52.8-58.4-104.5-90.4-155.1c-63.8-101.4-133.1-199.3-205.2-295c-72.2-95.7-147.3-189.2-224.5-281
				c-38.6-45.9-77.7-91.3-117.4-136.3c-39.7-45-79.7-89.6-120.7-133.4l0,0c-1.1-1.1-1-2.9,0.1-4C635.2,947.4,637,947.4,638.1,948.5z
				"/>
		</g>
		<g>
			<linearGradient id="SVGID_2_" gradientUnits="userSpaceOnUse" x1="1094.9767" y1="636.9282" x2="892.232" y2="1556.0345">
				<stop  offset="0" style="stop-color:#FF928E"/>
				<stop  offset="1" style="stop-color:#FE7062"/>
			</linearGradient>
			<path class="st6" d="M934.9,1216.3c0.6-10.4-7.3-19.3-17.7-19.8c-34.3-1.7-110.1,6.8-182.5,98.4
				c-97.5,123.5-23.1,297.1,177.9,304.1c184.6,6.4,250.4-131.9,249-216.4c-0.2-10.7-10.8-18.2-21.1-15l-198.2,61.3
				c-10.1,3.1-20.3-4.8-19.6-15.4L934.9,1216.3z"/>
			<linearGradient id="SVGID_3_" gradientUnits="userSpaceOnUse" x1="1197.2701" y1="659.4945" x2="994.525" y2="1578.603">
				<stop  offset="0" style="stop-color:#FF928E"/>
				<stop  offset="1" style="stop-color:#FE7062"/>
			</linearGradient>
			<path class="st7" d="M984,1193.5l-34.5,184.4c-1.8,9.7,8,17.5,17,13.5l171-75.2c11.3-5,17.3-17.7,13.6-29.5
				c-10.2-33.2-42.5-94.9-142.9-110.5C996.8,1174.4,986.1,1182.2,984,1193.5z"/>
			<path class="st8" d="M833.9,1564.9c-0.7,0-1.3-0.1-2-0.3c-20.1-6.3-119.9-44.3-115-172.3c4.4-113.9,136.4-169.1,142-171.4
				c3.4-1.4,7.2,0.2,8.6,3.6c1.4,3.4-0.2,7.2-3.6,8.6c-1.3,0.5-129.8,54.3-133.8,159.6c-4.4,115.4,79.8,151,105.8,159.2
				c3.5,1.1,5.4,4.8,4.3,8.3C839.3,1563,836.7,1564.9,833.9,1564.9z"/>
			<path class="st8" d="M972.7,1364.6c-0.6,0-1.2-0.1-1.8-0.2c-3.5-1-5.6-4.6-4.6-8.1l38.7-140.7c1.8-6.6,6.1-12.1,12.2-15.3
				c6-3.3,12.9-3.9,19.4-1.9c20.3,6.4,58.8,23.2,87.7,64.1c2.1,3,1.4,7.1-1.6,9.2c-3,2.1-7.1,1.4-9.2-1.6
				c-26.7-37.7-62.1-53.2-80.8-59.1c-3.1-1-6.3-0.6-9.1,0.9c-2.8,1.5-4.9,4.1-5.7,7.2l-38.7,140.7
				C978.3,1362.7,975.6,1364.6,972.7,1364.6z"/>
		</g>
		<g>
			<g>
				<linearGradient id="SVGID_4_" gradientUnits="userSpaceOnUse" x1="1193.5889" y1="1705.5009" x2="2878.3188" y2="1705.5009">
					<stop  offset="0" style="stop-color:#09005D"/>
					<stop  offset="1" style="stop-color:#1A0F91"/>
				</linearGradient>
				<path class="st9" d="M1221.1,525.8c-8.9,418.6-37.6,1862.4-23.9,2374c1.5,54.2,38.6,97.7,84.9,99.5
					c229.2,8.8,1069.2,31,1444.1,12.6c78.1-3.8,140.2-77.8,141.8-169.2c7.8-439.3,25-1675.1-15.9-2241.1
					c-4.9-67.8-50.4-121.8-108.3-128.6c-249.6-29.2-1093.3-100.6-1417.1-76C1268.4,401.4,1222.6,457.4,1221.1,525.8z"/>
				<path class="st2" d="M1323.4,654.3c-12.3,337.9-51.2,1461.8-38.9,1877.4c1.8,60.7,42.7,109.9,94.6,113.4
					c213.6,14.6,942.2,46.9,1255.4,17.5c56.4-5.3,100.7-58.6,103.7-124.8c15.9-344.7,61.5-1391.2,49.6-1802.2
					c-1.9-65.6-45.3-119.1-101.1-125c-231-24.3-1005.3-82-1271.5-65C1365.3,548.9,1325.5,595.8,1323.4,654.3z"/>
				<path class="st10" d="M1787.5,470.1L1787.5,470.1c0,12.8,8.6,23.4,19.5,24.1c54.1,3.3,206.6,12.7,274.7,17.3
					c13.4,0.9,24-13.2,21.4-28.7l-0.4-2.6c-1.7-10.5-9.2-18.5-18.4-19.5c-46.1-4.9-185-18.6-277.1-14.8
					C1796.2,446.5,1787.5,457.2,1787.5,470.1z"/>
			</g>
			<g>
				<path class="st11" d="M1440.6,1578.6v197.9c0,16.1,13.1,29.2,29.2,29.2h958.9c13.4,0,25.1,9.1,28.3,22.1l17.2,68.9
					c2.3,9.1,15,9.9,18.3,1.1l22.2-58.2c4.3-11.3,15.2-18.8,27.3-18.8h41.2c16.1,0,29.2-13.1,29.2-29.2v-203.4
					c0-16-12.9-29.1-28.9-29.2l-1113.5-9.6C1453.8,1549.3,1440.6,1562.4,1440.6,1578.6z"/>
				<path class="st11" d="M2612.4,1955.8v197.9c0,16.1-13.1,29.2-29.2,29.2h-958.9c-13.4,0-25.1,9.1-28.3,22.1l-17.2,68.9
					c-2.3,9.1-15,9.9-18.3,1.1l-22.2-58.2c-4.3-11.3-15.2-18.8-27.3-18.8h-41.2c-16.1,0-29.2-13.1-29.2-29.2v-203.4
					c0-16,12.9-29.1,28.9-29.2l1113.5-9.6C2599.2,1926.5,2612.4,1939.6,2612.4,1955.8z"/>
				<g>
					<ellipse class="st12" cx="1576.4" cy="1667.3" rx="95.6" ry="98.1"/>
					<g>
						<path class="st13" d="M1547.7,1708.6c7.1,2.1,37.2,9.7,66.9,0.1c0.8-0.3,1.6,0.3,1.6,1.2v2.3c0,0.5-0.3,0.9-0.7,1.1
							c-5.2,2.3-37.4,15.6-68.8-2.4c-0.4-0.2-0.6-0.6-0.6-1.1l0,0C1546.2,1709,1546.9,1708.4,1547.7,1708.6z"/>
						<path class="st13" d="M1518.8,1613.1c0,2-1.6,3.6-3.6,3.6c-2,0-3.6-1.6-3.6-3.6s1.6-3.6,3.6-3.6
							C1517.2,1609.5,1518.8,1611.1,1518.8,1613.1z"/>
						<path class="st13" d="M1515.3,1642.5c0,0,8.5,1.1,13.2-10l-2.3-4.7c-0.8-1.6-2.7-2.2-4.3-1.5l-4.9,2.4
							c-1.1,0.5-1.8,1.6-1.8,2.8V1642.5z"/>
						<path class="st13" d="M1515.6,1614.8l3.2,17.3l3.6-2.4l-6.4-15C1515.9,1614.5,1515.6,1614.6,1515.6,1614.8z"/>
						<path class="st13" d="M1640,1613.1c0,2,1.6,3.6,3.6,3.6c2,0,3.6-1.6,3.6-3.6s-1.6-3.6-3.6-3.6
							C1641.6,1609.5,1640,1611.1,1640,1613.1z"/>
						<path class="st13" d="M1643.6,1642.5c0,0-8.5,1.1-13.2-10l2.3-4.7c0.8-1.6,2.7-2.2,4.3-1.5l4.9,2.4c1.1,0.5,1.8,1.6,1.8,2.8
							V1642.5z"/>
						<path class="st13" d="M1643.3,1614.8l-3.2,17.3l-3.6-2.4l6.4-15C1643,1614.5,1643.3,1614.6,1643.3,1614.8z"/>
						<path class="st13" d="M1580.6,1619c-38.7,0-76.1,21.1-76.1,46.3c0,25.3,37.3,45.2,76.1,45.2c38.7,0,70.1-20.5,70.1-45.7
							C1650.7,1639.5,1619.3,1619,1580.6,1619z M1558,1692.7c-1.3,0-2.4-1.1-2.4-2.4c0-1.3,1.1-2.4,2.4-2.4c1.3,0,2.4,1.1,2.4,2.4
							C1560.4,1691.6,1559.4,1692.7,1558,1692.7z M1565.2,1693.9c-1.3,0-2.4-1.1-2.4-2.4c0-1.3,1.1-2.4,2.4-2.4
							c1.3,0,2.4,1.1,2.4,2.4C1567.6,1692.8,1566.5,1693.9,1565.2,1693.9z M1572.3,1695c-1.3,0-2.4-1.1-2.4-2.4
							c0-1.3,1.1-2.4,2.4-2.4c1.3,0,2.4,1.1,2.4,2.4C1574.7,1694,1573.6,1695,1572.3,1695z M1579.4,1695c-1.3,0-2.4-1.1-2.4-2.4
							c0-1.3,1.1-2.4,2.4-2.4c1.3,0,2.4,1.1,2.4,2.4C1581.8,1694,1580.7,1695,1579.4,1695z M1586.6,1695c-1.3,0-2.4-1.1-2.4-2.4
							c0-1.3,1.1-2.4,2.4-2.4s2.4,1.1,2.4,2.4C1588.9,1694,1587.9,1695,1586.6,1695z M1593.7,1693.9c-1.3,0-2.4-1.1-2.4-2.4
							c0-1.3,1.1-2.4,2.4-2.4c1.3,0,2.4,1.1,2.4,2.4C1596.1,1692.8,1595,1693.9,1593.7,1693.9z M1600.8,1692.7
							c-1.3,0-2.4-1.1-2.4-2.4c0-1.3,1.1-2.4,2.4-2.4c1.3,0,2.4,1.1,2.4,2.4C1603.2,1691.6,1602.1,1692.7,1600.8,1692.7z"/>
					</g>
				</g>
				<path class="st11" d="M1440.6,2333v197.9c0,16.1,13.1,29.2,29.2,29.2h958.9c13.4,0,25.1,9.1,28.3,22.1l17.2,68.9
					c2.3,9.1,15,9.9,18.3,1.1l22.2-58.2c4.3-11.3,15.2-18.8,27.3-18.8h41.2c16.1,0,29.2-13.1,29.2-29.2v-203.4
					c0-16-12.9-29.1-28.9-29.2l-1113.5-9.6C1453.8,2303.7,1440.6,2316.8,1440.6,2333z"/>
				<g>
					<ellipse class="st12" cx="2476.6" cy="2044.5" rx="95.6" ry="98.1"/>
					<g>
						<path class="st13" d="M2511.3,2004.8c0,17.6-14.3,36.6-31.9,36.6c-17.6,0-31.9-19-31.9-36.6c0-17.6,14.3-30.1,31.9-30.1
							C2497,1974.7,2511.3,1987.2,2511.3,2004.8z"/>
						<path class="st13" d="M2439.8,2109.2h77.9c8.2,0,15.5-5.3,18-13.1l4.2-13.1c3.1-9.6-1.9-20-11.4-23.4
							c-31.7-11.6-64.5-10.1-98,1.1c-9.4,3.1-14.6,13.2-12,22.8l3.2,11.9C2423.8,2103.5,2431.3,2109.2,2439.8,2109.2z"/>
					</g>
				</g>
			</g>
			<g>
				
					<linearGradient id="SVGID_5_" gradientUnits="userSpaceOnUse" x1="1308.8959" y1="68.3715" x2="2011.6897" y2="1408.3373" gradientTransform="matrix(0.9998 2.040000e-02 -2.040000e-02 0.9998 90.8484 -19.9523)">
					<stop  offset="0" style="stop-color:#09005D"/>
					<stop  offset="1" style="stop-color:#1A0F91"/>
				</linearGradient>
				<path class="st14" d="M2456,1435.4l-837.9-17.1c-37.3-0.8-67.2-31.9-66.4-69.2v0c0.8-37.3,31.9-67.2,69.2-66.4l837.9,17.1
					c37.3,0.8,67.2,31.9,66.4,69.2v0C2524.4,1406.3,2493.3,1436.1,2456,1435.4z"/>
				
					<linearGradient id="SVGID_6_" gradientUnits="userSpaceOnUse" x1="1625.9763" y1="575.914" x2="2498.2788" y2="1832.443" gradientTransform="matrix(0.9998 2.040000e-02 -2.040000e-02 0.9998 90.8484 -19.9523)">
					<stop  offset="0" style="stop-color:#4F52FF"/>
					<stop  offset="1" style="stop-color:#4042E2"/>
				</linearGradient>
				<path class="st15" d="M2666,1247.8c-1.8,87-74.4,156.8-161.5,155l-919.3-18.7c-87-1.8-156.8-74.4-155-161.5l4.3-210.5
					c3.2-158.6,135.6-285.7,294.2-282.5l659.1,13.4c158.6,3.2,285.7,135.6,282.5,294.2L2666,1247.8z"/>
				<g>
					<linearGradient id="SVGID_7_" gradientUnits="userSpaceOnUse" x1="2033.5565" y1="594.077" x2="2033.5565" y2="1276.649">
						<stop  offset="0" style="stop-color:#09005D"/>
						<stop  offset="1" style="stop-color:#1A0F91"/>
					</linearGradient>
					<path class="st16" d="M2497.4,1121.4c-0.9,45.9-36.5,83.6-82.3,87c-247.6,18.2-503.9,13.7-767.3-15.9
						c-45.7-5.1-80-44.3-79.1-90.3l1-48.2c0.9-45.7,36.3-83.4,81.9-87c257-20.3,513.6-19.5,769.8,14.4c44.8,5.9,77.9,44.9,77,90.1
						L2497.4,1121.4z"/>
					<g>
						
							<ellipse transform="matrix(9.852967e-02 -0.9951 0.9951 9.852967e-02 529.7875 2750.3088)" class="st12" cx="1782.9" cy="1082.7" rx="56.4" ry="56.4"/>
						<path class="st12" d="M2340.6,1094.1c-0.6,31.2-26.4,55.9-57.6,55.3c-31.2-0.6-55.9-26.4-55.3-57.6
							c0.6-31.2,26.4-55.9,57.6-55.3C2316.4,1037.2,2341.2,1062.9,2340.6,1094.1z"/>
					</g>
					<g>
						<path class="st12" d="M1783,1161.2c-0.1-1.9,1.3-3.4,3.1-3.5l0,0c1.9-0.1,3.4,1.3,3.5,3.2l0,0c0.1,1.8-1.3,3.4-3.2,3.4l0,0
							c-0.1,0-0.1,0-0.2,0l0,0C1784.5,1164.3,1783.1,1163,1783,1161.2z M1766.1,1162.7c-1.8-0.4-2.9-2.2-2.6-4l0,0
							c0.4-1.8,2.2-3,4-2.6l0,0c1.8,0.4,2.9,2.1,2.6,4l0,0c-0.3,1.6-1.7,2.7-3.3,2.6l0,0C1766.5,1162.8,1766.3,1162.8,1766.1,1162.7
							z M1802.5,1158.7c-0.5-1.8,0.4-3.6,2.3-4.1l0,0c1.8-0.6,3.6,0.4,4.1,2.2l0,0c0.6,1.8-0.4,3.6-2.2,4.2l0,0l0,0l0,0
							c-0.4,0.1-0.7,0.1-1,0.1l0,0C1804.2,1161,1803,1160.2,1802.5,1158.7z M1746.7,1156c-1.7-0.8-2.3-2.8-1.5-4.4l0,0
							c0.8-1.7,2.8-2.4,4.4-1.5l0,0c1.7,0.8,2.3,2.8,1.5,4.4l0,0c-0.6,1.3-1.8,1.9-3.1,1.9l0,0
							C1747.7,1156.3,1747.2,1156.3,1746.7,1156z M1820.8,1151.5c-1-1.6-0.5-3.6,1.1-4.6l0,0c1.5-0.9,3.6-0.4,4.6,1.1l0,0
							c0.9,1.6,0.5,3.6-1.1,4.6l0,0l0,0l0,0c-0.6,0.4-1.2,0.5-1.8,0.4l0,0C1822.5,1153,1821.4,1152.5,1820.8,1151.5z M1729.6,1144.7
							c-1.4-1.2-1.6-3.3-0.3-4.7l0,0c1.2-1.4,3.3-1.5,4.7-0.3l0,0c1.4,1.2,1.5,3.3,0.3,4.7l0,0c-0.7,0.8-1.7,1.2-2.6,1.2l0,0
							C1731,1145.5,1730.2,1145.3,1729.6,1144.7z M1836.7,1139.9c-1.3-1.3-1.3-3.4,0-4.8l0,0c1.3-1.3,3.4-1.3,4.7,0l0,0
							c1.3,1.3,1.3,3.4,0,4.7l0,0l0,0l0,0c-0.7,0.7-1.5,1-2.4,1l0,0C1838.1,1140.8,1837.3,1140.5,1836.7,1139.9z M1715.9,1129.5
							c-1.1-1.5-0.7-3.6,0.8-4.6l0,0c1.5-1.1,3.6-0.7,4.7,0.8l0,0c1.1,1.5,0.7,3.6-0.9,4.6l0,0c-0.6,0.4-1.3,0.6-1.9,0.6l0,0
							C1717.6,1130.9,1716.5,1130.4,1715.9,1129.5z M1849.2,1124.8c-1.6-0.9-2.1-2.9-1.2-4.5l0,0c0.9-1.6,3-2.1,4.5-1.2l0,0
							c1.6,0.9,2.2,3,1.2,4.5l0,0l0,0l0,0c-0.6,1.1-1.8,1.7-3,1.7l0,0C1850.3,1125.2,1849.7,1125.1,1849.2,1124.8z M1706.4,1111.4
							L1706.4,1111.4L1706.4,1111.4c-0.6-1.7,0.3-3.7,2-4.3l0,0c1.7-0.6,3.6,0.3,4.3,2l0,0c0.6,1.7-0.3,3.7-2,4.3l0,0
							c-0.4,0.1-0.8,0.2-1.3,0.2l0,0C1708.1,1113.6,1706.9,1112.8,1706.4,1111.4z M1857.6,1107c-1.8-0.5-2.8-2.3-2.3-4.1l0,0
							c0.5-1.7,2.3-2.8,4.1-2.3l0,0c1.8,0.5,2.8,2.3,2.3,4.1l0,0c0,0,0,0,0,0.1l0,0c-0.4,1.4-1.8,2.4-3.3,2.4l0,0
							C1858.1,1107.1,1857.8,1107,1857.6,1107z M1701.7,1091.5c-0.2-1.8,1.2-3.5,3-3.7l0,0c1.8-0.2,3.5,1.2,3.7,3l0,0
							c0.2,1.8-1.2,3.5-3,3.7l0,0c-0.1,0-0.3,0-0.4,0l0,0C1703.3,1094.4,1701.9,1093.2,1701.7,1091.5z M1858,1084.3
							c0-0.1,0-0.1,0-0.1l0,0c0-0.1,0-0.1,0-0.2l0,0c0-1.8,1.5-3.3,3.4-3.2l0,0c1.8,0,3.3,1.6,3.2,3.4l0,0c0,0.1,0,0.1,0,0.2l0,0
							c0,0.1,0,0.1,0,0.2l0,0c0,1.8-1.5,3.3-3.4,3.2l0,0C1859.4,1087.6,1857.9,1086.1,1858,1084.3z M1858,1083.9L1858,1083.9
							L1858,1083.9L1858,1083.9L1858,1083.9C1858,1083.9,1858,1084,1858,1083.9z M1704.9,1074.8c-1.9-0.3-3.1-1.9-2.9-3.7l0,0
							c0.3-1.9,2-3.1,3.8-2.8l0,0c1.8,0.2,3.1,1.9,2.8,3.7l0,0c-0.2,1.7-1.7,2.9-3.4,2.9l0,0
							C1705.1,1074.8,1705,1074.8,1704.9,1074.8z M1856,1065.3c-0.4-1.8,0.7-3.6,2.4-4l0,0c1.8-0.4,3.6,0.7,4.1,2.4l0,0
							c0.4,1.8-0.7,3.6-2.5,4.1l0,0c-0.3,0.1-0.5,0-0.8,0l0,0C1857.7,1067.8,1856.3,1066.8,1856,1065.3z M1709.3,1055.6
							c-1.7-0.7-2.5-2.6-1.8-4.4l0,0c0.7-1.7,2.6-2.5,4.4-1.8l0,0c1.7,0.7,2.5,2.6,1.8,4.4l0,0c-0.6,1.3-1.9,2.1-3.2,2l0,0
							C1710.1,1055.9,1709.7,1055.8,1709.3,1055.6z M1849.3,1047.7L1849.3,1047.7c-0.9-1.6-0.2-3.7,1.4-4.5l0,0
							c1.6-0.9,3.6-0.3,4.5,1.4l0,0l0,0l0,0c0.9,1.6,0.3,3.6-1.4,4.5l0,0c-0.5,0.3-1.1,0.4-1.6,0.4l0,0
							C1851,1049.4,1849.9,1048.8,1849.3,1047.7z M1718.4,1038.2c-1.5-1.2-1.8-3.2-0.7-4.7l0,0c1.1-1.4,3.2-1.7,4.7-0.6l0,0
							c1.5,1.1,1.8,3.2,0.7,4.7l0,0c-0.7,0.9-1.7,1.4-2.7,1.3l0,0C1719.6,1038.8,1718.9,1038.6,1718.4,1038.2z M1838.5,1032.3
							L1838.5,1032.3c-1.2-1.4-1.1-3.5,0.2-4.7l0,0c1.4-1.2,3.5-1.1,4.8,0.2l0,0c1.2,1.4,1.1,3.5-0.2,4.7l0,0
							c-0.7,0.6-1.5,0.9-2.3,0.9l0,0C1840,1033.3,1839.1,1033,1838.5,1032.3z M1731.4,1023.5c-1.1-1.4-0.9-3.5,0.5-4.7l0,0
							c1.5-1.1,3.5-0.9,4.7,0.5l0,0c1.1,1.5,0.9,3.6-0.5,4.7l0,0c-0.7,0.5-1.4,0.8-2.2,0.7l0,0
							C1733,1024.8,1732.1,1024.3,1731.4,1023.5z M1824.2,1020L1824.2,1020c-1.5-1-1.9-3.1-0.9-4.6l0,0c1-1.5,3.1-2,4.6-1l0,0l0,0
							l0,0c1.5,1.1,2,3.1,1,4.7l0,0c-0.7,0.9-1.8,1.5-2.9,1.4l0,0C1825.4,1020.6,1824.8,1020.4,1824.2,1020z M1747.8,1012.6
							c-0.7-1.7,0-3.7,1.7-4.4l0,0c1.7-0.7,3.7,0,4.4,1.7l0,0c0.8,1.6,0,3.6-1.7,4.4l0,0c-0.4,0.2-0.9,0.3-1.4,0.3l0,0
							C1749.5,1014.5,1748.3,1013.8,1747.8,1012.6z M1807.4,1011.7L1807.4,1011.7c-1.7-0.6-2.7-2.5-2.1-4.3l0,0
							c0.6-1.7,2.5-2.7,4.3-2l0,0c0,0,0,0-0.1,0l0,0c1.8,0.6,2.7,2.5,2.1,4.2l0,0c-0.5,1.4-1.8,2.3-3.2,2.3l0,0
							C1808,1011.9,1807.7,1011.9,1807.4,1011.7z M1766.3,1006c-0.3-1.8,0.9-3.5,2.7-3.8l0,0c1.8-0.3,3.5,0.9,3.9,2.7l0,0
							c0.3,1.8-0.9,3.5-2.7,3.9l0,0c-0.2,0.1-0.4,0.1-0.7,0l0,0C1768,1008.8,1766.6,1007.7,1766.3,1006z M1788.9,1007.9
							L1788.9,1007.9c-1.8-0.2-3.2-1.8-3.1-3.6l0,0c0.2-1.8,1.8-3.2,3.6-3.1l0,0l0,0l0,0c1.8,0.2,3.2,1.8,3.1,3.6l0,0
							c-0.2,1.7-1.7,3.1-3.4,3.1l0,0C1789,1007.9,1789,1007.9,1788.9,1007.9z"/>
					</g>
					<g>
						<path class="st12" d="M2284,1171.4c-0.1-1.9,1.3-3.4,3.1-3.5l0,0c1.9-0.1,3.4,1.3,3.5,3.2l0,0c0.1,1.8-1.3,3.4-3.2,3.4l0,0
							c-0.1,0-0.1,0-0.2,0l0,0C2285.5,1174.5,2284,1173.2,2284,1171.4z M2267,1173c-1.8-0.4-2.9-2.2-2.6-4l0,0c0.4-1.8,2.2-3,4-2.6
							l0,0c1.8,0.4,2.9,2.1,2.6,4l0,0c-0.3,1.6-1.7,2.7-3.3,2.6l0,0C2267.4,1173,2267.2,1173,2267,1173z M2303.4,1168.9
							c-0.5-1.8,0.4-3.6,2.3-4.1l0,0c1.8-0.6,3.6,0.4,4.1,2.2l0,0c0.6,1.8-0.4,3.6-2.2,4.2l0,0l0,0l0,0c-0.4,0.1-0.7,0.1-1,0.1l0,0
							C2305.1,1171.3,2303.9,1170.4,2303.4,1168.9z M2247.7,1166.2c-1.7-0.8-2.3-2.8-1.5-4.4l0,0c0.8-1.7,2.8-2.4,4.4-1.5l0,0
							c1.7,0.8,2.3,2.8,1.5,4.4l0,0c-0.6,1.3-1.8,1.9-3.1,1.9l0,0C2248.6,1166.5,2248.1,1166.5,2247.7,1166.2z M2321.7,1161.7
							c-1-1.6-0.5-3.6,1.1-4.6l0,0c1.5-0.9,3.6-0.4,4.6,1.1l0,0c0.9,1.6,0.5,3.6-1.1,4.6l0,0l0,0l0,0c-0.6,0.4-1.2,0.5-1.8,0.4l0,0
							C2323.4,1163.2,2322.3,1162.7,2321.7,1161.7z M2230.6,1154.9c-1.4-1.2-1.6-3.3-0.3-4.7l0,0c1.2-1.4,3.3-1.5,4.7-0.3l0,0
							c1.4,1.2,1.5,3.3,0.3,4.7l0,0c-0.7,0.8-1.7,1.2-2.6,1.2l0,0C2231.9,1155.7,2231.2,1155.5,2230.6,1154.9z M2337.6,1150.1
							c-1.3-1.3-1.3-3.4,0-4.8l0,0c1.3-1.3,3.4-1.3,4.7,0l0,0c1.3,1.3,1.3,3.4,0,4.7l0,0l0,0l0,0c-0.7,0.7-1.5,1-2.4,1l0,0
							C2339,1151,2338.2,1150.7,2337.6,1150.1z M2216.8,1139.7c-1.1-1.5-0.7-3.6,0.8-4.6l0,0c1.5-1.1,3.6-0.7,4.7,0.8l0,0
							c1.1,1.5,0.7,3.6-0.9,4.6l0,0c-0.6,0.4-1.3,0.6-1.9,0.6l0,0C2218.5,1141.1,2217.5,1140.6,2216.8,1139.7z M2350.1,1135
							c-1.6-0.9-2.1-2.9-1.2-4.5l0,0c0.9-1.6,3-2.1,4.5-1.2l0,0c1.6,0.9,2.2,3,1.2,4.5l0,0l0,0l0,0c-0.6,1.1-1.8,1.7-3,1.7l0,0
							C2351.2,1135.4,2350.6,1135.3,2350.1,1135z M2207.3,1121.6L2207.3,1121.6L2207.3,1121.6c-0.6-1.7,0.3-3.7,2-4.3l0,0
							c1.7-0.6,3.6,0.3,4.3,2l0,0c0.6,1.7-0.3,3.7-2,4.3l0,0c-0.4,0.1-0.8,0.2-1.3,0.2l0,0C2209.1,1123.8,2207.8,1123,2207.3,1121.6
							z M2358.5,1117.2c-1.8-0.5-2.8-2.3-2.3-4.1l0,0c0.5-1.7,2.3-2.8,4.1-2.3l0,0c1.8,0.5,2.8,2.3,2.3,4.1l0,0c0,0,0,0,0,0.1l0,0
							c-0.4,1.4-1.8,2.4-3.3,2.4l0,0C2359.1,1117.3,2358.8,1117.2,2358.5,1117.2z M2202.6,1101.7c-0.2-1.8,1.2-3.5,3-3.7l0,0
							c1.8-0.2,3.5,1.2,3.7,3l0,0c0.2,1.8-1.2,3.5-3,3.7l0,0c-0.1,0-0.3,0-0.4,0l0,0C2204.2,1104.6,2202.8,1103.4,2202.6,1101.7z
							 M2358.9,1094.5c0-0.1,0-0.1,0-0.1l0,0c0-0.1,0-0.1,0-0.2l0,0c0-1.8,1.5-3.3,3.4-3.2l0,0c1.8,0,3.3,1.6,3.2,3.4l0,0
							c0,0.1,0,0.1,0,0.2l0,0c0,0.1,0,0.1,0,0.2l0,0c0,1.8-1.5,3.3-3.4,3.2l0,0C2360.4,1097.8,2358.9,1096.3,2358.9,1094.5z
							 M2358.9,1094.1L2358.9,1094.1L2358.9,1094.1L2358.9,1094.1L2358.9,1094.1C2358.9,1094.1,2358.9,1094.2,2358.9,1094.1z
							 M2205.8,1085c-1.9-0.3-3.1-1.9-2.9-3.7l0,0c0.3-1.9,2-3.1,3.8-2.8l0,0c1.8,0.2,3.1,1.9,2.8,3.7l0,0c-0.2,1.7-1.7,2.9-3.4,2.9
							l0,0C2206.1,1085.1,2206,1085,2205.8,1085z M2356.9,1075.5c-0.4-1.8,0.7-3.6,2.4-4l0,0c1.8-0.4,3.6,0.7,4.1,2.4l0,0
							c0.4,1.8-0.7,3.6-2.5,4.1l0,0c-0.3,0.1-0.5,0-0.8,0l0,0C2358.6,1078,2357.2,1077,2356.9,1075.5z M2210.2,1065.8
							c-1.7-0.7-2.5-2.6-1.8-4.4l0,0c0.7-1.7,2.6-2.5,4.4-1.8l0,0c1.7,0.7,2.5,2.6,1.8,4.4l0,0c-0.6,1.3-1.9,2.1-3.2,2l0,0
							C2211,1066.1,2210.6,1066,2210.2,1065.8z M2350.3,1057.9L2350.3,1057.9c-0.9-1.6-0.2-3.7,1.4-4.5l0,0c1.6-0.9,3.6-0.3,4.5,1.4
							l0,0l0,0l0,0c0.9,1.6,0.3,3.6-1.4,4.5l0,0c-0.5,0.3-1.1,0.4-1.6,0.4l0,0C2352,1059.6,2350.8,1059,2350.3,1057.9z
							 M2219.3,1048.4c-1.5-1.2-1.8-3.2-0.7-4.7l0,0c1.1-1.4,3.2-1.7,4.7-0.6l0,0c1.5,1.1,1.8,3.2,0.7,4.7l0,0
							c-0.7,0.9-1.7,1.4-2.7,1.3l0,0C2220.6,1049,2219.8,1048.8,2219.3,1048.4z M2339.4,1042.5L2339.4,1042.5
							c-1.2-1.4-1.1-3.5,0.2-4.7l0,0c1.4-1.2,3.5-1.1,4.8,0.2l0,0c1.2,1.4,1.1,3.5-0.2,4.7l0,0c-0.7,0.6-1.5,0.9-2.3,0.9l0,0
							C2341,1043.5,2340.1,1043.2,2339.4,1042.5z M2232.4,1033.7c-1.1-1.4-0.9-3.5,0.5-4.7l0,0c1.5-1.1,3.5-0.9,4.7,0.5l0,0
							c1.1,1.5,0.9,3.6-0.5,4.7l0,0c-0.7,0.5-1.4,0.8-2.2,0.7l0,0C2234,1035,2233,1034.5,2232.4,1033.7z M2325.1,1030.2
							L2325.1,1030.2c-1.5-1-1.9-3.1-0.9-4.6l0,0c1-1.5,3.1-2,4.6-1l0,0l0,0l0,0c1.5,1.1,2,3.1,1,4.7l0,0c-0.7,0.9-1.8,1.5-2.9,1.4
							l0,0C2326.3,1030.8,2325.7,1030.6,2325.1,1030.2z M2248.7,1022.8c-0.7-1.7,0-3.7,1.7-4.4l0,0c1.7-0.7,3.7,0,4.4,1.7l0,0
							c0.8,1.6,0,3.6-1.7,4.4l0,0c-0.4,0.2-0.9,0.3-1.4,0.3l0,0C2250.4,1024.7,2249.2,1024,2248.7,1022.8z M2308.3,1021.9
							L2308.3,1021.9c-1.7-0.6-2.7-2.5-2.1-4.3l0,0c0.6-1.7,2.5-2.7,4.3-2l0,0c0,0,0,0-0.1,0l0,0c1.8,0.6,2.7,2.5,2.1,4.2l0,0
							c-0.5,1.4-1.8,2.3-3.2,2.3l0,0C2309,1022.1,2308.6,1022.1,2308.3,1021.9z M2267.2,1016.2c-0.3-1.8,0.9-3.5,2.7-3.8l0,0
							c1.8-0.3,3.5,0.9,3.9,2.7l0,0c0.3,1.8-0.9,3.5-2.7,3.9l0,0c-0.2,0.1-0.4,0.1-0.7,0l0,0
							C2268.9,1019,2267.5,1017.9,2267.2,1016.2z M2289.9,1018.1L2289.9,1018.1c-1.8-0.2-3.2-1.8-3.1-3.6l0,0
							c0.2-1.8,1.8-3.2,3.6-3.1l0,0l0,0l0,0c1.8,0.2,3.2,1.8,3.1,3.6l0,0c-0.2,1.7-1.7,3.1-3.4,3.1l0,0
							C2290,1018.1,2289.9,1018.1,2289.9,1018.1z"/>
					</g>
				</g>
				<linearGradient id="SVGID_8_" gradientUnits="userSpaceOnUse" x1="1466.1697" y1="593.4911" x2="1528.7902" y2="593.4911">
					<stop  offset="0" style="stop-color:#4F52FF"/>
					<stop  offset="1" style="stop-color:#4042E2"/>
				</linearGradient>
				<path class="st17" d="M1528.8,594.1c-0.4,17.3-14.7,31-31.9,30.7c-17.3-0.4-31-14.7-30.7-31.9c0.4-17.3,14.7-31,31.9-30.7
					C1515.4,562.5,1529.1,576.8,1528.8,594.1z"/>
				
					<linearGradient id="SVGID_9_" gradientUnits="userSpaceOnUse" x1="1418.847" y1="771.1096" x2="1534.5079" y2="771.1096" gradientTransform="matrix(0.9998 2.040000e-02 -2.040000e-02 0.9998 90.8484 -19.9523)">
					<stop  offset="0" style="stop-color:#09005D"/>
					<stop  offset="1" style="stop-color:#1A0F91"/>
				</linearGradient>
				<path class="st18" d="M1492.2,852.2c0,0,74.6,11.1,117.4-85.7l-19-41.4c-6.5-14.1-23.2-20.2-37.2-13.5l-43.4,20.6
					c-9.5,4.5-15.7,14-15.9,24.6L1492.2,852.2z"/>
				<linearGradient id="SVGID_10_" gradientUnits="userSpaceOnUse" x1="1500.0388" y1="680.9305" x2="1553.1688" y2="680.9305">
					<stop  offset="0" style="stop-color:#4F52FF"/>
					<stop  offset="1" style="stop-color:#4042E2"/>
				</linearGradient>
				<path class="st19" d="M1503.4,608.1c-0.8-1.9-3.7-1.1-3.3,0.9l23,137.9c0.5,3.1,2.6,5.8,5.5,7.1c2.9,1.3,6.3,1,8.9-0.7l8.1-5.1
					c6.7-4.3,9.4-12.7,6.4-20.1L1503.4,608.1z"/>
				<linearGradient id="SVGID_11_" gradientUnits="userSpaceOnUse" x1="2593.0996" y1="616.4479" x2="2655.7205" y2="616.4479">
					<stop  offset="0" style="stop-color:#4F52FF"/>
					<stop  offset="1" style="stop-color:#4042E2"/>
				</linearGradient>
				<path class="st20" d="M2593.1,615.8c-0.4,17.3,13.4,31.6,30.7,31.9c17.3,0.4,31.6-13.4,31.9-30.7c0.4-17.3-13.4-31.6-30.7-31.9
					C2607.8,584.8,2593.5,598.5,2593.1,615.8z"/>
				
					<linearGradient id="SVGID_12_" gradientUnits="userSpaceOnUse" x1="2430.3416" y1="771.075" x2="2546.0046" y2="771.075" gradientTransform="matrix(0.9998 2.040000e-02 -2.040000e-02 0.9998 90.8484 -19.9523)">
					<stop  offset="0" style="stop-color:#09005D"/>
					<stop  offset="1" style="stop-color:#1A0F91"/>
				</linearGradient>
				<path class="st21" d="M2619.1,875.1c0,0-75,8-113.8-90.4l20.7-40.6c7-13.8,24-19.2,37.7-12l42.5,22.3
					c9.3,4.9,15.1,14.7,14.9,25.2L2619.1,875.1z"/>
				<linearGradient id="SVGID_13_" gradientUnits="userSpaceOnUse" x1="2563.0193" y1="702.8815" x2="2621.2358" y2="702.8815">
					<stop  offset="0" style="stop-color:#4F52FF"/>
					<stop  offset="1" style="stop-color:#4042E2"/>
				</linearGradient>
				<path class="st22" d="M2621.2,631.9l-28.4,136.3c-0.7,3.2-2.9,5.9-6,7.2c-3.1,1.2-6.6,0.8-9.3-1.1l-7.4-5.1
					c-6.5-4.5-8.9-13.1-5.6-20.4l53.4-118C2618.8,628.9,2621.6,629.8,2621.2,631.9z"/>
				<path class="st12" d="M1705.2,889.2c-17-0.3-31.2-13.6-32.4-30.9c-1.2-18.3,12.6-34.1,30.8-35.3
					c241.4-16.5,461.7-12.7,673.3,11.6c18.2,2.1,31.3,18.5,29.2,36.7c-2.1,18.2-18.5,31.3-36.7,29.2
					c-207.6-23.8-423.9-27.5-661.3-11.3C1707.1,889.1,1706.1,889.2,1705.2,889.2z"/>
				<g>
					<path class="st12" d="M2035.3,1236.5c-134-2.7-268.9-12.1-403.8-28.2c-49.5-5.9-86-50.5-84.9-103.7l1.1-53.7
						c1.1-52.8,39-95.9,88.3-100.1c290.4-24.9,552.7-20,801.9,15c48.2,6.8,83.8,51.2,82.7,103.4l-1.1,55.6
						c-1.1,53.1-39.2,96.1-88.6,100.1C2300.5,1235.4,2168.4,1239.3,2035.3,1236.5z M2058.2,942.3c-134.6-2.7-274.6,2.2-421.7,14.9
						c-46.1,3.9-81.5,44.4-82.6,94l-1.1,53.7c-1,50,33.1,91.9,79.4,97.4c268.6,31.9,537.1,37.5,798,16.5c46.2-3.7,81.9-44.1,82.9-94
						l1.1-55.6c1-49-32.2-90.8-77.3-97.1C2314.5,954.8,2188.8,944.9,2058.2,942.3z"/>
				</g>
			</g>
		</g>
		<g>
			
				<linearGradient id="SVGID_14_" gradientUnits="userSpaceOnUse" x1="-3657.4414" y1="347.736" x2="-4003.7273" y2="773.446" gradientTransform="matrix(-0.9922 -0.1247 -0.1247 0.9922 -1040.9939 715.4178)">
				<stop  offset="0" style="stop-color:#FEBBBA"/>
				<stop  offset="1" style="stop-color:#FF928E"/>
			</linearGradient>
			<path class="st23" d="M2577.6,1637.1c2.3-4.3,8.6-3.6,9.9,1.1c4.8,17.3,16.5,47.6,41,58.4c1.2,0.5,2.4,1.1,3.5,1.6
				c1.1-3.3,1.1-7.2-1.5-11.3c-7.6-11.6,6.1-27.5,6.1-27.5s0.9,14,11.5,22.8c9.2,7.6,13.6,24.5,7.3,38.3
				c-13.2,51.5-33.1,119.5,44.2,169.2c77.3,49.7,186.1-93.8,186.1-93.8l-54,171.2c0,0-83.4,61.5-180.3-25
				c-97-86.5-32.7-212.4-32.7-212.4S2544.7,1699.9,2577.6,1637.1z"/>
			<linearGradient id="SVGID_15_" gradientUnits="userSpaceOnUse" x1="2931.606" y1="1888.6166" x2="3159.6829" y2="1467.942">
				<stop  offset="0" style="stop-color:#E1473D"/>
				<stop  offset="1" style="stop-color:#E9605A"/>
			</linearGradient>
			<path class="st24" d="M2899.2,1544.3c0,0-22.4-100.4,92.6-73.8c0,0,55.8-9.1,58.7,43.6c0,0,36,23.7,9.6,69.3
				c0,0,107-41.3,153.6,52.4c46.6,93.8,3.8,145.3-41.1,158.8c0,0,36.4,18.3,19.2,59.5c-17.2,41.2-104.4,70.3-156,20.2
				c0,0-146.6,19.4-143.7-84.2c0,0-68.2-44,3.4-129.6C2967.2,1574.9,2899.2,1544.3,2899.2,1544.3z"/>
			<linearGradient id="SVGID_16_" gradientUnits="userSpaceOnUse" x1="2803.1194" y1="1998.6484" x2="3060.1296" y2="1998.6484">
				<stop  offset="0" style="stop-color:#4F52FF"/>
				<stop  offset="1" style="stop-color:#4042E2"/>
			</linearGradient>
			<path class="st25" d="M2892.9,1777.1c23.1-6.9,90.4-19.7,154.4,39.4c10.9,10,15.3,25.2,11.4,39.5
				c-17.2,63.3-62.6,250.3-22.8,331.2c0,0-70.1,77.3-146.6,15c0,0-34.3-149.5-79.3-215.2c-31-45.3,49.5-170.2,69.8-200.4
				C2883.1,1782,2887.6,1778.6,2892.9,1777.1z"/>
			
				<linearGradient id="SVGID_17_" gradientUnits="userSpaceOnUse" x1="3464.0562" y1="76.0771" x2="3482.5566" y2="-55.2755" gradientTransform="matrix(0.9602 0.2794 -0.2794 0.9602 -402.5896 797.6744)">
				<stop  offset="0" style="stop-color:#FEBBBA"/>
				<stop  offset="1" style="stop-color:#FF928E"/>
			</linearGradient>
			<path class="st26" d="M2956.7,1651.3c0,0,34.2,96.7,36.8,139.3c0,0-37.8,17.2-73.4-11.8c0,0-3.7-96.6-9.1-113.9L2956.7,1651.3z"
				/>
			
				<linearGradient id="SVGID_18_" gradientUnits="userSpaceOnUse" x1="3379.2397" y1="-205.3743" x2="3552.2224" y2="-6.4906" gradientTransform="matrix(0.9602 0.2794 -0.2794 0.9602 -402.5896 797.6744)">
				<stop  offset="0" style="stop-color:#FEBBBA"/>
				<stop  offset="1" style="stop-color:#FF928E"/>
			</linearGradient>
			<path class="st27" d="M2909.2,1519.5c0,0-89.4,125.1-36,161.5c53.4,36.3,117.1-52.6,117.1-52.6s20.7-68.5-0.9-91.7
				C2967.7,1513.4,2909.2,1519.5,2909.2,1519.5z"/>
			<linearGradient id="SVGID_19_" gradientUnits="userSpaceOnUse" x1="2813.1057" y1="1824.3689" x2="3041.1821" y2="1403.6952">
				<stop  offset="0" style="stop-color:#E1473D"/>
				<stop  offset="1" style="stop-color:#E9605A"/>
			</linearGradient>
			<path class="st28" d="M2950.6,1489.6c0,0-41.1,9.7-46.8,28.3c-5.8,18.6,58.2,35.8,76.2,36.7l14.5,75c0,0,42.7-70.5,25.8-111.3
				C3003.3,1477.5,2950.6,1489.6,2950.6,1489.6z"/>
			
				<linearGradient id="SVGID_20_" gradientUnits="userSpaceOnUse" x1="3422.4578" y1="-242.9681" x2="3595.4392" y2="-44.0859" gradientTransform="matrix(0.9602 0.2794 -0.2794 0.9602 -402.5896 797.6744)">
				<stop  offset="0" style="stop-color:#FEBBBA"/>
				<stop  offset="1" style="stop-color:#FF928E"/>
			</linearGradient>
			<path class="st29" d="M2973,1619.2c0,0,34.8-40.3,48.6-14c13.8,26.3-31.3,46-47,33.1L2973,1619.2z"/>
			
				<linearGradient id="SVGID_21_" gradientUnits="userSpaceOnUse" x1="-4535.8892" y1="3244.834" x2="-4123.1904" y2="2516.3328" gradientTransform="matrix(-1 -9.500000e-03 -9.500000e-03 1 -1297.0997 56.9446)">
				<stop  offset="0" style="stop-color:#FEBBBA"/>
				<stop  offset="1" style="stop-color:#FF928E"/>
			</linearGradient>
			<path class="st30" d="M2800.1,2516.1c0.3,6.8-11.7,60.6-18.1,89.4c-2.6,11.6-0.8,23.7,5.1,33.9l224.7,378.1
				c2.7,4.6,4.7,9.5,5.9,14.7c4.1,17.7,12.7,61.2,8.2,100.8l-11.6,24.1l50.3-11.4l10.9-135l-14.2-8.7c-12.3-7.5-21.9-18.7-27.3-32
				c-20.3-49.3-70.8-174.9-83.8-236.2c-14.8-69.6-92-126.1-92-126.1l13.6-32.1L2800.1,2516.1z"/>
			
				<linearGradient id="SVGID_22_" gradientUnits="userSpaceOnUse" x1="-4445.9238" y1="2987.2673" x2="-4325.291" y2="2987.2673" gradientTransform="matrix(-1 -9.500000e-03 -9.500000e-03 1 -1297.0997 56.9446)">
				<stop  offset="0" style="stop-color:#09005D"/>
				<stop  offset="1" style="stop-color:#1A0F91"/>
			</linearGradient>
			<path class="st31" d="M3120.3,3099.3c0,0-27.1-43-30.3-59.8s-12.1-46.3-28.8-37.4c0,0-7.9,81.4-5.2,113.2
				c2.7,31.8-35.9,30.8-35.9,30.8s-10.7,1.5-18.5,9.3c-5.4,5.4-1.5,14.7,6.1,15.2c12.7,0.8,32.7,1,53.8-3
				c7.4-1.4,12.8-7.7,13.3-15.2l5.6-93.6l34.2,43.2L3120.3,3099.3z"/>
			
				<linearGradient id="SVGID_23_" gradientUnits="userSpaceOnUse" x1="-4068.2009" y1="2705.9077" x2="-4685.4053" y2="2903.2698" gradientTransform="matrix(-1 -9.500000e-03 -9.500000e-03 1 -1297.0997 56.9446)">
				<stop  offset="0" style="stop-color:#FEBBBA"/>
				<stop  offset="1" style="stop-color:#FF928E"/>
			</linearGradient>
			<path class="st32" d="M2934.3,2576.3c0,0,7.9,338.2,9,386.2c1.1,48-7.6,154.5-55.7,186.3l21,15.5c0,0,26.2-22.3,51.8-65.1
				c28.7-48.1,37.4-56.9,37.4-56.9l-9.5-19.5c-4.2-8.6-5.4-18.2-3.5-27.5c10.4-50.4,45.1-217.9,54.6-254
				c11.2-42.6,12-99.5-26.9-147.1C2973.5,2546.7,2934.3,2576.3,2934.3,2576.3z"/>
			
				<linearGradient id="SVGID_24_" gradientUnits="userSpaceOnUse" x1="-4334.0815" y1="3009.0547" x2="-4190.2754" y2="3009.0547" gradientTransform="matrix(-1 -9.500000e-03 -9.500000e-03 1 -1297.0997 56.9446)">
				<stop  offset="0" style="stop-color:#09005D"/>
				<stop  offset="1" style="stop-color:#1A0F91"/>
			</linearGradient>
			<path class="st33" d="M2978.8,3179.6c1.5,0,2.8-1.1,3-2.5c1.6-11.3,8.3-56.5,13.7-68.2c6.3-13.4,26.7-69.8,0-74.6
				c0,0-66.4,96.9-79.1,110c-12.7,13.1-28.8,4.6-28.8,4.6s-12.4,3.7-21.8,15.6c-4.5,5.7-0.3,14,6.9,14.1l44.7,0.4
				c13,0.1,24.7-7.8,29.5-19.8c7.9-19.6,21.4-48.5,37.1-61.3l-8.2,78.4C2975.7,3178.1,2977,3179.6,2978.8,3179.6L2978.8,3179.6z"/>
			<linearGradient id="SVGID_25_" gradientUnits="userSpaceOnUse" x1="2823.9895" y1="2606.2114" x2="3209.2051" y2="2018.2506">
				<stop  offset="0" style="stop-color:#FE7062"/>
				<stop  offset="1" style="stop-color:#FF928E"/>
			</linearGradient>
			<path class="st34" d="M2878.8,2165.7c0,0,10.1,32.1-5.4,85l-96,335.2c-1.5,5.3,1.3,10.8,6.5,12.6
				c28.7,10.3,123.1,39.4,251.9,30.5c6.5-0.4,11.9-5,13.3-11.4c8.5-38.2,37.5-168.6,43.4-195.4c22.7-102.1,48.1-212.1-63.5-278.7
				C2977.6,2165.6,2929.7,2178.6,2878.8,2165.7z"/>
			
				<linearGradient id="SVGID_26_" gradientUnits="userSpaceOnUse" x1="-4364.0874" y1="962.7852" x2="-3679.4692" y2="179.6824" gradientTransform="matrix(-0.9922 -0.1247 -0.1247 0.9922 -1040.9939 715.4178)">
				<stop  offset="0" style="stop-color:#FEBBBA"/>
				<stop  offset="1" style="stop-color:#FF928E"/>
			</linearGradient>
			<path class="st35" d="M3056.5,1829c0,0,109.2,90.8,136.3,214.8c27.1,124-159.6,137.2-159.6,137.2s-25.3-28.3-55.4-18.2
				c-30.1,10.1-2.3-49.4,32.9-49.2c35.2,0.2,18.9,28,68.7,5.4c48.5-22,78.5-89.9-45.3-192.9c-7.2-6-12.9-13.6-16.3-22.3
				C2993.7,1843.3,3012.8,1803.6,3056.5,1829z"/>
		</g>
		<g>
			<g>
				<rect x="1185.3" y="2679.8" class="st12" width="36.2" height="392"/>
				<path class="st12" d="M1044.7,3079.3h317.5v-9c0-8.1-6.6-14.6-14.6-14.6h-287c-8.7,0-15.8,7.1-15.8,15.8V3079.3z"/>
				<path class="st12" d="M984.6,2665.3c0,22.8,18.6,41.4,41.4,41.4h341.3c22.8,0,41.4-18.6,41.4-41.4v-37.5
					c0-22.8-18.6-41.4-41.4-41.4h-341.3c-22.8,0-41.4,18.6-41.4,41.4V2665.3z"/>
			</g>
			<g>
				
					<linearGradient id="SVGID_27_" gradientUnits="userSpaceOnUse" x1="6361.1235" y1="2927.1292" x2="6297.1406" y2="3052.9614" gradientTransform="matrix(1 0 0 1 -4867.6226 0)">
					<stop  offset="0" style="stop-color:#09005D"/>
					<stop  offset="1" style="stop-color:#1A0F91"/>
				</linearGradient>
				<path class="st36" d="M1405.3,3002.3c0,0,103.5,74.6,85.5,124.7c0,0-113.2-48.9-126.9-87.3c-13.7-38.5,2.3-55.5,2.3-55.5
					L1405.3,3002.3z"/>
				
					<linearGradient id="SVGID_28_" gradientUnits="userSpaceOnUse" x1="6239.4556" y1="2977.2051" x2="6303.1938" y2="2977.2051" gradientTransform="matrix(1 0 0 1 -4867.6226 0)">
					<stop  offset="0" style="stop-color:#FEBBBA"/>
					<stop  offset="1" style="stop-color:#FF928E"/>
				</linearGradient>
				<path class="st37" d="M1389.7,2939.8l-16.9,48.9c-2.6,7.4,0,15.8,6.6,20c3.3,2.1,7.8,4,14,5.4c8.7,2,17.7-2.1,21.9-9.9
					l20.2-38.1L1389.7,2939.8z"/>
				
					<linearGradient id="SVGID_29_" gradientUnits="userSpaceOnUse" x1="6151.2529" y1="2808.5571" x2="6422.1118" y2="2428.9277" gradientTransform="matrix(1 0 0 1 -4867.6226 0)">
					<stop  offset="0" style="stop-color:#4F52FF"/>
					<stop  offset="1" style="stop-color:#4042E2"/>
				</linearGradient>
				<path class="st38" d="M1225,2499.4c0,0,212.6,36.8,303.8,121.1c91.2,84.2-83.7,353-83.7,353s-28.7-0.2-63.4-29.9
					c0,0,103.7-202.1,14.3-261c-100.5-66.3-216.3-81.2-216.3-81.2l43.2-95.4L1225,2499.4z"/>
				
					<linearGradient id="SVGID_30_" gradientUnits="userSpaceOnUse" x1="6323.9917" y1="3054.3545" x2="6102.1851" y2="3344.4089" gradientTransform="matrix(1 0 0 1 -4867.6226 0)">
					<stop  offset="0" style="stop-color:#09005D"/>
					<stop  offset="1" style="stop-color:#1A0F91"/>
				</linearGradient>
				<path class="st39" d="M1472.8,3099.3c-22.8-10.5-87.2-55.6-98.1-57.6c-10.9-2-29.7,10.8-29.7,10.8s-4.6,8.2,0.3,22.6
					c15.1,18.3,48.7,53.2,93.9,66.2c33.2,9.6,56.4,0.6,70.9-9.8C1502.2,3119.4,1488,3106.3,1472.8,3099.3z"/>
				<path class="st12" d="M1439.2,3141.3c-45.2-13-78.7-47.9-93.9-66.2c3.3,9.7,11,22.2,27.3,36.9c40.5,36.4,117.8,49.5,134.3,47
					c13.2-2,11.9-14.2,3.2-27.5C1495.7,3141.9,1472.4,3150.8,1439.2,3141.3z"/>
				
					<linearGradient id="SVGID_31_" gradientUnits="userSpaceOnUse" x1="6193.3652" y1="3036.0256" x2="6253.1851" y2="3036.0256" gradientTransform="matrix(1 0 0 1 -4867.6226 0)">
					<stop  offset="0" style="stop-color:#FEBBBA"/>
					<stop  offset="1" style="stop-color:#FF928E"/>
				</linearGradient>
				<path class="st40" d="M1325.7,3020.6c0.3,6.3,13.1,27.8,20.6,39.8c3.6,5.7,9.8,9.2,16.5,9.3c4.3,0,9.2-0.4,13.7-1.6
					c6.7-1.9,10.5-9.1,8.5-15.8l-14.6-50L1325.7,3020.6z"/>
				
					<linearGradient id="SVGID_32_" gradientUnits="userSpaceOnUse" x1="6053.625" y1="2997.731" x2="6068.5542" y2="2490.1357" gradientTransform="matrix(1 0 0 1 -4867.6226 0)">
					<stop  offset="0" style="stop-color:#4F52FF"/>
					<stop  offset="1" style="stop-color:#4042E2"/>
				</linearGradient>
				<path class="st41" d="M1020.4,2435.6c0,0-47.2,126.2,0,164.6c47.2,38.4,159.8,81.6,185,158.1c25.2,76.5,67.9,225.1,125,277.7
					c0,0,40.1-3.9,55.2-19.9c0,0-32.5-221.8-54-278.8c-18.6-49.3-46-120.4-98.4-160.2c-15-11.4-12.4-29.4-5.4-46.9l12.7-31.9
					L1020.4,2435.6z"/>
				<linearGradient id="SVGID_33_" gradientUnits="userSpaceOnUse" x1="1691.8457" y1="1880.474" x2="1428.2782" y2="2346.7854">
					<stop  offset="0" style="stop-color:#FF928E"/>
					<stop  offset="1" style="stop-color:#FE7062"/>
				</linearGradient>
				<path class="st42" d="M1512.8,2336.7c-79.2,4.8-54.5-121.7-53.1-126.7l-120.1,84.9c0,0,6.4,67.6,106.3,103.1
					c25.3,9,48.4,9.4,68.8,5C1505.9,2377.5,1507.7,2354.7,1512.8,2336.7z"/>
				
					<linearGradient id="SVGID_34_" gradientUnits="userSpaceOnUse" x1="6376.1499" y1="2346.2051" x2="6584.8223" y2="2346.2051" gradientTransform="matrix(1 0 0 1 -4867.6226 0)">
					<stop  offset="0" style="stop-color:#FEBBBA"/>
					<stop  offset="1" style="stop-color:#FF928E"/>
				</linearGradient>
				<path class="st43" d="M1665.9,2298.6c-29.5-20.5-62.9,0-62.9,0c-39.4,25.8-68.6,36.8-90.1,38.1c-5.1,18-6.9,40.8,1.8,66.2
					c44.2-9.5,75.8-41.5,89.5-57.9c4.9-5.9,13.7-6.9,19.7-2.2c6.1,4.8,12.1,11.5,11,18.5c-2.1,13.8,13.9,18.2,15.1,13.2
					c1.2-5-5.5-34.6-5.5-34.6s32,32.2,44.5,44.5c12.5,12.4,28.2,0,28.2,0S1695.4,2319.1,1665.9,2298.6z"/>
				<linearGradient id="SVGID_35_" gradientUnits="userSpaceOnUse" x1="1500.7809" y1="1772.4796" x2="1237.214" y2="2238.7903">
					<stop  offset="0" style="stop-color:#FF928E"/>
					<stop  offset="1" style="stop-color:#FE7062"/>
				</linearGradient>
				<path class="st44" d="M1143.7,2014.7c0,0,115.2-46.1,329.5,130.8c0,0,17.9,37.1-1.6,70c-19.5,33-205.6,193.7-231.2,282.8
					c0,0-110.9,36-225.5-49.4C1014.8,2448.9,1025,2200.9,1143.7,2014.7z"/>
				<linearGradient id="SVGID_36_" gradientUnits="userSpaceOnUse" x1="1498.55" y1="1852.7935" x2="1330.1453" y2="2110.7751">
					<stop  offset="0" style="stop-color:#FEBBBA"/>
					<stop  offset="1" style="stop-color:#FF928E"/>
				</linearGradient>
				<path class="st45" d="M1371.3,1973.5l-56.7,68.7c-5.6,6.8-6.9,16.3-3,24.3c7.9,16.1,26.5,39.4,67.9,36.2
					c12.3-1,23.2-8.4,28.6-19.5l39.6-81.9L1371.3,1973.5z"/>
				<linearGradient id="SVGID_37_" gradientUnits="userSpaceOnUse" x1="1338.7141" y1="1680.8768" x2="1075.1469" y2="2147.188">
					<stop  offset="0" style="stop-color:#FF928E"/>
					<stop  offset="1" style="stop-color:#FE7062"/>
				</linearGradient>
				<path class="st46" d="M1054.5,2309c-13.4-54.4,122-175.8,122-175.8l-32.9-118.5c0,0-292.4,194.7-217.9,351.2
					c10.7,22.4,24.9,38.2,41.3,48.7C990.7,2351.1,1028.2,2322.1,1054.5,2309z"/>
				<linearGradient id="SVGID_38_" gradientUnits="userSpaceOnUse" x1="1278.4236" y1="1443.6033" x2="1075.6898" y2="2386.3174">
					<stop  offset="0" style="stop-color:#E1473D"/>
					<stop  offset="1" style="stop-color:#E9605A"/>
				</linearGradient>
				<path class="st47" d="M1054.4,2301.1c-1.4,0-2.7-1-3.1-2.4c-13.7-55.7,117.4-174,123-179c1.3-1.2,3.3-1.1,4.5,0.2
					c1.2,1.3,1.1,3.3-0.2,4.5c-1.3,1.2-133.8,120.7-121.1,172.7c0.4,1.7-0.6,3.4-2.3,3.9C1054.9,2301,1054.7,2301.1,1054.4,2301.1z"
					/>
				<linearGradient id="SVGID_39_" gradientUnits="userSpaceOnUse" x1="993.6528" y1="2444.7063" x2="1534.7001" y2="2244.0535">
					<stop  offset="0" style="stop-color:#FEBBBA"/>
					<stop  offset="1" style="stop-color:#FF928E"/>
				</linearGradient>
				<path class="st48" d="M1259.6,2304.3c0,0-160.6,62.3-199.7,15.4c-2.7-3.2-4.4-6.8-5.4-10.8c-26.3,13.1-63.9,42.1-87.4,105.5
					c84.4,54,228.8-30,267.8-54.8c6.4-4.1,14.1-5.5,21.6-4c15.1,3.1,41.1,7.7,55.1,5.6c20.5-3.2,50,69.2,83.2,46.9
					C1394.8,2408.2,1366.3,2282.4,1259.6,2304.3z"/>
				<g>
					<linearGradient id="SVGID_40_" gradientUnits="userSpaceOnUse" x1="1560.3854" y1="1855.587" x2="1331.0684" y2="2023.9915">
						<stop  offset="0" style="stop-color:#FEBBBA"/>
						<stop  offset="1" style="stop-color:#FF928E"/>
					</linearGradient>
					<path class="st49" d="M1494.7,1872.6c0.6,2.2-13.3,152.4-13.3,152.4l-85.6-9.7l-8-144.3
						C1387.8,1870.9,1485.2,1835.6,1494.7,1872.6z"/>
					
						<linearGradient id="SVGID_41_" gradientUnits="userSpaceOnUse" x1="6340.5356" y1="1789.5627" x2="6547.2817" y2="1789.5627" gradientTransform="matrix(0.9683 -0.2499 0.2499 0.9683 -5238.8755 1820.1976)">
						<stop  offset="0" style="stop-color:#09005D"/>
						<stop  offset="1" style="stop-color:#1A0F91"/>
					</linearGradient>
					<path class="st50" d="M1410.1,1900.8l-1.7,76.3c0,1,0.1,1.9,0.3,2.9c1.5,5.8,8.1,25.4,27.7,17.4c17.8-7.2,34.2-13.6,46.2-11.3
						c5.4,1,9.1,6,8.6,11.5c-1.3,13.6-4.7,44.4-11.7,70.6c-1.4,5.3-6.7,8.6-12.1,7.7c-16.4-2.9-50.7-9.9-76.9-22
						c-3.6-1.6-5.9-5.1-6.2-9c-1.3-19.1-5.4-77-9-93c-3.4-15-23.1-22-31.5-24.4c-2.8-0.8-5.1-2.6-6.4-5.2
						c-4.8-9-12.3-30.2,14.1-42.1c5.5-2.5,7.9-9,5.2-14.5c-5.3-10.9-8.9-27.9,11.3-39.7c20.5-12,37.8-2.3,47.6,6.1
						c3.9,3.4,9.6,3.3,13.7,0.1c2.3-1.8,5.5-2.7,9.6-0.7c5.6,2.7,12.2-0.3,14.3-6.1c4-11.2,13.3-23.7,34.8-22.4
						c38.1,2.3,46.9,43.3,39.7,68.7c-7.2,25.4-48.4,20.5-69.9,10.5c-16.4-7.6-35.2,4.3-43.2,10.5
						C1411.7,1894.6,1410.2,1897.6,1410.1,1900.8z"/>
					
						<linearGradient id="SVGID_42_" gradientUnits="userSpaceOnUse" x1="6219.2285" y1="1915.6583" x2="6358.0518" y2="1773.2292" gradientTransform="matrix(0.9683 -0.2499 0.2499 0.9683 -5238.8755 1820.1976)">
						<stop  offset="0" style="stop-color:#FEBBBA"/>
						<stop  offset="1" style="stop-color:#FF928E"/>
					</linearGradient>
					<path class="st51" d="M1374.8,1979.6c0,0,10.7-44.8-6.3-53.6c-17-8.8-39.8-0.8-31.2,29.9
						C1348,1994,1374.8,1979.6,1374.8,1979.6z"/>
				</g>
			</g>
			<g>
				
					<linearGradient id="SVGID_43_" gradientUnits="userSpaceOnUse" x1="7437.1519" y1="2763.4783" x2="7165.7383" y2="2837.8655" gradientTransform="matrix(-0.9988 -4.940000e-02 -4.940000e-02 0.9988 8849.4727 -55.0328)">
					<stop  offset="0" style="stop-color:#09005D"/>
					<stop  offset="1" style="stop-color:#1A0F91"/>
				</linearGradient>
				<path class="st52" d="M1341.9,2427.2c0.3,0,0.5,0,0.8,0l336.9-0.4c8.3,0,15.1-6.8,15.1-15.1c0-8.3-6.8-15.2-15.1-15.1
					l-336.9,0.4c-8.3,0-15.1,6.8-15.1,15.1C1327.6,2420.3,1333.9,2426.8,1341.9,2427.2z"/>
				
					<linearGradient id="SVGID_44_" gradientUnits="userSpaceOnUse" x1="7155.9292" y1="2162.3984" x2="6963.3486" y2="2365.9438" gradientTransform="matrix(-1 0 0 1 8808.0039 0)">
					<stop  offset="0" style="stop-color:#09005D"/>
					<stop  offset="1" style="stop-color:#1A0F91"/>
				</linearGradient>
				<path class="st53" d="M1982.3,2121.4h-280.5c-20.7,0-39.5,11.9-48.4,30.7l-129.7,275h348.6c13.3,0,25.3-8.1,30.2-20.6
					l100.6-254.5C2009,2137.3,1998.2,2121.4,1982.3,2121.4z"/>
				<path class="st12" d="M1784.7,2262.4c-6.1,18.9-1.6,37.2,10,41c11.6,3.7,26-8.5,32-27.4c6.1-18.9,1.6-37.2-10-41
					S1790.8,2243.5,1784.7,2262.4z"/>
			</g>
			<g>
				<g>
					<path class="st12" d="M1936.9,3149.7c1.9,0,3.8-0.4,5.6-1.1c7.2-3,10.5-11.1,7.4-18L1653,2462.5c-3.1-7-11.4-10.2-18.6-7.2
						c-7.2,3-10.5,11.1-7.4,18l296.9,668.2C1926.2,3146.6,1931.4,3149.7,1936.9,3149.7z"/>
					<path class="st12" d="M1602.4,3149.7c5.5,0,10.7-3.1,13-8.3l296.9-668.2c3.1-7-0.2-15-7.4-18c-7.2-3-15.5,0.2-18.6,7.2
						l-296.9,668.2c-3.1,7,0.2,15,7.4,18C1598.6,3149.4,1600.5,3149.7,1602.4,3149.7z"/>
					<path class="st12" d="M1017.9,3149.7c1.9,0,3.8-0.4,5.6-1.1c7.2-3,10.5-11.1,7.4-18L734,2462.5c-3.1-7-11.4-10.2-18.6-7.2
						c-7.2,3-10.5,11.1-7.4,18l296.9,668.2C1007.2,3146.6,1012.4,3149.7,1017.9,3149.7z"/>
					<path class="st12" d="M683.4,3149.7c5.5,0,10.7-3.1,13-8.3l296.9-668.2c3.1-7-0.2-15-7.4-18c-7.2-3-15.5,0.2-18.6,7.2
						l-296.9,668.2c-3.1,7,0.2,15,7.4,18C679.7,3149.4,681.6,3149.7,683.4,3149.7z"/>
				</g>
				<path class="st12" d="M648.6,2441.8c-0.8-4.4,0.3-8.9,2.8-12.4c2.5-3.4,6.3-5.4,10.3-5.4h1350.6c5.2,0,10.1,3,13,7.9
					c2.8,4.9,3.2,11.2,1,16.5l-14.6,35.5c-3.4,8.1-10.6,13.3-18.6,13.3H671c-7.4,0-13.8-5.9-15.2-14.1L648.6,2441.8z"/>
			</g>
		</g>
	</g>
</g>
</svg>
