<?xml version="1.0" encoding="utf-8"?>
<!-- Generator: Adobe Illustrator 25.2.3, SVG Export Plug-In . SVG Version: 6.00 Build 0)  -->
<svg version="1.1" id="Capa_1" xmlns="http://www.w3.org/2000/svg" xmlns:xlink="http://www.w3.org/1999/xlink" x="0px" y="0px"
	 viewBox="0 0 407 226" style="enable-background:new 0 0 407 226;" xml:space="preserve">
<style type="text/css">
	.st0{fill:#FFFFFF;}
	.st1{fill:#E5432C;}
	.st2{fill:#F6AA21;}
	.st3{fill:#00ABA9;}
	.st4{fill:#7FB847;}
</style>
<path class="st0" d="M30.9,112.2c-1.3-1.6-2.9-2.8-4.7-3.7c-1.8-0.9-3.8-1.3-5.8-1.2c-3.2,0-7.1,1.5-7.1,5.1c0,8.6,26,1.7,26,20.5
	c0,11.4-11,15.5-20.8,15.4c-3.5,0.1-7-0.6-10.1-2c-3.2-1.4-6-3.6-8.3-6.2l7.5-7.1c1.4,1.8,3.1,3.3,5.1,4.3c2,1,4.2,1.6,6.5,1.7
	c3.5,0,7.9-1.4,7.9-5.2c0-9.8-26.1-3.3-25.8-20.7c0.2-11.2,10.4-15.8,19.2-15.4c3.3,0,6.6,0.6,9.6,2c3,1.4,5.7,3.4,7.9,5.9
	L30.9,112.2z"/>
<path class="st0" d="M90.6,146.9H79.2v-7.9h-0.4c-1.2,2.8-3.3,5.1-5.9,6.7c-2.6,1.6-5.6,2.3-8.7,2.1c-12.8,0-17.3-9-17.3-18.8V99.2
	h11.8v24c0,5.2,0.4,14,8.7,14s11.3-5.6,11.3-11.9V99.4h11.8V146.9z"/>
<path class="st0" d="M101.6,99.4h11.3v7.6h0.2c1.2-2.8,3.3-5.1,5.9-6.7c2.6-1.6,5.6-2.3,8.7-2.1c12.8,0,17.3,9,17.3,18.8v30h-11.8
	v-24.1c0-5.2-0.4-14-8.7-14s-10.9,5.7-10.9,12.1v26h-11.8L101.6,99.4z"/>
<path class="st0" d="M185.2,140.6h-0.3c-1.6,2.5-3.9,4.6-6.6,6c-2.7,1.4-5.7,2-8.7,1.9c-8.8,0-17-5.2-17-14.5
	c0-14.6,15.4-17.8,27.6-16.5l5,0.5v-1.5c0-6-4-8.8-10.5-8.8c-4.7,0-9.2,1.7-12.7,4.9l-6.6-6.5c2.7-2.6,5.9-4.5,9.4-5.8
	c3.5-1.3,7.2-1.9,10.9-1.8c20.3,0,20.3,14.7,20.3,21.4v27.2h-10.8V140.6z M184.9,126.2l-2.8-0.4c-6.5-0.9-17.5,0.2-17.5,7.1
	c0.1,0.9,0.3,1.9,0.8,2.7c0.4,0.8,1,1.6,1.8,2.2c0.7,0.6,1.6,1.1,2.5,1.3c0.9,0.3,1.9,0.3,2.8,0.2c1.5,0.1,3.1,0,4.6-0.5
	c1.5-0.5,2.8-1.3,4-2.3c1.2-1,2.1-2.3,2.7-3.7c0.7-1.4,1-2.9,1.1-4.5L184.9,126.2z"/>
<path class="st0" d="M206.4,99.4h11.8v7.9h0.2c1.3-2.7,3.3-4.9,5.8-6.5c2.5-1.5,5.4-2.3,8.4-2.2c1.4,0,2.9,0.3,4.3,0.7v11.5
	c-1.9-0.5-3.8-0.8-5.7-0.9c-1.6-0.1-3.3,0.1-4.8,0.6c-1.6,0.5-3,1.4-4.2,2.5c-1.2,1.1-2.2,2.5-2.8,4c-0.7,1.5-1,3.1-1,4.8V147h-11.8
	L206.4,99.4z"/>
<path class="st0" d="M243.9,99.3h11.3v7.5c1.8-2.7,4.3-5,7.2-6.4c2.9-1.4,6.2-2.1,9.5-1.8c14.7,0,23.3,11,23.4,25
	c0.1,3.1-0.4,6.3-1.5,9.2c-1.1,2.9-2.8,5.6-4.9,7.9c-2.1,2.3-4.7,4.1-7.6,5.4c-2.9,1.3-5.9,2-9.1,2.1c-3,0.2-6.1-0.4-8.9-1.6
	c-2.8-1.2-5.3-3.1-7.3-5.4h-0.3v27.4h-11.8L243.9,99.3z M269.4,109.2c-2.8-0.1-5.6,0.7-8,2.2c-2.4,1.5-4.3,3.7-5.4,6.3
	c-1.1,2.6-1.5,5.5-0.9,8.3c0.5,2.8,1.8,5.4,3.8,7.4c2,2,4.5,3.4,7.3,4c2.8,0.6,5.7,0.3,8.3-0.7c2.6-1.1,4.9-2.9,6.5-5.2
	c1.6-2.3,2.4-5.1,2.4-7.9c0.1-1.9-0.2-3.7-0.9-5.5c-0.7-1.8-1.7-3.3-3-4.7c-1.3-1.3-2.9-2.4-4.6-3.1
	C273.1,109.5,271.2,109.2,269.4,109.2z"/>
<path class="st0" d="M1.4,179.7c0.3,0.4,0.7,0.8,1.2,1c0.5,0.2,1,0.4,1.5,0.3c0.6,0,1.3-0.2,1.7-0.6c0.5-0.4,0.8-1,0.9-1.6
	c0-3-6.3-1.1-6.3-6.2c0-0.5,0.2-1,0.4-1.5c0.2-0.5,0.6-0.9,1-1.2s0.9-0.6,1.4-0.7c0.5-0.2,1-0.2,1.5-0.1c0.7-0.1,1.4,0,2,0.3
	c0.6,0.3,1.2,0.7,1.7,1.2l-1.4,1.3c-0.3-0.4-0.6-0.7-1-0.9c-0.4-0.2-0.9-0.3-1.3-0.3c-1.9,0-2.5,1.2-2.5,2c0,3.3,6.3,1.3,6.3,6
	c0,0.6-0.1,1.1-0.3,1.6c-0.2,0.5-0.6,1-1,1.3c-0.4,0.4-0.9,0.7-1.5,0.8c-0.5,0.2-1.1,0.2-1.7,0.1c-0.7,0-1.5-0.1-2.2-0.4
	c-0.7-0.3-1.3-0.8-1.8-1.3L1.4,179.7z"/>
<path class="st0" d="M18.4,182.4h-1.6V181c-0.3,0.5-0.7,0.9-1.2,1.2c-0.5,0.3-1.1,0.4-1.6,0.4c-0.4,0-0.9,0-1.3-0.2
	c-0.4-0.2-0.8-0.4-1.1-0.7c-0.3-0.3-0.5-0.7-0.7-1.1c-0.1-0.4-0.2-0.8-0.1-1.3v-5.6h1.6v5.1c0,1.6,0.9,2.2,2,2.2s2.4-0.9,2.4-2.9
	v-4.5h1.6L18.4,182.4z"/>
<path class="st0" d="M20.8,173.8h1.6v1.2c0.4-0.5,0.8-0.9,1.3-1.1c0.5-0.3,1.1-0.4,1.7-0.4c1.1,0.1,2.2,0.6,2.9,1.5
	c0.8,0.8,1.2,1.9,1.2,3.1c0,1.1-0.4,2.2-1.2,3.1c-0.8,0.8-1.8,1.4-2.9,1.5c-0.6,0-1.1,0-1.6-0.2c-0.5-0.2-1-0.5-1.4-0.9v6.3h-1.7
	V173.8z M22.5,178.1c0,0.6,0.2,1.1,0.6,1.6s0.8,0.8,1.3,1c0.5,0.2,1.1,0.2,1.7,0.1c0.5-0.1,1-0.4,1.4-0.8c0.4-0.4,0.6-0.9,0.7-1.5
	c0.1-0.6,0-1.1-0.2-1.6c-0.2-0.5-0.6-1-1.1-1.3c-0.5-0.3-1-0.5-1.6-0.5c-0.4,0-0.8,0.1-1.1,0.2c-0.4,0.1-0.7,0.4-1,0.7
	c-0.3,0.3-0.5,0.6-0.6,1C22.5,177.3,22.4,177.7,22.5,178.1z"/>
<path class="st0" d="M33.2,178.7c0.1,0.7,0.4,1.4,0.9,1.9c0.5,0.5,1.3,0.7,2,0.7c0.5,0,0.9-0.2,1.3-0.4c0.4-0.2,0.8-0.5,1-0.9
	l1.2,0.9c-0.5,0.6-1.1,1.1-1.7,1.4c-0.7,0.3-1.4,0.4-2.2,0.4c-0.6,0-1.1-0.1-1.7-0.4c-0.5-0.2-1-0.6-1.4-1c-0.4-0.4-0.7-0.9-0.9-1.5
	c-0.2-0.5-0.3-1.1-0.3-1.7c0-0.6,0-1.2,0.3-1.8c0.2-0.6,0.5-1.1,0.9-1.5c0.4-0.4,0.9-0.8,1.5-1c0.5-0.2,1.1-0.4,1.7-0.3
	c0.6,0,1.2,0,1.7,0.3c0.6,0.2,1.1,0.6,1.5,1c0.4,0.4,0.7,1,0.9,1.5c0.2,0.6,0.2,1.2,0.1,1.8v0.6L33.2,178.7z M38.3,177.4
	c0-0.3,0-0.7-0.1-1c-0.1-0.3-0.3-0.6-0.5-0.8c-0.2-0.2-0.5-0.4-0.8-0.5c-0.3-0.1-0.7-0.2-1-0.1c-0.7,0-1.4,0.2-1.9,0.7
	c-0.5,0.5-0.8,1.1-0.8,1.8H38.3z"/>
<path class="st0" d="M42,173.8h1.7v1.3c0.2-0.5,0.6-0.9,1.1-1.1c0.5-0.3,1-0.4,1.5-0.4c0.2,0,0.5,0,0.7,0v1.8h-0.8
	c-1.6,0-2.5,0.9-2.5,2.8v4.3H42V173.8z"/>
<path class="st0" d="M49.7,169.5c0.3,0,0.6,0.1,0.8,0.4c0.2,0.2,0.3,0.5,0.3,0.9c0,0.3-0.1,0.6-0.3,0.8c-0.2,0.2-0.5,0.3-0.8,0.3
	c-0.2,0-0.3,0-0.5-0.1c-0.1-0.1-0.3-0.1-0.4-0.3c-0.1-0.1-0.2-0.2-0.3-0.4c-0.1-0.1-0.1-0.3-0.1-0.5c0-0.2,0-0.3,0.1-0.5
	c0.1-0.1,0.1-0.3,0.3-0.4s0.2-0.2,0.4-0.3C49.4,169.6,49.6,169.5,49.7,169.5z M48.9,173.8h1.7v8.6h-1.7V173.8z"/>
<path class="st0" d="M53.1,173.8h1.7v1.3c0.3-0.5,0.7-0.9,1.2-1.2c0.5-0.3,1.1-0.4,1.6-0.4c0.4,0,0.9,0,1.3,0.2
	c0.4,0.2,0.8,0.4,1.1,0.7c0.3,0.3,0.5,0.7,0.7,1.1c0.1,0.4,0.2,0.8,0.1,1.3v5.6h-1.6v-5c0-1.7-0.9-2.2-2-2.2c-1,0-2.4,0.9-2.4,2.9
	v4.5h-1.7L53.1,173.8z"/>
<path class="st0" d="M67.9,175.2h-2.3v3.9c0,1,0,2,1.2,2c0.4,0,0.8-0.1,1.2-0.3v1.5c-0.5,0.2-1,0.3-1.5,0.3c-2.5,0-2.6-1.5-2.6-2.9
	v-4.5H62v-1.4h1.9v-2.4h1.7v2.4h2.3V175.2z"/>
<path class="st0" d="M71.2,178.7c0,0.4,0.1,0.7,0.3,1c0.2,0.3,0.4,0.6,0.7,0.8c0.3,0.2,0.6,0.4,0.9,0.5c0.3,0.1,0.7,0.2,1.1,0.1
	c0.5,0,0.9-0.2,1.3-0.4c0.4-0.2,0.8-0.5,1-0.9l1.2,0.9c-0.5,0.6-1.1,1.1-1.7,1.4c-0.7,0.3-1.4,0.4-2.2,0.4c-0.6,0-1.2-0.1-1.8-0.3
	c-0.6-0.2-1.1-0.5-1.5-1c-0.4-0.4-0.8-0.9-1-1.5c-0.2-0.6-0.3-1.2-0.3-1.8c0-0.6,0.1-1.2,0.3-1.8s0.6-1.1,1-1.5c0.4-0.4,1-0.8,1.5-1
	c0.6-0.2,1.2-0.3,1.8-0.3c0.6,0,1.2,0,1.7,0.3c0.6,0.2,1,0.6,1.4,1c0.4,0.4,0.7,1,0.9,1.5c0.2,0.6,0.2,1.2,0.1,1.8v0.6L71.2,178.7z
	 M76.4,177.4c0-0.3,0-0.7-0.1-1s-0.3-0.6-0.5-0.8c-0.2-0.2-0.5-0.4-0.8-0.5c-0.3-0.1-0.7-0.2-1-0.1c-0.7,0-1.4,0.2-1.9,0.7
	c-0.5,0.5-0.8,1.1-0.8,1.8H76.4z"/>
<path class="st0" d="M80.1,173.8h1.6v1.3c0.3-0.5,0.7-0.9,1.2-1.2c0.5-0.3,1.1-0.4,1.7-0.4c0.4,0,0.9,0,1.3,0.2
	c0.4,0.2,0.8,0.4,1.1,0.7c0.3,0.3,0.5,0.7,0.7,1.1c0.1,0.4,0.2,0.8,0.1,1.3v5.6H86v-5c0-1.7-0.9-2.2-2-2.2c-1.1,0-2.4,0.9-2.4,2.9
	v4.5H80L80.1,173.8z"/>
<path class="st0" d="M98.8,182.4h-1.7v-1c-0.4,0.5-0.8,0.8-1.3,1.1c-0.5,0.2-1.1,0.4-1.7,0.4c-1.1-0.1-2.2-0.6-2.9-1.5
	c-0.8-0.8-1.2-1.9-1.2-3.1c0-1.1,0.4-2.2,1.2-3.1c0.8-0.8,1.8-1.4,2.9-1.5c0.6,0,1.2,0.1,1.7,0.3c0.5,0.2,1,0.6,1.3,1.1v-6.5h1.7
	V182.4z M97.2,178.1c0-0.6-0.2-1.1-0.6-1.5c-0.3-0.4-0.8-0.8-1.3-1s-1.1-0.2-1.6-0.1c-0.5,0.1-1,0.4-1.4,0.8
	c-0.4,0.4-0.6,0.9-0.7,1.5c-0.1,0.5,0,1.1,0.2,1.6c0.2,0.5,0.6,0.9,1.1,1.2c0.5,0.3,1,0.5,1.6,0.5c0.4,0,0.8-0.1,1.1-0.2
	s0.7-0.4,0.9-0.7c0.3-0.3,0.5-0.6,0.6-1C97.2,178.9,97.2,178.5,97.2,178.1z"/>
<path class="st0" d="M102.5,178.7c0,0.4,0.1,0.7,0.3,1c0.2,0.3,0.4,0.6,0.7,0.8c0.3,0.2,0.6,0.4,0.9,0.5c0.3,0.1,0.7,0.2,1.1,0.1
	c0.5,0,0.9-0.2,1.3-0.4c0.4-0.2,0.7-0.5,1-0.9l1.3,0.9c-0.5,0.6-1.1,1.1-1.7,1.4c-0.7,0.3-1.4,0.4-2.2,0.4c-0.6,0-1.2-0.1-1.7-0.3
	c-0.6-0.2-1.1-0.5-1.5-1c-0.4-0.4-0.7-0.9-1-1.5s-0.3-1.2-0.3-1.8c0-0.6,0.1-1.2,0.3-1.8s0.6-1.1,1-1.5c0.4-0.4,1-0.8,1.5-1
	c0.6-0.2,1.2-0.3,1.8-0.3c0.6,0,1.2,0,1.7,0.3c0.6,0.2,1.1,0.6,1.5,1c0.4,0.4,0.7,1,0.9,1.5c0.2,0.6,0.2,1.2,0.1,1.8v0.6
	L102.5,178.7z M107.7,177.4c0-0.3,0-0.7-0.1-1c-0.1-0.3-0.3-0.6-0.5-0.9c-0.2-0.2-0.5-0.4-0.9-0.5c-0.3-0.1-0.7-0.2-1-0.1
	c-0.3,0-0.7,0-1,0.2c-0.3,0.1-0.6,0.3-0.9,0.5c-0.3,0.2-0.5,0.5-0.6,0.8c-0.1,0.3-0.2,0.7-0.2,1H107.7z"/>
<path class="st0" d="M111.4,173.8h1.6v1.3c0.3-0.5,0.7-0.9,1.2-1.2c0.5-0.3,1.1-0.4,1.6-0.4c0.4,0,0.9,0,1.3,0.2s0.8,0.4,1.1,0.7
	c0.3,0.3,0.5,0.7,0.7,1.1c0.1,0.4,0.2,0.8,0.1,1.3v5.6h-1.7v-5c0-1.7-0.9-2.2-2-2.2c-1.1,0-2.4,0.9-2.4,2.9v4.5h-1.6L111.4,173.8z"
	/>
<path class="st0" d="M127.7,176c-0.3-0.3-0.6-0.6-1-0.7c-0.4-0.2-0.8-0.2-1.2-0.2c-0.4,0-0.8,0.1-1.1,0.2c-0.3,0.2-0.7,0.4-0.9,0.7
	c-0.3,0.3-0.4,0.6-0.6,1c-0.1,0.4-0.2,0.7-0.1,1.1c0,0.4,0,0.8,0.2,1.1c0.1,0.4,0.3,0.7,0.6,1s0.6,0.5,0.9,0.6
	c0.4,0.1,0.7,0.2,1.1,0.2c0.4,0,0.8-0.1,1.2-0.2c0.4-0.2,0.7-0.4,0.9-0.7l1.1,1.2c-0.4,0.4-0.9,0.8-1.5,1c-0.6,0.2-1.2,0.3-1.8,0.3
	c-0.6,0-1.2-0.1-1.7-0.3c-0.6-0.2-1.1-0.5-1.5-1c-0.4-0.4-0.8-0.9-1-1.5c-0.2-0.6-0.3-1.2-0.3-1.7c0-0.6,0-1.2,0.2-1.8
	c0.2-0.6,0.5-1.1,1-1.5c0.4-0.4,0.9-0.8,1.5-1c0.6-0.2,1.2-0.3,1.8-0.3c0.6,0,1.2,0.1,1.8,0.3c0.6,0.2,1.1,0.6,1.5,1L127.7,176z"/>
<path class="st0" d="M131.2,169.5c0.3,0,0.6,0.1,0.8,0.4c0.2,0.2,0.3,0.5,0.3,0.9c-0.1,0.3-0.2,0.5-0.4,0.7
	c-0.2,0.2-0.5,0.3-0.8,0.3s-0.6-0.1-0.8-0.3c-0.2-0.2-0.4-0.4-0.4-0.7c0-0.2,0-0.3,0.1-0.5c0.1-0.1,0.2-0.3,0.3-0.4
	c0.1-0.1,0.2-0.2,0.4-0.3C130.9,169.6,131.1,169.5,131.2,169.5z M130.4,173.8h1.6v8.6h-1.6V173.8z"/>
<path class="st0" d="M134.7,174.8c0.9-0.8,2.1-1.3,3.3-1.3c2.5,0,3.6,1.4,3.6,2.8v4.4c0,0.6,0,1.1,0,1.6h-1.2c0-0.4,0-0.9,0-1.3
	c-0.3,0.5-0.8,0.9-1.3,1.2c-0.5,0.3-1.1,0.4-1.7,0.3c-0.4,0-0.7,0-1.1-0.1c-0.3-0.1-0.7-0.3-1-0.5c-0.3-0.2-0.5-0.5-0.7-0.9
	c-0.2-0.3-0.2-0.7-0.3-1.1c0-2.2,2.1-3,4.7-3h1.2v-0.4c0-0.3-0.1-0.5-0.2-0.7c-0.1-0.2-0.3-0.4-0.4-0.6c-0.2-0.2-0.4-0.3-0.7-0.4
	c-0.2-0.1-0.5-0.1-0.8-0.1c-0.9,0-1.8,0.4-2.5,1L134.7,174.8z M139.3,178.2c-1.5,0-3.4,0.3-3.4,1.7s0.7,1.4,1.9,1.4
	c0.3,0,0.7,0,1-0.2c0.3-0.1,0.6-0.3,0.8-0.6c0.2-0.2,0.4-0.5,0.5-0.8c0.1-0.3,0.1-0.6,0.1-1v-0.5H139.3z"/>
<path class="st0" d="M149.6,169.5h2.3l7.1,10.6h0v-10.6h1.7v12.9h-2.2l-7.2-10.6h0v10.6h-1.7V169.5z"/>
<path class="st0" d="M163.6,174.8c0.9-0.8,2.2-1.3,3.4-1.3c2.5,0,3.6,1.4,3.6,2.8v4.4c0,0.5,0,1.1,0,1.6h-1.2c0-0.4,0-0.9,0-1.3
	c-0.3,0.5-0.8,0.9-1.3,1.2c-0.5,0.3-1.1,0.4-1.7,0.3c-0.4,0-0.7,0-1.1-0.1c-0.4-0.1-0.7-0.3-1-0.5c-0.3-0.2-0.5-0.5-0.7-0.9
	c-0.2-0.3-0.3-0.7-0.3-1.1c0-2.2,2.2-3,4.8-3h1.2v-0.4c0-0.3-0.1-0.5-0.2-0.8c-0.1-0.2-0.3-0.4-0.5-0.6c-0.2-0.2-0.4-0.3-0.7-0.4
	c-0.2-0.1-0.5-0.1-0.8-0.1c-0.5,0-0.9,0.1-1.3,0.2c-0.4,0.2-0.8,0.4-1.1,0.7L163.6,174.8z M168.2,178.2c-1.5,0-3.4,0.3-3.4,1.7
	c0,1.4,0.7,1.4,1.9,1.4c0.3,0,0.7,0,1-0.2c0.3-0.1,0.6-0.3,0.8-0.5c0.2-0.2,0.4-0.5,0.5-0.8c0.1-0.3,0.2-0.6,0.1-1v-0.5H168.2z"/>
<path class="st0" d="M179.2,176c-0.3-0.3-0.6-0.6-1-0.7c-0.4-0.2-0.8-0.2-1.2-0.2c-0.4,0-0.8,0.1-1.1,0.2c-0.3,0.2-0.7,0.4-0.9,0.7
	c-0.3,0.3-0.4,0.6-0.6,1c-0.1,0.4-0.2,0.7-0.1,1.1c0,0.4,0,0.8,0.2,1.1c0.1,0.4,0.3,0.7,0.6,1c0.3,0.3,0.6,0.5,0.9,0.6
	c0.4,0.2,0.7,0.2,1.1,0.2c0.4,0,0.8-0.1,1.2-0.2c0.4-0.2,0.7-0.4,0.9-0.7l1.1,1.2c-0.4,0.4-0.9,0.8-1.5,1c-0.6,0.2-1.2,0.3-1.8,0.3
	c-0.6,0-1.2-0.1-1.7-0.3c-0.6-0.2-1.1-0.5-1.5-1c-0.4-0.4-0.8-0.9-1-1.5c-0.2-0.6-0.3-1.2-0.3-1.7c0-0.6,0-1.2,0.2-1.8
	c0.2-0.6,0.5-1.1,1-1.5c0.4-0.4,0.9-0.8,1.5-1c0.6-0.2,1.2-0.3,1.8-0.3c0.6,0,1.2,0.1,1.8,0.3c0.6,0.2,1.1,0.6,1.5,1L179.2,176z"/>
<path class="st0" d="M182.7,169.5c0.3,0,0.6,0.1,0.8,0.4c0.2,0.2,0.3,0.5,0.3,0.9c-0.1,0.3-0.2,0.5-0.4,0.7
	c-0.2,0.2-0.5,0.3-0.8,0.3s-0.6-0.1-0.8-0.3c-0.2-0.2-0.4-0.4-0.4-0.7c0-0.2,0-0.3,0.1-0.5c0.1-0.1,0.2-0.3,0.3-0.4
	c0.1-0.1,0.2-0.2,0.4-0.3C182.4,169.6,182.6,169.5,182.7,169.5z M181.9,173.8h1.6v8.6h-1.6V173.8z"/>
<path class="st0" d="M190.3,173.5c0.9,0,1.8,0.3,2.5,0.8c0.7,0.5,1.3,1.2,1.7,2s0.4,1.7,0.2,2.6c-0.2,0.9-0.6,1.7-1.2,2.3
	c-0.6,0.6-1.4,1.1-2.3,1.2c-0.9,0.2-1.8,0.1-2.6-0.3c-0.8-0.3-1.5-0.9-2-1.7c-0.5-0.7-0.8-1.6-0.8-2.5c0-0.6,0.1-1.2,0.3-1.7
	c0.2-0.6,0.6-1.1,1-1.5c0.4-0.4,0.9-0.8,1.5-1C189.1,173.6,189.7,173.5,190.3,173.5z M190.3,181c0.6,0,1.2-0.1,1.7-0.4
	c0.5-0.3,0.9-0.8,1.2-1.3c0.3-0.6,0.3-1.2,0.2-1.8c-0.1-0.6-0.4-1.2-0.8-1.6c-0.4-0.4-1-0.7-1.6-0.9c-0.6-0.1-1.2-0.1-1.8,0.2
	c-0.6,0.2-1,0.6-1.4,1.1c-0.3,0.5-0.5,1.1-0.5,1.7c0,0.4,0,0.8,0.1,1.1s0.3,0.7,0.6,1c0.3,0.3,0.6,0.5,1,0.7
	C189.5,181,189.9,181,190.3,181z"/>
<path class="st0" d="M197,173.8h1.7v1.3c0.3-0.5,0.7-0.9,1.2-1.2c0.5-0.3,1.1-0.4,1.6-0.4c0.4,0,0.9,0,1.3,0.2
	c0.4,0.2,0.8,0.4,1.1,0.7c0.3,0.3,0.5,0.7,0.7,1.1c0.1,0.4,0.2,0.8,0.1,1.3v5.6h-1.7v-5c0-1.7-0.9-2.2-2-2.2c-1,0-2.4,0.9-2.4,2.9
	v4.5H197V173.8z"/>
<path class="st0" d="M207.1,174.8c0.9-0.8,2.2-1.3,3.4-1.3c2.5,0,3.6,1.4,3.6,2.8v4.4c0,0.6,0,1.1,0,1.6h-1.3c0-0.4,0-0.9,0-1.3
	c-0.3,0.5-0.8,0.9-1.3,1.2c-0.5,0.3-1.1,0.4-1.7,0.3c-0.4,0-0.7,0-1.1-0.1s-0.7-0.3-1-0.5c-0.3-0.2-0.5-0.5-0.7-0.9
	c-0.2-0.3-0.2-0.7-0.3-1.1c0-2.2,2.1-3,4.7-3h1.2v-0.4c0-0.3-0.1-0.5-0.2-0.8c-0.1-0.2-0.3-0.4-0.5-0.6c-0.2-0.2-0.4-0.3-0.7-0.4
	c-0.2-0.1-0.5-0.1-0.8-0.1c-0.5,0-0.9,0.1-1.3,0.2c-0.4,0.2-0.8,0.4-1.1,0.7L207.1,174.8z M211.7,178.2c-1.5,0-3.4,0.3-3.4,1.7
	c0,1.4,0.7,1.4,1.9,1.4c0.3,0,0.7,0,1-0.2c0.3-0.1,0.6-0.3,0.8-0.5c0.2-0.2,0.4-0.5,0.5-0.8s0.2-0.6,0.1-1v-0.5H211.7z"/>
<path class="st0" d="M218.2,168.6h-1.7v13.8h1.7V168.6z"/>
<path class="st0" d="M9.3,206.8H7.6v-1.3c-0.4,0.5-0.8,0.8-1.3,1.1c-0.5,0.3-1.1,0.4-1.7,0.4c-1.1-0.1-2.2-0.6-2.9-1.5
	c-0.8-0.8-1.2-1.9-1.2-3.1c0-1.1,0.4-2.2,1.2-3.1c0.8-0.8,1.8-1.4,2.9-1.5c0.6,0,1.2,0.1,1.7,0.4c0.5,0.3,1,0.6,1.3,1.1v-6.3h1.6
	V206.8z M7.6,202.5c0-0.4,0-0.8-0.1-1.1c-0.1-0.4-0.3-0.7-0.6-1c-0.3-0.3-0.6-0.5-1-0.7c-0.4-0.1-0.7-0.2-1.1-0.2
	c-0.7,0.1-1.4,0.4-1.9,1s-0.8,1.3-0.8,2c0,0.7,0.3,1.5,0.8,2c0.5,0.6,1.2,0.9,1.9,1c0.4,0,0.8-0.1,1.1-0.2c0.4-0.2,0.7-0.4,1-0.7
	c0.3-0.3,0.5-0.6,0.6-1C7.6,203.3,7.7,202.9,7.6,202.5z"/>
<path class="st0" d="M13,203.1c0.1,0.7,0.4,1.4,0.9,1.8c0.5,0.5,1.3,0.7,2,0.6c0.5,0,0.9-0.1,1.3-0.3c0.4-0.2,0.8-0.5,1-0.9l1.2,0.9
	c-0.5,0.6-1.1,1.1-1.8,1.4c-0.7,0.3-1.4,0.4-2.2,0.4c-0.6,0-1.2-0.1-1.7-0.3c-0.6-0.2-1.1-0.6-1.5-1c-0.4-0.4-0.7-0.9-0.9-1.5
	c-0.2-0.6-0.3-1.2-0.3-1.8c0-0.6,0.1-1.2,0.3-1.8c0.2-0.6,0.6-1.1,1-1.5c0.4-0.4,1-0.8,1.5-1c0.6-0.2,1.2-0.3,1.8-0.3
	c0.6,0,1.2,0,1.7,0.3c0.6,0.2,1.1,0.6,1.5,1c0.4,0.4,0.7,1,0.9,1.5c0.2,0.6,0.2,1.2,0.1,1.8v0.6H13z M18.1,201.8
	c0-0.3,0-0.6-0.1-0.9c-0.1-0.3-0.3-0.6-0.5-0.8c-0.2-0.2-0.5-0.4-0.8-0.5c-0.3-0.1-0.6-0.2-0.9-0.2c-0.7,0-1.3,0.2-1.8,0.7
	s-0.8,1.1-0.8,1.8H18.1z"/>
<path class="st0" d="M28.6,193.1H27v13.8h1.6V193.1z"/>
<path class="st0" d="M35.5,198c0.9,0,1.8,0.3,2.5,0.8c0.7,0.5,1.3,1.2,1.6,2.1c0.3,0.8,0.4,1.7,0.2,2.6s-0.6,1.7-1.3,2.3
	c-0.6,0.6-1.5,1-2.3,1.2c-0.9,0.2-1.8,0.1-2.6-0.3c-0.8-0.4-1.5-0.9-2-1.7c-0.5-0.7-0.7-1.6-0.7-2.5c0-0.6,0.1-1.2,0.4-1.7
	c0.2-0.6,0.6-1.1,1-1.5c0.4-0.4,0.9-0.7,1.5-1C34.3,198.1,34.9,198,35.5,198z M35.5,205.5c0.7-0.1,1.4-0.4,1.9-1
	c0.5-0.6,0.8-1.3,0.8-2c0-0.7-0.3-1.5-0.8-2c-0.5-0.6-1.2-0.9-1.9-1c-0.7,0.1-1.4,0.4-1.9,1c-0.5,0.6-0.8,1.3-0.8,2
	c0,0.7,0.3,1.5,0.8,2C34,205.1,34.7,205.4,35.5,205.5z"/>
<path class="st0" d="M46.6,200.4c-0.2-0.3-0.5-0.5-0.8-0.6c-0.3-0.2-0.6-0.2-1-0.2c-0.8,0-1.5,0.4-1.5,1c0,0.6,1.5,1.2,2.2,1.3
	c1.4,0.4,2.5,0.9,2.5,2.5c0,1.6-1.8,2.7-3.5,2.7c-0.6,0.1-1.3-0.1-1.9-0.3c-0.6-0.3-1.1-0.7-1.5-1.2l1.2-1c0.3,0.3,0.6,0.6,0.9,0.7
	c0.4,0.2,0.8,0.3,1.2,0.3c0.8,0,1.7-0.4,1.7-1.1c0-0.7-1.3-1.2-2-1.3c-1.4-0.3-2.6-0.8-2.6-2.4c0-1.7,1.7-2.6,3.3-2.6
	c0.6,0,1.1,0.1,1.7,0.3c0.5,0.2,1,0.6,1.3,1.1L46.6,200.4z"/>
<path class="st0" d="M55.6,193.9h4.5c3.3,0,3.9,2,3.9,3.6c0,0.9-0.3,1.7-0.9,2.3c-0.6,0.6-1.4,1-2.2,1.1l3.7,5.9h-2.2l-3.1-5.8h-2
	v5.7h-1.7V193.9z M57.3,199.6h2.3c1.4,0,2.8-0.3,2.8-2.1c0-1.8-1.4-2.1-2.8-2.1h-2.3V199.6z"/>
<path class="st0" d="M67.5,203.1c0,0.4,0.1,0.7,0.3,1c0.2,0.3,0.4,0.6,0.6,0.8c0.3,0.2,0.6,0.4,0.9,0.5c0.3,0.1,0.7,0.2,1,0.1
	c0.5,0,0.9-0.1,1.3-0.3c0.4-0.2,0.8-0.5,1-0.9l1.3,0.9c-0.5,0.6-1.1,1.1-1.8,1.4c-0.7,0.3-1.4,0.4-2.2,0.4c-0.6,0-1.2-0.1-1.8-0.3
	c-0.6-0.2-1.1-0.6-1.5-1c-0.4-0.4-0.7-0.9-1-1.5c-0.2-0.6-0.3-1.2-0.3-1.8c0-0.6,0.1-1.2,0.3-1.7c0.2-0.6,0.5-1.1,1-1.5
	s0.9-0.8,1.5-1c0.5-0.2,1.1-0.3,1.7-0.3c0.6,0,1.2,0,1.7,0.3c0.6,0.2,1.1,0.6,1.5,1c0.4,0.4,0.7,1,0.9,1.5c0.2,0.6,0.2,1.2,0.1,1.8
	v0.6H67.5z M72.7,201.8c0-0.3,0-0.7-0.2-1s-0.3-0.6-0.5-0.8c-0.2-0.2-0.5-0.4-0.8-0.5c-0.3-0.1-0.6-0.2-1-0.1
	c-0.7,0-1.3,0.3-1.8,0.7c-0.5,0.5-0.8,1.1-0.8,1.8H72.7z"/>
<path class="st0" d="M85,206.8c0,0.6-0.1,1.2-0.3,1.8c-0.2,0.6-0.6,1.1-1,1.5s-1,0.7-1.6,0.9c-0.6,0.2-1.2,0.3-1.8,0.2
	c-0.8,0-1.5-0.1-2.3-0.4c-0.7-0.3-1.4-0.7-2-1.2l1.1-1.4c0.4,0.4,0.8,0.8,1.4,1.1c0.5,0.2,1.1,0.4,1.7,0.4c0.4,0.1,0.8,0,1.2-0.1
	c0.4-0.1,0.8-0.3,1.1-0.6c0.3-0.3,0.5-0.6,0.7-1c0.1-0.4,0.2-0.8,0.2-1.2v-1.3c-0.3,0.5-0.8,0.9-1.3,1.2c-0.5,0.3-1.1,0.4-1.7,0.4
	c-0.6,0-1.2-0.1-1.7-0.3c-0.5-0.2-1-0.6-1.4-1c-0.4-0.4-0.7-0.9-0.9-1.5c-0.2-0.5-0.3-1.1-0.3-1.7c0-0.6,0.1-1.2,0.3-1.7
	c0.2-0.6,0.5-1.1,0.9-1.5c0.4-0.4,0.9-0.8,1.5-1c0.5-0.2,1.1-0.3,1.7-0.3c0.6,0,1.2,0.1,1.7,0.4c0.5,0.3,1,0.6,1.3,1.1v-1.3h1.7
	L85,206.8z M77.7,202.5c0,0.8,0.3,1.5,0.8,2c0.5,0.5,1.3,0.8,2,0.8c0.8,0,1.5-0.3,2-0.8c0.5-0.5,0.8-1.3,0.8-2c0-0.8-0.3-1.5-0.8-2
	c-0.5-0.5-1.3-0.8-2-0.8c-0.8,0-1.5,0.3-2,0.8C78,201,77.7,201.7,77.7,202.5z"/>
<path class="st0" d="M88.4,193.9c0.2,0,0.4,0,0.5,0c0.2,0,0.3,0.1,0.5,0.2c0.1,0.1,0.2,0.3,0.3,0.4c0.1,0.2,0.1,0.3,0.1,0.5
	s0,0.4-0.1,0.5c-0.1,0.2-0.2,0.3-0.3,0.4c-0.1,0.1-0.3,0.2-0.5,0.2c-0.2,0-0.4,0.1-0.5,0c-0.3-0.1-0.5-0.2-0.7-0.4
	c-0.2-0.2-0.3-0.5-0.3-0.8c0-0.3,0.1-0.6,0.3-0.8C87.9,194.1,88.1,194,88.4,193.9z M87.6,198.2h1.7v8.6h-1.7V198.2z"/>
<path class="st0" d="M96.4,200.4c-0.2-0.3-0.5-0.5-0.8-0.7c-0.3-0.2-0.7-0.2-1-0.2c-0.8,0-1.5,0.4-1.5,1s1.5,1.2,2.2,1.3
	c1.4,0.4,2.5,0.9,2.5,2.5c0,1.6-1.8,2.7-3.5,2.7c-0.6,0.1-1.3,0-1.9-0.3c-0.6-0.3-1.1-0.7-1.5-1.2l1.2-1c0.3,0.3,0.6,0.6,0.9,0.7
	c0.4,0.2,0.8,0.3,1.2,0.3c0.8,0,1.7-0.4,1.7-1.1c0-0.7-1.4-1.2-2.1-1.3c-1.4-0.3-2.6-0.8-2.6-2.4c0-1.7,1.7-2.6,3.3-2.6
	c0.6,0,1.1,0.1,1.6,0.3c0.5,0.2,0.9,0.6,1.3,1.1L96.4,200.4z"/>
<path class="st0" d="M104.5,199.6h-2.3v3.9c0,1,0,2,1.2,2c0.4,0,0.8-0.1,1.1-0.3v1.5c-0.5,0.2-1,0.3-1.5,0.3c-2.5,0-2.6-1.5-2.6-2.9
	v-4.5h-2v-1.4h1.9v-2.4h1.7v2.4h2.3L104.5,199.6z"/>
<path class="st0" d="M106.6,198.2h1.7v1.3c0.2-0.5,0.6-0.9,1.1-1.1c0.5-0.3,1-0.4,1.5-0.4h0.7v1.8h-0.8c-1.6,0-2.5,0.9-2.5,2.8v4.3
	h-1.7L106.6,198.2z"/>
<path class="st0" d="M117.2,198c0.9,0,1.8,0.3,2.5,0.8c0.7,0.5,1.3,1.2,1.6,2.1c0.3,0.8,0.4,1.7,0.2,2.6c-0.2,0.9-0.6,1.7-1.3,2.3
	c-0.6,0.6-1.5,1-2.3,1.2c-0.9,0.2-1.8,0.1-2.6-0.3c-0.8-0.4-1.5-0.9-2-1.7c-0.5-0.7-0.7-1.6-0.7-2.5c0-0.6,0.1-1.2,0.4-1.7
	c0.2-0.6,0.6-1.1,1-1.5c0.4-0.4,0.9-0.7,1.5-1C116,198.1,116.6,198,117.2,198z M117.2,205.5c0.7-0.1,1.4-0.4,1.9-1
	c0.5-0.6,0.8-1.3,0.8-2c0-0.7-0.3-1.5-0.8-2c-0.5-0.6-1.2-0.9-1.9-1c-0.7,0.1-1.4,0.4-1.9,1s-0.8,1.3-0.8,2c0,0.7,0.3,1.5,0.8,2
	C115.8,205.1,116.5,205.4,117.2,205.5z"/>
<path class="st0" d="M128.4,200.4c-0.2-0.3-0.5-0.5-0.8-0.6c-0.3-0.2-0.6-0.2-1-0.2c-0.8,0-1.5,0.4-1.5,1s1.5,1.2,2.2,1.3
	c1.4,0.4,2.5,0.9,2.5,2.5c0,1.6-1.8,2.7-3.5,2.7c-0.6,0.1-1.3,0-1.9-0.3c-0.6-0.3-1.1-0.7-1.5-1.2l1.2-1c0.3,0.3,0.6,0.6,0.9,0.7
	c0.4,0.2,0.8,0.3,1.2,0.3c0.8,0,1.7-0.4,1.7-1.1c0-0.7-1.3-1.2-2-1.3c-1.4-0.3-2.7-0.8-2.7-2.4c0-1.7,1.7-2.6,3.3-2.6
	c0.6,0,1.1,0.1,1.6,0.3c0.5,0.2,0.9,0.6,1.3,1.1L128.4,200.4z"/>
<path class="st0" d="M137.4,193.9h4.5c3.3,0,4.1,2,4.1,3.6c0,1.6-0.8,3.5-4.1,3.5h-2.8v5.7h-1.8L137.4,193.9z M139.1,199.6h2.3
	c1.4,0,2.8-0.3,2.8-2.1c0-1.8-1.4-2.1-2.8-2.1h-2.3V199.6z"/>
<path class="st0" d="M155.4,206.8h-1.7v-1.3c-0.3,0.5-0.7,0.9-1.2,1.2c-0.5,0.3-1.1,0.4-1.6,0.4c-0.4,0-0.9,0-1.3-0.2
	c-0.4-0.2-0.8-0.4-1.1-0.7c-0.3-0.3-0.5-0.7-0.7-1.1c-0.1-0.4-0.2-0.8-0.1-1.3v-5.6h1.6v5.1c0,1.6,0.9,2.2,2,2.2
	c1.1,0,2.4-0.9,2.4-2.9v-4.5h1.6L155.4,206.8z M152.3,193.9h2.3l-2.7,2.6h-1.5L152.3,193.9z"/>
<path class="st0" d="M157.9,193.2h1.6v6.4c0.4-0.5,0.8-0.8,1.3-1.1c0.5-0.3,1.1-0.4,1.7-0.4c1.1,0.1,2.2,0.6,2.9,1.5
	c0.8,0.8,1.2,1.9,1.2,3.1c0,1.1-0.4,2.2-1.2,3.1c-0.8,0.8-1.8,1.4-2.9,1.5c-0.6,0-1.2-0.1-1.7-0.4c-0.5-0.3-1-0.6-1.3-1.1v1.3h-1.6
	V193.2z M165.2,202.6c0-0.6-0.2-1.1-0.6-1.6c-0.3-0.5-0.8-0.8-1.3-1c-0.5-0.2-1.1-0.2-1.6-0.1c-0.5,0.1-1,0.4-1.4,0.8
	c-0.4,0.4-0.6,0.9-0.7,1.5c-0.1,0.6,0,1.1,0.2,1.6s0.6,1,1.1,1.3s1,0.5,1.6,0.5c0.4,0,0.8-0.1,1.2-0.2c0.4-0.1,0.7-0.4,1-0.7
	c0.3-0.3,0.5-0.6,0.6-1C165.2,203.4,165.2,203,165.2,202.6z"/>
<path class="st0" d="M170.8,193.1h-1.7v13.8h1.7V193.1z"/>
<path class="st0" d="M174.3,193.9c0.2,0,0.4,0,0.5,0c0.2,0,0.3,0.1,0.5,0.2c0.1,0.1,0.2,0.3,0.3,0.4c0.1,0.2,0.1,0.3,0.1,0.5
	s0,0.4-0.1,0.5c-0.1,0.2-0.2,0.3-0.3,0.4c-0.1,0.1-0.3,0.2-0.5,0.2c-0.2,0-0.4,0.1-0.5,0c-0.3-0.1-0.5-0.2-0.7-0.4
	c-0.2-0.2-0.3-0.5-0.3-0.8c0-0.3,0.1-0.6,0.3-0.8C173.7,194.1,174,194,174.3,193.9z M173.4,198.2h1.6v8.6h-1.6V198.2z"/>
<path class="st0" d="M183.8,200.5c-0.3-0.3-0.6-0.6-1-0.7c-0.4-0.2-0.8-0.2-1.2-0.2c-0.4,0-0.8,0.1-1.1,0.2
	c-0.3,0.2-0.7,0.4-0.9,0.7c-0.3,0.3-0.4,0.6-0.6,1c-0.1,0.4-0.2,0.8-0.1,1.1c0,0.4,0,0.8,0.1,1.1c0.1,0.4,0.3,0.7,0.6,1
	c0.3,0.3,0.6,0.5,0.9,0.6c0.3,0.2,0.7,0.2,1.1,0.2c0.4,0,0.8-0.1,1.2-0.3c0.4-0.2,0.7-0.4,1-0.7l1.1,1.2c-0.6,0.7-1.5,1.1-2.3,1.3
	c-0.9,0.2-1.8,0.1-2.7-0.2c-0.9-0.3-1.6-0.9-2.1-1.7c-0.5-0.8-0.8-1.7-0.8-2.6c0-0.6,0.1-1.2,0.3-1.8c0.2-0.6,0.5-1.1,1-1.5
	c0.4-0.4,0.9-0.8,1.5-1c0.6-0.2,1.2-0.3,1.8-0.3c0.6,0,1.2,0.1,1.8,0.3c0.6,0.2,1.1,0.6,1.5,1L183.8,200.5z"/>
<path class="st0" d="M190.6,198c0.9,0,1.8,0.3,2.5,0.8c0.7,0.5,1.3,1.2,1.7,2.1c0.3,0.8,0.4,1.7,0.2,2.6c-0.2,0.9-0.6,1.7-1.3,2.3
	c-0.6,0.6-1.5,1.1-2.3,1.2c-0.9,0.2-1.8,0.1-2.6-0.3c-0.8-0.4-1.5-0.9-2-1.7c-0.5-0.7-0.7-1.6-0.7-2.5c0-0.6,0.1-1.2,0.3-1.7
	c0.2-0.6,0.6-1.1,1-1.5c0.4-0.4,0.9-0.7,1.5-1C189.4,198.1,190,198,190.6,198z M190.6,205.5c0.6,0,1.2-0.1,1.7-0.4
	c0.5-0.3,0.9-0.8,1.2-1.3c0.3-0.5,0.3-1.2,0.3-1.8c-0.1-0.6-0.4-1.2-0.8-1.6c-0.4-0.4-1-0.8-1.5-0.9s-1.2-0.1-1.8,0.1
	c-0.6,0.2-1.1,0.6-1.4,1.1c-0.3,0.5-0.5,1.1-0.5,1.7c0,0.4,0,0.8,0.1,1.2c0.1,0.4,0.3,0.7,0.6,1c0.3,0.3,0.6,0.5,1,0.7
	C189.8,205.5,190.2,205.5,190.6,205.5z"/>
<path class="st0" d="M201.8,200.4c-0.2-0.3-0.5-0.5-0.8-0.6s-0.6-0.2-1-0.2c-0.8,0-1.4,0.4-1.4,1c0,0.6,1.5,1.2,2.2,1.3
	c1.4,0.4,2.5,0.9,2.5,2.5c0,1.6-1.8,2.7-3.5,2.7c-0.6,0.1-1.3,0-1.9-0.3c-0.6-0.3-1.1-0.7-1.5-1.2l1.2-1c0.3,0.3,0.6,0.6,1,0.7
	c0.4,0.2,0.8,0.3,1.2,0.3c0.8,0,1.7-0.4,1.7-1.1c0-0.7-1.4-1.2-2.1-1.3c-1.4-0.3-2.6-0.8-2.6-2.4c0-1.7,1.7-2.6,3.3-2.6
	c0.6,0,1.1,0.1,1.7,0.3c0.5,0.2,1,0.6,1.3,1.1L201.8,200.4z"/>
<path class="st1" d="M263.7,72.9l-10.5,2.8l-2.2-8.4l10.5-2.8L263.7,72.9z M258.6,53.7L248,56.6l-2.3-8.4l10.4-2.8L258.6,53.7z
	 M253.4,34.5l-10.6,2.8l-2.2-8.4l10.5-2.8L253.4,34.5z"/>
<path class="st1" d="M251.5,76.5l-9.5,5.4l-4.4-7.6l9.5-5.4L251.5,76.5z M241.5,59.1l-9.4,5.4l-4.3-7.5l9.4-5.4L241.5,59.1z
	 M231.6,41.9l-9.4,5.5l-4.4-7.6l9.5-5.4L231.6,41.9z M221.6,24.8l-9.4,5.4l-4.4-7.6l9.5-5.4L221.6,24.8z M211.7,7.5l-9.4,5.5
	l-4.4-7.6l9.5-5.4L211.7,7.5z"/>
<path class="st2" d="M290.5,166l9.5-5.4l4.4,7.5l-9.5,5.4L290.5,166z M300.4,183.2l9.4-5.5l4.3,7.6l-9.4,5.4L300.4,183.2z
	 M310.3,200.4l9.5-5.4l4.3,7.6l-9.4,5.4L310.3,200.4z M320.3,217.6l9.5-5.4l4.4,7.5l-9.5,5.4L320.3,217.6z"/>
<path class="st2" d="M301.4,159.4l7.9-7.9l6,6.2l-7.9,7.9L301.4,159.4z M315.5,173.5l7.9-7.9l6.2,6.1l-7.9,7.9L315.5,173.5z
	 M329.5,187.5l7.9-7.9l6.1,6.2l-7.7,7.9L329.5,187.5z"/>
<path class="st1" d="M310.2,150.2l5.4-9.4l7.5,4.3l-5.4,9.5L310.2,150.2z M327.4,160.2l5.5-9.5l7.5,4.4l-5.5,9.4L327.4,160.2z"/>
<path class="st1" d="M316.4,139.1l2.8-10.5l8.4,2.3l-2.8,10.5L316.4,139.1z M335.6,144.2l2.8-10.5l8.4,2.2l-2.8,10.5L335.6,144.2z
	 M354.7,149.3l2.8-10.5l8.4,2.2l-2.8,10.6L354.7,149.3z M373.9,154.5l2.8-10.5l8.4,2.2l-2.8,10.5L373.9,154.5z"/>
<path class="st1" d="M319.5,115.8h8.7v10.9h-8.7V115.8z M339.2,115.8h8.7v10.9h-8.6L339.2,115.8z M358.9,115.8h8.7v10.9h-8.4
	L358.9,115.8z M378.6,115.8h9.2v10.9h-8.7L378.6,115.8z M398.3,115.8h8.7v10.9h-8.7V115.8z"/>
<path class="st3" d="M319.2,113.9l-2.8-10.5l8.4-2.2l2.8,10.5L319.2,113.9z M338.4,108.8l-2.8-10.5L344,96l2.8,10.4L338.4,108.8z"/>
<path class="st3" d="M315.7,101.7l-5.4-9.5l7.5-4.4l5.4,9.5L315.7,101.7z M332.9,91.8l-5.4-9.5l7.5-4.4l5.4,9.5L332.9,91.8z
	 M350.1,81.8l-5.4-9.4l7.6-4.4l5.4,9.5L350.1,81.8z M367.3,71.9l-5.4-9.4l7.5-4.4l5.5,9.5L367.3,71.9z"/>
<path class="st4" d="M309.1,90.7l-7.9-7.9l6.1-6.2l7.9,7.7L309.1,90.7z M323.1,76.7l-7.9-7.7l6.2-6.2l7.7,7.9L323.1,76.7z
	 M337.2,62.7l-7.7-7.9l6.1-6.2l7.9,7.7L337.2,62.7z"/>
<path class="st4" d="M299.9,81.9l-9.4-5.4l4.3-7.6l9.5,5.5L299.9,81.9z M309.9,64.7l-9.5-5.6l4.4-7.5l9.4,5.4L309.9,64.7z
	 M319.8,47.5l-9.4-5.4l4.4-7.6l9.4,5.4L319.8,47.5z M329.8,30.3l-9.5-5.4l4.4-7.6l9.4,5.5L329.8,30.3z M339.7,13.1l-9.4-5.4l4.3-7.6
	l9.4,5.5L339.7,13.1z"/>
<path class="st2" d="M276.4,72.7h-10.9V64h10.9V72.7z M276.4,53h-10.9v-8.9h10.9V53z M276.4,33.3h-10.9v-9.1h10.9V33.3z M276.4,13.6
	h-10.9V4.3h10.9V13.6z"/>
<path class="st2" d="M288.8,75.8l-10.5-2.8l2.2-8.4l10.5,2.8L288.8,75.8z M293.9,56.6l-10.5-2.8l2.2-8.4l10.5,2.8L293.9,56.6z"/>
</svg>
