<svg width="16" height="18" viewBox="0 0 16 18" fill="none" xmlns="http://www.w3.org/2000/svg">
<path fill-rule="evenodd" clip-rule="evenodd" d="M15.2 5.27727C15.2204 5.31818 15.2409 5.35909 15.2818 5.4C15.3636 5.48182 15.3636 5.64545 15.3636 5.72727V15.5455C15.3636 16.9364 14.3 18 12.9091 18H3.0909C1.69999 18 0.636353 16.9364 0.636353 15.5455V2.45455C0.636353 1.06364 1.69999 0 3.0909 0H9.63635C9.71817 0 9.88181 0 9.96362 0.0818182C10.0454 0.0818182 10.1273 0.163636 10.2091 0.245455L15.1182 5.15455C15.1591 5.19545 15.1795 5.23636 15.2 5.27727ZM12.5815 4.90901L10.4542 2.78174V4.90901H12.5815ZM12.9087 16.3636H3.09054C2.59963 16.3636 2.27236 16.0364 2.27236 15.5455V2.45455C2.27236 1.96364 2.59963 1.63636 3.09054 1.63636H8.81782V5.72727C8.81782 6.21818 9.14509 6.54545 9.636 6.54545H13.7269V15.5455C13.7269 16.0364 13.3996 16.3636 12.9087 16.3636ZM4.72691 9H11.2724C11.7633 9 12.0905 9.32727 12.0905 9.81818C12.0905 10.3091 11.7633 10.6364 11.2724 10.6364H4.72691C4.236 10.6364 3.90872 10.3091 3.90872 9.81818C3.90872 9.32727 4.236 9 4.72691 9ZM11.2724 12.2727H4.72691C4.236 12.2727 3.90872 12.6 3.90872 13.0909C3.90872 13.5818 4.236 13.9091 4.72691 13.9091H11.2724C11.7633 13.9091 12.0905 13.5818 12.0905 13.0909C12.0905 12.6 11.7633 12.2727 11.2724 12.2727ZM6.36327 7.36364H4.72691C4.236 7.36364 3.90872 7.03636 3.90872 6.54545C3.90872 6.05455 4.236 5.72727 4.72691 5.72727H6.36327C6.85418 5.72727 7.18145 6.05455 7.18145 6.54545C7.18145 7.03636 6.85418 7.36364 6.36327 7.36364Z" fill="#283044"/>
</svg>
